<?xml version="1.0" encoding="utf-8"?>
<!-- Designed by Vexels.com - 2016 All Rights Reserved - https://vexels.com/terms-and-conditions/  -->

<svg version="1.1" id="Layer_1" xmlns="http://www.w3.org/2000/svg" xmlns:xlink="http://www.w3.org/1999/xlink" x="0px" y="0px"
	 width="1200px" height="1200px" viewBox="0 0 1200 1200" enable-background="new 0 0 1200 1200" xml:space="preserve">
<g>
	<polygon fill="#C0CCD1" points="448.788,50 1048.302,50 755.232,1150 151.699,1150 	"/>
	<polygon fill="#2B2023" points="466.181,72.738 1020.192,72.738 735.161,1131.255 179.79,1131.255 	"/>
	<g>
		<path fill="#FFFFFF" d="M517.324,104.911H486.01l7.457,14.503l-30.732,105.669h16.543c0,0,10.169-35.7,13.956-45.404
			c29.076,0.483,33.793-22.684,33.793-22.684s2.086-8.182,8.988-31.207C542.398,104.499,517.324,104.911,517.324,104.911z
			 M518.291,126.485c0,0-5.675,20.572-8.755,31.225c-3.061,10.634-12.049,7.072-12.049,7.072l12.999-45.137
			C521.603,119.414,518.291,126.485,518.291,126.485z"/>
		<path fill="#FFFFFF" d="M586.604,102.619c-8.988-1.182-16.302,3.08-16.302,3.08h-21.287l7.108,13.23
			c0,0-16.141,56.398-25.066,84.149c-8.38,26.05,14.251,24.797,14.251,24.797c23.167,0.376,28.763-20.052,28.763-20.052
			s16.087-52.96,23.642-77.309C605.286,106.164,595.583,103.801,586.604,102.619z M582.109,122.242l-23.866,82.269
			c0,0-2.569,9.203-7.707,9.203c-6.392,0.017-2.695-9.435-2.695-9.435l24.117-81.087c0,0,1.02-6.088,6.123-6.195
			C584.867,116.854,582.109,122.242,582.109,122.242z"/>
		<path fill="#FFFFFF" d="M649.859,105.448h-37.751l7.009,13.464l-31.493,106.636h17.259l17.081-57.884
			c10.626,0.77,7.582,10.062,7.582,10.062l-14.412,47.427l17.08-0.179c0,0,10.626-34.716,12.328-43.077
			c1.71-8.344,5.685-15.559-0.376-20.858c5.487-0.949,9.292-7.985,9.292-7.985s3.035-9.274,8.156-29.202
			C666.733,103.927,649.859,105.448,649.859,105.448z M644.926,125.555c0,0-4.369,14.609-7.771,23.902
			c-3.419,9.292-12.157,6.839-12.157,6.839s10.16-36.56,11.002-36.613C648.533,118.715,644.926,125.555,644.926,125.555z"/>
		<polygon fill="#FFFFFF" points="672.623,105.054 724.034,105.054 719.487,121.383 705.253,121.383 673.948,225.154 
			657.064,225.154 687.42,121.186 679.059,121.186 		"/>
		<path fill="#FFFFFF" d="M733.711,105.251h28.834l-31.117,104.721c0,0,22.013-0.18,21.825,0
			c-0.189,0.196-4.754,15.379-4.754,15.379h-38.502l30.732-106.063C740.729,119.288,733.335,105.251,733.711,105.251z"/>
		<path fill="#FFFFFF" d="M796.321,105.054l8.352,14.234l-42.889,106.439h15.379l13.84-32.818h11.575c0,0-5.881,32.818-6.454,32.818
			c0.546,0,17.465,0,17.465,0l22.568-120.673C836.157,105.054,796.894,105.054,796.321,105.054z M806.383,177.53h-9.873
			c0,0,19.345-50.65,19.918-51.026L806.383,177.53z"/>
		<polygon fill="#FFFFFF" points="853.623,105.448 890.8,105.251 873.729,207.519 903.888,105.448 917.737,105.448 882.448,225.351 
			857.221,225.351 873.729,122.887 843.561,224.975 829.345,224.975 861.008,118.912 		"/>
		<path fill="#FFFFFF" d="M960.813,105.448h-34.725l7.583,13.661l-31.305,106.242c0,0,3.983,0.197,24.295-0.197
			c20.304-0.376,27.51-21.234,27.51-21.234s12.704-42.701,21.243-72.475C983.954,101.653,960.813,105.448,960.813,105.448z
			 M959.48,125.555c0,0-20.303,70.201-23.338,78.365c-3.034,8.147-7.779,6.821-7.779,6.821l-3.984,0.197l26.946-91.829
			C962.327,118.715,959.48,125.555,959.48,125.555z"/>
	</g>
	<g>
		<g>
			<path fill="#C0CCD1" d="M612.77,261.231l-10.081-0.627c0,0-100.862,79.44-127.977,101.498
				c-27.106,22.057-78.16,78.795-76.271,170.195c1.898,91.417,58.636,153.186,85.733,168.315
				c10.089-11.333,18.907-20.178,18.907-20.178s-76.271-51.688-76.271-146.239c-1.262-62.395,16.391-104.648,58.618-144.986
				C527.673,348.853,612.77,261.231,612.77,261.231z"/>
			<path fill="#C0CCD1" d="M658.165,262.502L494.263,398.661c0,0-57.364,46.014-56.102,133.636
				c2.515,70.613,42.862,117.253,73.128,139.954c12.596-12.604,18.898-19.533,18.898-19.533s-67.445-49.182-66.818-122.929
				c0.627-73.764,43.497-106.546,69.978-133.008c26.471-26.48,134.906-134.28,134.906-134.28H658.165z"/>
			<path fill="#C0CCD1" d="M711.735,263.129L545.325,404.963c0,0-65.564,46.031-66.191,116
				c-0.635,69.969,35.298,107.156,62.404,119.76c15.765-14.484,15.765-14.484,15.765-14.484s-56.953-38.619-52.96-104.648
				c1.889-37.813,23.956-65.564,49.183-90.773c25.209-25.227,168.306-168.316,168.306-168.316L711.735,263.129z"/>
			<path fill="#C0CCD1" d="M765.956,263.129L559.192,445.319c-3.697,3.867-45.466,37.276-42.235,90.773c0,0,0,47.284,51.062,78.795
				c11.978-12.604,18.916-18.907,18.916-18.907s-43.685-23.418-43.963-64.633c-0.287-42.128,29.461-61.447,64.123-96.127
				c34.671-34.662,170.839-171.466,170.839-171.466L765.956,263.129z"/>
			<path fill="#C0CCD1" d="M821.423,263.129L579.997,480.608c0,0-26.471,18.28-23.338,55.484
				c3.16,37.187,40.982,49.164,40.982,49.164l18.28-17.026c0,0-33.132-11.817-32.845-36.882
				c0.224-20.822,11.414-29.309,40.419-58.295c28.995-29.005,212.43-211.177,212.43-211.177L821.423,263.129z"/>
		</g>
	</g>
	<g>
		<g>
			<path fill="#E62D3C" d="M625.813,797.847l10.071,0.627c0,0,100.871-79.422,127.969-101.479
				c27.115-22.058,78.177-78.814,76.28-170.195c-1.889-91.418-58.617-153.204-85.733-168.333
				c-10.089,11.351-18.907,20.178-18.907,20.178s76.271,51.688,76.271,146.257c1.262,62.396-16.382,104.631-58.618,144.986
				C710.901,710.226,625.813,797.847,625.813,797.847z"/>
			<path fill="#E62D3C" d="M580.418,796.576L744.31,660.417c0,0,57.373-46.013,56.102-133.617
				c-2.515-70.614-42.862-117.271-73.12-139.955c-12.604,12.604-18.916,19.533-18.916,19.533s67.462,49.164,66.818,122.929
				c-0.618,73.746-43.48,106.529-69.959,133.009c-26.48,26.479-134.916,134.261-134.916,134.261H580.418z"/>
			<path fill="#E62D3C" d="M526.831,795.967l166.425-141.853c0,0,65.556-46.013,66.183-115.981
				c0.644-69.968-35.307-107.156-62.396-119.777c-15.755,14.502-15.755,14.502-15.755,14.502s56.934,38.619,52.942,104.648
				c-1.898,37.813-23.946,65.546-49.164,90.774c-25.227,25.209-168.316,168.296-168.316,168.296L526.831,795.967z"/>
			<path fill="#E62D3C" d="M472.618,795.967l206.764-182.191c3.688-3.867,45.466-37.293,42.244-90.773c0,0,0-47.284-51.063-78.795
				c-11.977,12.604-18.915,18.907-18.915,18.907s43.676,23.418,43.963,64.633c0.277,42.11-29.47,61.446-64.141,96.109
				c-34.671,34.68-170.83,171.465-170.83,171.465L472.618,795.967z"/>
			<path fill="#E62D3C" d="M417.151,795.967l241.435-217.497c0,0,26.48-18.281,23.311-55.467
				c-3.142-37.204-40.974-49.164-40.974-49.164l-18.27,17.009c0,0,33.122,11.834,32.836,36.9
				c-0.224,20.804-11.404,29.291-40.4,58.295c-29.014,29.004-212.439,211.177-212.439,211.177L417.151,795.967z"/>
		</g>
	</g>
	<g>
		<path fill="#E62D3C" d="M459.467,834.389l-33.927-0.25l5.702,9.507l-29.845,110.593h15.89l15.693-58.851
			c10.546,0.161,7.663,7.842,7.663,7.842l-13.938,50.615l15.711-0.179c0,0,9.766-34.716,11.333-43.078
			c1.567-8.343,5.335-15.361-0.994-20.571c6.114,0.018,8.871-8.003,8.871-8.003s2.202-9.794,7.833-29.47
			C475.062,832.939,459.467,834.389,459.467,834.389z M454.911,850.342c0,0-4.754,18.512-7.789,27.948
			c-2.524,7.788-11.754,6.105-11.754,6.105s11.038-41.054,11.87-41.125C458.268,842.178,454.911,850.342,454.911,850.342z"/>
		<path fill="#E62D3C" d="M651.156,974.703l-33.928-0.251l5.703,9.508l-29.846,110.592h15.881l15.711-58.868
			c10.536,0.18,7.653,7.861,7.653,7.861l-13.938,50.632l15.702-0.197c0,0,9.767-34.716,11.351-43.059
			c1.567-8.361,5.335-15.379-0.994-20.607c6.105,0.036,8.872-8.004,8.872-8.004s2.184-9.776,7.815-29.451
			C666.75,973.27,651.156,974.703,651.156,974.703z M646.6,990.655c0,0-4.745,18.513-7.788,27.93
			c-2.515,7.806-11.755,6.123-11.755,6.123s11.02-41.054,11.871-41.143C649.974,982.491,646.6,990.655,646.6,990.655z"/>
		<polygon fill="#E62D3C" points="350.549,833.494 395.479,833.494 389.938,844.273 378.72,844.273 349.76,954.239 334.131,954.239 
			363.368,844.434 356.556,844.434 		"/>
		<path fill="#E62D3C" d="M660.914,834.175l23.678-0.823l-29.658,110.019c0,0,15.809,0.716,15.683,0.949
			c-1.128,2.131-2.614,10.08-2.614,10.08h-31.359l29.677-110.145C666.321,844.255,660.529,834.175,660.914,834.175z"/>
		<path fill="#E62D3C" d="M331.222,974.112l23.535-0.143l-29.506,109.357c0,0,15.809,0.698,15.675,0.931
			c-1.119,2.13-2.605,10.08-2.605,10.08h-31.368l29.685-110.146C336.637,984.191,330.837,974.112,331.222,974.112z"/>
		<path fill="#E62D3C" d="M516.268,833.853l4.978,9.023l-40.937,111.685h14.188l10.823-30.418l11.637-0.197
			c0,0-6.436,30.634-6.956,30.634c0.501,0,16.203-0.107,16.203-0.107l21.888-120.619
			C548.092,833.853,516.787,833.853,516.268,833.853z M518.944,912.809h-9.14c0,0,20.402-57.131,20.93-57.507L518.944,912.809z"/>
		<path fill="#E62D3C" d="M407.438,974.076l4.968,9.042l-40.919,111.667h14.179l10.823-30.419l11.646-0.196
			c0,0-6.436,30.634-6.973,30.634c0.501,0,16.221-0.108,16.221-0.108l21.878-120.619
			C439.263,974.076,407.967,974.076,407.438,974.076z M410.115,1053.032h-9.148c0,0,20.419-57.131,20.939-57.507L410.115,1053.032z"
			/>
		<polygon fill="#E62D3C" points="594.83,833.799 616.852,833.799 585.682,954.399 570.177,954.399 599.485,843.879 		"/>
		<path fill="#E62D3C" d="M277.949,974.13h-28.297l4.932,9.686l-29.434,110.36c0,0,7.788,0.197,23.552,0.573
			c15.765,0.376,19.945-11.387,19.945-11.387s6.454-26.409,9.677-35.916c3.231-9.489,2.292-13.285-2.659-17.08
			c4.557-1.343,9.319-7.985,9.319-7.985s5.318-17.278,9.302-33.624C298.278,972.429,277.949,974.13,277.949,974.13z
			 M264.09,1040.428c0,0-8.557,35.897-10.259,40.463c-1.71,4.548-4.18,4.368-4.18,4.368l-7.028,0.377l13.84-49.702
			c-0.017-0.018-0.017-0.036,0.027-0.072l-0.027,0.072c0.161,0.143,2.579-0.556,5.147,0.107
			C264.458,1036.812,264.09,1040.428,264.09,1040.428z M278.145,989.527c0,0-4.941,19.372-7.788,28.485
			c-2.846,9.113-11.977,7.412-11.977,7.412l11.781-41.233l5.317-0.376C279.667,984.191,278.145,989.527,278.145,989.527z"/>
		<polygon fill="#E62D3C" points="475.304,973.951 517.655,973.951 466.378,1083.917 488.597,1084.293 485.562,1094.749 
			445.296,1094.928 495.821,984.961 480.621,984.961 		"/>
		<polygon fill="#E62D3C" points="548.62,974.327 588.519,974.327 585.86,984.389 568.753,984.389 558.127,1024.852 
			573.703,1024.852 570.651,1036.042 554.708,1036.042 541.978,1083.738 559.64,1083.738 556.408,1094.928 523.357,1094.928 
			553.374,983.261 		"/>
		<path fill="#E62D3C" d="M694.699,974.327h30.195c0,0,16.91-1.146,12.721,15.952c-4.172,17.098-5.694,20.142-5.694,20.142h-15.388
			l6.839-23.186c0,0,1.719-5.318-4.181-5.496c-5.881-0.197-5.881,4.548-6.266,6.642c-0.376,2.095-3.607,13.302-3.607,13.302
			s-2.086,6.249,3.419,18.782c5.506,12.55,6.651,18.244,6.651,18.244s3.035,9.31,0.761,17.475
			c-2.283,8.181-6.651,24.313-6.651,24.313s-4.556,14.055-19.944,15.397c-15.389,1.325-23.374-2.847-19.945-17.295
			c3.419-14.43,7.036-26.785,7.036-26.785h15.182l-7.967,27.93c0,0-2.659,7.036,3.41,7.018c5.703,0,6.992-7.538,6.992-7.538
			l6.508-24.564c0,0,1.719-6.821-3.232-17.08c-4.601-9.507-6.087-15.773-6.087-15.773s-5.299-14.073,4.109-38.637
			C696.73,977.639,694.699,974.327,694.699,974.327z"/>
	</g>
	<g>
		<linearGradient id="SVGID_1_" gradientUnits="userSpaceOnUse" x1="441.81" y1="830.699" x2="441.81" y2="982.5078">
			<stop  offset="0" style="stop-color:#FFFFFF"/>
			<stop  offset="1" style="stop-color:#8C8C8C"/>
		</linearGradient>
		<path fill="url(#SVGID_1_)" d="M465.251,834.389l-33.928-0.25l5.694,9.507L407.17,954.239h15.89l15.702-58.851
			c10.537,0.161,7.654,7.842,7.654,7.842l-13.938,50.615l15.702-0.179c0,0,9.775-34.716,11.342-43.078
			c1.584-8.343,5.344-15.361-0.994-20.571c6.132,0.018,8.88-8.003,8.88-8.003s2.194-9.794,7.824-29.47
			C480.845,832.939,465.251,834.389,465.251,834.389z M460.694,850.342c0,0-4.753,18.512-7.797,27.948
			c-2.515,7.788-11.754,6.105-11.754,6.105s11.029-41.054,11.87-41.125C464.041,842.178,460.694,850.342,460.694,850.342z"/>
		<linearGradient id="SVGID_2_" gradientUnits="userSpaceOnUse" x1="370.5834" y1="830.6935" x2="370.5834" y2="982.5068">
			<stop  offset="0" style="stop-color:#FFFFFF"/>
			<stop  offset="1" style="stop-color:#8C8C8C"/>
		</linearGradient>
		<polygon fill="url(#SVGID_2_)" points="356.323,833.494 401.262,833.494 395.72,844.273 384.504,844.273 355.535,954.239 
			339.905,954.239 369.142,844.434 362.338,844.434 		"/>
		<linearGradient id="SVGID_3_" gradientUnits="userSpaceOnUse" x1="666.3921" y1="830.704" x2="666.3921" y2="982.5053">
			<stop  offset="0" style="stop-color:#FFFFFF"/>
			<stop  offset="1" style="stop-color:#8C8C8C"/>
		</linearGradient>
		<path fill="url(#SVGID_3_)" d="M666.697,834.175l23.669-0.823l-29.658,110.019c0,0,15.81,0.716,15.694,0.949
			c-1.128,2.131-2.624,10.08-2.624,10.08h-31.359l29.694-110.145C672.113,844.255,666.303,834.175,666.697,834.175z"/>
		<linearGradient id="SVGID_4_" gradientUnits="userSpaceOnUse" x1="519.9783" y1="830.703" x2="519.9783" y2="982.5089">
			<stop  offset="0" style="stop-color:#FFFFFF"/>
			<stop  offset="1" style="stop-color:#8C8C8C"/>
		</linearGradient>
		<path fill="url(#SVGID_4_)" d="M522.042,833.853l4.968,9.023l-40.92,111.685h14.18l10.823-30.418l11.646-0.197
			c0,0-6.437,30.634-6.974,30.634c0.51,0,16.212-0.107,16.212-0.107l21.888-120.619C553.866,833.853,522.57,833.853,522.042,833.853
			z M524.736,912.809h-9.158c0,0,20.402-57.131,20.93-57.507L524.736,912.809z"/>
		<linearGradient id="SVGID_5_" gradientUnits="userSpaceOnUse" x1="599.2969" y1="830.7064" x2="599.2969" y2="982.5062">
			<stop  offset="0" style="stop-color:#FFFFFF"/>
			<stop  offset="1" style="stop-color:#8C8C8C"/>
		</linearGradient>
		<polygon fill="url(#SVGID_5_)" points="600.595,833.799 622.635,833.799 591.456,954.399 575.959,954.399 605.268,843.879 		"/>
	</g>
	<g>
		<linearGradient id="SVGID_6_" gradientUnits="userSpaceOnUse" x1="633.4975" y1="972.3878" x2="633.4975" y2="1146.2446">
			<stop  offset="0" style="stop-color:#FFFFFF"/>
			<stop  offset="1" style="stop-color:#8C8C8C"/>
		</linearGradient>
		<path fill="url(#SVGID_6_)" d="M656.939,974.703l-33.928-0.251l5.693,9.508l-29.845,110.592h15.89l15.702-58.868
			c10.536,0.18,7.653,7.861,7.653,7.861l-13.938,50.632l15.711-0.197c0,0,9.766-34.716,11.342-43.059
			c1.567-8.361,5.335-15.379-0.994-20.607c6.114,0.036,8.872-8.004,8.872-8.004s2.193-9.776,7.824-29.451
			C672.524,973.27,656.939,974.703,656.939,974.703z M652.382,990.655c0,0-4.753,18.513-7.796,27.93
			c-2.516,7.806-11.755,6.123-11.755,6.123s11.03-41.054,11.879-41.143C655.748,982.491,652.382,990.655,652.382,990.655z"/>
		<linearGradient id="SVGID_7_" gradientUnits="userSpaceOnUse" x1="336.6286" y1="972.3924" x2="336.6286" y2="1146.23">
			<stop  offset="0" style="stop-color:#FFFFFF"/>
			<stop  offset="1" style="stop-color:#8C8C8C"/>
		</linearGradient>
		<path fill="url(#SVGID_7_)" d="M336.996,974.112l23.535-0.143l-29.506,109.357c0,0,15.809,0.698,15.684,0.931
			c-1.128,2.13-2.613,10.08-2.613,10.08h-31.368l29.685-110.146C342.411,984.191,336.611,974.112,336.996,974.112z"/>
		<linearGradient id="SVGID_8_" gradientUnits="userSpaceOnUse" x1="411.1443" y1="972.3869" x2="411.1443" y2="1146.2411">
			<stop  offset="0" style="stop-color:#FFFFFF"/>
			<stop  offset="1" style="stop-color:#8C8C8C"/>
		</linearGradient>
		<path fill="url(#SVGID_8_)" d="M413.212,974.076l4.968,9.042l-40.92,111.667h14.18l10.832-30.419l11.637-0.196
			c0,0-6.437,30.634-6.965,30.634c0.501,0,16.212-0.108,16.212-0.108l21.869-120.619
			C445.028,974.076,413.74,974.076,413.212,974.076z M415.898,1053.032h-9.149c0,0,20.402-57.131,20.939-57.507L415.898,1053.032z"
			/>
		<linearGradient id="SVGID_9_" gradientUnits="userSpaceOnUse" x1="265.755" y1="972.3877" x2="265.755" y2="1146.238">
			<stop  offset="0" style="stop-color:#FFFFFF"/>
			<stop  offset="1" style="stop-color:#8C8C8C"/>
		</linearGradient>
		<path fill="url(#SVGID_9_)" d="M283.731,974.13h-28.306l4.942,9.686l-29.443,110.36c0,0,7.788,0.197,23.552,0.573
			c15.764,0.376,19.945-11.387,19.945-11.387s6.455-26.409,9.686-35.916c3.232-9.489,2.283-13.285-2.658-17.08
			c4.557-1.343,9.31-7.985,9.31-7.985s5.318-17.278,9.311-33.624C304.052,972.429,283.731,974.13,283.731,974.13z M269.856,1040.428
			c0,0-8.541,35.897-10.25,40.463c-1.701,4.548-4.181,4.368-4.181,4.368l-7.018,0.377l13.84-49.702
			c-0.018-0.018-0.018-0.036,0.017-0.072l-0.017,0.072c0.152,0.143,2.569-0.556,5.147,0.107
			C270.24,1036.812,269.856,1040.428,269.856,1040.428z M283.919,989.527c0,0-4.933,19.372-7.788,28.485
			c-2.855,9.113-11.96,7.412-11.96,7.412l11.772-41.233l5.309-0.376C285.432,984.191,283.919,989.527,283.919,989.527z"/>
		<linearGradient id="SVGID_10_" gradientUnits="userSpaceOnUse" x1="487.2541" y1="972.3983" x2="487.2541" y2="1146.217">
			<stop  offset="0" style="stop-color:#FFFFFF"/>
			<stop  offset="1" style="stop-color:#8C8C8C"/>
		</linearGradient>
		<polygon fill="url(#SVGID_10_)" points="481.086,973.951 523.438,973.951 472.152,1083.917 494.389,1084.293 491.346,1094.749 
			451.07,1094.928 501.604,984.961 486.404,984.961 		"/>
		<linearGradient id="SVGID_11_" gradientUnits="userSpaceOnUse" x1="561.7121" y1="972.3937" x2="561.7121" y2="1146.2213">
			<stop  offset="0" style="stop-color:#FFFFFF"/>
			<stop  offset="1" style="stop-color:#8C8C8C"/>
		</linearGradient>
		<polygon fill="url(#SVGID_11_)" points="554.403,974.327 594.293,974.327 591.625,984.389 574.536,984.389 563.901,1024.852 
			579.477,1024.852 576.443,1036.042 560.482,1036.042 547.752,1083.738 565.423,1083.738 562.191,1094.928 529.131,1094.928 
			559.147,983.261 		"/>
		<linearGradient id="SVGID_12_" gradientUnits="userSpaceOnUse" x1="711.3315" y1="972.394" x2="711.3315" y2="1146.2439">
			<stop  offset="0" style="stop-color:#FFFFFF"/>
			<stop  offset="1" style="stop-color:#8C8C8C"/>
		</linearGradient>
		<path fill="url(#SVGID_12_)" d="M700.472,974.327h30.195c0,0,16.91-1.146,12.73,15.952c-4.19,17.098-5.693,20.142-5.693,20.142
			h-15.398l6.848-23.186c0,0,1.711-5.318-4.18-5.496c-5.891-0.197-5.891,4.548-6.276,6.642c-0.376,2.095-3.607,13.302-3.607,13.302
			s-2.086,6.249,3.419,18.782c5.524,12.55,6.661,18.244,6.661,18.244s3.034,9.31,0.752,17.475
			c-2.273,8.181-6.651,24.313-6.651,24.313s-4.557,14.055-19.945,15.397c-15.388,1.325-23.355-2.847-19.944-17.295
			c3.428-14.43,7.027-26.785,7.027-26.785h15.209l-7.993,27.93c0,0-2.65,7.036,3.428,7.018c5.703,0,6.992-7.538,6.992-7.538
			l6.499-24.564c0,0,1.736-6.821-3.232-17.08c-4.592-9.507-6.078-15.773-6.078-15.773s-5.299-14.073,4.1-38.637
			C702.513,977.639,700.472,974.327,700.472,974.327z"/>
	</g>
</g>
</svg>
