<?xml version="1.0" encoding="utf-8"?>
<!-- Designed by Vexels.com - 2016 All Rights Reserved - https://vexels.com/terms-and-conditions/  -->

<svg version="1.1" id="Layer_1" xmlns="http://www.w3.org/2000/svg" xmlns:xlink="http://www.w3.org/1999/xlink" x="0px" y="0px"
	 width="1200px" height="1200px" viewBox="0 0 1200 1200" enable-background="new 0 0 1200 1200" xml:space="preserve">
<g>
	<path fill="#B9CDCD" d="M447.362,55.36c0,0-76.308,31.794-102.546,118.447c-25.434,79.489,15.106,120.831,43.728,144.683
		c28.622,23.852,55.637,42.129,55.637,42.129s-42.916-10.326-52.457-11.13c-9.54-0.787-23.039,0.051-13.516,23.048
		c9.822,23.766,20.662,35.786,20.662,35.786H281.221l120.831,280.612H243.861l-46.9,69.948v252.007l49.276,65.981h321.955
		L600.782,1150l31.802-73.128h321.955l48.499-69.161V757.293l-46.105-66.767H799.529L921.164,407.52H805.889
		c0,0,15.902-24.639,19.081-38.163c3.18-13.508,1.984-23.647-20.072-20.073c-22.065,3.591-44.131,9.541-44.131,9.541
		s102.554-59.621,103.751-126.388c1.189-66.768-41.736-148.462-110.898-177.666c13.713,18.484,50.08,77.506,59.022,106.119
		c-7.147-6.557-17.884-10.13-17.884-10.13S754.219,55.95,683.861,50.59c22.056,15.499,58.424,60.818,67.375,83.473
		c-23.262-7.156-58.432-11.328-79.292-9.532c20.859,8.925,90.619,40.531,95.389,45.891c3.574,19.679,29.811,119.258-56.637,168.141
		c1.787-27.425-9.549-107.922-85.259-122.815c19.081,21.458,65.588,84.054,35.17,138.904c-22.056-5.95-80.489-12.516-119.839-0.599
		c-7.147-23.834-26.228-61.997,37.564-138.912c-33.392,5.36-88.833,37.573-87.644,121.626
		c-20.269-12.516-83.473-57.227-56.039-166.936c40.54-22.065,88.833-44.121,95.381-45.301c-18.474-4.779-74.513,7.746-82.266,10.122
		c4.77-11.917,41.736-61.997,69.153-84.652c-23.245,2.377-75.12,22.655-109.102,100.759c-7.147,2.975-20.269,8.942-20.269,8.942
		S413.781,95.909,447.362,55.36z"/>
	<path fill="#0D4427" d="M949.17,702.254c0,0-142.494-1.795-174.682,0c-7.754-10.737-30.409-42.334-44.121-47.703
		c-1.197-20.859-21.467-49.481-32.794-51.858c2.385-12.533,1.795-42.335-4.172-58.441c-10.737,4.77-26.228,26.827-30.409,45.31
		c-7.156-17.885,13.122-45.909,20.868-51.26c7.754-5.369,13.114-13.729,13.114-22.655c0-8.959-4.171-17.901-2.385-20.278
		c4.18-5.369,11.926-25.63,9.549-36.367c63.194,9.524,100.16-63.211,109.102-84.67c8.942-21.457,3.573-17.884-17.286-14.909
		c-35.777,4.189-67.375,20.278-76.326,28.024c-8.934,7.762-16.687,17.286-22.655,10.738c-5.949-6.566,3.582-15.508,8.344-17.885
		c4.77-2.394,47.104-20.877,98.381-63.81c70.359-60.202,53.654-110.88,42.335-146.658c-11.336-35.769-40.54-71.547-67.375-89.431
		c29.212,33.991,47.695,97.783,47.695,97.783s-20.269-14.311-37.564-22.655c-3.573-16.106-41.138-72.154-75.12-91.226
		c22.065,16.696,50.088,70.349,51.268,83.464c-17.885-7.746-54.244-13.115-54.244-13.115s38.154,17.286,64.383,31.016
		c28.024,125.192-39.342,168.723-75.71,186.01c8.942-67.367-22.065-101.939-50.089-120.439
		c42.334,57.843,31.605,105.529,17.295,135.348c-56.646-22.655-120.438-6.566-130.577,0
		c-29.802-55.449-3.573-112.095,18.483-135.348c-54.85,21.476-56.629,103.152-54.85,121.636
		c-99.562-53.671-79.891-158.601-72.735-187.206c14.901-14.319,59.022-30.417,59.022-30.417s-32.786,5.967-50.679,13.114
		c5.369-19.671,30.417-62.595,54.85-83.463c-52.465,26.835-78.103,92.423-78.103,92.423s-24.442,9.524-36.367,20.261
		c3.573-41.736,46.507-98.381,46.507-98.381s-23.853,14.31-50.679,53.072c-30.554,44.138-31.597,88.225-22.655,114.47
		c17.885,63.195,111.702,117.429,130.92,125.294c20.808,8.532,30.742,15.542,28.357,22.689c-2.385,7.147-13.345,6.617-27.519-8.464
		c-16.585-17.679-61.946-22.757-84.635-29.34c-18.483-5.369-10.396,11.336-10.396,11.336s10.977,28.126,32.435,57.347
		c29.811,41.138,81.677,36.367,81.677,36.367s-2.377,19.679,9.54,35.187c-7.147,33.375-1.197,33.375,4.172,37.548
		c35.179,27.425,26.835,51.875,22.655,53.072c-1.787-12.516-14.901-30.418-28.614-45.31c-6.557,10.72-6.557,41.736-2.983,58.424
		c-10.729,5.369-32.195,27.425-32.195,49.481c-17.287,12.516-42.335,51.278-42.335,51.278H252.205l-42.933,58.424v245.647
		l43.532,58.424h695.778l42.326-60.219V760.679L949.17,702.254z M799.067,184.143c0,0,25.869,20.662,25.494,45.318
		c-0.222,15.491-9.746,39.736-26.622,52.457C808.061,242.968,799.067,184.143,799.067,184.143z M377.011,229.461
		c-0.402-24.655,27.023-45.318,27.023-45.318s-9.54,58.825,1.198,97.775C387.339,269.197,377.26,244.951,377.011,229.461z"/>
	<path fill="#D9182C" d="M300.242,422.361h97.81c0,0,29.571,50.046,89.277,51.756c4.557,17.046,8.532,22.74,8.532,22.74
		s-10.806,21.612-2.274,38.659c-3.411,15.354-6.257,47.207-3.411,59.141c-12.516,6.258-30.708,32.982-30.144,48.336
		c-25.587,22.741-37.53,44.933-37.53,44.933h-5.685L300.242,422.361z"/>
	<g>
		<g>
			<g>
				<g>
					<path fill="#D9182C" d="M277.818,734.638l-41.548,52.098l30.247,0.581v190.985l-15.867,0.018l-2.633,5.266
						c-2.702,5.386-0.043,9.199,4.36,15.526c2.326,3.317,5.471,7.677,8.635,12.003c6.257,8.566,12.567,17.012,12.567,17.012
						l2.864,3.83h87.413l23.886-36.077v-93.286l-2.564-2.753c-4.121-4.411-8.815-9.609-11.85-13.148
						c3.18-5.181,8.447-13.593,13.346-21.356l1.461-2.342V773.45l-30.759-38.813H277.818z M336.814,976.541h-19.355v-60.219h19.355
						V976.541z M336.814,864.703h-19.355v-75.795h19.355V864.703z"/>
				</g>
			</g>
			<g>
				<path fill="#D9182C" d="M477.847,837.056l5.685-0.12v140.169h-20.269V837.996h6.754v-52.08h-73.35l12.601,51.67h4.668
					c-0.068,14.482-0.188,43.344-0.257,72.222c-0.051,20.484-0.077,41.001-0.034,56.441c0.068,29.528,0.068,29.63,3.078,32.657
					c2.154,2.958,10.72,16.5,18.158,28.537l2.795,4.514h73.3l23.432-36.128V838.389h2.599l10.712-51.67h-71.024L477.847,837.056z"/>
			</g>
			<g>
				<path fill="#D9182C" d="M486.713,828.455"/>
			</g>
			<g>
				<path fill="#D9182C" d="M622.65,977.892h-19.868v-139.11h19.868v48.456l52.2-39.001l-0.137-4.941
					c-0.137-5.215-0.222-11.593-0.137-13.782c1.3-4.958-0.991-7.711-14.841-24.313c-6.548-7.865-13.148-15.542-13.148-15.542
					l-2.856-3.351h-63.168l-27.075,40.865v167.628l21.561,36.761h75.445l22.637-34.948v-34.52l-50.482-38.984V977.892z"/>
			</g>
			<g>
				<path fill="#D9182C" d="M778.327,898.249l30.614-59.86h9.267v-52.473h-58.826v51.926l-16.705,30.844v-30.69h7.557v-52.149
					l-9.609,0.068c-0.009,0-22.57,0.188-37.966,0.188c-7.686,0-10.874-0.052-12.191-0.086l-14.739-0.496l12.891,51.671h3.582
					v139.127h-5.335l-1.607,7.54c-2.778,13.029-6.257,28.331-7.66,33.324l-3.026,3.044l2.445,5.899
					c2.633,6.343,6.463,6.361,22.587,6.361c16.397-0.034,41.839-0.531,42.087-0.531l9.344-0.205v-54.252h-8.754v-13.216
					l7.438-12.174l11.251,27.613v51.448h65.588v-54.064h-12.166L778.327,898.249z"/>
			</g>
			<g>
				<path fill="#D9182C" d="M951.59,895.103c-22.476-18.312-54.979-44.848-65.34-53.397c0.018-1.83,0.018-4.035,0.026-6.72
					c0.017-6.6,0.008-15.388-0.009-24.142c-0.025-9.37-0.052-18.739-0.077-25.407h18.714v70.922l50.2-41.839v-42.659l-27.887-38.145
					h-64.015l-26.638,40.864v90.62l68.032,56.133v56.133h-18.133v-58.578l-50.156,40.334l-0.376,38.283l22.809,33.82h73.367
					l22.997-35.068v-98.296L951.59,895.103z"/>
			</g>
		</g>
	</g>
	<path fill="#FFFFFF" d="M409.438,380.043c0,0,39.317-4.531,68.051,46.883c0,0,8.566-5.044,20.671-3.026
		c0,0-2.018,19.662-1.008,23.185C497.151,447.084,434.136,457.172,409.438,380.043z"/>
	<path fill="#FFFFFF" d="M791.886,380.043c0,0-39.317-4.531-68.05,46.883c0,0-8.566-5.044-20.671-3.026
		c0,0,2.017,19.662,1.008,23.185C704.173,447.084,767.196,457.172,791.886,380.043z"/>
	<path fill="#FFFFFF" d="M529.073,403.963c0,0,14.96-9.352,16.294-18.962c0,0,0.958-3.044,5.061,0.924
		c4.104,3.966,4.172,7.488,1.197,10.566C548.65,399.569,536.237,409.366,529.073,403.963z"/>
	<path fill="#FFFFFF" d="M671.225,403.963c0,0-14.952-9.352-16.294-18.962c0,0-0.958-3.044-5.061,0.924
		c-4.104,3.966-4.172,7.488-1.206,10.566C651.64,399.569,664.07,409.366,671.225,403.963z"/>
	<g>
		<path fill="#FFFFFF" d="M687.716,453.223c-2.582-8.139-6.557-14.294-12.524-11.712c0,0-9.934,9.335-26.228,8.737
			c-0.599,8.344-5.762,28.623-10.935,34.983c6.558,4.77,12.722,19.475,12.722,18.877c0-0.599,0.196-13.508,0.196-13.508
			s15.115-0.205,19.68-1.984C675.193,486.82,693.47,476.287,687.716,453.223z M678.381,470.918
			c-7.361,14.311-24.647,12.516-32.204,10.943c4.172-5.779,8.549-19.679,8.549-27.835c11.524,2.189,22.176-5.096,22.458-4.565
			C678.774,452.436,681.758,463.362,678.381,470.918z"/>
		<path fill="#FFFFFF" d="M527.773,441.51c-5.967-2.582-9.934,3.573-12.516,11.712c-5.762,23.065,12.516,33.598,17.081,35.392
			c4.574,1.779,19.679,1.984,19.679,1.984s0.206,12.909,0.206,13.508c0,0.598,6.155-14.106,12.712-18.877
			c-5.172-6.36-10.335-26.639-10.934-34.983C537.707,450.846,527.773,441.51,527.773,441.51z M524.593,470.918
			c-3.385-7.557-0.402-18.483,1.198-21.457c0.273-0.53,10.925,6.754,22.449,4.565c0,8.155,4.377,22.056,8.549,27.835
			C549.231,483.434,531.945,485.23,524.593,470.918z"/>
	</g>
	<path fill="#FFFFFF" d="M645.253,530.488c-3.966-10.19-8.207-10.19-16.969-14.157c-8.763-3.949-13.858-17.525-13.858-17.525
		l-13.551,0.12l-13.558-0.12c0,0-5.087,13.576-13.858,17.525c-8.754,3.967-12.995,3.967-16.961,14.157
		c-3.959,10.173-7.635,28.828,9.899,53.432c7.635-5.369,12.439-10.465,18.663-10.174c-0.573-3.385-0.573-3.385-0.573-3.385
		s-9.883,0-15.542,3.385c-3.676-7.352-9.045-16.397-5.659-30.263c3.394-13.849,4.522-16.106,9.899-17.525
		c5.369-1.402,15.56-6.994,16.688-14.893c2.992,0,7.54-0.034,11.002-0.068c3.462,0.034,8.019,0.068,11.002,0.068
		c1.128,7.899,11.319,13.49,16.688,14.893c5.369,1.419,6.506,3.676,9.899,17.525c3.386,13.867-1.983,22.911-5.659,30.263
		c-5.651-3.385-15.542-3.385-15.542-3.385s0,0-0.573,3.385c6.216-0.291,11.037,4.805,18.663,10.174
		C652.879,559.315,649.203,540.661,645.253,530.488z"/>
	<path fill="#FFFFFF" d="M577.657,539.67c0,0,5.685,4.343,7.361,5.847c1.676,1.522,2.009,2.513,1.505,5.694
		c-0.496,3.18-1.505,6.19-3.677,6.856c-2.171,0.685-6.36-5.351-7.531-15.388C574.981,539.157,575.476,537.995,577.657,539.67z"/>
	<path fill="#FFFFFF" d="M623.967,539.67c0,0-5.694,4.343-7.369,5.847c-1.676,1.522-2,2.513-1.505,5.694
		c0.496,3.18,1.505,6.19,3.676,6.856c2.172,0.685,6.361-5.351,7.541-15.388C626.634,539.157,626.138,537.995,623.967,539.67z"/>
	<path fill="#FFFFFF" d="M577.828,594.725c0,0,10.207-6.531,21.92-6.531s23.262,6.856,23.262,6.856v6.531
		c0,0-14.396-7.198-23.937-7.198c-9.532,0-20.74,6.856-20.74,6.856L577.828,594.725z"/>
	<path fill="#FFFFFF" d="M550.889,600.248c-0.171,0.82,18.568,23.749,34.128,30.947c12.55,5.181,27.784,2.018,30.289,1.163
		c2.513-0.821,27.776-16.552,34.803-31.118c8.379,8.035,9.883,12.891,9.883,12.891s-24.621,37.051-6.343,80.361
		c-33.786,7.951-35.769,7.951-35.376,8.361c0.411,0.393-49.678-2.787-49.678-2.787s7.549-10.344,15.106-15.097
		c-6.754-7.557-6.754-7.557-6.754-7.557s-11.533,5.95-14.311,8.344c-0.402-6.754-0.402-6.754-0.402-6.754l7.549-6.361l-8.344-7.951
		c0,0-0.795-35.376-20.269-51.687C546.342,606.267,550.889,600.248,550.889,600.248z"/>
	<path fill="#FFFFFF" d="M506.196,639.249c0,0-0.402,26.638,13.507,43.326c4.377,5.967,0,8.754-3.975,4.77
		c-3.975-3.984-18.68-25.441-21.466-40.54C499.835,642.035,506.196,639.249,506.196,639.249z"/>
	<path fill="#FFFFFF" d="M696.975,638.462c0,0-1.59,28.623-17.089,44.899c-0.393,2.394-1.189,9.147,4.368,4.377
		c5.574-4.77,10.336-11.524,10.336-11.524l3.975-0.786c0,0-1.197,11.524-12.319,23.834c-0.402,2.787,1.188,2.787,4.368,0
		c3.18-2.77,23.459-18.671,22.655-48.883C708.106,646.806,696.975,638.462,696.975,638.462z"/>
	<path fill="#0D4427" d="M391.716,207.199c0,0-3.172,31.392,0,45.704C384.167,246.542,381.381,226.28,391.716,207.199z"/>
	<path fill="#0D4427" d="M810.694,207.199c0,0,2.992,31.392,0,45.704C817.824,246.542,820.44,226.28,810.694,207.199z"/>
	<path fill="#D9182C" d="M901.971,422.361h-97.809c0,0-29.563,50.046-89.278,51.756c-4.548,17.046-8.532,22.74-8.532,22.74
		s10.815,21.612,2.274,38.659c3.411,15.354,6.257,47.207,3.411,59.141c12.516,6.258,30.717,32.982,30.144,48.336
		c25.588,22.741,37.53,44.933,37.53,44.933h5.685L901.971,422.361z"/>
	<path fill="#D9182C" d="M584.932,1077.231h32.923c0,0-16.979,40.574-17.184,39.958
		C600.465,1116.556,584.932,1077.231,584.932,1077.231z"/>
	<path fill="#FFFFFF" d="M378.602,776.785l-25.835-32.606h-70.349l-26.639,33.392l20.278,0.411v209.861c0,0-18.294,0-19.475,0
		c-1.197,0,24.639,34.572,24.639,34.572h77.505l19.475-29.409v-86.652c0,0-16.688-17.885-16.295-19.081
		c0.402-1.197,16.697-27.032,16.697-27.032V776.785z M307.85,778.375h38.565v95.783h-38.967L307.85,778.375z M346.808,987.432
		h-39.351v-81.472h39.351V987.432z"/>
	<path fill="#FFFFFF" d="M408.806,795.456h51.67v32.999h-6.754v158.191h39.36V828.455c0,0-7.959,0-6.369,0c1.59,0,0-32.195,0-32.195
		h49.285l-6.754,32.589h-4.377v164.157l-19.073,29.409h-62.809c0,0-18.671-30.212-19.467-30.212c-0.795,0,0-164.157,0-164.157
		h-6.762L408.806,795.456z"/>
	<path fill="#FFFFFF" d="M563.03,830.045l22.654-34.196h53.654c0,0,26.236,30.623,25.834,31.802c-0.393,1.198,0,15.902,0,15.902
		l-32.982,24.655v-38.967h-38.949v158.191h38.949v-44.899l31.401,24.245v27.015l-18.287,28.229h-64.784l-17.491-29.819V830.045z"/>
	<path fill="#FFFFFF" d="M688.631,795.456c1.197,0.393,52.064,0,52.064,0v32.999h-7.54v77.899l41.728-77.112h-5.959v-33.786h39.753
		v33.393h-5.574l-35.376,69.161l40.539,88.636h8.746v34.983h-46.499v-34.983h3.573l-22.655-55.655l-18.679,30.605v25.442h8.745
		v35.376c0,0-56.843,1.197-55.654,0c1.197-1.197,8.745-36.572,8.745-36.572h7.156V827.651h-5.566L688.631,795.456z"/>
	<polygon fill="#B9CDCD" points="255.778,777.571 290.743,760.319 276.056,777.982 	"/>
	<polygon fill="#B9CDCD" points="292.727,760.473 348.86,760.473 356.297,770.784 346.415,778.375 308.355,778.375 307.448,874.158 
		292.419,888.058 	"/>
	<path fill="#B9CDCD" d="M361.905,775.981h16.697v84.259l-16.697,27.032c0,0-15.097,0-14.507,0c0.599,0,14.507-22.655,14.507-22.655
		V775.981z"/>
	<path fill="#B9CDCD" d="M292.548,888.862h54.26l10.327,12.328l-10.327,4.771c0,0-39.052-0.308-39.351,0
		c-0.299,0.291,0,81.472,0,81.472l-15.311,15.508L292.548,888.862z"/>
	<path fill="#B9CDCD" d="M362.504,906.952H378.2c0,0-0.291,85.747,0,86.054c0.307,0.291-20.073,29.409-20.073,29.409h-76.906
		l11.13-18.278h59.621l10.327-13.524L362.504,906.952z"/>
	<polygon fill="#B9CDCD" points="417.953,826.865 427.493,811.75 439.017,811.75 423.518,828.045 	"/>
	<polygon fill="#B9CDCD" points="439.017,811.75 452.936,811.75 460.475,795.456 460.475,828.849 453.722,828.849 453.722,986.646 
		444.985,994.597 437.829,984.252 	"/>
	<polygon fill="#B9CDCD" points="486.713,828.455 494.663,810.16 507.384,810.16 493.081,828.455 	"/>
	<polygon fill="#B9CDCD" points="507.384,810.16 520.105,810.16 537.194,795.456 529.244,828.849 524.867,828.849 524.867,993.399 
		505.794,1022.415 442.985,1022.415 451.345,1004.53 496.655,1004.53 508.573,989.826 	"/>
	<polygon fill="#B9CDCD" points="648.4,829.276 648.4,839.347 632.19,868.208 665.173,843.553 665.173,829.276 	"/>
	<path fill="#B9CDCD" d="M632.19,829.242l10.413-9.712l-7.933-9.165h-43.31l-13.431,20.142c0,0-0.915,155.592,0,155.592
		c0.915,0,7.019,8.224,7.019,8.224l8.292-6.89V829.242H632.19z"/>
	<polygon fill="#B9CDCD" points="647.793,971.463 663.592,966.778 663.592,993.793 645.305,1022.022 580.521,1022.022 
		588.001,1005.009 639.252,1005.009 647.485,993.725 	"/>
	<polygon fill="#B9CDCD" points="696.18,827.651 706.986,809.459 717.048,809.459 700.882,828.062 	"/>
	<polygon fill="#B9CDCD" points="717.048,809.459 727.726,809.459 740.695,795.456 740.695,828.455 733.155,828.455 
		733.155,906.764 717.664,937.882 	"/>
	<polyline fill="#B9CDCD" points="768.924,829.242 779.285,808.844 789.663,808.844 774.883,829.242 767.693,829.276 	"/>
	<polygon fill="#B9CDCD" points="789.663,808.844 798.811,808.844 808.676,795.456 808.676,828.849 803.103,828.849 
		767.385,899.139 808.266,986.646 797.289,1004.992 759.459,915.313 732.753,961.597 732.753,987.039 716.758,1004.393 
		716.758,958.93 790.886,827.464 	"/>
	<polygon fill="#B9CDCD" points="770.513,1021.629 779.285,1007.454 807.052,1007.454 817.012,986.646 817.012,1021.629 	"/>
	<polygon fill="#B9CDCD" points="741.499,987.039 728.949,1005.009 703.626,1005.009 685.845,1022.415 741.499,1022.415 	"/>
	<path fill="#FFFFFF" d="M845.805,963.82l31.11-25.014v48.2h37.223v-70.171l-68.033-56.133v-83.284l22.27-34.162h53.987
		l23.185,31.717v35.085l-31.11,25.938v-60.1h-37.829c0,0,0.307,70.153,0,70.153c-0.299,0,68.956,56.441,68.956,56.441v90.927
		l-18.603,28.365h-63.16l-18.295-27.151L845.805,963.82z"/>
	<polygon fill="#B9CDCD" points="876.914,938.805 861.364,967.171 861.364,987.005 866.246,995.246 877.222,986.39 	"/>
	<polygon fill="#B9CDCD" points="862.586,1022.09 869.904,1004.702 921.772,1004.702 930.919,990.356 930.919,910.731 
		945.563,902.49 945.563,993.417 926.96,1021.782 	"/>
	<polygon fill="#B9CDCD" points="927.866,909.209 914.137,916.834 846.104,860.702 861.971,852.46 	"/>
	<polygon fill="#B9CDCD" points="861.971,852.46 876.607,846.049 876.607,775.896 914.436,775.896 925.114,767.347 919.018,759.106 
		873.256,759.106 861.971,776.186 	"/>
	<polygon fill="#B9CDCD" points="914.436,835.996 932.141,806.707 932.141,776.512 946.469,776.512 946.469,810.058 	"/>
	<g>
		<g>
			<polygon fill="#FFFFFF" points="434.204,746.658 433.734,746.658 425.109,718.207 405.968,718.207 405.968,763.5 417.919,763.5 
				416.893,728.808 417.303,728.808 428.844,763.5 439.291,763.5 450.568,728.808 450.909,728.808 450.029,763.5 461.972,763.5 
				461.972,718.207 442.352,718.207 			"/>
			<rect x="471.547" y="718.207" fill="#FFFFFF" width="12.148" height="45.292"/>
			<polygon fill="#FFFFFF" points="505.426,718.207 493.27,718.207 493.27,763.5 524.44,763.5 524.44,753.104 505.426,753.104 			
				"/>
			<polygon fill="#FFFFFF" points="578.35,718.207 571.493,753.104 571.083,753.104 562.944,718.207 550.446,718.207 
				541.965,753.104 541.486,753.104 534.963,718.207 522.815,718.207 532.518,763.5 549.761,763.5 556.353,735.117 556.823,735.117 
				562.944,763.5 580.384,763.5 590.506,718.207 			"/>
			<path fill="#FFFFFF" d="M601.039,718.207L587.454,763.5h12.627l2.171-7.814h16.226l2.377,7.814h12.362l-13.781-45.292H601.039z
				 M604.834,746.931l5.566-19.679l5.71,19.679H604.834z"/>
			<polygon fill="#FFFFFF" points="726.897,718.207 712.303,718.207 700.625,735.391 696.958,735.391 696.958,718.207 
				684.801,718.207 684.801,763.5 696.958,763.5 696.958,745.65 700.625,745.65 713.252,763.5 728.188,763.5 710.944,740.486 			"/>
			<polygon fill="#FFFFFF" points="746.594,744.76 766.735,744.76 766.735,736.349 746.594,736.349 746.594,728.192 
				768.154,728.192 768.154,718.207 733.907,718.207 733.907,763.5 768.581,763.5 768.581,753.532 746.594,753.532 			"/>
			<polygon fill="#FFFFFF" points="789.475,753.532 789.475,744.76 810.232,744.76 810.232,736.349 789.475,736.349 
				789.475,728.192 811.686,728.192 811.686,718.207 776.395,718.207 776.395,763.5 812.13,763.5 812.13,753.532 			"/>
			<path fill="#FFFFFF" d="M664.112,747.548c0,3.095-0.598,4.941-1.795,5.54c-1.205,0.598-3.232,0.906-6.096,0.906
				c-2.308,0-4.086-0.291-5.344-0.872c-1.24-0.581-1.864-2.223-1.864-4.958v-30.195h-12.174v30.263
				c0,7.865,1.778,12.55,5.335,14.071c3.556,1.487,8.6,2.24,15.132,2.24h1.633c3.907,0,7.532-0.615,10.892-1.864
				c3.351-1.248,5.377-4.189,6.044-8.822c0.051-0.36,0.085-0.735,0.102-1.112c0.034-0.359,0.034-0.735,0.034-1.111
				c0.052-0.188,0.068-0.36,0.068-0.547c0-0.188,0.026-0.376,0.068-0.565c0.052-0.495,0.086-1.043,0.103-1.59
				c0.025-0.565,0.034-1.128,0.034-1.745v-29.22h-12.174V747.548z"/>
		</g>
	</g>
</g>
</svg>
