<?xml version="1.0" encoding="utf-8"?>
<!-- Designed by Vexels.com - 2016 All Rights Reserved - https://vexels.com/terms-and-conditions/  -->

<svg version="1.1" id="Layer_1" xmlns="http://www.w3.org/2000/svg" xmlns:xlink="http://www.w3.org/1999/xlink" x="0px" y="0px"
	 width="1200px" height="1200px" viewBox="0 0 1200 1200" enable-background="new 0 0 1200 1200" xml:space="preserve">
<g>
	<path fill="#FFFFFF" d="M982.167,573.826c0-209.611-169.926-379.519-379.537-379.519c-209.593,0-379.518,169.908-379.518,379.519
		c0,209.592,169.925,379.518,379.518,379.518C812.241,953.344,982.167,783.419,982.167,573.826z"/>
	<g>
		<path fill="#1F2027" d="M600,69.401c-277.324,0-502.144,222.797-502.144,497.639c0,274.841,224.821,497.657,502.144,497.657
			s502.144-222.816,502.144-497.657C1102.144,292.198,877.324,69.401,600,69.401z M600,923.626
			c-198.706,0-359.804-159.646-359.804-356.586c0-196.923,161.098-356.586,359.804-356.586
			c198.715,0,359.804,159.663,359.804,356.586C959.804,763.981,798.715,923.626,600,923.626z"/>
		<path fill="#00833F" d="M598.437,89.778c-266.842,0-483.147,213.675-483.147,477.262c0,263.605,216.305,477.262,483.147,477.262
			c266.833,0,483.147-213.657,483.147-477.262C1081.584,303.453,865.27,89.778,598.437,89.778z M598.437,942.439
			c-209.887,0-380.015-168.068-380.015-375.399c0-207.332,170.128-375.381,380.015-375.381
			c209.868,0,380.015,168.049,380.015,375.381C978.452,774.371,808.305,942.439,598.437,942.439z"/>
		<path fill="#1F2027" d="M434.24,177.407C434.24,107.046,376.715,50,305.738,50c-70.976,0-128.491,57.046-128.491,127.407
			c0,70.361,57.515,127.408,128.491,127.408C376.715,304.815,434.24,247.768,434.24,177.407z"/>
		<path fill="#B53131" d="M313.26,59.765c0,0-14.197,9.453-14.878,31.08c-0.662,21.626-4.727,39.869-5.397,60.816
			c-0.671,20.947-27.705,45.296-41.222,52.026c-13.516,6.768-45.277,12.175-58.793,10.133c7.429,20.965,27.033,42.591,33.783,43.934
			c22.307-7.429,124.336-59.455,152.731-141.218c-4.727,41.893-66.223,126.359-147.315,149.329
			c12.837,16.22,57.432,31.759,77.027,28.375c0-22.969,22.979-57.432,39.87-72.972c16.901-15.54,55.419-19.604,72.991-17.581
			C424.76,182.74,432.199,70.578,313.26,59.765z"/>
		<path fill="#1E1E25" d="M922.803,734.74c-3.421-17.765-13.664-31.429-26.648-28.008c-12.983,3.402-18.445,6.143-18.445,6.143
			s-14.353-11.623-24.605-8.202c-7.503-2.041-7.503-2.041-7.503-2.041s1.361-7.522-3.421-31.448
			c-4.781-23.907-13.664-38.252-13.664-38.252s-15.724-52.632-15.724-69.019c0-16.403-12.983-40.992-12.983-40.992
			s0-33.488,3.421-46.472c3.421-12.983,7.512-40.312-9.572-72.421c-17.085-32.128-34.85-38.27-41.682-34.868
			c-6.841,3.42-16.404,2.059-19.815-1.362c-3.411-3.402-10.252-15.705-13.663-15.025c-3.411,0.681-29.379-11.623-29.379-11.623
			l0.681-21.847c0,0,22.546-20.524,27.329-34.187c4.781-13.664,1.37-43.714-18.445-43.714c0-17.085-0.681-60.136-18.445-80.641
			c21.176-7.503,53.276-28.008,38.932-44.412c-14.345-16.403-28.009,6.841-28.009,6.841s-15.025,10.924-25.286,10.924
			c-2.041-22.547-10.933-53.976-24.597-62.858c-13.664-8.883-28.698-22.546-60.807-12.304c-32.11,10.243-79.951,37.59-88.825,59.437
			c-8.883,21.885-11.623,34.85-6.832,47.153c4.781,12.303,17.047,55.354,17.047,55.354s-22.556,17.765-28.697,21.167
			c-6.151,3.421-1.379,20.505,3.411,22.546c4.791,2.06,22.546,3.421,41.682-12.284l-2.051,21.847c0,0-25.967,7.539-23.917,29.388
			c-23.907,4.101-73.1,12.303-73.1,12.303l8.183-32.79c0,0-30.739-6.161-42.352,5.462c-1.362,20.505,1.38,47.134,15.033,45.773
			c13.655-1.361,20.496-8.883,20.496-8.883l73.101-10.243c0,0,0.708,38.951,45.792,46.473c6.841,12.983,6.841,12.983,6.841,12.983
			s-21.875-14.345-35.539-15.025c-13.664-0.699-15.034,15.025-15.034,23.227c0,8.183,2.06,53.975,4.102,57.396
			c2.059,3.421,6.151,2.721,11.623,0.68c5.461-2.059,60.807-23.925,60.807-23.925s-35.53,49.212-43.723,64.918
			c-10.261,4.101-52.614-5.462-52.614-5.462s-28.018-38.27-30.067-38.95c-2.041-0.681-9.564,0.68-9.564,0.68
			s-10.942-10.942-11.622-30.748c-0.681-19.806,2.74-39.631-8.883-46.454c-11.604-6.841-43.732-31.447-44.412-54.674
			c-0.681-23.227-8.883-23.227-16.395-16.404c-7.513,6.841-19.126,17.784-12.974,36.228c6.142,18.445,19.125,34.169,19.125,34.169
			s-35.529,13.664-34.169,49.195c-7.503,8.183-10.924,30.05,0.689,38.252c11.613,8.202,15.715,7.521,15.715,7.521l15.034,10.923
			c0,0,0.671,24.606,33.479,27.328c-1.37,20.505,17.075,30.086,21.866,36.909c4.791,6.841,21.875,27.328,35.53,15.025
			c10.243,2.74,10.934,12.983,10.934,12.983s-65.607,44.431-71.749,89.523c12.983,4.781,31.428,37.572,31.428,37.572
			s0.69,33.488,14.363,65.598c13.655,32.128,51.925,127.094,51.925,127.094s-27.337,11.623-32.799,2.06
			c-5.462-9.581-14.345-23.926-34.169-22.565c-19.806,1.379-32.789,3.421-32.789,3.421s-11.614,43.732-6.832,60.816
			c19.125,3.421,19.125,3.421,19.125,3.421s21.866,38.27,13.674,54.656c-8.202,16.404-16.404,62.876-15.034,71.06
			c1.361,8.22,10.915,22.565,8.873,22.565c-2.041,0-15.706,31.41-10.924,36.21c4.781,4.762,28.008,34.169,41.672,37.571
			c13.664,3.421,45.773,3.421,53.295,0c7.521-3.402,37.589-43.052,37.589-43.052s25.287,8.883,47.824,0.681
			c22.547-8.183,41.682-10.924,36.9-39.612c-4.781-19.144-30.748-32.128-30.748-32.128l0.68-57.378c0,0,49.875-15.025,60.127-34.85
			c10.252-19.824,44.421-118.211,56.044-140.078c11.604-21.866,23.227-88.144,25.967-94.985c2.722-6.823,8.883-10.924,3.411-25.949
			c-5.471-15.043-30.748-51.253-26.638-81.339c4.101-30.049,7.503-49.176,7.503-49.176s11.623-20.505,15.044-29.388
			c3.411-8.882,7.512-18.446,8.193-4.781c0.689,13.664,2.731,32.79-3.411,42.353c-6.151,9.581-6.832,24.605,0.68,37.589
			c7.513,12.983,34.169,60.137,34.169,60.137s0,36.21,4.782,46.454c4.781,10.242,6.142,21.865,29.369,21.186
			c1.38,12.983-2.722,22.546-5.462,25.267c-2.731,2.741-12.285,45.792-2.041,60.817c10.253,15.044,10.934,29.388,10.934,29.388
			s13.663,6.143,15.714,4.781c2.051-1.361-16.395,21.885-4.781,33.489c11.623,11.623,23.916,49.194,17.774,73.119
			c-6.151,23.908-8.202,43.033,5.471,54.656c9.564,9.563,13.664,36.891,13.664,47.152c0,10.243,12.974,81.303,23.227,92.245
			c4.102-3.421,4.102-17.765,5.462-28.708c1.37-10.942,4.101-84.042,4.101-88.843c0-4.763-0.68-25.249-7.512-35.512
			c-6.832-10.243-6.151-23.227-4.11-34.169c2.059-10.923,11.622-10.243,12.303-25.967c0.689-15.706-12.974-25.967-15.025-39.631
			c-2.06-13.664-8.883-31.41-8.883-37.571c0-6.143,0-12.983,4.102-19.126c4.092-6.161,8.873-15.723,8.873-15.723l16.404-8.883
			c0,0,10.933,4.102,15.033,0.7c4.092-3.421,16.404-20.506,19.825-23.926C926.224,783.254,937.828,740.901,922.803,734.74z
			 M510.863,1027.071c-6.261,0.791-26.648,10.188-26.648,10.188l-11.751-7.043l-0.782-47.814l18.803-3.918l-3.917-38.398
			c0,0,16.46,7.044,30.565,12.543c14.106,12.542,24.294,72.089,24.294,72.089S517.134,1026.28,510.863,1027.071z"/>
		<path fill="#B53131" d="M189.586,205.048c0,0,74.342,5.407,81.101-41.894c-17.581-20.946-54.067-45.276-69.607-44.596
			C192.299,136.801,182.837,167.881,189.586,205.048z"/>
		<path fill="#B53131" d="M208.519,109.088c0,0,45.939,14.178,73.643,50.683c3.384-39.87,5.407-64.201,5.407-70.95
			c0-6.767,4.064-22.307,10.813-29.737C274.071,61.788,233.52,77.327,208.519,109.088z"/>
		<path fill="#B53131" d="M320.689,291.536c0,0,6.07-32.44,27.034-55.41c14.189,8.791,25.002,37.848,25.002,37.848
			S342.997,295.601,320.689,291.536z"/>
		<path fill="#B53131" d="M355.834,228.697c-2.17,1.747,24.329,23.65,28.375,39.87c12.165-12.157,31.76-41.213,33.121-57.432
			C403.133,211.135,376.78,211.797,355.834,228.697z"/>
		<path fill="#B0903B" d="M498.477,181.931c2.05,2.078,15.034,44.43,15.034,44.43s22.546-23.907,43.731-38.95
			c21.176-15.025,56.715-34.15,69.69-38.252c12.974-4.119,33.479-10.261,33.479-10.261s-4.092-40.992-11.613-47.134
			c-7.521-6.161-41.681,6.823-73.791,28.008C542.89,140.939,498.477,181.931,498.477,181.931z"/>
		<path fill="#FFFFFF" d="M483.443,248.908c0,0,28.018-8.883,46.472-28.008c18.445-19.144,64.899-55.354,95.647-64.219
			c30.749-8.901,51.236-14.362,62.858-22.564c11.623-8.202,19.144-18.446,23.236-12.983c4.092,5.461,0.671,18.445-19.815,27.327
			c-20.496,8.883-85.404,19.126-112.731,43.732c-27.338,24.606-62.178,57.396-84.724,64.918
			C485.494,258.471,484.124,260.512,483.443,248.908z"/>
		<path fill="#FFFFFF" d="M522.375,250.288l-0.681,26.629c0,0,9.563-0.681,9.563-14.345
			C531.257,248.908,528.527,243.446,522.375,250.288z"/>
		<path fill="#F5A475" d="M531.257,242.086c2.06-0.681,10.924,7.503,9.563,15.705c-1.361,8.202-3.31,22.418-14.271,31.043
			c-10.979,8.625-10.979,17.232-3.145,21.168c8.626-3.936,17.251-7.835,25.857-7.835c8.625,0,25.085-4.708,14.897-15.687
			c4.698-3.126,13.323,9.416,21.157,9.416c7.843,0,23.512-0.791,28.992,2.336c5.499,3.144,8.625,17.25,8.625,17.25
			s-18.813,8.625-23.502,17.232c-4.708,8.625-30.574,14.105-41.544,12.542c-10.969-1.563-30.564-14.878-34.482-17.232
			c-3.917-2.354-14.105-14.105-21.939-11.751c1.563,14.877,18.022,34.463,49.368,43.088c1.572,10.189,12.543,35.272,32.137,32.146
			c19.586-3.145,33.691-23.521,33.691-23.521s29.001,0,45.461-14.106c16.459-14.105,22.73-42.315,22.73-42.315
			s25.857-27.439,25.857-40.753c0-13.333-7.834-21.167-16.459-21.167s-27.42,34.482-29.002,52.522
			c-31.337-1.581-36.826-0.791-34.482-1.581c2.354-0.773,34.482-35.272,30.565-68.173c-3.917-32.919-26.648-52.504-48.587-50.168
			c-20.376,11.77-53.294,35.272-61.129,43.897C543.781,234.766,531.257,242.086,531.257,242.086z"/>
		<path fill="#1E1E25" d="M553.969,233.184c0,0-7.052,36.063-20.376,48.606c14.896-9.416,25.857-36.854,27.429-47.024
			C561.022,227.704,553.969,233.184,553.969,233.184z"/>
		<path fill="#1E171C" d="M581.141,235.925c0,0,5.746,7.448,5.746,16.864c0,9.397,5.481,11.751,5.481,11.751
			s-2.354,9.398,14.896,10.189c17.232,0.79,30.564-8.626,30.564-8.626s-22.73,4.708-26.647,3.145
			c-3.917-1.563-1.563-3.935,6.271-6.271c7.834-2.354,25.075-7.853,26.638-18.813c-14.105,7.834-39.971,15.668-44.66,11.751
			c-4.708-3.917-6.511-26.187-3.255-29.553C599.431,222.996,581.141,235.925,581.141,235.925z"/>
		<path fill="#F5A475" d="M524.969,317.044c0,0,28.219,23.521,41.543,21.94c13.314-1.563,21.157-9.398,28.211-14.878
			c7.052-5.48,18.813-13.333,18.813-13.333s-7.834-6.271-18.023-5.48c-10.197,0.772-20.376-3.127-20.376-3.127
			s-10.197,6.253-20.377,6.253C544.572,308.419,524.969,317.044,524.969,317.044z"/>
		<path fill="#F5A475" d="M508.518,302.166c0,0,5.489-10.979,11.751-17.25c-10.969-3.126-21.948,10.188-21.948,15.669
			C503.81,298.231,508.518,302.166,508.518,302.166z"/>
		<path fill="#FFFFFF" d="M392.531,290.396c0,0-4.698,43.897,22.721,30.565c-3.126-13.314,1.572-33.691,1.572-31.337
			C416.824,291.959,396.448,290.396,392.531,290.396z"/>
		<path fill="#F5A475" d="M413.689,370.339c0-10.98-14.896-14.897-29.002-23.522c-14.105-8.607-21.222-47.778-21.94-50.15
			c-2.354-7.834-12.542,3.145-15.668,10.98c-3.145,7.834,1.563,18.022,9.397,33.691c7.835,15.668,23.512,27.42,32.918,27.42
			c9.398,0,10.188,7.853,10.188,7.853s-15.668,0-24.293-0.791c-8.625-0.772-18.023,0.791-22.731,7.062
			c-21.94,3.126-12.542,19.586-10.188,20.376c2.354,0.773,8.625-9.416,8.625-9.416s-0.791,11.77-4.708,23.522
			c-3.917,11.751,12.542,14.896,15.677,11.751c1.508-1.507,5.214-5.756,8.634-9.746c3.311-6.216,7.035-11.42,7.035-11.42
			s-0.046,1.195-0.009,3.163l0.009-0.018l-0.009,0.055c0.166,11.366,3.035,48.919,33.709,42.261
			c-5.48,11.752-26.638,20.377-45.442-17.232c-1.03,1.288-2.078,2.373-3.145,3.127c-21.157,11.751-25.084-26.648-25.084-26.648
			s0,0-4.69,4.708c-3.917,21.94,12.533,36.045,30.565,37.608c0.773,18.814,18.023,30.565,36.827,31.355
			c11.76,0,25.865-28.211,30.573-41.543C418.397,436.948,413.689,381.318,413.689,370.339z"/>
		<path fill="#FFFFFF" d="M401.937,496.513c-0.533-2.298,29.775-23.521,36.836-50.149c15.668,14.878,32.909,32.9,32.909,37.608
			c0,4.708-6.271,40.752-25.075,53.295c-5.489,2.354-18.032-1.582-23.512-8.625C417.606,521.58,404.291,506.702,401.937,496.513z"/>
		<path fill="#FFFFFF" d="M481.089,489.451c0,0-10.979,42.334-18.023,48.587c4.69,8.625,8.616,10.979,8.616,10.979
			s39.18-38.398,43.888-55.63C499.893,491.033,478.735,489.451,481.089,489.451z"/>
		<path fill="#CA9946" d="M538.301,485.534c0,0-62.702,72.881-97.965,99.528c-34.482,26.648-39.189,53.295-40.753,58.003
			c17.241,7.834,49.378,61.92,56.421,81.505c7.062,19.586,12.543,36.045,13.333,33.692c0.773-2.336,20.367-21.94,20.367-21.94
			l35.264,28.211c0,0,50.94-28.211,76.807-40.752c25.865-12.543,100.309-31.356,118.34-29.002
			c3.918-10.188-10.197-25.066-14.114-34.482c-3.917-9.398-24.294-65.046-7.043-106.572c-10.979-0.791-42.326-11.77-39.189-47.023
			c3.135-35.272,32.128-118.341,54.076-148.906c-6.271-3.917-27.429-13.314-27.429-13.314l-11.751,18.795
			c0,0,13.315-3.127,10.961,8.625c-2.345,11.751-12.533,46.232-14.878,55.648c-2.354,9.398-6.271,18.814-12.543,18.814
			c-6.271,0-21.167-3.145-21.167-3.145s-53.286,64.255-76.015,81.505c-6.262,13.315-19.595,60.338-34.473,86.214
			c-14.896,25.857-43.106,83.841-38.408,118.322c-4.698-18.023-2.354-57.984,13.324-87.758
			c15.668-29.792,52.503-99.546,50.149-116.005C549.261,509.037,538.301,485.534,538.301,485.534z"/>
		<path fill="#FFFFFF" d="M600.994,420.488c-2.354,0-18.814,4.708-25.857,3.145c-10.979,18.023-25.876,43.088-27.439,47.796
			c-1.563,4.708,10.979,41.543,10.979,41.543s29.774-29.774,37.609-37.608c7.834-7.853,35.272-34.5,35.272-34.5
			s-1.572-10.188-11.752-10.979C609.618,429.113,600.994,420.488,600.994,420.488z"/>
		<path fill="#CA9946" d="M503.81,372.674c0,0-1.563,39.98-0.782,51.75c0.782,11.751,0,15.669,12.542,9.397
			c12.542-6.271,46.233-21.958,48.587-21.958s7.834-5.48,7.052-8.607c-0.781-3.144-0.781-3.144-0.781-3.144
			s-17.241-16.46-18.814-18.795c-1.563-2.373-25.857-12.561-31.346-12.561C514.78,368.757,506.164,367.985,503.81,372.674z"/>
		<path fill="#CA9946" d="M577.481,399.34c0,0-2.344,10.189-0.781,14.106c1.563,3.917,10.969,3.126,14.105,2.335
			c3.135-0.772,0.791-10.96,6.272-18.022C588.451,400.903,577.481,399.34,577.481,399.34z"/>
		<path fill="#CA9946" d="M603.347,414.217c0,0,25.857,7.062,31.336,14.896c5.489,7.835,5.489,7.835,5.489,7.835
			s10.969,6.271,20.377-8.625c9.406-14.878,15.677-52.504,15.677-52.504s-5.48-7.834-17.241-7.062
			c-11.76,0.791-25.074,3.917-32.918,10.188c-7.844,6.271-18.804,12.561-18.804,12.561S598.64,406.383,603.347,414.217z"/>
		<path fill="#FFFFFF" d="M483.443,771.594c0,0,36.826,44.651,121.467,36.835c0,6.253-18.023,9.397-38.399,10.961
			c3.917,26.647-3.135,57.211-3.135,63.482c0,6.272,3.135,21.149,7.052,25.857c-8.625,3.127-8.625,6.272-14.897-3.126
			c-6.271-9.416-10.188-32.128-14.105-31.355C537.51,875.039,527.322,886,527.322,886s7.834-0.773,7.834,4.708
			c0,5.48-0.781,53.294-0.781,53.294s-24.284,3.918-44.67-10.979c-20.367-14.878-50.931-14.105-50.931-14.105l3.917-30.565
			c0,0,9.397,8.625,28.992,3.145c19.594-5.499,29.783-5.499,47.023-9.416c11.752-15.669,15.669-22.731,21.158-18.023
			c5.48,4.708,14.105,13.333,14.105,13.333s7.835-50.94-8.625-60.356C514.78,809.975,485.788,791.18,483.443,771.594z"/>
		<path fill="#FFFFFF" d="M528.885,957.336c0,0,9.416-3.936,18.031,3.898c7.274,6.62,30.565,14.106,30.565,14.106l-0.781,60.356
			c0,0-24.294,9.398-27.439-8.625C546.135,990.235,536.729,963.588,528.885,957.336z"/>
		<path fill="#FFFFFF" d="M407.418,866.414c-0.782,2.354-10.189,37.608-8.625,47.814c-10.189,4.69-14.106,2.336-13.315-9.416
			c0.782-11.751,6.271-39.962,6.271-39.962L407.418,866.414z"/>
		<path fill="#CA9946" d="M427.794,937.731c-2.216,3.328,0.782,33.709,4.708,32.919c3.918-0.791,50.941,2.354,50.941,2.354
			s-4.708-29.792-5.499-33.709C477.172,935.377,435.629,925.98,427.794,937.731z"/>
		<path fill="#FFFFFF" d="M441.9,947.129c0,0-4.698,7.834,2.354,8.625c17.93,1.986,28.211,1.582,28.211,1.582l-3.127-7.853
			L441.9,947.129z"/>
		<path fill="#FFFFFF" d="M425.44,979.274c-0.782,2.336-6.271,61.111,2.354,83.841c-10.969,1.582-10.969,1.582-12.542-1.563
			c-1.563-3.126,0.791-22.731-2.345-23.503c-3.135-0.791-4.698-7.834-4.698-10.188c0-2.354,10.188-47.024,10.188-47.024
			L425.44,979.274z"/>
		<path fill="#FFFFFF" d="M405.358,1100.263c2.354,0,22.731,42.334,77.589,37.626c2.345,7.835,2.345,7.835,2.345,7.835
			s-50.16,17.25-82.287-36.045C401.441,1106.535,405.358,1100.263,405.358,1100.263z"/>
		<path fill="#FFFFFF" d="M566.796,1101.845c3.926,0,27.429-5.48,36.827-14.896c9.416-9.416,14.896-16.46,3.145-13.315
			c-11.761,3.126-36.045,12.524-36.045,12.524L566.796,1101.845z"/>
		<path fill="#CA9946" d="M488.427,1046.197c-2.134,4.266,15.677,17.231,25.085,18.022c9.397,0.791,18.803,1.582,14.877-1.563
			c-3.917-3.126-23.503-18.813-25.857-21.167C500.187,1039.153,489.218,1044.633,488.427,1046.197z"/>
		<path fill="#CA9946" d="M525.758,1032.551c-4.091,2.06,15.669,13.333,14.897,20.377c-0.791,7.062,16.449-3.126,9.397-10.188
			C542.99,1035.696,536.729,1027.071,525.758,1032.551z"/>
		<path fill="#FFFFFF" d="M514.293,1044.633c0,0,7.052,9.398,11.751,6.272C530.742,1047.76,526.044,1039.153,514.293,1044.633z"/>
		<path fill="#F5A475" d="M806.319,723.78c0,0,21.94-10.189,32.919-16.46c7.834,1.563,7.834,1.563,7.834,1.563
			s-15.668,18.814-13.323,18.041c2.354-0.79,18.804-16.478,28.992-14.896c10.188,1.563,18.813,17.232,18.813,41.525
			c0,24.312-4.708,50.168-7.834,53.294c-3.145,3.127-9.406,3.917-11.76,2.354c-2.354-1.563-4.698-28.211-4.698-39.961
			c0-11.752-0.791-21.168-14.106-14.106c-13.323,7.044-20.376,15.669-21.94,25.067c-1.572,9.416,2.345,51.731,2.345,51.731
			s-7.053,2.354-10.189,1.563c-3.135-0.791-5.489-16.459-7.843-22.731c-2.345-6.252-15.668-20.358-12.532-36.044
			c3.135-15.668,2.345-21.94,10.188-26.648s11.76-16.459,11.76-16.459L806.319,723.78z"/>
		<path fill="#F5A475" d="M885.232,719.2c0,0,12.532,44.67,0,78.361c7.043-0.772,13.314-17.232,18.022-26.629
			c4.699-9.416,7.835-30.565,7.835-38.417C911.089,724.681,906.381,712.929,885.232,719.2z"/>
		<path fill="#F5A475" d="M918.141,740.368c-3.191,0.459-12.533,46.232-23.512,62.692c5.48,1.563,10.979-1.563,18.023-10.188
			c7.062-8.626,11.76-22.731,13.333-32.129C927.548,751.328,923.631,739.577,918.141,740.368z"/>
		<path fill="#B32E2C" d="M843.155,764.532c0,0-17.25,9.397-16.459,36.836c0.515,18.041,3.917,30.565-0.791,34.482
			c-4.69,3.917-10.961,26.648-5.48,32.919c5.48,6.271,21.939,28.211,18.813,53.295c-3.135,25.066-11.76,57.984-3.135,69.735
			c8.615,11.752,16.45,25.085,18.804,49.377c2.354,24.294,14.105,72.899,14.105,72.899s2.354-65.064,2.354-85.441
			c0-20.376-3.917-25.857-9.406-41.525c-5.489-15.669-5.489-35.272,1.572-43.107c7.043-7.834,14.886-16.459,3.917-39.189
			c-10.979-22.73-18.813-47.795-17.25-56.421c1.572-8.625,10.979-27.438,10.979-27.438s-7.052-6.271-10.188-21.94
			C847.853,783.345,850.99,759.824,843.155,764.532z"/>
		<path fill="#FFFFFF" d="M718.543,368.757c0,0-41.534,68.191-45.451,124.63c-1.572,28.193,3.917,54.858,24.294,50.922
			c10.188-14.896,22.73-35.272,24.294-42.315c1.572-7.062,7.052-14.106,7.052-14.106s8.625,10.189,12.542,24.294
			c3.917,14.106,6.271,31.356,0.782,41.543c-5.489,10.188-10.969,29.774,1.572,47.024c12.542,17.231,28.211,50.149,28.211,50.149
			l43.879-20.376c0,0-12.533-44.67-12.533-62.692c0-18.023-13.323-22.731-13.323-32.919c0-10.189,3.135-36.835,3.917-45.461
			c0.791-8.606-0.781-59.565-13.324-84.631c-12.532-25.085-14.886-28.211-29.782-24.294c-14.878,3.917-23.503,5.48-24.294,0.791
			C725.596,376.61,718.543,368.757,718.543,368.757z"/>
		<path fill="#FFFFFF" d="M771.838,661.088l50.15-21.94c0,0,13.333,39.171,17.25,57.193c-14.105,13.333-29.792,22.731-36.054,21.167
			C796.913,715.945,772.619,717.508,771.838,661.088z"/>
		<path fill="#008747" d="M650.371,705.757c0,0,7.834-23.521-3.926-21.94c-11.76,1.563-9.406,17.232-16.459,16.46
			c-7.053-0.791-20.367-4.708-20.367-8.625c0-3.918,4.689-21.168,1.563-21.94c-3.135-0.791-1.563-16.46-1.563-16.46
			s43.878,15.669,35.263,5.481c-8.625-10.189-25.075-21.149-20.385-23.503c4.708-2.354,14.896,0.772,26.647-3.936
			c11.761-4.689,33.709-10.17,30.565-4.689c-3.126,5.48-22.721,34.482-14.877,29.774c7.834-4.69,21.939-17.232,21.939-17.232
			s-3.917,10.96,1.564,20.376c5.48,9.398,11.751,30.565,0,26.63c-11.752-3.917-22.731-16.441-23.503-7.835
			c-0.791,8.626,0.772,20.377,0.772,20.377l3.917,3.145L650.371,705.757z"/>
		<path fill="#008747" d="M555.532,740.239c0,0-9.397-16.459-3.917-18.023c5.489-1.563,23.522,3.127,28.211-1.563
			c4.708-4.708-7.834-12.542-4.689-29.001c3.126-16.46,10.96-32.128-1.572-22.731c-12.542,9.397-18.804,11.751-15.678-0.791
			c3.136-12.524-32.128,0.791-38.398-0.772c-6.271-1.582-15.677,3.126-10.969,12.542c4.698,9.398,11.751,14.106-2.354,14.106
			c-14.106,0-18.804,13.314-12.533,18.022c6.262,4.708,6.262,1.563,7.835,12.542c1.563,10.961,6.271,16.46,13.314,7.044
			c7.062-9.398,18.814-7.834,18.814-7.834l4.708,22.73L555.532,740.239z"/>
		<path fill="#008747" d="M569.647,651.69c2.345-1.582,14.886-14.105,8.615-17.25c-6.271-3.145-5.48-5.48-12.542,3.145
			c-7.044,8.606-16.46,11.751-19.586,9.397c-3.145-2.354-1.563-8.625-2.354-21.149c-0.791-12.561-21.158-23.521-6.271-25.084
			c14.896-1.564,30.565,1.563,25.084-5.499c-5.489-7.044-19.604-21.149-9.406-21.94c10.189-0.791,21.158-0.791,30.565-2.354
			c9.406-1.563,21.949-3.126,19.595,7.834c-2.354,10.979,8.615,7.835,13.314,4.708c4.708-3.145,0,8.625,4.708,21.168
			c4.699,12.524,4.699,29.002-8.625,25.857c-13.314-3.127-15.668-6.271-18.804,2.354c-3.135,8.625-13.323,25.857-13.323,25.857
			L569.647,651.69z"/>
		<path fill="#008747" d="M435.629,683.027c0,0,6.271-3.917,12.542,1.564c6.271,5.498,20.377,4.708,19.586-13.315
			c-0.773-18.023-3.127-36.836-10.189-31.337c-7.043,5.48-21.939,10.96-18.022,2.335c3.926-8.606,4.708-18.813-3.126-18.022
			c-7.844,0.79-26.648-1.564-26.648-1.564l-10.189,20.377C399.583,643.065,430.939,674.402,435.629,683.027z"/>
		<path fill="#008747" d="M444.254,581.936c3.917,0.791,21.158-9.416,18.813,9.398c-2.354,18.813,0.773,24.293,0.773,24.293
			s8.625,2.354,8.625,0s3.135-29.001,7.062-29.001c3.917,0,9.397,5.498,11.751,11.77c2.354,6.271,14.106,5.48,18.023-7.062
			c3.917-12.543,24.294-26.648,17.25-28.211c-7.062-1.564-20.385-5.481-16.459-10.189c3.917-4.689,21.149-14.105,13.314-16.459
			c-7.834-2.354-23.511-7.834-23.511-7.834L444.254,581.936z"/>
		<path fill="#008747" d="M564.158,522.37c0,0,10.979-1.563,7.052,10.189c-3.917,11.751,0,19.585,6.271,17.25
			c6.271-2.354,10.969-14.896,10.969-14.896s14.106,7.043,21.94,6.271c7.834-0.791,0.791-16.46,8.625-26.648
			c7.835-10.188,27.429-25.085,11.752-22.731c-15.669,2.354-21.94,1.582-13.315-5.48c8.616-7.062,3.917-24.294,3.917-24.294
			L564.158,522.37z"/>
		<path fill="#008747" d="M631.558,534.122c2.354,4.708,18.022,18.022,3.126,25.875c-14.878,7.835-3.917,13.315,2.354,16.46
			c6.271,3.126-1.563,28.211,3.917,26.629c5.489-1.563,9.416-15.669,18.031-18.795c8.616-3.145,18.804-6.271,13.324,3.126
			c-5.48,9.416-18.023,21.168-7.062,19.605c10.979-1.582,12.542-29.002,19.604-29.792c7.044-0.772,7.044-0.772,7.044-0.772
			l7.062-22.731c0,0-23.512,1.563-34.482-24.312C650.371,540.393,629.985,530.996,631.558,534.122z"/>
		<path fill="#008747" d="M527.487,427.33c0,0,2.189-13.609-5.268-12.726c-7.467,0.864-13.177,1.748-13.177-1.765
			c0-3.512-0.441-7.466-1.305-10.096c-0.883-2.63,5.26-6.143,8.772-5.26c3.513,0.864,5.711-3.955,1.765-7.467
			c-3.954-3.512,2.63-4.818,6.143-6.142c3.512-1.325,13.167-8.35,12.284-2.649c-0.873,5.719-3.07,17.581,2.207,14.492
			c5.26-3.071,11.843-6.143,13.6,0c1.756,6.142-7.899,9.655-11.853,10.537c-3.955,0.883-9.655,3.513-6.584,7.908
			c3.071,4.376,5.26,7.889,5.26,7.889L527.487,427.33z"/>
		<path fill="#008747" d="M626.684,421.629c0,0,7.467-11.42-2.188-11.42c-9.655,0-10.97-2.206-9.655-8.349
			c1.314-6.142,0.441-13.609,7.025-9.655c6.584,3.954,11.853,5.279,10.096-1.747c-1.766-7.025-3.071-13.168,6.584-12.726
			c9.654,0.423,13.167,9.213,11.402,12.726c-1.748,3.512-3.936,7.466,2.207,6.142c6.142-1.324,11.402-0.882,9.213,5.719
			c-2.188,6.566-9.223,21.057-13.168,14.032c-3.954-7.025-8.34-7.467-9.654-3.071c-1.325,4.395-4.395,13.609-4.395,13.609
			L626.684,421.629z"/>
		<path fill="#008747" d="M498.477,181.931c0,0,16.302-8.294,13.176,2.667c-3.135,10.979-6.271,15.669-6.271,15.669l8.129,26.095
			c0,0,6.758-22.951,14.601-23.741c7.835-0.773,7.835-0.773,7.835-0.773s2.354-13.314,7.834-15.687
			c5.48-2.335,13.323,0,10.188-11.751c-3.135-11.752-4.708-14.878-10.188-13.315s-6.271,18.813-10.188,12.542
			c-3.917-6.271-4.708-14.105-4.708-14.105S504.886,176.947,498.477,181.931z"/>
		<path fill="#008747" d="M561.022,128.967c-2.915,4.359,14.886,13.315,5.489,14.105c-9.407,0.791-3.918,14.897-0.791,17.232
			c3.135,2.354,4.708,11.752,10.188,3.917c5.489-7.834,13.333-7.834,14.106-3.917c0.79,3.917-0.773,4.708,5.498,2.354
			c6.263-2.354,5.481-15.668,5.481-15.668s14.886,10.188,14.886-7.835c0-18.041-5.489-17.25-14.105-17.25
			c-8.617,0-7.835-14.106-7.835-14.106S564.158,124.259,561.022,128.967z"/>
		<path fill="#008747" d="M642.527,90.55c0,0,0,18.041-7.052,18.814c-7.052,0.79-6.271,7.062-7.052,14.896
			c-0.782,7.834,4.698,14.896,9.406,9.397c4.698-5.48,4.698-14.105,9.397-8.606c4.708,5.48,9.406,10.17,9.406,10.17l3.779,3.678
			c0,0-6.124-40.459-11.613-47.134C650.371,91.341,642.527,90.55,642.527,90.55z"/>
		<path fill="#1E1E25" d="M679.363,288.833c1.572-2.354,7.052-21.94,15.678-27.439c8.615-5.48,12.532-1.563,5.48,5.499
			c-7.062,7.044-14.896,25.066-14.896,25.066L679.363,288.833z"/>
		<path fill="#1E1E25" d="M566.788,225.681c2.059,1.361,6.161,10.243,14.353,10.243c8.202,0,9.563-4.781,15.034-9.564
			c5.461-4.781,32.109-12.303,36.21,3.421c5.461-4.781,5.461-4.781,5.461-4.781s-14.344-22.546-34.16-20.505
			C583.872,206.537,566.788,225.681,566.788,225.681z"/>
		<g>
			<g>
				<path fill="#FFFFFF" d="M292.553,816.705l-58.968,41.58l-19.576-27.769c-4.267-6.051-6.226-11.531-5.904-16.496
					c0.313-4.965,2.906-9.14,7.76-12.56c2.979-2.115,5.885-3.292,8.717-3.531c2.832-0.239,5.628,0.441,8.386,2.005
					c-0.919-3.899-0.763-7.43,0.478-10.556c1.241-3.145,3.595-5.922,7.035-8.35c5.746-4.045,11.484-5.314,17.24-3.769
					c5.757,1.544,11.053,5.737,15.889,12.596L292.553,816.705z M248.214,830.59l-9.756-13.848c-2.115-2.997-4.174-4.818-6.169-5.48
					c-2.005-0.662-4.129-0.202-6.336,1.343c-2.161,1.544-3.246,3.31-3.282,5.333c-0.019,2.041,1.067,4.634,3.273,7.742l9.71,13.774
					L248.214,830.59z M273.712,812.605l-10.124-14.363c-2.391-3.384-4.745-5.425-7.062-6.106c-2.317-0.699-4.8-0.091-7.448,1.765
					c-2.74,1.931-4.193,4.102-4.341,6.473c-0.128,2.391,1.03,5.315,3.494,8.809l10.078,14.289L273.712,812.605z"/>
				<path fill="#FFFFFF" d="M217.227,768.799c-10.722,4.579-20.477,5.296-29.268,2.134c-8.782-3.164-15.273-9.674-19.522-19.586
					c-4.22-9.912-4.441-19.144-0.643-27.714c3.807-8.569,11.043-15.135,21.737-19.696c10.703-4.56,20.449-5.26,29.259-2.078
					c8.808,3.182,15.337,9.728,19.567,19.622c4.23,9.931,4.432,19.144,0.625,27.678C235.166,757.691,227.92,764.238,217.227,768.799
					z M211.287,754.877c7.301-3.108,12.266-7.154,14.932-12.119c2.649-4.966,2.732-10.372,0.239-16.202
					c-2.501-5.867-6.473-9.581-11.916-11.144c-5.434-1.545-11.807-0.754-19.098,2.354c-7.31,3.108-12.275,7.172-14.915,12.175
					c-2.639,5.002-2.713,10.445-0.193,16.312c2.483,5.829,6.437,9.507,11.843,11.034
					C197.586,758.813,203.958,758.022,211.287,754.877z"/>
				<path fill="#FFFFFF" d="M196.951,679.772l-2.933-14.344c3.77-1.343,6.326-3.512,7.66-6.51c1.333-2.998,1.507-6.988,0.487-11.953
					c-0.855-4.23-2.252-7.264-4.193-9.085c-1.94-1.839-4.376-2.464-7.328-1.876c-4.285,0.882-6.593,7.76-6.887,20.653l-0.019,0.459
					c0,0.331-0.009,0.846-0.037,1.544c-0.101,6.897-0.754,11.918-1.968,15.099c-1.104,2.831-2.86,5.167-5.296,7.025
					c-2.445,1.876-5.499,3.181-9.177,3.917c-6.878,1.397-12.634,0.147-17.25-3.789c-4.607-3.935-7.816-10.298-9.609-19.125
					c-1.683-8.276-1.04-15.117,1.922-20.56c2.942-5.462,7.963-9.03,15.006-10.722l2.851,13.94c-3.384,0.975-5.72,2.813-7.025,5.536
					c-1.315,2.74-1.526,6.289-0.625,10.684c0.763,3.807,2.115,6.584,4.008,8.35c1.913,1.765,4.249,2.354,6.989,1.802
					c3.752-0.773,5.738-5.352,5.958-13.756c0.074-2.281,0.12-4.064,0.166-5.333c0.258-5.425,0.543-9.269,0.837-11.604
					c0.303-2.298,0.726-4.34,1.314-6.124c1.012-3.199,2.685-5.793,5.02-7.779c2.354-1.967,5.371-3.328,9.049-4.083
					c7.365-1.49,13.572-0.165,18.629,3.955c5.057,4.137,8.496,10.721,10.336,19.751c1.802,8.901,1.168,16.294-1.931,22.179
					C209.797,673.923,204.482,677.841,196.951,679.772z"/>
				<path fill="#FFFFFF" d="M205.255,584.363l-59.244,1.453l0.515,21.388l-12.883,0.313l-1.397-57.488l12.882-0.313l0.515,21.259
					l59.253-1.452L205.255,584.363z"/>
				<path fill="#FFFFFF" d="M169.136,529.873c-11.475-1.986-20.063-6.676-25.728-14.087c-5.664-7.429-7.586-16.441-5.756-27.07
					c1.82-10.611,6.639-18.5,14.491-23.613c7.835-5.131,17.49-6.713,28.937-4.763c11.467,1.968,20.026,6.695,25.7,14.143
					c5.682,7.448,7.604,16.496,5.775,27.126c-1.821,10.611-6.639,18.482-14.482,23.557
					C190.238,530.278,180.593,531.822,169.136,529.873z M171.711,514.959c7.816,1.343,14.188,0.644,19.116-2.096
					c4.92-2.722,7.918-7.228,8.993-13.462c1.086-6.29-0.239-11.567-3.963-15.835c-3.715-4.247-9.499-7.043-17.323-8.386
					c-7.816-1.343-14.197-0.625-19.126,2.115c-4.928,2.778-7.935,7.32-9.02,13.627c-1.075,6.234,0.249,11.457,3.963,15.687
					C158.066,510.821,163.849,513.617,171.711,514.959z"/>
				<path fill="#FFFFFF" d="M222.128,449.048l-66.923-26.96l5.803-14.399l56.917-8.663l-45.975-18.519l5.461-13.59l66.931,26.96
					l-5.729,14.234l-56.991,8.827l45.975,18.519L222.128,449.048z"/>
				<path fill="#FFFFFF" d="M865.076,245.708c-5.177,6.363-11.512,9.876-19.015,10.519c-7.485,0.607-15.025-1.747-22.602-7.099
					c-8.735-6.161-13.59-13.664-14.593-22.528c-1.002-8.864,1.958-18.188,8.892-28.008c7.08-10.041,14.969-15.98,23.667-17.82
					c8.708-1.857,17.683,0.478,26.942,7.007c7.521,5.314,12.174,11.347,13.939,18.077c1.784,6.768,0.515,13.627-3.788,20.634
					l-11.954-8.459c1.84-3.679,2.28-7.191,1.288-10.483c-0.974-3.328-3.347-6.308-7.108-8.956c-5.333-3.77-10.602-4.91-15.806-3.421
					c-5.205,1.472-10.142,5.536-14.822,12.138c-4.507,6.4-6.621,12.339-6.327,17.765c0.294,5.462,2.997,9.986,8.083,13.572
					c3.687,2.593,7.365,3.789,11.025,3.568c3.678-0.239,7.116-1.857,10.298-4.892L865.076,245.708z"/>
				<path fill="#FFFFFF" d="M864.451,278.7l52.192-49.819l36.174,37.921l-9.066,8.662l-26.077-27.31l-11.127,10.611l23.834,24.974
					l-8.92,8.515l-23.843-24.974l-13.434,12.819l27.292,28.597l-9.637,9.194L864.451,278.7z"/>
				<path fill="#FFFFFF" d="M912.835,332.638l60.063-39.943l8.239,12.358l-48.991,32.568l19.494,29.333l-11.089,7.374
					L912.835,332.638z"/>
				<path fill="#FFFFFF" d="M950.149,394.577l53.672-25.139l-9.076-19.383l11.66-5.462l24.386,52.063l-11.659,5.48l-9.012-19.254
					l-53.68,25.121L950.149,394.577z"/>
				<path fill="#FFFFFF" d="M970.213,443.495l68.871-21.461l4.423,14.16l-68.88,21.461L970.213,443.495z"/>
				<path fill="#FFFFFF" d="M1015.269,537.965c-8.193,0.662-15.098-1.49-20.735-6.473c-5.637-4.984-9.149-12.064-10.529-21.222
					c-1.6-10.556,0.46-19.254,6.161-26.133c5.71-6.842,14.5-11.163,26.389-12.947c12.129-1.839,21.885-0.258,29.241,4.745
					c7.357,5.002,11.88,13.112,13.572,24.312c1.37,9.103,0.239,16.625-3.402,22.584c-3.66,5.94-9.481,9.802-17.517,11.531
					l-2.179-14.492c3.944-1.232,6.767-3.328,8.487-6.326c1.7-2.997,2.216-6.767,1.535-11.328
					c-0.974-6.454-3.807-11.052-8.469-13.774c-4.68-2.74-11.016-3.494-19.015-2.298c-7.761,1.177-13.489,3.751-17.213,7.724
					c-3.724,3.99-5.122,9.048-4.202,15.227c0.671,4.45,2.363,7.926,5.067,10.427c2.713,2.501,6.252,3.844,10.638,4.046
					L1015.269,537.965z"/>
				<path fill="#FFFFFF" d="M1013.54,559.72l-0.717,14.621c-3.972,0.367-6.988,1.839-9.03,4.413
					c-2.041,2.575-3.182,6.4-3.439,11.457c-0.221,4.303,0.386,7.577,1.811,9.839c1.426,2.263,3.633,3.476,6.639,3.623
					c4.368,0.22,8.303-5.866,11.797-18.28l0.12-0.442c0.083-0.331,0.23-0.828,0.432-1.508c1.793-6.639,3.678-11.347,5.646-14.124
					c1.756-2.465,4.046-4.304,6.878-5.518c2.813-1.195,6.105-1.692,9.858-1.49c7.006,0.331,12.248,2.979,15.76,7.926
					c3.494,4.947,5.021,11.917,4.579,20.928c-0.423,8.405-2.75,14.896-6.952,19.438c-4.22,4.543-9.958,6.768-17.213,6.676
					l0.717-14.234c3.494-0.092,6.216-1.306,8.165-3.623c1.949-2.317,3.034-5.7,3.255-10.188c0.203-3.862-0.423-6.915-1.821-9.084
					c-1.416-2.17-3.522-3.347-6.335-3.476c-3.807-0.184-6.869,3.752-9.168,11.862c-0.625,2.188-1.121,3.898-1.48,5.113
					c-1.609,5.185-2.823,8.864-3.687,11.016c-0.864,2.169-1.783,4.046-2.777,5.627c-1.784,2.851-4.065,4.947-6.813,6.29
					c-2.768,1.343-6.023,1.912-9.774,1.71c-7.503-0.367-13.186-3.182-17.066-8.44c-3.872-5.26-5.572-12.506-5.113-21.683
					c0.441-9.066,2.906-16.073,7.365-21.02C999.638,562.203,1005.762,559.739,1013.54,559.72z"/>
			</g>
		</g>
	</g>
</g>
</svg>
