<?xml version="1.0" encoding="utf-8"?>
<!-- Designed by Vexels.com - 2016 All Rights Reserved - https://vexels.com/terms-and-conditions/  -->

<svg version="1.1" id="Layer_1" xmlns="http://www.w3.org/2000/svg" xmlns:xlink="http://www.w3.org/1999/xlink" x="0px" y="0px"
	 width="1200px" height="1200px" viewBox="0 0 1200 1200" enable-background="new 0 0 1200 1200" xml:space="preserve">
<g>
	<path fill="#FFFFFF" d="M506.547,297.476H303.65c0,0-23.919-2.28-44.441,22.801c-20.53,25.072-137.927,160.71-137.927,160.71
		s-16.968,22.582,11.41,22.582c28.379,0,31.922,0,31.922,0S34.024,596.379,51.633,749.734
		c17.628,153.348,207.238,231.065,311.887,100.51c34.202-1.035,89.127,0,89.127,0s104.65,141.956,300.487,141.956
		c195.855,0,396.866-149.208,396.866-395.822c0-246.615-203.09-388.579-393.753-388.579
		C596.673,207.799,506.547,297.476,506.547,297.476z"/>
	<path fill="#E51431" d="M310.948,335.094h202.907c0,0,80.07-94.082,260.441-94.082c180.37,0,318.746,160.161,336.63,291.539
		c0,0,34.981,139.163-57.526,272.099C960.884,937.586,817.839,970.25,692.668,951.579
		c-125.17-18.643-214.563-119.721-225.452-140.71c-3.891,0-172.595-0.778-234.004,1.547c0,0-13.214,1.566-16.337-9.322
		c-3.105-10.879,21.775-6.996,21.775-6.996l799.191-0.778c0,0,108.065-150.042,36.537-324.185H199.788
		c0,0-14.844,2.564-10.247-6.612c4.607-9.193,22.27-6.721,22.27-6.721l216.313-1.053c0,0,8.489-21.575,12.728-28.635l-217.017,0.348
		c0,0-4.597-11.657,14.844-12.371c19.45-0.696,207.476,0,208.538,0c1.053,0,19.084-27.912,19.084-27.912l-208.896-0.714
		c0,0-1.767-13.434,16.621-13.434c18.379,0,203.227-0.356,203.227-0.356s19.798-22.967,24.029-25.796
		c-12.711-0.348-203.575,0-203.575,0S298.045,335.726,310.948,335.094z"/>
	<path fill="#FFFFFF" d="M556.784,324.371c0,0,73.047-66.316,209.307-66.316c53.359,20.722,94.301,48.707,66.317,91.197
		C815.834,340.955,721.541,282.412,556.784,324.371z"/>
	<path fill="#FFFFFF" d="M824.121,360.634c0,0-132.634-73.56-301.531-6.73c-40.42,37.828-72.013,96.893-73.056,104.658
		c47.141-0.522,189.116-1.557,189.116-1.557s79.265-31.08,97.919-37.306C755.212,413.489,808.059,389.654,824.121,360.634z"/>
	<path fill="#FFFFFF" d="M838.635,368.408c0,0-25.393,36.272-61.143,51.29c-35.741,15.027-95.327,38.341-95.327,38.341h185.993
		l33.158-49.733C901.317,408.306,855.2,373.592,838.635,368.408z"/>
	<path fill="#FFFFFF" d="M811.173,263.237c0,0,40.924,20.723,45.071,46.107c4.149,25.393-7.252,44.56-7.252,44.56l60.09,42.48
		l47.673-75.639C956.754,320.745,887.846,267.395,811.173,263.237z"/>
	<path fill="#FFFFFF" d="M970.225,330.589c0,0,56.986,43.524,84.961,101.545c-26.932-16.053-65.795,2.592-79.778,22.802
		c-16.053-14.505-52.334-48.699-52.334-48.699L970.225,330.589z"/>
	<path fill="#FFFFFF" d="M914.264,420.22c-1.666-0.833-26.418,38.342-26.418,38.342h68.395
		C956.242,458.562,923.596,424.891,914.264,420.22z"/>
	<path fill="#FFFFFF" d="M994.574,457.526c0,0,8.8-18.131,33.15-16.583c24.367,1.557,40.41,17.618,40.41,17.618L994.574,457.526z"/>
	<g>
		<path fill="#293F92" d="M319.163,807.746c0,0-36.565,47.087-77.214,46.812c-35.741-0.23-94.356-41.235-69.934-162.578
			c24.404-121.361,86.407-178.503,141.562-178.54c58.405-0.046,71.848,34.862,77.424,62.764c0.732,9.963,7.665,13.251,11.859,5.577
			l22.307-78.112c0,0,5.594-16.739-12.546-16.043c-18.131,0.696-95.528,0.723-108.789,0.696
			c-23.195-0.054-112.991,9.075-170.178,91.372c-57.196,82.296-69.742,192.485,1.392,262.922
			c71.134,70.437,166.58,45.329,215.498-32.774C326.836,805.658,319.163,807.746,319.163,807.746z"/>
		<path fill="#293F92" d="M214.843,734.771c0,0-8.892,16.218-20.925,24.587c31.914,3.141,109.851,2.088,109.851,2.088
			s15.695-37.655,14.642-50.732c-11.51,18.827-31.903,41.849-50.74,40.273c-18.827-1.574-16.2-6.272-10.98-22.49
			c5.229-16.218,26.675-100.428,26.675-100.428s10.989-24.587,23.534-28.25c-18.827-1.566-76.885,0-76.885,0
			s19.359,0.522,13.077,28.763C236.812,656.834,214.843,734.771,214.843,734.771z"/>
		<path fill="#293F92" d="M370.204,729.021c5.751-27.207,25.631-104.622,25.631-104.622s7.849-21.968,17.774-25.109
			c-20.393-2.61-65.373-3.141-64.86,1.575c0,0,10.457,3.14,5.759,21.968c-4.706,18.828-28.772,117.168-28.772,117.168
			s-6.804,15.173-16.74,20.402c19.359,1.566,68.524-1.044,68.524-1.044S364.445,756.218,370.204,729.021z"/>
		<path fill="#293F92" d="M552.233,637.998c10.979-44.98-53.351-39.743-53.351-39.743l-71.143,1.035c0,0,20.403,2.619,12.033,34.01
			c-8.37,31.373-26.163,104.09-26.163,104.09s-10.98,18.306-17.774,21.969c11.492,1.044,70.089,1.044,70.089,1.044
			s-17.261-6.272-12.023-27.719c5.22-21.446,14.112-47.077,14.112-47.077S539.431,690.423,552.233,637.998z M511.922,632.229
			c-1.52,10.613-8.443,40.723-32.499,45.054c-4.542,0.879-12.774,2.811-9.523-10.174c3.242-13.003,13.434-52.425,13.434-52.425
			s2.802-11.264,15.595-10.613C511.703,604.73,513.434,621.616,511.922,632.229z"/>
		<path fill="#293F92" d="M676.057,637.998c10.989-44.98-53.35-39.743-53.35-39.743l-71.143,1.035c0,0,20.402,2.619,12.033,34.01
			c-8.37,31.373-26.153,104.09-26.153,104.09s-10.98,18.306-17.793,21.969c11.521,1.044,70.099,1.044,70.099,1.044
			s-17.261-6.272-12.033-27.719c5.229-21.446,14.121-47.077,14.121-47.077S663.255,690.423,676.057,637.998z M635.747,632.229
			c-1.52,10.613-8.453,40.723-32.49,45.054c-4.552,0.879-12.784,2.811-9.524-10.174c3.242-13.003,13.425-52.425,13.425-52.425
			s2.811-11.264,15.595-10.613C635.518,604.73,637.267,621.616,635.747,632.229z"/>
		<path fill="#293F92" d="M732.924,753.361c-17.601,2.582-30.549,1.044-30.549,1.044s-8.819-2.079-3.635-19.175
			c5.183-17.107,14.001-52.334,14.001-52.334s7.244-10.357,17.088-5.173c9.844,5.173,16.062,35.228,16.062,35.228l18.654-72.022
			c0,0-17.107,23.323-27.975,23.836c-10.889,0.522-17.107,2.592-15.028-13.992c2.07-16.574,13.983-43.515,15.531-43.515
			c1.566,0,50.264-10.878,46.115,34.716c10.366-21.758,10.879-43.003,10.879-43.003l-118.12,1.557c0,0,19.167,3.105,12.426,28.488
			c-6.721,25.393-26.932,103.624-26.932,103.624s-5.696,18.654-20.209,24.871c3.104,3.627,18.14,4.148,29.01,4.148
			c10.879,0,88.597,0,88.597,0s7.252-3.635,9.322-11.41c2.069-7.765,11.41-36.775,11.41-36.775S750.552,750.769,732.924,753.361z"/>
		<path fill="#293F92" d="M1041.092,600.792c-45.859-10.513-77.626-8.123-90.281,21.262c-12.655,29.376,13.141,58.991,16.712,63.771
			c3.59,4.79,29.148,38.699,20.796,56.134c-8.36,17.436-28.195,16.016-42.526,0.962c-14.332-15.045-12.656-42.527-13.37-46.345
			c-0.724-3.818-2.638,4.304-4.295,15.045c-2.161,14.34-6.942,38.946-19.844,38.69c-12.893-0.229-10.742-23.873-11.209-40.832
			c-0.494-16.959-5.98-22.216-10.036-24.844c-4.066-2.628-1.263-5.366-1.263-5.366s39.897-7.244,45.072-39.376
			c7.252-45.594-36.528-42.225-37.819-43.515c-1.291-1.291-87.562,0-87.562,0c-4.176,0.833,6.08,8.964,6.08,8.964
			c6.694,7.39-0.229,37.728-0.229,37.728s-14.587,58.525-21.025,85.273c-6.447,26.748-20.063,31.3-20.063,31.3
			s53.982,0.476,72.132,0c-20.833-9.652-9.671-42.233-7.106-51.097c2.848-9.844,7.106-23.196,11.923-22.802
			c8.094,0.669,12.142,17.766,11.428,48.341c-0.723,30.576,18.387,35.109,28.892,35.823c10.513,0.724,21.024-7.161,21.024-7.161
			s10.751,1.667,20.779-3.104c10.036-4.78,16.492-2.867,25.09,1.19c8.59,4.066,19.103,4.542,19.103,4.542
			c45.621-1.914,53.267-39.651,51.839-61.629c-1.438-21.977-25.082-50.163-38.69-73.331c-13.616-23.176,8.589-25.328,8.589-25.328
			c35.356-0.953,31.29,35.832,31.29,35.832S1032.256,630.654,1041.092,600.792z M862.673,672.694
			c-16.483,4.542-14.817-7.408-14.817-7.408s12.655-50.429,12.893-51.354c2.152-8.122,10.989-8.589,10.989-8.589
			c14.102,0,20.558,20.539,18.158,34.624C887.507,654.06,879.156,668.162,862.673,672.694z"/>
	</g>
	<path fill="#FFFFFF" d="M495.778,811.849h108.761l-49.514,58.826C555.026,870.674,512.28,837.251,495.778,811.849z"/>
	<path fill="#FFFFFF" d="M568.148,879.566c-1.255-0.879,56.281-67.296,56.281-67.296h280.166c0,0-29.203,98.605-104.53,123.577
		C745.048,941.771,655.325,940.508,568.148,879.566z"/>
	<path fill="#FFFFFF" d="M920.253,812.27c0,0-26.235,83.377-75.758,113.422c43.167-8.883,122.735-41.895,181.14-113.843
		C988.393,811.015,920.253,812.27,920.253,812.27z"/>
	<g>
		<g>
			<path fill="#293F92" d="M458.398,562.771l12.307-58.735h12.069l-10.219,48.918h29.889l-2.052,9.817H458.398z"/>
			<path fill="#293F92" d="M502.18,539.74c0-3.48,0.512-7.133,1.557-10.98c1.364-5.156,3.443-9.633,6.236-13.424
				c2.784-3.8,6.31-6.795,10.559-9.002c4.24-2.198,9.083-3.297,14.505-3.297c7.262,0,13.14,2.244,17.618,6.767
				c4.46,4.515,6.712,10.503,6.712,17.949c0,6.199-1.466,12.198-4.368,17.985c-2.922,5.805-6.868,10.265-11.868,13.388
				c-5,3.132-10.64,4.689-16.959,4.689c-5.468,0-10.055-1.245-13.782-3.727c-3.718-2.472-6.345-5.558-7.884-9.23
				C502.949,547.176,502.18,543.468,502.18,539.74z M514.12,539.493c0,4.039,1.227,7.409,3.681,10.147
				c2.454,2.719,5.686,4.084,9.698,4.084c3.259,0,6.391-1.071,9.404-3.223c2.994-2.152,5.484-5.412,7.444-9.79
				c1.96-4.358,2.949-8.617,2.949-12.756c0-4.615-1.255-8.242-3.727-10.879c-2.491-2.637-5.65-3.947-9.496-3.947
				c-5.907,0-10.705,2.757-14.413,8.251C515.961,526.884,514.12,532.927,514.12,539.493z"/>
			<path fill="#293F92" d="M567.333,543.751l11.492-0.604c0.165,3.653,0.788,6.126,1.887,7.408c1.758,2.088,5.027,3.123,9.779,3.123
				c3.947,0,6.813-0.705,8.581-2.115c1.749-1.42,2.627-3.132,2.627-5.138c0-1.731-0.713-3.205-2.152-4.404
				c-1.025-0.88-3.8-2.308-8.351-4.286c-4.56-1.978-7.884-3.635-9.99-4.945c-2.088-1.328-3.745-3.049-4.936-5.156
				c-1.209-2.115-1.822-4.579-1.822-7.408c0-4.955,1.795-9.048,5.384-12.307c3.58-3.26,8.764-4.882,15.549-4.882
				c6.896,0,12.225,1.612,16.007,4.845c3.783,3.232,5.852,7.536,6.227,12.902l-11.575,0.513c-0.293-2.802-1.319-4.945-3.05-6.447
				c-1.73-1.493-4.303-2.243-7.692-2.243c-3.342,0-5.723,0.586-7.152,1.758c-1.438,1.181-2.152,2.664-2.152,4.45
				c0,1.685,0.659,3.067,1.969,4.166c1.318,1.117,4.212,2.656,8.699,4.615c6.749,2.903,11.053,5.265,12.903,7.087
				c2.747,2.674,4.121,6.108,4.121,10.303c0,5.192-2.052,9.615-6.154,13.278c-4.093,3.672-9.807,5.513-17.133,5.513
				c-5.036,0-9.414-0.843-13.114-2.546c-3.709-1.694-6.309-4.047-7.838-7.069C567.928,551.141,567.223,547.671,567.333,543.751z"/>
			<path fill="#293F92" d="M681.735,549.795h-23.278l-7.069,12.976h-12.409l33.204-58.735h13.434l9.533,58.735h-11.447
				L681.735,549.795z M680.242,540.015l-3.397-23.644l-14.194,23.644H680.242z"/>
			<path fill="#293F92" d="M754.407,562.771h-11.264l-15.86-39.468l-8.251,39.468h-11.263l12.261-58.735h11.309l15.897,39.303
				l8.214-39.303h11.218L754.407,562.771z"/>
			<path fill="#293F92" d="M804.341,531.399h26.281l-5.292,25.209c-3.105,2.006-6.896,3.691-11.392,5.092
				c-4.496,1.392-9.093,2.079-13.763,2.079c-7.271,0-12.839-1.639-16.713-4.927c-5.283-4.487-7.93-10.998-7.93-19.515
				c0-5.713,1.126-11.19,3.397-16.437c2.729-6.3,6.594-11.19,11.621-14.652c5.018-3.48,10.924-5.211,17.719-5.211
				c6.777,0,12.225,1.566,16.327,4.717c4.102,3.159,6.813,7.756,8.151,13.791l-11.254,1.282c-0.989-3.315-2.592-5.805-4.789-7.49
				c-2.207-1.685-4.982-2.528-8.316-2.528c-3.901,0-7.481,1.008-10.741,3.049c-3.259,2.025-5.815,5.165-7.646,9.414
				c-1.85,4.25-2.775,8.873-2.775,13.901c0,4.945,1.126,8.599,3.37,10.961c2.243,2.363,5.531,3.544,9.853,3.544
				c2.591,0,5.247-0.356,7.975-1.098c2.729-0.742,5.074-1.612,7.052-2.628l1.804-8.737h-14.991L804.341,531.399z"/>
			<path fill="#293F92" d="M838.754,562.771l12.262-58.735h43.561l-2.041,9.817H861.08l-2.811,13.342h30.42l-2.051,9.817h-30.412
				l-3.691,15.943h34.184l-2.078,9.817H838.754z"/>
			<path fill="#293F92" d="M895.456,562.771l12.298-58.735h12.052l-10.211,48.918h29.899l-2.033,9.817H895.456z"/>
			<path fill="#293F92" d="M943.623,562.771l12.271-58.735h43.552l-2.041,9.817h-31.465l-2.793,13.342h30.411l-2.042,9.817h-30.42
				l-3.691,15.943h34.184l-2.078,9.817H943.623z"/>
			<path fill="#293F92" d="M995.279,543.751l11.492-0.604c0.165,3.653,0.796,6.126,1.887,7.408c1.767,2.088,5.018,3.123,9.779,3.123
				c3.956,0,6.813-0.705,8.581-2.115c1.758-1.42,2.646-3.132,2.646-5.138c0-1.731-0.732-3.205-2.171-4.404
				c-1.016-0.88-3.799-2.308-8.351-4.286c-4.551-1.978-7.884-3.635-9.981-4.945c-2.098-1.328-3.737-3.049-4.945-5.156
				c-1.199-2.115-1.813-4.579-1.813-7.408c0-4.955,1.795-9.048,5.375-12.307c3.59-3.26,8.773-4.882,15.549-4.882
				c6.904,0,12.234,1.612,16.016,4.845c3.773,3.232,5.851,7.536,6.227,12.902l-11.584,0.513c-0.292-2.802-1.309-4.945-3.04-6.447
				c-1.739-1.493-4.304-2.243-7.701-2.243c-3.333,0-5.714,0.586-7.152,1.758c-1.428,1.181-2.142,2.664-2.142,4.45
				c0,1.685,0.668,3.067,1.969,4.166c1.299,1.117,4.203,2.656,8.69,4.615c6.758,2.903,11.062,5.265,12.903,7.087
				c2.756,2.674,4.13,6.108,4.13,10.303c0,5.192-2.051,9.615-6.144,13.278c-4.102,3.672-9.817,5.513-17.134,5.513
				c-5.055,0-9.431-0.843-13.132-2.546c-3.69-1.694-6.3-4.047-7.829-7.069C995.884,551.141,995.179,547.671,995.279,543.751z"/>
		</g>
	</g>
</g>
</svg>
