<?xml version="1.0" encoding="utf-8"?>
<!-- Designed by Vexels.com - 2016 All Rights Reserved - https://vexels.com/terms-and-conditions/  -->

<svg version="1.1" id="Layer_1" xmlns="http://www.w3.org/2000/svg" xmlns:xlink="http://www.w3.org/1999/xlink" x="0px" y="0px"
	 width="1200px" height="1200px" viewBox="0 0 1200 1200" enable-background="new 0 0 1200 1200" xml:space="preserve">
<g>
	<g>
		<path fill="#2C2B59" d="M598.472,403.647c-44.708-0.509-63.94,16.646-63.94,16.646l3.635,5.717l-15.597,8.32l5.201,7.799
			c0,0-1.56,15.068-39.52,13.508c-37.941-1.56-128.923-5.194-184.027-17.156c-47.834-10.389-96.177-23.911-110.736-38.476
			c-14.559-14.552-28.08-34.299-29.64-54.06c-16.112,15.597-22.344,30.15-15.074,54.588c-24.955-7.799-44.186-19.232-49.909-36.904
			c-3.119,27.017,5.723,39.507,10.911,46.262c-15.584-2.604-38.463-7.798-45.746-18.194c0,23.395,18.2,38.482,26.521,45.23
			C75.47,436.406,52.591,429.129,50,426.519c0,0,1.239,22.753,24.2,35.841c5.189,2.962,6.672,6.169-0.245,5.672
			c-6.911-0.484-19.011-2.962-23.948-4.937c0.735,9.635,16.785,27.156,42.715,36.287c3.704,0.994,5.924,3.962-0.497,5.194
			c-6.421,1.239-16.294,0.743-20.734-1.233c7.396,11.106,21.722,26.414,52.343,32.351c3.214,0.735-0.251,3.195-5.195,3.446
			c-4.93,0.252-18.263,0.252-18.263,0.252s12.339,31.608,64.933,27.898c1.981,17.03,3.452,19.508,3.452,19.508l18.276,0.736
			l7.654,20.747l20.489-1.238l8.157,19.998l20.244-5.188l10.854,19.998l20.496-6.169l12.352,16.786l19.502-7.402l12.836,12.848
			l18.766-10.867l12.351,12.578c0,0,62.707,4.453,107.145-14.314c8.899-20.734,28.891-35.809,38.268-39.004
			c11.855,5.421,9.396,23.697,9.396,23.697s-44.319-0.202-32.369,44.249c-24.432,3.119-34.57,14.288-37.425,24.69
			c-2.855,10.402-0.258,24.439,9.358,33.268c-8.571,9.371-49.129,53.029-49.129,53.029l42.369-3.371l18.716,22.351l15.332-9.358
			c0,0,18.207,98.51,125.559,98.51h5.194l8.836-95.14l-8.32-152.576c0.78-0.78,0.78-0.78,0.78-0.78l14.823-215.233L598.472,403.647z
			"/>
		<g>
			<path fill="#C1C0C1" d="M521.444,757.431c0.994-0.629-27.168-4.704-36.054-20.288c9.056-22.476,12.408-27.835,12.408-27.835
				s38.224,20.955,53.324,62.223c0,0,4.201,13.747,4.698,24.803c-14.087-2.503-53.821-17.093-72.776-30.853
				c-0.333-8.226-0.333-8.226-0.333-8.226S506.188,767.154,521.444,757.431z"/>
			<path fill="#C1C0C1" d="M532.174,673.084c0,0,14.087,30.514,46.959,32.703c-16.269-9.409-27.841-35.218-25.828-44.123
				c11.069-5.358,27.678-9.559,35.558-8.037c-0.177,24.15,0.842,145.74,0.842,145.74l-19.797-0.842c0,0-7.873-53.167-36.054-75.304
				c9.396-0.83,18.282-3.195,17.773-3.195c-0.504,0-19.949-3.509-29.338-13.911c-9.396-10.402-9.566-16.603-9.566-16.603
				L532.174,673.084z"/>
			<path fill="#C1C0C1" d="M483.315,781.405c0,0,41.413,24.099,71.587,28.375c-3.214,24.112-22.137,38.036-35.343,40.538
				C503.131,836.395,483.497,804.611,483.315,781.405z"/>
			<path fill="#C1C0C1" d="M589.177,813.189v66.398c0,0-34.451,1.082-57.129-19.282c14.817-5.71,37.136-26.942,36.42-48.374
				C580.429,812.825,589.177,813.189,589.177,813.189z"/>
		</g>
		<path fill="#E62A3D" d="M512.313,497.408c0,0-5.823-21.521-42.796-30.64c-36.973-9.119-66.858-15.697-79.266-16.716
			c-12.415-1.006-21.27-2.277-21.27-2.277s1.013,22.037,43.551,51.909c-25.319-7.849-54.443-21.27-63.814-53.934
			c-7.842-1.271-25.074-3.547-25.074-3.547s10.647,43.809,57.745,72.172c28.86,19.244,64.059,29.118,64.059,29.118
			s-60.009-2.025-100.787-28.609c-40.765-26.596-53.173-62.808-55.198-80.278c-13.169-3.038-24.816-5.824-24.816-5.824
			s4.547,41.275,32.658,61.028c-25.577-10.383-48.865-40.262-50.129-64.575c-17.729-7.094-45.331-13.685-56.985-27.86
			c-11.647-14.175-20.514-28.866-20.514-28.866s-18.735,29.131,6.842,47.859c-13.937,0.509-30.898-3.541-41.281-9.622
			c3.541,12.163,23.81,35.973,45.325,44.828c1.271,2.277-1.515,3.295-5.56,3.798c-4.056,0.503-27.105,2.779-45.589-9.622
			c6.075,15.445,17.723,33.168,69.135,42.538c-5.578,11.396-40.017,6.842-48.362,4.566c9.113,16.2,32.659,35.444,88.127,35.193
			c-3.805,9.37-32.42,15.194-46.35,13.936c10.887,9.107,57.488,21.27,96.988,9.371c-3.792,11.39-22.037,18.993-35.967,20.25
			c14.691,7.855,60.273,8.107,87.366,0.773c-3.534,10.874-20.502,16.949-32.659,18.219c12.905,6.088,41.017,11.396,82.297-6.327
			c1.271,6.075-9.371,15.446-17.219,19.747c26.08,1.019,90.661-8.112,127.37-38.746c18.496-15.439,23.062-47.865-11.389-70.392
			C493.308,491.327,508.257,494.119,512.313,497.408z"/>
		<g>
			<path fill="#FFFFFF" d="M371.196,616.521c-0.428,0.151-20.647,24.408-20.647,24.408l-6.345-0.862l-0.296-6.792L371.196,616.521z"
				/>
			<path fill="#FFFFFF" d="M319.651,606.408c-0.44,0.157-33.068,23.697-33.068,23.697l-9.239-1.736l3.749-7.233L319.651,606.408z"/>
			<path fill="#FFFFFF" d="M255.253,587.504c-0.434,0.289-24.835,14.301-24.835,14.301l-8.377-4.767l2.887-4.911L255.253,587.504z"
				/>
			<path fill="#FFFFFF" d="M200.664,555.883c-0.428,0.138-24.835,9.521-24.835,9.521l-5.195-3.018l2.308-5.352L200.664,555.883z"/>
			<path fill="#FFFFFF" d="M150.422,516.452c-0.441,0.302-25.999,6.654-25.999,6.654l-4.754-5.195l4.471-4.917L150.422,516.452z"/>
		</g>
		<g>
			<path fill="#C1C0C1" d="M544.085,609.006c0,0,17.779-2.679,22.47,11.239c4.698,13.911-7.886,24.313-12.578,24.98
				c2.182-9.22-3.522-19.785-12.911-18.942c0.83-5.201-3.018-8.547-3.018-8.547s4.358-1.515,5.874-2.522
				C545.418,614.201,547.606,610.685,544.085,609.006z"/>
			<path fill="#C1C0C1" d="M527.652,659.487c0,0-1.346-4.528-1.842-8.226c-4.874,2.691-4.874,8.062-4.031,12.414
				C523.62,659.324,527.652,659.487,527.652,659.487z"/>
			<path fill="#C1C0C1" d="M506.527,670.38c0.491-0.327,11.729-7.71,8.874-21.13c-2.843-13.409-16.433-16.943-28.835-9.559
				c3.346,1.012,3.861,2.522,3.861,2.522s-5.377,3.188-7.213,5.207c4.522,0.157,5.364,4.018,4.522,5.855
				c7.88-1.17,12.075-1.497,15.603,2.691C506.848,660.167,506.527,670.38,506.527,670.38z"/>
			<path fill="#C1C0C1" d="M476.164,711.484c0,0,4.025-13.081-2.346-21.131c-6.377-8.05-22.81-5.874-22.81-5.874
				s5.874,2.843,6.535,5.031c-2.17,0.843-7.031,6.528-7.031,6.528s4.018,0.516,5.201,1.685c1.169,1.17,0.66,10.905,0.66,10.905
				s4.025-3.019,9.566-3.195C471.473,705.271,476.164,711.484,476.164,711.484z"/>
			<path fill="#C1C0C1" d="M485.554,703.095c0,0,3.691-2.515,4.358-2.679c0.672-0.164-2.51-2.352-4.019-3.698L485.554,703.095z"/>
		</g>
		<g>
			<path fill="#FFFFFF" d="M524.966,746.702c0.673,1.169,6.88,11.395,6.037,11.395c-0.842,0-9.723,9.572-9.723,9.572v-6.716
				l4.031-4.352l-1.692-4.201L524.966,746.702z"/>
			<path fill="#FFFFFF" d="M582.485,697.9l0.503,9.722l-5.195,3.358l1,4.855c0,0,7.213-6.201,7.88-6.024
				c-0.163-6.05-0.667-9.899-0.667-9.899l-3.691-2.692"/>
			<path fill="#FFFFFF" d="M558.512,721.546l-4.195-11.081c0,0-3.358,0.679,0,9.559c-3.698,4.528-4.194,5.207-4.194,5.207
				l0.673,5.534L558.512,721.546z"/>
		</g>
		<g>
			<path fill="#FFFFFF" d="M486.566,655.462c0,0-2.522,20.804,10.735,37.067c13.238,16.263,30.175,23.986,29.678,23.307
				c-0.503-0.667-20.452-1.673-35.891-22.804C478.347,676.43,478.007,659.324,486.566,655.462z"/>
			<path fill="#FFFFFF" d="M456.373,711.484c0,0,7.717,29.52,39.577,43.595c-19.112-3.346-31.351-13.081-38.74-23.634
				C449.839,720.88,453.348,710.818,456.373,711.484z"/>
			<path fill="#FFFFFF" d="M537.878,627.621c0.547-0.258-4.528,26.331,4.691,43.274c6.717,12.578,14.257,20.452,16.27,22.64
				c-9.396-6.037-16.943-14.099-23.64-27.495C528.488,652.62,525.476,633.489,537.878,627.621z"/>
		</g>
	</g>
	<g>
		<path fill="#2C2B59" d="M285.062,366.007c0,0-9.289-44.682-10.861-51.443c-1.579-6.767,0.943-7.553,0.943-7.553h-31.149
			l-0.535,1.629c2.333,0.126,1.937,3.51,1.937,3.51s-10.647,49.268-12.081,53.161c-1.428,3.899-2.729,3.389-2.729,3.389v2.333
			h16.766v-1.956c-2.981-0.377-1.956-3.509-1.956-3.509l2.339-6.88h23.533c0,0,0.396,3.113,0.905,6.365
			c0.522,3.251-2.038,4.277-2.038,4.277v1.761h18.628v-1.604C285.515,368.951,285.062,366.007,285.062,366.007z M251.385,346.725
			l6.238-28.854l4.258,0.076l5.484,28.778H251.385z"/>
		<path fill="#2C2B59" d="M444.965,366.007c0,0-9.282-44.682-10.849-51.443c-1.573-6.767,0.937-7.553,0.937-7.553h-31.143
			l-0.541,1.629c2.333,0.126,1.943,3.51,1.943,3.51s-10.654,49.268-12.087,53.161c-1.421,3.899-2.717,3.389-2.717,3.389v2.333
			h16.754v-1.956c-2.981-0.377-1.95-3.509-1.95-3.509l2.346-6.88h23.527c0,0,0.39,3.113,0.912,6.365
			c0.509,3.251-2.05,4.277-2.05,4.277v1.761h18.627v-1.604C445.424,368.951,444.965,366.007,444.965,366.007z M411.293,346.725
			l6.239-28.854l4.27,0.076l5.484,28.778H411.293z"/>
		<path fill="#2C2B59" d="M616.005,366.007c0,0-9.282-44.682-10.854-51.443c-1.573-6.767,0.949-7.553,0.949-7.553h-31.149
			l-0.547,1.629c2.345,0.126,1.949,3.51,1.949,3.51s-10.654,49.268-12.081,53.161c-1.428,3.899-2.736,3.389-2.736,3.389v2.333
			h16.773v-1.956c-2.993-0.377-1.956-3.509-1.956-3.509l2.352-6.88h23.521c0,0,0.384,3.113,0.912,6.365
			c0.516,3.251-2.05,4.277-2.05,4.277v1.761h18.628v-1.604C616.471,368.951,616.005,366.007,616.005,366.007z M582.334,346.725
			l6.239-28.854l4.257,0.076l5.484,28.778H582.334z"/>
		<path fill="#2C2B59" d="M769.368,366.007c0,0-9.276-44.682-10.849-51.443c-1.566-6.767,0.943-7.553,0.943-7.553h-31.149
			l-0.547,1.629c2.346,0.126,1.956,3.51,1.956,3.51s-10.654,49.268-12.087,53.161c-1.421,3.899-2.729,3.389-2.729,3.389v2.333
			h16.772v-1.956c-3-0.377-1.956-3.509-1.956-3.509l2.333-6.88h23.533c0,0,0.39,3.113,0.906,6.365
			c0.528,3.251-2.038,4.277-2.038,4.277v1.761h18.634v-1.604C769.833,368.951,769.368,366.007,769.368,366.007z M735.697,346.725
			l6.251-28.854l4.251,0.076l5.491,28.778H735.697z"/>
		<path fill="#2C2B59" d="M286.999,319.299c0.258-1.428,3.635-1.56,3.635-1.56h11.572c0,0,0,44.715,0,48.23
			c0,3.509-2.082,2.729-2.082,2.729v2.333h17.943v-1.956c-1.956-0.126-2.478-3.245-2.478-3.245v-48.74c0,0,5.591,0,9.88,0
			s6.371,2.208,6.371,2.208V307.47h-44.84V319.299z"/>
		<path fill="#2C2B59" d="M557.072,317.091c4.289,0,6.364,2.208,6.364,2.208V307.47h-44.834v11.829
			c0.271-1.428,3.642-1.56,3.642-1.56h11.565c0,0,0,44.715,0,48.23c0,3.509-2.082,2.729-2.082,2.729v2.333h17.936v-1.956
			c-1.944-0.126-2.465-3.245-2.465-3.245v-48.74C547.198,317.091,552.782,317.091,557.072,317.091z"/>
		<path fill="#2C2B59" d="M374.598,360.114c-3.251,0-19.634,0-19.634,0v-48.224c0,0-0.516-2.207,2.213-2.723v-1.824l-16.76-0.138
			v2.088c0,0,2.465-0.126,2.465,2.855c0,2.993,0,52.248,0,52.248s0.264,3.51-2.604,4.427c0,0-0.384,2.076,0,2.076
			c0.396,0,39.645,0,39.645,0v-13.521h-1.685C378.239,357.379,377.843,360.114,374.598,360.114z"/>
		<path fill="#2C2B59" d="M491.339,308.904c1.409,0.478,2.201,2.503,2.201,2.503v20.112c0,0-16.018-18.389-17.59-20.112
			c-1.566-1.723-0.629-4.232-0.629-4.232h-17.112l-0.082,1.73c2.535,0,2.27,2.503,2.27,2.503s0,50.413,0,53.865
			c0,3.459-2.345,3.616-2.345,3.616v2.201h17.578v-1.578c-1.874-0.157-2.346-4.239-2.346-4.239v-37.684l20.572,23.867
			c0,0,0,11.458,0,13.98c0,2.509-2.516,3.295-2.516,3.295v2.195h17.263v-2.038c-1.566-0.327-1.717-2.993-1.717-2.993
			s0-50.563,0-53.531c0-2.981,1.717-2.679,1.717-2.679v-2.353h-17.263V308.904z"/>
		<path fill="#2C2B59" d="M703.68,366.561c0,0,0-50.55,0-54.123s1.22-3.472,1.22-3.472v-1.698h-16.446v1.509
			c1.22,0,1.604,1.786,1.604,1.786v18.703h-20.584c0,0,0-12.597,0-16.358c0-3.754,3.207-3.654,3.207-3.654v-1.987H655.67
			l0.182,1.786c2.157,0.201,2.352,3.484,2.352,3.484s0,47.066,0,51.305c0,4.232-2.919,4.509-2.919,4.509v2.912h17.106v-2.258
			c-2.264-0.277-2.723-2.251-2.723-2.251s0.372-26.496,0-26.496c-0.377,0,20.206,0,20.206,0s0,23.118,0,25.835
			c0,2.729-1.786,2.353-1.786,2.353v2.641h17.464v-2.547C704.239,368.253,703.68,366.561,703.68,366.561z"/>
		<path fill="#2C2B59" d="M839.929,308.986c2.157-0.095,1.855,2.471,1.855,2.471l-9.471,35.112c0,0-9.477-30.583-10.301-34.281
			c-0.824-3.711,1.226-2.994,1.226-2.994v-2.157h-16.364v2.157c1.849,0,1.648,2.786,1.648,2.786s-11.528,34.294-11.528,33.979
			c0-0.308-7.729-30.69-8.345-33.872c-0.616-3.201,2.478-2.893,2.478-2.893v-2.667h-17.716v2.466
			c2.365,0.201,2.981,3.295,2.981,3.295s11.534,49.33,12.15,52.613c0.623,3.302-1.635,3.302-1.635,3.302v2.371h19.043v-2.371
			c0,0-0.931,0.924-1.233-0.623c-0.314-1.54,0.717-4.327,0.717-4.327l9.88-28.828c0,0,8.345,26.049,9.477,29.759
			c1.132,3.704-0.717,4.735-0.717,4.735v1.654h18.219v-2.176c-2.667-0.509-0.818-5.031-0.717-5.553
			c0.107-0.509,10.704-46.545,11.327-50.356c0.622-3.805,3.603-3.905,3.603-3.905v-1.654h-16.578V308.986z"/>
		<path fill="#2C2B59" d="M917.139,366.441c-0.39-0.296-16.37-38.356-16.37-38.356s9.685-12.679,12.112-15.974
			c2.409-3.295,4.346-2.805,4.346-2.805v-1.837h-19.168v1.547c1.358,0.088,0.679,2.705,0.679,2.705l-18.596,19.659
			c0,0,0-13.559,0-17.823c0-4.251,3.496-4.251,3.496-4.251v-2.233h-17.15l-0.194,2.421c1.258,0.289,2.125,1.358,2.125,1.358
			s0,47.067,0,52.676c0,5.622-1.931,5.717-1.931,5.717v1.842h17.238v-1.459c-2.906,0-2.321-4.641-2.321-4.641v-13.471l10.648-11.71
			c0,0,8.81,21.496,10.175,25.087c1.346,3.579-1.459,3.968-1.459,3.968v2.126h19.37v-1.837
			C917.617,369.151,917.522,366.724,917.139,366.441z"/>
		<path fill="#2C2B59" d="M968.652,337.191c-7.352-2.716-27.791-10.754-27.791-10.754v-8.616h21.986v6.1h11.905V312.01
			c0,0,0.484-4.742-6.39-4.742c-6.88,0-37.381,0.094-37.381,0.094s-6.968,10.458-2.031,27.313
			c7.647,2.604,33.797,12.868,33.797,12.868s0.384,8.628-0.1,12.408c-3.868,0.1-22.37,0-22.37,0v-7.063c0,0-13.552-0.107-13.458,0
			c0.1,0.088,0,3.874,0,3.874s2.233-1.271,2.233,3.572c0,4.842,0,6.779,0,6.779s0.006,3.396,4.189,3.396c7.063,0,36.91,0,37.262,0
			c2.805,0,4.843-0.969,4.843-5.333c0-6.389-0.107-19.848,0-19.848C975.431,345.329,976.016,339.908,968.652,337.191z"/>
	</g>
	<g>
		<path fill="#2C2B59" d="M601.528,403.647c44.702-0.509,63.933,16.646,63.933,16.646l-3.629,5.717l15.597,8.32l-5.201,7.799
			c0,0,1.56,15.068,39.52,13.508c37.935-1.56,128.923-5.194,184.034-17.156c47.821-10.389,96.171-23.911,110.729-38.476
			c14.559-14.552,28.074-34.299,29.634-54.06c16.119,15.597,22.351,30.15,15.075,54.588c24.961-7.799,44.192-19.232,49.903-36.904
			c3.126,27.017-5.71,39.507-10.911,46.262c15.596-2.604,38.469-7.798,45.752-18.194c0,23.395-18.2,38.482-26.514,45.23
			c15.074-0.522,37.948-7.798,40.551-10.408c0,0-1.245,22.753-24.2,35.841c-5.188,2.962-6.672,6.169,0.239,5.672
			c6.918-0.484,19.005-2.962,23.955-4.937c-0.742,9.635-16.791,27.156-42.714,36.287c-3.704,0.994-5.931,3.962,0.49,5.194
			c6.421,1.239,16.295,0.743,20.741-1.233c-7.408,11.106-21.735,26.414-52.343,32.351c-3.207,0.735,0.245,3.195,5.182,3.446
			c4.937,0.252,18.276,0.252,18.276,0.252s-12.345,31.608-64.933,27.898c-1.975,17.03-3.459,19.508-3.459,19.508l-18.269,0.736
			l-7.647,20.747l-20.496-1.238l-8.157,19.998l-20.244-5.188l-10.861,19.998l-20.496-6.169l-12.345,16.786l-19.514-7.402
			l-12.83,12.848l-18.76-10.867l-12.352,12.578c0,0-62.707,4.453-107.157-14.314c-8.886-20.734-28.885-35.809-38.268-39.004
			c-11.855,5.421-9.377,23.697-9.377,23.697s44.312-0.202,32.357,44.249c24.439,3.119,34.576,14.288,37.432,24.69
			c2.861,10.402,0.258,24.439-9.364,33.268c8.59,9.371,49.141,53.029,49.141,53.029l-42.375-3.371l-18.729,22.351l-15.32-9.358
			c0,0-18.206,98.51-125.558,98.51h-5.201l-8.842-95.14l8.327-152.576c-0.78-0.78-0.78-0.78-0.78-0.78l-14.817-215.233
			L601.528,403.647z"/>
		<g>
			<path fill="#C1C0C1" d="M678.555,757.431c-0.994-0.629,27.169-4.704,36.049-20.288c-9.05-22.476-12.402-27.835-12.402-27.835
				s-38.237,20.955-53.324,62.223c0,0-4.201,13.747-4.704,24.803c14.093-2.503,53.833-17.093,72.782-30.853
				c0.334-8.226,0.334-8.226,0.334-8.226S693.806,767.154,678.555,757.431z"/>
			<path fill="#C1C0C1" d="M667.82,673.084c0,0-14.093,30.514-46.96,32.703c16.276-9.409,27.848-35.218,25.836-44.123
				c-11.069-5.358-27.672-9.559-35.558-8.037c0.163,24.15-0.843,145.74-0.843,145.74l19.797-0.842c0,0,7.881-53.167,36.055-75.304
				c-9.402-0.83-18.282-3.195-17.786-3.195c0.516,0,19.962-3.509,29.357-13.911c9.389-10.402,9.559-16.603,9.559-16.603
				L667.82,673.084z"/>
			<path fill="#C1C0C1" d="M716.685,781.405c0,0-41.419,24.099-71.587,28.375c3.214,24.112,22.137,38.036,35.35,40.538
				C696.862,836.395,716.496,804.611,716.685,781.405z"/>
			<path fill="#C1C0C1" d="M610.823,813.189v66.398c0,0,34.451,1.082,57.123-19.282c-14.817-5.71-37.13-26.942-36.413-48.374
				C619.571,812.825,610.823,813.189,610.823,813.189z"/>
		</g>
		<path fill="#E62A3D" d="M687.693,497.408c0,0,5.811-21.521,42.796-30.64c36.966-9.119,66.845-15.697,79.253-16.716
			c12.414-1.006,21.275-2.277,21.275-2.277s-1.012,22.037-43.557,51.909c25.326-7.849,54.449-21.27,63.814-53.934
			c7.849-1.271,25.074-3.547,25.074-3.547s-10.635,43.809-57.739,72.172c-28.873,19.244-64.066,29.118-64.066,29.118
			s60.009-2.025,100.787-28.609c40.772-26.596,53.173-62.808,55.192-80.278c13.188-3.038,24.829-5.824,24.829-5.824
			s-4.559,41.275-32.671,61.028c25.577-10.383,48.877-40.262,50.142-64.575c17.728-7.094,45.33-13.685,56.984-27.86
			c11.647-14.175,20.515-28.866,20.515-28.866s18.722,29.131-6.842,47.859c13.924,0.509,30.891-3.541,41.274-9.622
			c-3.546,12.163-23.803,35.973-45.33,44.828c-1.264,2.277,1.522,3.295,5.572,3.798c4.057,0.503,27.099,2.779,45.589-9.622
			c-6.081,15.445-17.728,33.168-69.134,42.538c5.572,11.396,40.01,6.842,48.368,4.566c-9.119,16.2-32.665,35.444-88.121,35.193
			c3.799,9.37,32.407,15.194,46.337,13.936c-10.892,9.107-57.487,21.27-96.988,9.371c3.798,11.39,22.024,18.993,35.96,20.25
			c-14.685,7.855-60.273,8.107-87.366,0.773c3.546,10.874,20.508,16.949,32.664,18.219c-12.917,6.088-41.029,11.396-82.297-6.327
			c-1.27,6.075,9.371,15.446,17.22,19.747c-26.087,1.019-90.656-8.112-127.376-38.746c-18.496-15.439-23.049-47.865,11.389-70.392
			C706.686,491.327,691.737,494.119,687.693,497.408z"/>
		<g>
			<path fill="#FFFFFF" d="M828.798,616.521c0.434,0.151,20.64,24.408,20.64,24.408l6.352-0.862l0.296-6.792L828.798,616.521z"/>
			<path fill="#FFFFFF" d="M880.349,606.408c0.428,0.157,33.067,23.697,33.067,23.697l9.239-1.736l-3.748-7.233L880.349,606.408z"/>
			<path fill="#FFFFFF" d="M944.741,587.504c0.44,0.289,24.835,14.301,24.835,14.301l8.377-4.767l-2.893-4.911L944.741,587.504z"/>
			<path fill="#FFFFFF" d="M999.329,555.883c0.433,0.138,24.828,9.521,24.828,9.521l5.202-3.018l-2.308-5.352L999.329,555.883z"/>
			<path fill="#FFFFFF" d="M1049.578,516.452c0.434,0.302,25.992,6.654,25.992,6.654l4.761-5.195l-4.471-4.917L1049.578,516.452z"/>
		</g>
		<g>
			<path fill="#C1C0C1" d="M655.908,609.006c0,0-17.772-2.679-22.464,11.239c-4.691,13.911,7.88,24.313,12.578,24.98
				c-2.183-9.22,3.521-19.785,12.911-18.942c-0.842-5.201,3.019-8.547,3.019-8.547s-4.364-1.515-5.874-2.522
				C654.582,614.201,652.393,610.685,655.908,609.006z"/>
			<path fill="#C1C0C1" d="M672.348,659.487c0,0,1.345-4.528,1.849-8.226c4.861,2.691,4.861,8.062,4.018,12.414
				C676.367,659.324,672.348,659.487,672.348,659.487z"/>
			<path fill="#C1C0C1" d="M693.479,670.38c-0.503-0.327-11.741-7.71-8.886-21.13c2.849-13.409,16.44-16.943,28.841-9.559
				c-3.358,1.012-3.861,2.522-3.861,2.522s5.377,3.188,7.213,5.207c-4.528,0.157-5.358,4.018-4.528,5.855
				c-7.88-1.17-12.075-1.497-15.59,2.691C693.139,660.167,693.479,670.38,693.479,670.38z"/>
			<path fill="#C1C0C1" d="M723.836,711.484c0,0-4.031-13.081,2.339-21.131c6.377-8.05,22.804-5.874,22.804-5.874
				s-5.862,2.843-6.535,5.031c2.182,0.843,7.044,6.528,7.044,6.528s-4.019,0.516-5.201,1.685c-1.17,1.17-0.667,10.905-0.667,10.905
				s-4.031-3.019-9.559-3.195C728.527,705.271,723.836,711.484,723.836,711.484z"/>
			<path fill="#C1C0C1" d="M714.44,703.095c0,0-3.686-2.515-4.364-2.679c-0.661-0.164,2.522-2.352,4.031-3.698L714.44,703.095z"/>
		</g>
		<g>
			<path fill="#FFFFFF" d="M675.027,746.702c-0.661,1.169-6.874,11.395-6.032,11.395c0.837,0,9.723,9.572,9.723,9.572v-6.716
				l-4.025-4.352l1.673-4.201L675.027,746.702z"/>
			<path fill="#FFFFFF" d="M617.515,697.9l-0.509,9.722l5.201,3.358l-1.012,4.855c0,0-7.201-6.201-7.874-6.024
				c0.17-6.05,0.673-9.899,0.673-9.899l3.686-2.692"/>
			<path fill="#FFFFFF" d="M641.494,721.546l4.188-11.081c0,0,3.352,0.679,0,9.559c3.692,4.528,4.195,5.207,4.195,5.207
				l-0.673,5.534L641.494,721.546z"/>
		</g>
		<g>
			<path fill="#FFFFFF" d="M713.433,655.462c0,0,2.516,20.804-10.735,37.067c-13.244,16.263-30.18,23.986-29.678,23.307
				c0.504-0.667,20.458-1.673,35.885-22.804C721.653,676.43,721.993,659.324,713.433,655.462z"/>
			<path fill="#FFFFFF" d="M743.62,711.484c0,0-7.716,29.52-39.582,43.595c19.125-3.346,31.356-13.081,38.74-23.634
				C750.161,720.88,746.639,710.818,743.62,711.484z"/>
			<path fill="#FFFFFF" d="M662.11,627.621c-0.528-0.258,4.534,26.331-4.692,43.274c-6.697,12.578-14.251,20.452-16.257,22.64
				c9.389-6.037,16.93-14.099,23.647-27.495C671.512,652.62,674.524,633.489,662.11,627.621z"/>
		</g>
	</g>
	<path fill="#E62A3D" d="M565.115,417.715c-0.768,0.434,4.188,4.943,8.867,6.164c-0.729,9.849,3.698,18.464,11.088,23.407
		c4.434-8.132,24.143-15.521,38.684-0.496c12.565-5.176,11.326-22.911,11.326-22.911s8.868-3.447,10.1-5.918
		c-8.132-3.201-26.847-7.88-34.237-6.408c-5.421,9.371-5.421,9.371-5.421,9.371l-6.654-10.597
		C598.868,410.326,576.454,411.313,565.115,417.715z"/>
	<path fill="#E62A3D" d="M559.449,430.771c0,0-15.766,22.665-15.27,43.608c8.132,0,8.132,0,8.132,0s-2.956,21.923,6.157,37.205
		c3.943-2.472,13.301,1.962,13.546,8.125c-4.931-4.691-8.377-2.465-10.346-0.987c-1.968,1.471-5.911,0.987-7.886-1.729
		c-1.968-2.705-9.112-8.868-9.112-8.868s-21.678,29.068-11.333,71.191c6.403,27.344,13.546,29.068,13.546,29.068
		s38.18-17.245,46.564,24.395c10.345-0.497,11.578-0.245,11.578-0.245l0.736-87.945c0,0-9.603-3.698-10.591-9.861
		c6.169,4.924,17.244,3.698,25.13-6.654c7.886-10.339,16.502-17.49,21.188-17.974c4.672-0.503,6.647,7.132,6.647,5.912
		c0-1.239,14.043-17.496,11.339-39.67c6.893-0.491,6.893-0.491,6.893-0.491s0.743-30.791-15.024-44.344
		c-3.698,2.22-3.698,2.22-3.698,2.22s7.635,9.358,4.918,17.25c-2.698,7.88-10.333,12.307-22.162,11.081
		c0.987,4.924,4.93,8.132,9.112,11.339c4.188,3.183,13.553,8.371,13.553,8.371l-0.245,2.949c0,0-18.974,6.409-26.112,17.987
		c-7.138,11.578-14.791,21.181-16.753,22.917c-1.969,1.723-7.641,3.195-10.842-1.974c-3.201-5.176-22.169-33.508-41.639-39.18
		c10.106-8.125,18.734-14.276,18.734-14.276s4.427-2.465,4.188-7.635c-7.886,1.472-21.2-2.22-22.174-11.578
		c-0.981-9.364,2.716-14.534,6.157-17.012C563.883,430.771,559.449,430.771,559.449,430.771z"/>
	<path fill="#C1C0C1" d="M605.27,447.28v43.847c0,0-8.861-18.968-18.225-16.509c-9.364,2.465-17.245,10.597-17.245,10.597
		l-2.472-1.233l1.975-2.214l18.483-15.275c0,0-1.233-9.61,6.654-16.257C602.315,443.575,605.27,447.28,605.27,447.28z"/>
	<path fill="#2C2B59" d="M596.654,452.449c0.881-0.509-0.742,9.364-0.742,9.364s-3.943,0.245-3.943-1.73
		C591.969,458.115,593.208,454.423,596.654,452.449z"/>
	<path fill="#C1C0C1" d="M613.401,451.223c0.245,1.226,0.245,9.603,0.245,9.603s4.686,0,4.44-3.453
		C617.835,453.927,613.401,451.223,613.401,451.223z"/>
	<path fill="#FFFFFF" d="M625.231,452.449l8.371-4.673l4.188,5.164c0,0,1.723-5.164,0.497-10.346
		c3.943-4.924,3.446-5.911,3.446-5.911s10.1,12.804,0.497,19.457C635.331,461.561,625.231,452.449,625.231,452.449z"/>
	<path fill="#FFFFFF" d="M583.605,452.449l-7.692-4.673l-4.182,5.164c0,0-1.729-5.164-0.49-10.346
		c-3.943-4.924-3.46-5.911-3.46-5.911s-9.069,12.804,0.541,19.457C576.995,461.561,583.605,452.449,583.605,452.449z"/>
	<path fill="#C1C0C1" d="M574.97,487.183c0,0,6.408-10.1,16.011-4.188c7.389,4.685,14.288,19.47,14.288,19.47
		s7.144-17.748,15.767-20.943c7.893-3.207,13.798,6.893,13.798,6.893s-8.371,0.49-13.798,9.849
		c-5.409,9.358-13.05,20.942-13.05,20.942l-2.717-7.383l-3.698,7.383C601.572,519.206,586.8,489.151,574.97,487.183z"/>
	<path fill="#2C2B59" d="M545.651,520.438c0,0-21.917,31.772-0.736,73.663c-4.188-23.904-7.39-44.104,6.157-67.505
		C549.594,522.414,545.651,520.438,545.651,520.438z"/>
	<polygon fill="#919EB1" points="271.151,308.954 248.58,308.954 234.946,368.051 237.555,367.806 250.775,310.715 271.226,310.551 
			"/>
	<polygon fill="#919EB1" points="263.736,316.689 270.39,349.19 249.932,349.19 249.511,350.882 273.503,350.882 265.843,316.777 	
		"/>
	<polygon fill="#919EB1" points="273.163,357.611 274.597,367.705 277.799,367.705 276.025,357.611 	"/>
	<polygon fill="#919EB1" points="431.06,308.954 408.489,308.954 394.854,368.051 397.458,367.806 410.684,310.715 431.135,310.551 
			"/>
	<polygon fill="#919EB1" points="423.645,316.689 430.299,349.19 409.847,349.19 409.426,350.882 433.418,350.882 425.752,316.777 	
		"/>
	<polygon fill="#919EB1" points="433.079,357.611 434.512,367.705 437.714,367.705 435.947,357.611 	"/>
	<polygon fill="#919EB1" points="602.107,308.954 579.535,308.954 565.901,368.051 568.511,367.806 581.718,310.715 
		602.188,310.551 	"/>
	<polygon fill="#919EB1" points="594.686,316.689 601.339,349.19 580.875,349.19 580.454,350.882 604.453,350.882 596.799,316.777 	
		"/>
	<polygon fill="#919EB1" points="604.125,357.611 605.553,367.705 608.748,367.705 606.981,357.611 	"/>
	<polygon fill="#919EB1" points="755.469,308.954 732.891,308.954 719.257,368.051 721.873,367.806 735.086,310.715 
		755.551,310.551 	"/>
	<polygon fill="#919EB1" points="748.054,316.689 754.708,349.19 734.237,349.19 733.823,350.882 757.827,350.882 750.161,316.777 	
		"/>
	<polygon fill="#919EB1" points="757.482,357.611 758.915,367.705 762.116,367.705 760.349,357.611 	"/>
	<polygon fill="#919EB1" points="288.817,315.406 288.817,309.168 329.11,309.168 329.11,310.853 290.634,310.853 290.634,315.281 	
		"/>
	<rect x="304.413" y="316.827" fill="#919EB1" width="2.987" height="50.827"/>
	<polygon fill="#919EB1" points="520.42,315.406 520.42,309.168 560.706,309.168 560.706,310.853 522.244,310.853 522.244,315.281 	
		"/>
	<rect x="536.022" y="316.827" fill="#919EB1" width="2.987" height="50.827"/>
	<rect x="354.712" y="361.417" fill="#919EB1" width="22.741" height="1.685"/>
	<polygon fill="#919EB1" points="346.782,310.344 346.782,368.171 344.568,368.171 344.568,308.514 346.782,308.514 
		352.712,308.514 352.712,310.23 	"/>
	<polygon fill="#919EB1" points="503.923,308.866 496.402,308.866 496.402,339.669 497.779,339.669 497.779,310.526 
		503.716,310.526 	"/>
	<polygon fill="#919EB1" points="472.233,308.765 472.233,310.728 463.756,310.728 463.756,367.75 462.102,367.75 462.102,308.866 	
		"/>
	<polygon fill="#919EB1" points="471.555,321.255 495.924,350.977 495.924,367.75 497.679,367.75 497.679,349.033 474.089,321.154 	
		"/>
	<polygon fill="#919EB1" points="668.065,308.778 660.367,308.778 660.367,367.598 661.305,367.598 661.305,310.086 
		667.688,310.086 	"/>
	<polygon fill="#919EB1" points="700.491,308.778 692.504,308.778 692.504,330.953 670.04,330.953 670.04,333.305 694.655,333.305 
		694.655,310.281 700.39,310.281 	"/>
	<rect x="692.687" y="340.26" fill="#919EB1" width="1.968" height="27.91"/>
	<path fill="#919EB1" d="M786.291,308.986h-8.76l12.773,54.173c0,0,0.301,3.389,0.301,4.521c0.616-0.107,2.478,0,2.478,0
		s-0.207-4.943-1.446-9.572c-1.239-4.629-11.326-47.369-11.326-47.369l5.761,0.1L786.291,308.986z"/>
	<path fill="#919EB1" d="M796.995,357.278c-0.107-0.308,14.622-48.085,14.622-48.085h7.415v1.339h-6.075l-13.697,47.878
		L796.995,357.278z"/>
	<path fill="#919EB1" d="M815.836,325.771c0,0.314,12.358,41.803,12.358,41.803h2.578l-12.98-42.727L815.836,325.771z"/>
	<polygon fill="#919EB1" points="844.973,308.986 833.647,352.335 833.446,358.932 834.685,358.932 846.722,310.633 
		851.463,310.633 851.463,308.891 	"/>
	<polygon fill="#919EB1" points="878.782,308.916 870.167,308.916 870.167,367.988 872.494,367.988 872.494,310.853 
		878.292,310.853 	"/>
	<polygon fill="#919EB1" points="912.976,309.017 903.291,309.017 879.751,335.544 879.751,339.424 904.737,310.853 
		911.234,310.853 	"/>
	<polygon fill="#919EB1" points="893.7,337.581 905.8,367.693 908.127,367.693 894.958,336.128 	"/>
	<path fill="#919EB1" d="M930.176,332.852c0,0-2.421-15.006,1.377-23.784c5.742,0,39.576-0.202,39.576-0.202v1.761h-38.602v23.106
		L930.176,332.852z"/>
	<rect x="965.577" y="316.67" fill="#919EB1" width="1.654" height="5.849"/>
	<path fill="#919EB1" d="M937.886,329.437l32.469,13.257c0,0,2.434-1.163,0.384-2.245c-2.056-1.069-31.684-12.861-31.684-12.861
		S937.691,328.267,937.886,329.437z"/>
	<path fill="#919EB1" d="M965.18,347.958h1.956c0,0,0.233,14.962,0,15.201c-0.245,0.251-28.08,0-28.08,0v-1.164h26.225
		L965.18,347.958z"/>
	<path fill="#919EB1" d="M932.723,367.944v-11.213h4.484v-2.245h-7.415c0,0,1.075,2.151,1.075,4.679
		C930.868,361.706,930.767,368.133,932.723,367.944z"/>
	<path fill="#E62A3D" d="M619.848,626.98c0,0,4.905-35.414,44.463-25.615c16.571-16.213,14.314-58.399,9.414-71.593
		c-11.301,12.817-9.056,11.308-5.654,16.955c3.396,5.661,3.767,9.811,3.767,9.811l-6.403,9.408c0,0-3.39,4.516,0.748,14.314
		c-4.892,8.666-7.528,12.81-7.528,12.81S622.106,588.925,619.848,626.98z"/>
</g>
</svg>
