<?xml version="1.0" encoding="utf-8"?>
<!-- Designed by Vexels.com - 2016 All Rights Reserved - https://vexels.com/terms-and-conditions/  -->

<svg version="1.1" id="Layer_1" xmlns="http://www.w3.org/2000/svg" xmlns:xlink="http://www.w3.org/1999/xlink" x="0px" y="0px"
	 width="1200px" height="1200px" viewBox="0 0 1200 1200" enable-background="new 0 0 1200 1200" xml:space="preserve">
<g>
	<path d="M993.358,358.637c-1.924-35.831-41.097-68.219-113.281-93.619c-24.81-8.726-51.51-15.51-78.378-20.793
		c0.067-1.35,0-2.7-0.405-4.05c0-0.067,1.013-6.245,21.401-20.608c16.557-11.055,21.282-24.59,22.312-34.007
		c1.992-18.026-7.325-34.936-16.709-44.742c-3.375-3.527-8.54-4.641-13.063-2.835c-4.506,1.823-7.477,6.194-7.477,11.072
		c0,1.249,0.017,2.481,0.034,3.713c0.169,12.151,0.253,18.868-18.632,29.552c-1.739,0.979-3.308,2.127-4.81,3.358
		c0.117-9.249-0.439-19.358-2.195-30.294c-0.81-5.097-4.826-9.08-9.924-9.89c-5.148-0.811-10.16,1.805-12.489,6.413
		c-0.067,0.118-2.025,3.882-6.127,9.907c1.097-7.949,1.08-17.079-0.742-27.628l-0.287-1.688
		c-6.566-37.789-8.067-50.278,3.898-61.535c3.562-3.342,4.811-8.743,3.005-13.283c-1.468-3.712-5.3-7.679-11.662-7.679
		c-6.143,0-25.569,5.553-37.147,19.291c-7.578,8.996-10.532,19.864-8.524,31.476c0.051,0.337,0.118,0.658,0.219,0.995
		c1.131,4.354,2.633,8.692,4.085,12.894c2.852,8.253,6.396,18.548,4.135,22.802c-1.198,2.228-4.912,4.253-10.497,5.704
		c-63.274,16.557-96.624,44.523-99.172,83.138c-0.168,0-0.338,0-0.489,0c-10.684,0-16.827,0.186-16.777,0.186
		c-8.404,0.067-204.723,2.532-300.045,57.45c-42.767,24.641-63.814,51.341-62.548,79.375c1.806,39.898,48.05,65.468,67.864,74.615
		c28.135,12.996,67.577,26.429,88.438,33.265c-39.038,24.084-63.931,51.205-74.21,81.129c-2.127,6.211-3.781,12.287-5.097,18.261
		c-5.198-1.013-10.515,1.485-12.945,6.329c-0.912,1.823-22.193,45.451-8.438,109.028c4.202,19.359,13.046,35.358,23.526,48.387
		c-4.287,2.245-6.852,6.87-6.346,11.781c3.021,28.641,59.713,87.914,89.552,99.273c1.367,0.523,2.819,0.776,4.253,0.776
		c1.638,0,3.207-0.455,4.726-1.114c0.692,2.296,2.008,4.372,3.899,5.907c17.552,14.211,55.931,19.292,85.99,19.292
		c20.473,0,38.025-2.296,48.168-6.296c4.051-1.603,6.785-5.249,7.393-9.417c10.548,1.755,18.784,2.498,22.784,2.768
		c0.27,0.017,0.557,0.034,0.827,0.034c0.963,0,1.941-0.135,2.886-0.354c13.772-3.443,60.269-25.384,88.218-65.602
		c3.088-4.439,2.734-10.312-0.659-14.396c12.135-10.447,23.308-24.253,32.034-42.48c28.759-60.101,29.012-129.871,29.147-167.356
		c0.051-8.928,0.067-16.641,0.506-20.945c3.561-34.987,16.337-53.113,44.101-62.531c3.426-1.164,6.025-3.781,7.258-7.004
		c4.742,1.975,7.763,3.595,7.965,3.696c1.772,0.979,3.747,1.485,5.756,1.485c0.354,0,0.691-0.017,1.046-0.051
		c2.7-0.236,66.919-6.177,141.281-41.467C982.86,410.703,994.505,379.564,993.358,358.637z M542.208,324.713
		c-2.617-0.27-5.283,0.219-7.595,1.671c-2.903,1.822-17.35,12.674-17.35,47.07c0.354,11.409-3.815,39.712-49.789,56.05
		c-1.367,0.49-2.633,0.979-3.966,1.469c-1.771-1.452-3.932-2.447-6.345-2.7c-98.935-10.38-147.542-47.071-149.449-57.046
		c0-24.962,47.307-47.594,129.618-62.075c37.99-6.093,78.175-9.771,119.846-11.088C550.478,304.241,544.706,312.932,542.208,324.713
		z M693.717,477.402c-0.034-0.59-0.051-1.181-0.067-1.789c0.438,0.152,0.877,0.27,1.333,0.354
		C694.56,476.441,694.138,476.93,693.717,477.402z M879.942,399.732c-34.042,17.637-89.856,30.329-143.373,33.13
		c1.046-0.506,2.109-0.979,3.156-1.35c23.898-8.203,43.257-34.548,44.033-59.932c0.489-15.257,6.059-23.206,11.122-25.569
		c4.979-2.329,7.73-7.73,6.667-13.13c-0.861-4.354-4.051-7.73-8.152-9.013l1.165-7.527c19.223,3.764,35.999,7.781,49.721,11.73
		c59.594,17.13,65.856,34.987,66.362,40.049C911.57,377.488,900.093,389.303,879.942,399.732z"/>
	<g>
		<path fill="#EF7922" d="M748.315,62.287c2.498-2.363-39.543,6.666-34.413,36.437c5.654,21.569,22.582,47.24-10.784,55.983
			c-33.367,8.725-87.796,28.235-90.362,72.91c18.481,0.506,70.852,1.029,72.388,1.029c1.553,0,23.629-22.092,33.384-30.295
			c9.755-8.219,29.265-23.628,22.599-62.142C734.442,97.712,730.846,78.708,748.315,62.287z"/>
		<path fill="#EF7922" d="M770.39,157.272c0,0-20.539,41.079-73.939,74.447c24.134,1.536,65.72,5.654,65.72,5.654
			S778.086,205.525,770.39,157.272z"/>
		<path fill="#EF7922" d="M777.581,240.461c0-3.088-0.726-37.467,17.451-47.763c27.206-15.409,24.64-28.759,24.64-43.644
			c11.292,11.814,25.688,41.079-3.595,60.59c-27.712,19.51-27.73,28.759-26.177,33.89
			C783.74,241.98,777.581,240.461,777.581,240.461z"/>
		<path fill="#E40136" d="M540.976,336.476c0,0-11.797,7.443-11.797,36.624c0.624,20.472-10.548,50.886-57.721,67.644
			c-47.172,16.76-135.913,53.991-157.027,115.441c-21.097,61.45,3.73,114.192,18.616,134.057
			c14.903,19.864,43.459,66.412,51.527,88.15c17.366,2.482,34.126,1.857,34.126,1.857s-40.337-49.653-47.796-138.411
			c0,0-3.089-55.864,21.113-106.142c24.202-50.278,67.037-76.96,103.644-90.614c36.623-13.654,57.72-35.375,50.277-73.248
			C541.601,355.076,540.976,336.476,540.976,336.476z"/>
		<path fill="#E40136" d="M581.33,297.996c0,0-35.392,8.067-27.324,52.134s14.278,76.337-48.405,99.307
			c-32.286,11.797-109.247,48.404-119.795,155.154c-4.338,85.028,29.788,153.922,50.261,175.642
			c21.738,1.873,36.623-3.713,36.623-3.713s-41.771-45.062-17.366-106.766c21.097-53.366,86.614-93.399,109.855-113.585
			c37.855-32.894,82.547-92.47,80.066-170.68c1.232-65.788,6.819-85.653,6.819-85.653h-27.308c0,0,8.692,31.661-21.097,34.143
			C573.87,336.46,581.33,297.996,581.33,297.996z"/>
		<path fill="#E40136" d="M664.485,301.068c0,0,42.817,0,50.885,3.73c-14.261,17.384-39.105,65.788-33.518,174.394
			c-3.713,113.602-38.463,198.006-109.23,248.908c-47.172,37.232-86.277,44.067-86.277,44.067s-55.864-68.893,11.173-140.284
			c29.789-28.54,68.269-54.615,88.758-73.856c20.472-19.24,71.982-73.856,73.856-162.614
			C663.219,337.691,664.485,301.068,664.485,301.068z"/>
		<path fill="#E40136" d="M730.256,307.903c0,0-45.316,66.412-32.895,156.403c-1.872-9.3,18.616-37.232,38.481-44.067
			c19.864-6.819,35.375-29.181,35.999-49.029c0.625-19.865,8.691-31.662,18.008-36c-13.654-0.624-19.241,13.029-23.595,19.865
			c-4.337,6.818-22.329,16.135-28.557,0.607c-6.194-15.51,12.422-40.962,34.143-45.299
			C754.458,310.384,730.256,307.903,730.256,307.903z"/>
		<path fill="#E40136" d="M753.851,472.373c0,0-60.202-19.241-66.413,56.471c-4.962,53.384-8.675,179.407-185.567,254.494
			c32.877,20.489,131.88,28.388,171.305-54.008c34.751-72.606,26.143-160.672,28.54-184.334
			C705.446,508.372,719.1,484.154,753.851,472.373z"/>
		<path fill="#E40136" d="M484.488,791.39c0,0,76.961,54.008,158.276-6.819c-25.451,36.624-68.91,57.721-81.315,60.826
			c-17.991-1.25-88.134-9.3-114.833-50.886C463.374,794.512,484.488,791.39,484.488,791.39z"/>
		<path fill="#E40136" d="M430.48,796.368c0,0,35.375,45.299,95.593,56.472c-23.595,9.316-99.324,7.443-122.277-11.173
			c-0.625-20.472,0-37.855-7.46-47.155C417.451,793.87,430.48,796.368,430.48,796.368z"/>
		<path fill="#E40136" d="M387.662,834.24c0,0,1.856-34.767-12.422-46.548c-21.721-5.603-54.008-20.489-69.518-42.834
			C308.204,768.436,361.586,824.3,387.662,834.24z"/>
		<path fill="#E40136" d="M365.924,769.061c0,0-64.556-25.451-77.585-85.653c-13.029-60.202,7.443-101.18,7.443-101.18
			s-10.532,61.45,19.257,104.91C341.097,723.137,362.211,753.533,365.924,769.061z"/>
		<path fill="#FFFCFD" d="M583.777,238.402c0,0,170.681-4.945,292.333,37.873c121.669,42.818,142.141,104.252,39.73,153.298
			c-73.248,34.75-137.179,40.336-137.179,40.336s-47.172-26.058-75.105-3.105c5.587-10.549,12.844-21.384,15.055-21.418
			c62.176-0.574,128.589-15.273,166.816-35.054c52.759-27.308,57.113-66.413-37.855-93.72
			c-80.894-23.274-249.515-45.315-412.129-19.241c-123.525,21.721-139.66,54.615-139.66,73.856s59.594,58.345,160.132,68.91
			c-13.029,4.338-60.826,24.202-60.826,24.202s-62.295-19.308-101.163-37.249c-48.421-22.345-106.682-73.855-4.354-132.824
			C383.308,240.259,583.777,238.402,583.777,238.402z"/>
	</g>
	<polygon points="206.568,1008.837 233.015,903.708 282.263,903.708 289.469,956.568 323.731,901.902 371.78,901.902 
		347.747,1010.643 312.305,1010.643 324.929,952.973 288.879,1009.445 265.453,1009.445 258.837,952.973 242.618,1008.23 	"/>
	<polygon points="568.823,1008.837 595.253,903.708 644.519,903.708 651.726,956.568 685.97,901.902 734.019,901.902 
		709.986,1010.643 674.544,1010.643 687.168,952.973 651.118,1009.445 627.692,1009.445 621.076,952.973 604.266,1008.837 	"/>
	<polygon points="397.619,902.51 437.855,902.51 410.834,1010.036 369.974,1010.036 	"/>
	<polygon points="761.057,902.51 801.309,902.51 774.272,1010.036 733.429,1010.036 	"/>
	<polygon points="482.31,901.902 428.253,1010.643 469.095,1010.643 508.74,926.526 512.96,973.985 493.719,975.2 514.748,1009.445 
		552.605,1009.445 544.183,902.51 	"/>
	<polygon points="621.076,1041.275 567.018,1150 607.878,1150 647.523,1065.917 651.726,1113.359 632.502,1114.557 
		653.514,1148.818 691.371,1148.818 682.965,1041.883 	"/>
	<polygon points="357.958,1043.081 392.202,1043.081 380.793,1085.731 416.843,1085.731 428.86,1041.866 465.5,1041.866 
		437.855,1148.802 400.608,1148.802 409.029,1112.16 374.785,1112.16 364.574,1149.409 326.718,1149.409 	"/>
	<polygon points="487.728,1044.28 577.229,1044.28 571.221,1068.904 518.378,1069.157 512.369,1088.971 564.014,1088.735 
		558.613,1108.565 508.74,1108.245 502.732,1128.971 558.005,1128.971 551.406,1148.21 461.281,1148.21 	"/>
	<path d="M701.177,1072.988l8.236-28.927h91.222c0,0,10.734-0.607,13.131-17.907c2.379-17.282,2.379-17.282,2.379-17.282
		s25.637,4.169,31.595-18.481c8.945,17.282-8.945,29.215-17.89,32.186c-8.928,2.987-13.705,18.497-14.295,23.257
		c-0.607,4.776-7.764,26.244-19.696,26.244c-11.915,0-26.228,0-26.228,0l-15.51,76.927h-41.13l18.447-76.572L701.177,1072.988z"/>
</g>
</svg>
