<?xml version="1.0" encoding="UTF-8" standalone="no"?>
<svg
   xmlns:dc="http://purl.org/dc/elements/1.1/"
   xmlns:cc="http://creativecommons.org/ns#"
   xmlns:rdf="http://www.w3.org/1999/02/22-rdf-syntax-ns#"
   xmlns:svg="http://www.w3.org/2000/svg"
   xmlns="http://www.w3.org/2000/svg"
   version="1.1"
   id="svg10267"
   viewBox="0 0 299.99999 289.25583"
   height="289.25583"
   width="300">
  <defs
     id="defs10269" />
  <metadata
     id="metadata10272">
    <rdf:RDF>
      <cc:Work
         rdf:about="">
        <dc:format>image/svg+xml</dc:format>
        <dc:type
           rdf:resource="http://purl.org/dc/dcmitype/StillImage" />
        <dc:title></dc:title>
      </cc:Work>
    </rdf:RDF>
  </metadata>
  <g
     transform="translate(-6.5893708,5.6153897)"
     id="layer1">
    <g
       transform="matrix(0,2.3087135,-2.3087135,0,666.80596,-26.200468)"
       id="g10409">
      <g
         id="g4816"
         transform="matrix(1.25,0,0,-1.25,66.097505,254.30981)">
        <path
           d="m 0,0 0,-7.367 7.996,0 2.169,-4.43 2.313,4.431 7.106,0 2.996,4.892 c -0.238,1.802 -0.514,4.101 -0.787,6.766 l 10.901,18.91 15.857,3.448 c -0.038,0.023 -15.857,3.482 -15.857,3.482 L 21.793,49.011 c 0.273,2.663 0.549,4.965 0.787,6.764 l -2.996,4.888 -7.106,0 -2.263,4.439 -2.219,-4.439 -7.996,0 0,-7.361 c 0,0 -1.102,1.14 -3.588,2.583 -1.038,0.604 -2.335,1.175 -3.869,1.874 -1.635,5.367 -5.06,9.328 -8.403,11.026 -8.417,4.597 -18.709,8.058 -18.709,8.058 0,0 0.953,-1.986 2.136,-4.381 -5.93,1.944 -10.964,3.112 -10.964,3.112 0,0 14.031,-21.206 27.208,-37.724 l -0.858,-1.431 c -0.136,0.006 -1.342,0.044 -1.441,0.044 0,0 -1.401,0.162 -2.238,-2.305 -0.051,-0.151 -0.099,-0.295 -0.147,-0.437 -0.897,1.196 -2.269,3.054 -3.198,4.41 -1.483,2.162 -3.115,1.907 -3.115,1.907 l 5.833,-7.836 c -1.964,-6.057 0,-11.102 0,-11.102 l -5.833,-7.834 c 0,0 1.632,-0.256 3.115,1.904 0.929,1.358 2.301,3.214 3.198,4.413 0.048,-0.143 0.096,-0.289 0.147,-0.438 0.837,-2.467 2.238,-2.304 2.238,-2.304 0.099,0 1.305,0.035 1.441,0.043 l 0.858,-1.433 c -13.177,-16.517 -27.208,-37.719 -27.208,-37.719 0,0 5.034,1.163 10.964,3.108 -1.267,-2.565 -2.136,-4.381 -2.136,-4.381 0,0 10.292,3.461 18.709,8.061 3.343,1.695 6.768,5.656 8.403,11.023 0,0 2.078,0.908 3.57,1.691 C -2.04,-1.799 0,0 0,0"
           style="fill:#1d1160;fill-opacity:1;fill-rule:nonzero;stroke:none"
           id="path4818" />
      </g>
      <g
         id="g4820"
         transform="matrix(1.25,0,0,-1.25,51.11713,209.87944)">
        <path
           d="m 0,0 c 0.232,-0.071 0.457,-0.152 0.68,-0.231 -4.851,7.424 -13.314,20.397 -22.756,34.931 0,0 0.316,0.017 -3.419,1.305 C -16.221,20.649 -5.708,7.05 0,0"
           style="fill:#008da8;fill-opacity:1;fill-rule:nonzero;stroke:none"
           id="path4822" />
      </g>
      <g
         id="g4824"
         transform="matrix(1.25,0,0,-1.25,51.11838,232.11319)">
        <path
           d="m 0,0 c -5.709,-7.05 -16.221,-20.647 -25.496,-36.003 3.737,1.285 3.419,1.302 3.419,1.302 9.441,14.535 17.904,27.506 22.755,34.933 C 0.455,0.152 0.231,0.073 0,0"
           style="fill:#008da8;fill-opacity:1;fill-rule:nonzero;stroke:none"
           id="path4826" />
      </g>
      <g
         id="g4828"
         transform="matrix(1.25,0,0,-1.25,66.613505,248.96494)">
        <path
           d="m 0,0 c -0.001,-0.006 -2.604,-3.649 -7.369,-5.703 l 0.432,1.455 c 1.258,4.752 2.511,13.838 2.511,13.838 0.098,-4.376 0.442,-8.077 0.676,-10.188 -0.544,-0.439 -1.238,-0.944 -1.754,-1.136 0,0 1.666,0.162 2.707,0.536 C -1.271,-0.723 -0.005,-0.006 0,0 m -4.899,22.369 c -0.486,-1.27 -2.083,-4.47 -6.255,-6.388 1.355,1.571 1.789,3.587 0.229,5.197 -0.846,-1.966 -4.353,-2.209 -5.273,-2.59 -1.863,-0.769 -2.805,-1.986 -3.2,-2.949 -0.161,0.474 -0.304,0.919 -0.433,1.336 0.498,0.92 1.648,2.455 3.933,2.935 0,0 -2.61,0.202 -4.44,-1.091 -0.604,2.508 -0.522,5.038 -0.003,7.102 1.83,-1.297 4.443,-1.097 4.443,-1.097 -2.288,0.484 -3.438,2.023 -3.934,2.944 0.127,0.416 0.272,0.861 0.434,1.34 0.395,-0.964 1.337,-2.18 3.2,-2.947 0.92,-0.378 4.427,-0.624 5.273,-2.586 2.67,0.451 5.163,-0.104 6.026,-1.206"
           style="fill:#008da8;fill-opacity:1;fill-rule:nonzero;stroke:none"
           id="path4830" />
      </g>
      <g
         id="g4832"
         transform="matrix(1.25,0,0,-1.25,63.117625,191.54431)">
        <path
           d="m 0,0 0,0 c -1.042,0.374 -2.707,0.536 -2.707,0.536 0.516,-0.193 1.21,-0.697 1.753,-1.137 -0.234,-2.111 -0.578,-5.812 -0.675,-10.187 0,0 -1.254,9.086 -2.511,13.837 L -4.573,4.505 C 0.193,2.45 2.795,-1.193 2.797,-1.198 2.792,-1.193 1.525,-0.475 0,0"
           style="fill:#008da8;fill-opacity:1;fill-rule:nonzero;stroke:none"
           id="path4834" />
      </g>
      <g
         id="g4836"
         transform="matrix(1.25,0,0,-1.25,94.803505,235.13956)">
        <path
           d="m 0,0 -5.341,-9.254 c 0.063,-0.665 0.126,-1.32 0.191,-1.948 L 2.266,1.646 C 1.575,1.019 0.815,0.467 0,0"
           style="fill:#008da8;fill-opacity:1;fill-rule:nonzero;stroke:none"
           id="path4838" />
      </g>
      <g
         id="g4840"
         transform="matrix(1.25,0,0,-1.25,94.803505,206.85631)">
        <path
           d="m 0,0 -5.341,9.253 c 0.063,0.666 0.126,1.32 0.191,1.948 L 2.266,-1.646 C 1.575,-1.019 0.815,-0.468 0,0"
           style="fill:#008da8;fill-opacity:1;fill-rule:nonzero;stroke:none"
           id="path4842" />
      </g>
      <g
         id="g4844"
         transform="matrix(1.25,0,0,-1.25,96.362125,226.14081)">
        <path
           d="m 0,0 c -0.886,-4.086 -2.9,-5.777 -2.9,-5.777 1.703,0.838 3.159,2.101 4.23,3.652 0,0 -0.499,1.722 -1.33,2.125"
           style="fill:#008da8;fill-opacity:1;fill-rule:nonzero;stroke:none"
           id="path4846" />
      </g>
      <g
         id="g4848"
         transform="matrix(1.25,0,0,-1.25,90.907375,229.26769)">
        <path
           d="m 0,0 c -0.281,-0.287 -0.573,-0.581 -0.875,-0.871 0.453,-1.303 0.959,-2.045 1.304,-2.436 0.86,0.904 2.005,2.627 2.65,5.722 C 2.017,2.039 1.065,1.078 0,0"
           style="fill:#008da8;fill-opacity:1;fill-rule:nonzero;stroke:none"
           id="path4850" />
      </g>
      <g
         id="g4852"
         transform="matrix(1.25,0,0,-1.25,102.95587,221.09844)">
        <path
           d="m 0,0 c 0.022,-1.356 0.546,-2.321 0.666,-2.644 -0.64,-0.339 -1.288,-0.734 -1.86,-1.108 0.142,1.166 -0.076,2.188 -0.076,2.188 -0.16,-0.487 -0.587,-1.745 -1.676,-3.399 0,-0.003 -0.003,-0.003 -0.003,-0.003 -0.06,0.142 -0.125,0.286 -0.198,0.434 0,0 -0.001,0.003 -0.003,0.004 -0.218,0.436 -0.501,0.873 -0.858,1.219 -0.426,0.413 -0.954,0.697 -1.61,0.697 -2.03,0 -2.715,-1.366 -4.229,-2.901 -0.304,-0.308 -0.617,-0.639 -0.947,-0.975 -0.378,1.408 -0.673,3.321 -0.719,5.897 l 8.609,0.617 0,0.089 -8.609,0.636 c 0.046,2.577 0.341,4.489 0.719,5.898 0.33,-0.336 0.643,-0.667 0.947,-0.975 1.514,-1.535 2.199,-2.902 4.229,-2.902 0.656,0 1.184,0.284 1.61,0.698 0.357,0.345 0.64,0.782 0.858,1.218 0.002,0.001 0.003,0.005 0.003,0.005 0.073,0.147 0.138,0.292 0.198,0.433 0,0 0.003,0 0.003,-0.002 1.089,-1.654 1.516,-2.912 1.676,-3.399 0,0 0.218,1.022 0.076,2.187 C -0.622,3.539 0.026,3.143 0.666,2.804 0.546,2.482 0.022,1.516 0,0.16 L 0,0 Z"
           style="fill:#008da8;fill-opacity:1;fill-rule:nonzero;stroke:none"
           id="path4854" />
      </g>
      <g
         id="g4856"
         transform="matrix(1.25,0,0,-1.25,98.024375,213.19844)">
        <path
           d="m 0,0 c -1.071,1.551 -2.527,2.813 -4.23,3.651 0,0 2.014,-1.69 2.9,-5.776 C -0.498,-1.723 0,0 0,0"
           style="fill:#008da8;fill-opacity:1;fill-rule:nonzero;stroke:none"
           id="path4858" />
      </g>
      <g
         id="g4860"
         transform="matrix(1.25,0,0,-1.25,94.756005,215.74744)">
        <path
           d="M 0,0 C -0.645,3.094 -1.79,4.818 -2.65,5.721 -2.995,5.332 -3.501,4.589 -3.953,3.285 -3.652,2.996 -3.36,2.702 -3.079,2.415 -2.014,1.336 -1.062,0.376 0,0"
           style="fill:#008da8;fill-opacity:1;fill-rule:nonzero;stroke:none"
           id="path4862" />
      </g>
      <g
         id="g4864"
         transform="matrix(1.25,0,0,-1.25,53.250385,224.45919)">
        <path
           d="m 0,0 c 0,0 -0.989,-1.498 -3.094,-1.739 0,0 3.252,-1.943 3.094,1.739"
           style="fill:#ffffff;fill-opacity:1;fill-rule:nonzero;stroke:none"
           id="path4866" />
      </g>
      <g
         id="g4868"
         transform="matrix(1.25,0,0,-1.25,53.250385,217.40081)">
        <path
           d="M 0,0 C 0,0 -0.989,1.499 -3.094,1.738 -3.094,1.738 0.158,3.682 0,0"
           style="fill:#ffffff;fill-opacity:1;fill-rule:nonzero;stroke:none"
           id="path4870" />
      </g>
      <g
         id="g4872"
         transform="matrix(1.25,0,0,-1.25,106.89212,218.77694)">
        <path
           d="m 0,0 c -0.278,-0.269 -0.603,-0.659 -0.604,-1.853 -0.002,-1.129 0.286,-1.522 0.554,-1.849 L 7.565,-1.776 0,0 Z"
           style="fill:#ffffff;fill-opacity:1;fill-rule:nonzero;stroke:none"
           id="path4874" />
      </g>
      <g
         id="g4876"
         transform="matrix(1.25,0,0,-1.25,65.074255,202.85894)">
        <path
           d="m 0,0 2.788,0 0,-0.938 -2.788,0 0,-0.774 -0.796,0 0,2.486 L 0,0.774 0,0 Z"
           style="fill:#ffffff;fill-opacity:1;fill-rule:nonzero;stroke:none"
           id="path4878" />
      </g>
      <g
         id="g4880"
         transform="matrix(1.25,0,0,-1.25,65.074255,208.30956)">
        <path
           d="m 0,0 2.788,0 0,-0.939 -2.788,0 0,-0.777 -0.796,0 0,2.492 L 0,0.776 0,0 Z"
           style="fill:#ffffff;fill-opacity:1;fill-rule:nonzero;stroke:none"
           id="path4882" />
      </g>
      <path
         d="m 65.963255,226.71019 -0.8875,0 0,-1.25125 0.8875,0 0,1.25125 z m 1.00875,-1.93 0,-0.42125 -2.4125,0 -0.48,0.49125 0,2.9625 4.48,0 0,-1.1025 -1.5875,0 0,-0.83 1.5875,-0.64 0,-1.095 -1.5875,0.635 z"
         style="fill:#ffffff;fill-opacity:1;fill-rule:nonzero;stroke:none"
         id="path4884" />
      <g
         id="g4886"
         transform="matrix(1.25,0,0,-1.25,65.075755,196.11169)">
        <path
           d="m 0,0 -0.797,0 0,-2.631 3.584,0 0,2.631 -0.804,0 0,-1.714 -0.59,0 0,1.714 -0.805,0 0,-1.714 L 0,-1.714 0,0 Z"
           style="fill:#ffffff;fill-opacity:1;fill-rule:nonzero;stroke:none"
           id="path4888" />
      </g>
      <g
         id="g4890"
         transform="matrix(1.25,0,0,-1.25,67.554005,220.39432)">
        <path
           d="m 0,0 -2.78,0 0,-0.919 3.584,0 0,2.242 L 0,1.323 0,0 Z"
           style="fill:#ffffff;fill-opacity:1;fill-rule:nonzero;stroke:none"
           id="path4892" />
      </g>
      <path
         d="m 67.554505,215.46019 -2.47875,0 0,-1.27 2.47875,0 0,1.27 z m -3.475,-1.87625 0,2.975 3.97625,0 0.50375,-0.5 0,-2.96875 -3.98375,0 -0.49625,0.49375 z"
         style="fill:#ffffff;fill-opacity:1;fill-rule:nonzero;stroke:none"
         id="path4894" />
      <path
         d="m 66.093255,232.86644 -1.0175,0 0,-1.27375 1.0175,0 0,1.27375 z m 2.46625,-2.40875 -3.98,0.005 -0.5,0.495 0,3.03625 4.48,0 0,-1.1275 -1.4575,0 0,-1.27375 1.4575,0 0,-1.135 z"
         style="fill:#ffffff;fill-opacity:1;fill-rule:nonzero;stroke:none"
         id="path4896" />
      <g
         id="g4898"
         transform="matrix(1.25,0,0,-1.25,64.079005,237.57032)">
        <path
           d="m 0,0 1.612,0 0,-1.011 -1.612,0 0,-0.903 3.584,0 0,0.903 -1.165,0 0,1.011 1.165,0 0,0.9 L 0,0.9 0,0 Z"
           style="fill:#ffffff;fill-opacity:1;fill-rule:nonzero;stroke:none"
           id="path4900" />
      </g>
      <g
         id="g4902"
         transform="matrix(1.25,0,0,-1.25,32.269755,170.32432)">
        <path
           d="m 0,0 c -4.099,1.744 -6.998,3.056 -6.998,3.056 9.44,-14.534 17.905,-27.507 22.756,-34.931 0.788,-0.283 1.507,-0.606 2.166,-0.96 l -15.951,29.279 16.506,-22.855 -0.19,1.055 -1.166,12.076 c 0,0 -0.789,8.162 -6.895,12.704 C 6.95,1.56 -2.633,5.2 -2.633,5.2 L 0,0 Z"
           style="fill:#ffffff;fill-opacity:1;fill-rule:nonzero;stroke:none"
           id="path4904" />
      </g>
      <g
         id="g4906"
         transform="matrix(1.25,0,0,-1.25,80.014755,257.76531)">
        <path
           d="m 0,0 -1.213,2.815 6.39,0 C 5.068,3.621 4.964,4.452 4.865,5.292 l -14.029,-10e-4 0,-2.473 C -9.182,2.812 -4.137,2.812 -4.112,2.815 L -2.925,0 l -6.239,0.003 0,-2.49 7.261,0 c 0,0 0.985,-2.051 1.004,-2.04 l 1.019,2.04 5.889,0 C 5.863,-1.689 5.726,-0.845 5.592,0 L 0,0 Z"
           style="fill:#ffffff;fill-opacity:1;fill-rule:nonzero;stroke:none"
           id="path4908" />
      </g>
      <g
         id="g4910"
         transform="matrix(1.25,0,0,-1.25,74.138125,233.63157)">
        <path
           d="M 0,0 0,2.804 C 0.69,2.804 1.575,2.8 2.199,2.8 2.212,1.862 2.229,0.938 2.245,0.003 L 0,0 Z M 4.66,0.003 C 4.642,0.621 4.624,1.225 4.61,1.846 5.798,2.302 7.144,2.772 8.336,3.229 8.311,4.049 8.292,4.874 8.277,5.706 7.081,5.251 5.742,4.788 4.56,4.333 4.554,4.647 4.548,4.962 4.544,5.28 l -5.737,-0.001 -1.081,-1.098 0,-7.601 1.119,0.938 9.735,0 C 8.535,-1.66 8.493,-0.836 8.456,0.003 l -3.796,0 z"
           style="fill:#ffffff;fill-opacity:1;fill-rule:nonzero;stroke:none"
           id="path4912" />
      </g>
      <g
         id="g4914"
         transform="matrix(1.25,0,0,-1.25,74.138125,221.53244)">
        <path
           d="m 0,0 0,2.842 8.245,0 c 0.008,0.856 0.02,1.743 0.038,2.587 l -9.433,0 -1.124,-1.131 0,-7.771 1.119,0.935 9.409,0 C 8.244,-1.694 8.237,-0.853 8.235,0 L 0,0 Z"
           style="fill:#ffffff;fill-opacity:1;fill-rule:nonzero;stroke:none"
           id="path4916" />
      </g>
      <g
         id="g4918"
         transform="matrix(1.25,0,0,-1.25,81.975375,203.14832)">
        <path
           d="m 0,0 c -0.086,-1.607 -0.157,-3.188 -0.213,-4.794 -0.588,-0.005 -1.176,-0.006 -1.762,-0.007 0.046,1.61 0.1,3.195 0.169,4.801 L -4.282,0 C -4.325,-1.61 -4.361,-3.201 -4.389,-4.806 -4.866,-4.808 -5.67,-4.808 -6.27,-4.808 l 0,4.807 -2.274,0 0,-8.339 1.115,0.924 9.491,0 C 2.135,-4.877 2.247,-2.395 2.397,0 L 0,0 Z"
           style="fill:#ffffff;fill-opacity:1;fill-rule:nonzero;stroke:none"
           id="path4920" />
      </g>
      <g
         id="g4922"
         transform="matrix(1.25,0,0,-1.25,74.138125,195.34081)">
        <path
           d="m 0,0 0,2.136 -2.274,0 0,-7.006 2.274,0 0,2.18 8.926,0 C 8.998,-1.796 9.075,-0.865 9.157,0 L 0,0 Z"
           style="fill:#ffffff;fill-opacity:1;fill-rule:nonzero;stroke:none"
           id="path4924" />
      </g>
      <g
         id="g4926"
         transform="matrix(1.25,0,0,-1.25,82.127255,242.14269)">
        <path
           d="m 0,0 c 0.06,-0.954 0.121,-1.889 0.19,-2.842 l -6.581,0 0,2.844 L 0,0 Z m -7.545,2.493 -1.12,-1.122 0,-7.627 1.085,0.903 9.263,10e-4 1.174,0.986 C 2.636,-2.18 2.448,0.131 2.296,2.491 l -9.841,0.002 z"
           style="fill:#ffffff;fill-opacity:1;fill-rule:nonzero;stroke:none"
           id="path4928" />
      </g>
      <g
         id="g4930"
         transform="matrix(1.25,0,0,-1.25,80.103255,181.44594)">
        <path
           d="M 0,0 C -0.343,0.765 -0.693,1.537 -1.056,2.306 -2.201,-0.165 -3.242,-2.64 -4.203,-5.116 l -2.814,-0.003 0,2.623 1.022,0 0,2.496 -3.24,0 0,-8.542 1.101,0.948 5.798,0 2.216,5.098 3.242,0 c 0,0 -0.15,-1.183 -0.337,-2.621 l -1.04,0 -0.294,-2.476 3.309,0 c 0.316,2.708 0.685,5.25 1.1,7.592 C 4.096,-0.003 1.313,0 0,0"
           style="fill:#ffffff;fill-opacity:1;fill-rule:nonzero;stroke:none"
           id="path4932" />
      </g>
      <g
         id="g4934"
         transform="matrix(1.25,0,0,-1.25,67.167385,243.60744)">
        <path
           d="m 0,0 0.309,0 0,-0.803 -1.982,0 0,0.803 0.295,0 0,0.9 -1.093,0 0,-2.586 3.182,0 0.403,0.402 0,2.185 L 0,0.9 0,0 Z"
           style="fill:#ffffff;fill-opacity:1;fill-rule:nonzero;stroke:none"
           id="path4936" />
      </g>
      <g
         id="g4938"
         transform="matrix(1.25,0,0,-1.25,32.269755,271.66732)">
        <path
           d="m 0,0 c -4.099,-1.743 -6.998,-3.055 -6.998,-3.055 9.44,14.533 17.905,27.506 22.756,34.93 0.788,0.284 1.507,0.607 2.166,0.961 L 1.973,3.557 18.479,26.412 18.289,25.357 17.123,13.279 c 0,0 -0.789,-8.161 -6.895,-12.702 C 6.95,-1.56 -2.633,-5.2 -2.633,-5.2 L 0,0 Z"
           style="fill:#ffffff;fill-opacity:1;fill-rule:nonzero;stroke:none"
           id="path4940" />
      </g>
      <g
         id="g4942"
         transform="matrix(1.25,0,0,-1.25,66.097505,254.30981)">
        <path
           d="m 0,0 0,-7.367 7.996,0 2.169,-4.43 2.313,4.431 7.106,0 2.996,4.892 c -0.238,1.802 -0.514,4.101 -0.787,6.766 l 10.901,18.91 15.857,3.448 c -0.038,0.023 -15.857,3.482 -15.857,3.482 L 21.793,49.011 c 0.273,2.663 0.549,4.965 0.787,6.764 l -2.996,4.888 -7.106,0 -2.263,4.439 -2.219,-4.439 -7.996,0 0,-7.361 c 0,0 -1.102,1.14 -3.588,2.583 -1.038,0.604 -2.335,1.175 -3.869,1.874 -1.635,5.367 -5.06,9.328 -8.403,11.026 -8.417,4.597 -18.709,8.058 -18.709,8.058 0,0 0.953,-1.986 2.136,-4.381 -5.93,1.944 -10.964,3.112 -10.964,3.112 0,0 14.031,-21.206 27.208,-37.724 l -0.858,-1.431 c -0.136,0.006 -1.342,0.044 -1.441,0.044 0,0 -1.401,0.162 -2.238,-2.305 -0.051,-0.151 -0.099,-0.295 -0.147,-0.437 -0.897,1.196 -2.269,3.054 -3.198,4.41 -1.483,2.162 -3.115,1.907 -3.115,1.907 l 5.833,-7.836 c -1.964,-6.057 0,-11.102 0,-11.102 l -5.833,-7.834 c 0,0 1.632,-0.256 3.115,1.904 0.929,1.358 2.301,3.214 3.198,4.413 0.048,-0.143 0.096,-0.289 0.147,-0.438 0.837,-2.467 2.238,-2.304 2.238,-2.304 0.099,0 1.305,0.035 1.441,0.043 l 0.858,-1.433 c -13.177,-16.517 -27.208,-37.719 -27.208,-37.719 0,0 5.034,1.163 10.964,3.108 -1.267,-2.565 -2.136,-4.381 -2.136,-4.381 0,0 10.292,3.461 18.709,8.061 3.343,1.695 6.768,5.656 8.403,11.023 0,0 2.078,0.908 3.57,1.691 C -2.04,-1.799 0,0 0,0 m -29.897,76.277 c 6.21,-2.322 12.597,-5.405 15.237,-6.946 4.444,-2.597 7.094,-7.77 8.072,-10.805 0,0 3.555,-1.472 5.512,-2.99 l 0,6.192 8.417,0 2.818,5.882 2.968,-5.889 7.06,-0.008 3.489,-5.709 c 0,0 -0.565,-4.548 -0.793,-6.763 l 10.45,-18.1 c 16.384,-3.63 21.153,-4.49 21.153,-4.49 0,0 -4.5,-0.852 -21.153,-4.489 L 22.883,4.061 c 0.228,-2.216 0.793,-6.763 0.793,-6.763 l -3.489,-5.71 -7.06,-0.009 -2.968,-5.886 -2.818,5.881 -8.417,0 0,6.192 C -2.942,-3.725 -6.588,-5.225 -6.588,-5.225 -7.186,-7.047 -8.011,-8.767 -9,-10.316 c -1.557,-2.445 -3.522,-4.45 -5.66,-5.713 -4.345,-2.466 -10.889,-5.365 -15.237,-6.948 -2.65,-1.046 -6.697,-2.349 -6.697,-2.349 0,0 1.611,3.368 2.117,4.404 -4.832,-1.615 -11.267,-2.978 -11.267,-2.978 l -10e-4,0 c 0,0 15.238,23.179 28.272,39.438 l -0.157,0.257 c -0.271,-0.009 -0.546,-0.014 -0.828,-0.014 -0.162,-0.007 -0.484,0.004 -0.878,0.138 -0.537,0.19 -1.208,0.611 -1.785,1.553 -0.876,-1.192 -2.363,-3.345 -2.571,-3.534 -1.365,-1.573 -2.902,-1.838 -3.659,-1.719 l -1.733,0.27 6.568,8.82 c -1.374,4.797 -0.694,8.185 0,10.685 l -6.568,8.819 1.733,0.269 c 0.757,0.119 2.294,-0.146 3.659,-1.717 0.195,-0.184 1.695,-2.344 2.571,-3.535 0.577,0.941 1.248,1.364 1.785,1.551 0.394,0.137 0.716,0.148 0.878,0.139 0.282,0 0.557,-0.004 0.828,-0.014 l 0.157,0.259 C -30.807,54.41 -45.745,77.202 -45.745,77.202 l 10e-4,0 c 0,0 5.297,-1.136 11.267,-2.977 -0.427,0.876 -2.117,4.403 -2.117,4.403 3.216,-1 6.697,-2.351 6.697,-2.351"
           style="fill:#a1a1a4;fill-opacity:1;fill-rule:nonzero;stroke:none"
           id="path4944" />
      </g>
    </g>
  </g>
</svg>
