<?xml version="1.0" encoding="utf-8"?>
<!-- Designed by Vexels.com - 2016 All Rights Reserved - https://vexels.com/terms-and-conditions/  -->

<svg version="1.1" id="Layer_1" xmlns="http://www.w3.org/2000/svg" xmlns:xlink="http://www.w3.org/1999/xlink" x="0px" y="0px"
	 width="1200px" height="1200px" viewBox="0 0 1200 1200" enable-background="new 0 0 1200 1200" xml:space="preserve">
<g>
	<path fill="#FFFFFF" d="M374.561,256.871l-1.474-14.036l41.36,9.607c0,0,41.352-24.743,40.245-24.743
		c-1.107,0,57.236,37.664,57.236,37.664l-8.492-29.921l29.913,7.026c0,0,50.585-0.749,51.7-0.749
		c1.099,0,20.305-2.581,32.852-10.706c20.68,5.911,33.234,9.241,33.234,9.241l-0.732-5.544c0,0,66.468,14.769,71.63-32.119
		c5.178-46.904-49.477-59.093-71.264-49.852c0.366-14.402-0.366-16.983-0.366-16.983l-55.762-13.67l1.107,26.225
		c0,0-5.903,0.366-9.599,4.062c-12.92-3.696-40.993-8.874-40.993-8.874l-15.868,7.393l-31.752-7.393l-3.697,7.393l-12.188,0.366
		l-25.109-60.925l-27.691,64.621l-2.589,0.366l0.374-8.492l-56.128-11.073c0,0-1.115,26.208-1.848,32.119
		c-8.866,4.063-8.866,4.063-8.866,4.063l-34.708-12.921l-2.215,7.01c0,0-44.681-24.743-81.97,15.518
		c-33.609,36.548-10.715,71.997,13.287,80.871c24.002,8.859,40.985,8.11,57.236-1.864"/>
	<path fill="#FFFFFF" d="M158.394,266.366l-27.945,303.156L50,542.421l55.897,267.58l132.946,50.807
		c0,0-98.222,116.017-110.075,225.248c38.102-38.11,146.488-167.67,258.268-211.69c-16.944,51.652-25.404,67.727-22.019,66.883
		c3.386-0.844,82.138-48.258,105.845-52.496c33.872,5.926,180.368,46.585,198.147,60.972
		c3.394,58.423,66.055,191.376,217.633,191.376c151.579,0,217.617-154.956,205.763-254.882
		c-7.616-73.67-36.405-98.221-36.405-98.221s44.037,5.911,66.899,5.911c5.083-37.249,27.101-141.398,27.101-141.398l-9.32-62.661
		l-14.387-0.861c0,0-45.733,15.247-51.668-3.378c-5.918-18.64,33.888-27.1,71.138-28.789l-3.394-59.283l-48.258-110.075
		c0,0-25.403-3.393-47.414,0c-5.082-22.018-7.631-25.411-7.631-25.411l89.777-46.57l11.009-60.972l-132.109-21.174L952.697,58.898
		l-87.212,150.734L719.833,196.09l-0.844,62.661l49.947,45.725c0,0-63.497,21.174-89.745,55.03
		c-39.807,3.393-39.807,3.393-39.807,3.393l-87.22-198.992l-65.21,209.156l-5.457-72.889l-165.128-71.966l-22.481,94.047
		L158.394,266.366z"/>
	<path fill="#005CA3" d="M256.336,851.711c0,0,17.127,6.31,20.728,5.417c3.609-0.908,344.357-109.979,344.357-109.979
		s80.217-45.964,77.509-45.964c-2.693,0-6.301-67.616-6.301-67.616l-139.716-45.964l-169.478,69.4c0,0-46.88,21.635-45.071,24.344
		c1.808,2.708-84.735,29.745-85.635,32.454c-0.9,2.693-11.718,109.071-11.718,111.779
		C241.01,828.275,256.336,851.711,256.336,851.711z"/>
	<path fill="#B1BBBE" d="M171.092,285.022L141.45,586.474l-74.515-22.862l52.497,237.102l139.724,54.201l17.78-107.542
		l83.834,21.174h6.771l21.174-78.752l17.78,4.222l10.165,33.888L574.166,612.73l92.294,52.496v30.494l352.275,68.588
		c0,0,65.202,20.313,94.843,15.231c5.927-39.798,21.174-124.478,21.174-124.478l-4.238-50.807c0,0-47.422,17.796-67.743-10.165
		c-11.861-17.78,5.075-47.414,67.743-49.103c0-32.183-0.844-44.037-0.844-44.037l-46.578-103.32c0,0-41.495,2.549-46.577,3.393
		c-6.771-21.174-11.854-44.88-11.854-44.88l93.156-50.807l6.771-38.954l-128.715-20.329L946.762,89.392l-76.211,134.643
		L733.368,213.87l-1.697,38.954l66.054,61.816c0,0-47.43,0-110.935,56.734c-36.405,3.393-56.734,4.238-56.734,4.238l-73.67-174.441
		L497.963,379.85l-21.174,3.378l-13.55-76.22l-139.717-58.423l-22.018,88.902L171.092,285.022z"/>
	<path fill="#1A1413" d="M182.953,307.025l129.56,51.652l22.018-93.139l115.157,49.947l15.247,81.302l4.23,19.485l221.863-24.567
		c0,0,32.175-48.275,96.532-64.366c44.037,22.019,53.349,28.789,53.349,28.789l12.698,30.494l92.303-8.46l77.907,39.783
		l49.963-7.616c0,0,43.176,87.212,43.176,89.761c0,2.533,3.393,33.027,3.393,33.027s-74.514,6.771-71.973,49.119
		c2.541,42.331,51.643,38.938,67.735,36.405c5.943,21.174,5.943,35.56,5.943,35.56l-19.501,111.78c0,0-110.92-0.844-143.102-72.81
		c-1.689,16.92-3.378,24.552-3.378,24.552S834.13,666.07,681.708,683.851c-0.844-24.552-0.844-24.552-0.844-24.552
		s-110.083-66.898-109.238-63.521c0.852,3.394-148.185,107.542-148.185,107.542l-7.623-23.707l-37.266-7.616l-23.707,82.146
		l-88.917-27.945l-16.084,110.091l-119.395-46.585L84.716,583.096l68.596,23.707l31.33-297.229"/>
	<path fill="#B1BBBE" d="M156.713,1038.451c0,0,56.4-210.049,285.894-313.114c-3.243,20.09-5.84,24.632-3.896,23.978
		c1.944-0.637,99.194-50.553,246.995-64.828c147.803-14.259,286.539,12.969,353.964,99.847
		c53.149,62.884,54.456,195.12-10.372,271.626c-64.828,76.49-200.967,117.977-307.936-6.484c0,0-35.003-46.681-39.536-108.912
		c-20.098-10.372-111.509-47.971-189.305-58.996c37.6-11.009,115.396-25.284,201.613-3.888c3.251-7.775,5.194-14.912,5.194-14.912
		s-164.666-41.487-307.936,48.624c4.541-25.937,17.501-60.94,17.501-60.94S289.611,890.633,156.713,1038.451z"/>
	<path fill="#1A1413" d="M183.288,995.674c0,0,79.095-188.015,247.649-250.883c-5.194,22.034-5.194,22.034-5.194,22.034
		s125.767-65.465,303.395-72.603c0,0,69.368,0,92.056,1.944c-16.203-16.204-19.453-18.147-19.453-18.147l17.509-12.332
		l92.056,36.963l-18.147,8.428c0,0,105.661,17.493,152.342,114.743c46.665,97.233,11.662,269.03-154.939,289.12
		c0,0-176.337,9.719-194.483-178.918c0,0-66.126-40.85-162.715-56.4c35.648-4.54,106.96-6.484,165.296,13.606
		c6.492-17.494,15.566-36.947,15.566-36.947s-152.343-46.681-305.984,31.115C418.621,854.34,425.105,831,425.105,831
		S270.819,889.996,183.288,995.674z"/>
	<g>
		<path fill="#B1BBBE" d="M517.097,804.106c0,0,229.677-38.412,322.729,42.826c-16.984-8.858-65.728-19.931-82.712-14.769
			c-19.198,24.375-23.635,30.286-23.635,30.286s87.14,28.806,149.18,11.073c30.28-10.34,36.19-22.146,36.19-22.146
			s-79.023-79.023-228.204-79.772C613.104,770.872,517.097,804.106,517.097,804.106z"/>
		<path fill="#B1BBBE" d="M824.316,784.159c0,0,70.165,25.109,107.829,57.61c21.413-19.198,33.234-45.057,33.234-45.057
			s-56.129-59.809-220.086-50.218c69.424,3.696,127.776,30.287,135.152,37.664C842.781,771.605,825.057,782.677,824.316,784.159z"/>
		<path fill="#B1BBBE" d="M986.043,954.027c1.959-1.307,15.517,58.343,6.659,88.615c-35.449,29.538-71.638,44.307-81.987,44.307
			C917.367,1049.285,937.307,986.513,986.043,954.027z"/>
		<path fill="#B1BBBE" d="M973.408,803.979c0,0-15.836,35.003-34.397,48.385c17.35,19.485,30.75,39.576,30.75,39.576
			s20.998-14.004,43.208-47.478C1001.107,821.918,980.403,807.006,973.408,803.979z"/>
		<path fill="#B1BBBE" d="M1021.196,859.359c0,0-28.614,35.927-42.913,45.359c6.691,11.87,13.383,29.219,13.383,29.219
			s36.836-11.87,46.57-13.08C1038.841,904.718,1026.98,866.974,1021.196,859.359z"/>
		<path fill="#B1BBBE" d="M927.445,861.494c0,0-28.328,32.883-97.409,31.051c-57.515-1.529-100.444-17.971-100.444-17.971
			s-20.998,63.936-1.521,108.975c39.575-1.211,100.754-11.264,172.584-46.872c45.662-22.529,59.355-35.911,59.355-35.911
			S937.489,866.066,927.445,861.494z"/>
		<path fill="#B1BBBE" d="M968.231,912.636l11.566,28.598c0,0-43.224,26.177-66.054,86.448
			c-17.653,49.31-21.309,61.179-21.309,61.179s-63.92,10.962-113.23-33.49c-35.608-32.262-43.837-57.833-43.837-57.833
			s76.41-8.205,129.672-29.825C918.308,946.109,968.231,912.636,968.231,912.636z"/>
	</g>
	<g>
		<g>
			<path fill="#B1BBBE" d="M202.263,372.234c-1.992,7.584-2.805,19.071-4.748,33.617c-3.266,24.44-7.568,58.423-12.81,100.978
				c-6.548,53.389-12.952,107.207-15.9,132.125l-53.795-21.269l29.291,128.349l87.451,31.035l22.735-186.373l25.349,89.076
				l62.883,21.476l26.416-133.59l6.827,58.773l59.427,21.907l44.666-143.66l-39.687-106.586l-10.73-71.551l-80.051-32.868
				l-38.045,173.134l-27.961-91.864l-4.796-2.008l-72.73-32.087C206.054,340.849,202.773,370.307,202.263,372.234z"/>
			<path fill="#B1BBBE" d="M842.829,419.984l-0.047-2.008l-19.86-49.279l-35.704-25.38l-5.154,1.498
				c-3.983,1.179-97.72,29.841-116.4,141.923c-5.385,35.784,0.693,64.653,18.083,85.826c17.159,20.856,41.63,29.124,58.837,29.921
				l10.005,0.446c-6.795,15.039-18.864,29.187-40.245,34.636l-20.935,5.353l16.57,13.877c24.663,20.664,43.208,33.298,43.972,33.824
				l2.35,1.593l21.07,2.008l3.442-2.629c2.915-2.23,71.495-55.379,68.651-127.919C844.852,496.919,842.853,420.748,842.829,419.984z
				 M750.486,526.458c-0.167-0.048-17.366-5.051-19.756-24.663c-1.8-14.818,15.152-36.931,30.542-50.33
				c0.175,36.883-0.239,102.475-0.247,103.304l0.024,0.796c0.096,1.562,1.275,22.831-6.882,43.622v-7.775
				c0-28.471,4.206-52.066,4.238-52.305l1.817-9.942L750.486,526.458z"/>
			<path fill="#B1BBBE" d="M926.783,381.125c-2.636-2.773-7.392-6.071-15.119-6.071c-2.868,0-5.998,0.463-9.312,1.402
				c-18.441,5.162-40.006,21.747-40.913,22.449l-4.477,3.473l7.01,213.76l74.817,46.411l-6.452-266.847
				C932.351,393.361,931.938,386.541,926.783,381.125z"/>
			<path fill="#B1BBBE" d="M1023.117,564.2l0.032-0.493c1.083-46.075,57.093-58.518,59.459-59.013l13.383-2.788l-33.202-75.423
				l-7.855,0.638c-2.024,0.159-49.963,4.445-82.162,44.004c-23.325,28.63-32.087,67.743-26.08,116.033
				c10.547,99.926,86.128,126.581,129.114,126.581l10.65-0.287l6.238-64.748l0.924-9.862l-9.687-2.055
				C1081.285,636.23,1019.197,622.464,1023.117,564.2z"/>
		</g>
	</g>
	<g>
		<path fill="#005CA3" d="M130.489,635.72l47.637,18.832c0,0,34.334-292.449,37.664-293.565c3.313-1.099,58.71,22.162,58.71,22.162
			l38.771,127.393l44.307-201.604l62.032,25.475l9.974,66.469l38.779,104.116l-40.085,128.907l-42.092-15.502L371.98,496.139
			l-37.664,190.548l-45.415-15.518l-38.779-136.251l-27.691,227.096l-68.683-24.375L130.489,635.72z"/>
		<path fill="#005CA3" d="M785.171,355.458c0,0-90.829,26.591-108.553,132.921c-12.18,80.872,42.092,101.918,66.46,103.033
			c0-29.921,4.429-54.281,4.429-54.281s-24.456-6.819-27.77-33.999c-3.314-27.18,33.8-64.302,52.36-72.252
			c0.662,22.528,0,123.952,0,123.952s5.305,77.557-57.013,93.474c24.535,20.537,43.096,33.139,43.096,33.139l13.916,1.322
			c0,0,66.955-51.031,64.302-118.646c-2.652-67.616-4.644-143.851-4.644-143.851l-17.891-44.419L785.171,355.458z"/>
		<path fill="#005CA3" d="M868.225,407.668l6.628,202.178l52.369,32.486l-5.974-246.597c0,0,0.669-13.256-15.9-8.619
			C888.769,391.751,868.225,407.668,868.225,407.668z"/>
		<path fill="#005CA3" d="M1055.817,438.162c0,0-115.341,9.288-98.102,147.834c12.587,119.316,118.654,116.655,118.654,116.655
			l5.297-55.013c0,0-74.243-15.247-69.599-84.186c1.322-55.682,68.277-69.607,68.277-69.607L1055.817,438.162z"/>
	</g>
	<path fill="#1A1413" stroke="#1A1413" stroke-width="0.2716" stroke-miterlimit="10" d="M748.161,227.094
		c-0.677,2.007-2.693,23.404-2.693,23.404l90.956,86.273l-48.816,91.625c0,0-2.223,24.774-0.223,23.437
		c2.015-1.339,119.937-57.547,119.937-57.547l122.374,90.287l9.369-24.073l-28.089-112.354l92.964-52.161l5.337-19.405
		l-122.375-18.72l-41.463-134.42l-66.883,116.369L748.161,227.094z"/>
	<g>
		<path fill="#1A1413" d="M554.88,239.138c1.999,0.67,66.206,149.794,66.206,149.794l135.758-8.014l-6.014,26.75l-84.098,76.362
			l-12.873,21.269l46.14,111.684l-28.081,5.354L552.88,582.204l-135.622,87.212l51.103-164.42l-98.731-70.579l-2.008-26.081
			l141.11-14.052L554.88,239.138z"/>
		<g>
			<path fill="#FBFCFE" d="M489.973,495.773c-3.402,10.307-9.949,30.191-16.378,49.995l-25.548,87.993
				c0,0,119.491-87.101,118.679-87.101c-0.821,0,117.627,61.832,117.627,61.832c-0.271,0.287-50.776-125.657-50.776-125.657
				l87.348-80.855l-115.755,7.201l-45.423-116.878l-38.779,120.207c0,0-125.752,11.264-125.162,11.472L489.973,495.773z"/>
			<path fill="#B1BBBE" d="M560.098,322.829l-28.168,98.588c0,0-110.426,8.444-110.983,10.149
				c-0.573,1.673,83.373,57.451,83.373,57.451s-38.309,115.508-36.612,115.508c1.689,0,100.842-73.813,100.842-73.813
				s99.711,55.778,98.03,55.778c-1.697,0-45.908-107.526-45.908-107.526l75.757-64.875l-97.457,5.082L560.098,322.829z"/>
		</g>
	</g>
	<g>
		<polygon fill="#FBFCFE" points="940.573,166.727 889.207,256.903 777.109,245.638 860.402,322.049 817.186,414.12 
			921.788,364.635 1012.594,439.787 983.788,334.572 1070.849,285.102 969.378,270.062 		"/>
		<path fill="#B1BBBE" d="M938.055,194.273l-40.069,73.288l-92.693-10.658l70.771,62.645l-36.326,72.013l83.294-36.947l73.28,56.989
			l-21.915-83.293l65.76-38.205l-78.919-10.021C961.237,280.084,936.812,193.031,938.055,194.273z"/>
	</g>
	<path fill="#B1BBBE" d="M582.801,631.816l-10.396,23.818l-25.173-0.334l19.469,16.458c0,0-8.388,25.157-7.384,24.822
		c1.003-0.335,18.792-14.769,19.795-15.104c1.012-0.334,20.808,14.769,20.808,14.769l-3.354-25.507c0,0,20.472-12.077,19.461-12.077
		c-1.012,0-26.177-3.362-26.177-3.362L582.801,631.816z"/>
	<path fill="#B1BBBE" d="M864.273,654.122l-12.108,28.805l-27.213-5.082l20.68,24.631c0,0-11.057,25.889-9.942,25.715
		c1.116-0.175,21.493-12.603,22.608-12.777c1.115-0.175,23.659,22.703,23.659,22.703l-3.92-31.148c0,0,25.715-12.65,24.632-12.841
		c-1.1-0.192-30.957-7.218-30.957-7.218L864.273,654.122z"/>
	<path fill="#B1BBBE" d="M299.576,768.737c-0.334,1.003-8.046,11.073-8.046,11.073l-12.761-2.024l10.069,9.735
		c0,0-8.046,13.096-7.042,13.096c1.003,0,13.423-5.385,13.423-5.385l9.727,8.747l1.003-13.765c0,0,10.069-6.039,9.066-6.373
		c-1.004-0.334-13.424-3.027-13.424-3.027L299.576,768.737z"/>
	<path fill="#B1BBBE" d="M358.302,815.371c-1.705,0,12.084-0.319,12.084-0.319l3.354-12.427l5.369,13.43h12.754l-10.739,8.046
		l3.689,11.073l-11.742-7.042l-9.4,6.038l4.03-11.742C367.701,822.428,358.971,815.371,358.302,815.371z"/>
	<path fill="#FFFFFF" d="M460.625,811.737c-1.856,0,13.073-0.366,13.073-0.366l3.641-13.446l5.807,14.53h13.805l-11.622,8.731
		l3.999,11.981l-12.714-7.631l-10.18,6.531l4.365-12.698C470.798,819.369,461.351,811.737,460.625,811.737z"/>
	<path fill="#FFFFFF" d="M675.406,733.67c-2.939,0,20.752-0.589,20.752-0.589l5.767-21.317l9.217,23.054h21.906l-18.441,13.829
		l6.341,19.039l-20.178-12.109l-16.147,10.372l6.93-20.17C691.554,745.779,676.561,733.67,675.406,733.67z"/>
	<g>
		<path fill="#FFFFFF" d="M871.586,764.961c-4.955,0,57.602,21.413,73.112,42.092c4.429-6.643,6.644-10.34,6.644-10.34
			S903.339,764.961,871.586,764.961z"/>
		<path fill="#FFFFFF" d="M982.362,818.875l-8.858,12.555l19.198,28.806l8.858-15.518
			C1001.56,844.717,983.844,817.41,982.362,818.875z"/>
		<path fill="#FFFFFF" d="M1007.471,890.506l14.029-14.036c0,0,5.911,28.072,5.911,34.716c-12.555,1.481-12.555,1.481-12.555,1.481
			L1007.471,890.506z"/>
	</g>
	<path fill="none" stroke="#F1F4D2" stroke-width="0.2972" stroke-miterlimit="10" d="M1017.07,946.635
		c0,0,2.222,28.072-1.474,38.396c11.073-28.789,13.287-41.344,13.287-41.344L1017.07,946.635z"/>
	<path fill="#B1BBBE" d="M998.605,948.117c0,0,12.555,48.004,8.866,74.594c25.842-25.858,31.02-73.861,33.968-88.63
		C1032.581,933.347,1004.516,944.421,998.605,948.117z"/>
	<g>
		<g>
			<path fill="#005CA3" d="M973.504,982.084c2.214,0.732,8.109,51.699,0.732,58.343c-14.036,8.858-48.004,32.485-48.004,32.485
				s4.429-51.683,36.182-87.132c-4.429,21.413-3.689,24.376-3.689,24.376L973.504,982.084z"/>
			<path fill="#005CA3" d="M909.178,915.679c0,0-89.793,52.656-166.498,52.656c-12.778-19.788-10.643-57.833-0.908-70.005
				c19.484,7.599,77.924,16.729,122.972,10.34c-21.309,8.523-65.45,26.797-65.45,26.797S867.787,929.667,909.178,915.679z"/>
			<path fill="#005CA3" d="M922.872,953.406c0.534-0.796-75.789,56.32-161.926,61.498c21.915,32.868,65.441,61.784,116.886,56.304
				c11.87-30.127,42.914-92.231,50.521-101.965c-14.307,12.794-57.228,58.742-103.487,66.66
				C848.915,1021.293,910.397,972.588,922.872,953.406z"/>
		</g>
	</g>
	<g>
		<path fill="#B1BBBE" d="M682.886,165.293c-26.208-6.277-38.762,4.429-45.415,14.402v-1.115l0.741-31.387l-30.653-9.224
			l3.33,22.512c0,0-14.769,1.115-16.25,1.481c-1.474,0.366-25.842,19.564-30.271,29.904c2.947-20.679,5.903-29.904,7.01-29.904
			c1.107,0-25.109-5.162-25.109-5.162l-14.029,8.125l-28.064-5.544l-2.581,4.811c0,0-28.439-0.382-29.921-0.382
			c-1.481,0-15.876-36.548-15.876-36.548l-15.876,36.93c0,0-30.28,5.162-29.172,4.78c1.115-0.351,1.848-12.172,1.848-12.172
			s-30.653-6.277-29.171-5.178c1.481,1.115-3.33,30.653-3.33,30.653l-9.966-2.215l-13.295,4.796l-21.046-8.492l-3.696,18.466
			c0,0-12.921-34.716-60.55-19.198c-47.637,15.502-39.146,65.72-16.992,74.211c22.162,8.492,47.271,11.089,71.265-18.083
			c0,3.314,0,3.314,0,3.314l33.234,9.973c0,0-8.125-35.815,18.466-45.039c-1.1,20.664-0.733,29.904-0.733,29.904l28.797,7.01
			l4.804-52.066l12.92,11.822l-11.073,42.826l40.978-28.057l37.297,25.109l-8.125-42.092l17.366-12.921l-7.392,37.664l30.653,7.01
			c0,0,5.528-24.743,11.073-28.439c0.374,15.885,1.115,17.366,1.115,17.366l29.172,6.644l0.733-3.696
			c0,0,17.724,20.679,49.485-0.733c15.502,2.215,22.52,4.429,22.52,4.429s1.107-10.818,1.163-12.969
			c0.932,2.884,14.586,22.512,47.947,14.435C721.299,214.778,715.754,174.151,682.886,165.293z M298.031,213.774
			c-1.8,5.448-11.614,20.377-21.724,16.283c-10.108-4.095-3.402-16.921,3.433-27.021c0,0,6.843-11.455,15.694-7.919
			C303.264,198.256,299.05,210.667,298.031,213.774z M593.531,201.666c0,0-3.88-6.469,9.966-14.402l0.749,0.557L593.531,201.666z
			 M672.276,201.841c-3.919,0-7.106-3.665-7.106-8.205s3.187-8.221,7.106-8.221c3.936,0,7.106,3.681,7.106,8.221
			S676.211,201.841,672.276,201.841z"/>
		<path fill="#1A1413" d="M299.416,178.405c-25.292-5.177-41.726,11.631-41.726,11.631c-25.284,24.743-12.921,50.776,2.589,57.786
			s46.339,4.238,61.482-19.198C336.897,205.171,322.662,183.153,299.416,178.405z M307.176,206.302
			c-0.828,13.925-10.387,27.579-21.859,31.945c-11.471,4.381-29.219,0.557-19.931-26.766c0,0,5.456-18.847,21.03-22.384
			C299.655,186.068,307.988,192.362,307.176,206.302z"/>
		<path fill="#1A1413" d="M339.669,185.224l-7.193,44.498l19.748,7.393c0,0-10.715-36.756,31.02-45.614
			c-11.813-3.505-13.104-4.063-13.104-4.063s-12.005,3.139-14.228,4.812c-0.916-4.812-0.916-4.812-0.916-4.812L339.669,185.224z"/>
		<path fill="#1A1413" d="M388.597,156.801l19.206,4.062l-7.759,68.301l-16.801-4.047l0.741-19.947c0,0,0.184-9.608,13.287-11.455
			c-4.429-2.948-11.073-4.796-11.073-4.796L388.597,156.801z"/>
		<polygon fill="#1A1413" points="408.902,177.48 429.773,194.098 421.091,225.293 453.217,204.613 483.497,222.345 
			475.188,191.692 505.833,168.973 466.696,170.837 457.097,142.032 441.77,171.57 		"/>
		<polygon fill="#FFFFFF" points="424.046,179.504 446.016,177.48 456.906,156.609 463.923,176.748 486.078,176.557 
			468.911,189.286 473.523,209.6 454.325,196.87 431.43,213.663 437.89,191.884 		"/>
		<path fill="#1A1413" d="M509.896,166.408l-11.264,48.736l22.895,4.239c0,0-1.466-25.476,17.724-37.473
			c0.184,13.845,2.031,27.323,2.031,27.323l18.275,5.162c0,0-0.733-33.41,4.987-47.621c-6.27-2.772-15.136-5.177-19.015-4.253
			c-12.92,10.339-19.748,11.63-19.748,11.63l0.175-4.62L509.896,166.408z"/>
		<path fill="#1A1413" d="M616.425,146.27c-0.183,9.973-1.657,22.894-1.657,22.894s-19.206-2.947-18.465-2.756
			c0.741,0.175-31.02,23.261-26.034,43.941c3.689,14.77,25.85,15.694,44.124,2.024c8.683,1.657,18.282,1.657,18.282,1.657v-62.948
			C632.676,151.081,620.305,149.6,616.425,146.27z M604.796,199.085c-7.201,7.758-15.876,11.439-17.916,7.377
			c-2.024-4.063,4.07-21.222,28.072-31.577C614.952,174.884,611.997,191.326,604.796,199.085z"/>
		<path fill="#1A1413" d="M675.702,167.874c-20.505-3.139-28.439,11.264-28.439,11.264c-11.089,18.274-0.374,39.336,21.971,40.626
			c22.337,1.29,33.234-11.455,34.716-22.719C705.414,185.781,696.19,171.013,675.702,167.874z M673.295,209.6
			c0,0-14.586-0.557-15.327-15.693c-0.557-7.759,3.88-12.172,5.911-13.478c0,0,11.256-6.644,20.306,2.963
			C689.355,189.844,689.912,210.158,673.295,209.6z"/>
	</g>
</g>
</svg>
