<svg id="Layer_1" data-name="Layer 1" xmlns="http://www.w3.org/2000/svg" viewBox="0 0 34.41035 25.70843"><title>Untitled-35</title><path d="M34.24185,9.82989l.10461.04228v-1.945a2.71533,2.71533,0,0,0-.15737-.90542,3.10632,3.10632,0,0,0-.4524-.83739,3.39462,3.39462,0,0,0-.61008-.62057,3.33259,3.33259,0,0,0-.65585-.40312,8.235,8.235,0,0,0-1.24558-.55794c-.67685-.26832-1.779-.67652-3.18995-1.09743A40.55926,40.55926,0,0,0,23.229,2.38276l-.00064-.001A2.69321,2.69321,0,0,0,20.10773,1.616c-.06327.02734-.12526.05722-.18757.08806a1.20966,1.20966,0,0,1-.99444.12812c-.27977-.075-.63456-.2467-.48831-.8711a.70834.70834,0,0,1,.31251-.42535.4697.4697,0,0,1,.38245-.04451c.25082.0728.3551.20822.31886.41359a.25725.25725,0,0,1-.144.185.26541.26541,0,0,1-.25688-.05086.19663.19663,0,1,0-.22158.3249.627.627,0,0,0,1.01-.39041.72991.72991,0,0,0-.59609-.86027.86265.86265,0,0,0-.69115.08266A1.10881,1.10881,0,0,0,18.054.87139l-.00476.02226a2.125,2.125,0,0,0-.199-.2378L17.20486,0l-.646.65616a2.1517,2.1517,0,0,0-.19839.23748L16.356.87139A1.10881,1.10881,0,0,0,15.8585.19582a.85994.85994,0,0,0-.69115-.08266.72991.72991,0,0,0-.59609.86027.627.627,0,0,0,1.01.39041.19663.19663,0,0,0-.22158-.3249.26641.26641,0,0,1-.25688.05086.25725.25725,0,0,1-.144-.185c-.03656-.20537.068-.34079.31887-.41359a.46983.46983,0,0,1,.38244.04451A.7115.7115,0,0,1,15.97294.961c.14593.6244-.20886.79607-.48863.8711a1.21027,1.21027,0,0,1-.99444-.12812c-.06231-.03083-.1243-.06071-.18757-.08806a2.69429,2.69429,0,0,0-3.121.76585l-.007.01112A41.1403,41.1403,0,0,0,6.54107,3.46812,36.40426,36.40426,0,0,0,2.11285,5.09424l-.255.11668.00032.04355A1.30959,1.30959,0,0,0,1.519,5.361c-.41233.192-.82212.39135-1.21825.59323L0,6.10839V7.16768a1.23032,1.23032,0,0,0,.15164.63678,1.04634,1.04634,0,0,0,.06644.1011V9.07548a1.70134,1.70134,0,0,0-.20473.78334,1.09185,1.09185,0,0,0,.20473.66222v2.44126l.02544.07058A2.71892,2.71892,0,0,0,1.807,14.54742l-.03306.01589a2.85528,2.85528,0,0,0,1.55874,1.19536l-.18121.075a3.12972,3.12972,0,0,0,1.96471,1.30885l-.19107.09347a3.84307,3.84307,0,0,0,2.13511,1.06724,10.65157,10.65157,0,0,0,20.28959,0A3.84312,3.84312,0,0,0,29.48492,17.236l-.19107-.09347a3.12858,3.12858,0,0,0,1.96471-1.30885l-.18121-.075a2.85387,2.85387,0,0,0,1.55841-1.19536l.06137-.08107a2.80223,2.80223,0,0,0,1.71323-2.51406V10.72164a2.76155,2.76155,0,0,0-.1685-.89176M22.5563,2.27595c-.7649-.11349-1.55618-.2057-2.36369-.26515.02321-.01112.04641-.02257.07026-.03306a2.17467,2.17467,0,0,1,2.29343.29822m-8.40914-.29822c.02479.0105.049.02323.07343.03466-.81132.06169-1.60483.15737-2.37228.27278a2.19164,2.19164,0,0,1,2.29884-.30744" fill="#8d734a"/><path d="M33.3431,8.99949l.5697.23018V7.92717a2.27792,2.27792,0,0,0-.13257-.76077,2.67738,2.67738,0,0,0-.38915-.72007,2.9806,2.9806,0,0,0-.53217-.54173,2.93494,2.93494,0,0,0-.6015-.365,7.38862,7.38862,0,0,0-1.19218-.53345c-.66856-.26547-1.75838-.6692-3.154-1.08536a35.6417,35.6417,0,0,0-9.36477-1.54824.76664.76664,0,0,0-.56271-.50039,1.57042,1.57042,0,0,0-.44254-.9121L17.20452.618l-.33636.34207a1.5746,1.5746,0,0,0-.44222.9121.765.765,0,0,0-.56143.49785A35.963,35.963,0,0,0,6.66313,3.88426,36.39812,36.39812,0,0,0,2.2934,5.48845l.00159.26482s-.03306-.02066-.05055-.02924a.48234.48234,0,0,0-.21809-.0496.77984.77984,0,0,0-.32459.0798c-.40248.18725-.80813.38467-1.20331.58591l-.06485.03338v.79414A.81756.81756,0,0,0,.52739,7.588a.55851.55851,0,0,0,.1243.15037v1.45A1.33493,1.33493,0,0,0,.447,9.85881a.60418.60418,0,0,0,.20473.4915v2.536a2.28555,2.28555,0,0,0,1.5864,1.33524c.028.00763.05817.01271.0871.01907l.007.00159a2.14488,2.14488,0,0,0,.62565.04577h.00064q-.32046.1569-.63932.32078a2.22,2.22,0,0,0,2.1634.90319c-.254.12049-.50739.24289-.75982.36973a2.80687,2.80687,0,0,0,2.34239,1.011c-.371.18694-.59482.30648-.59323.30584a3.25209,3.25209,0,0,0,1.94436.79288,10.21961,10.21961,0,0,0,19.57744,0,3.25213,3.25213,0,0,0,1.94437-.79288c.00126.00064-.22254-.1189-.59324-.30584a2.80519,2.80519,0,0,0,2.34207-1.011c-.2521-.12684-.50547-.24924-.75982-.36973a2.21961,2.21961,0,0,0,2.16342-.90319q-.31856-.16356-.63934-.32078a2.12927,2.12927,0,0,0,1.26944-.29979,2.38721,2.38721,0,0,0,1.25607-2.02V10.72163a3.74729,3.74729,0,0,0-.6336-1.72215" fill="#001641"/><path d="M24.00692,18.86243c.1917.14561.38244.29153.57383.44a7.08835,7.08835,0,0,1-3.891-.09029c-.05944-.02607-.116-.056-.17295-.0852a3.43547,3.43547,0,0,1-6.62405.00032c-.0569.02925-.11349.05881-.17263.08488a7.08789,7.08789,0,0,1-3.89094.09029c.19075-.14846.38245-.29439.57383-.44a4.647,4.647,0,0,1-2.02289-.186,9.53891,9.53891,0,0,0,17.64962,0,4.64693,4.64693,0,0,1-2.02288.186" fill="#cf0a2c"/><path d="M16.2564,3.361a.7866.7866,0,0,1-.37737-.418A37.55381,37.55381,0,0,0,4.46656,5.22173a.5607.5607,0,0,0-.3834.45238v.20347a36.04253,36.04253,0,0,1,12.1742-2.44Z" fill="#fff"/><path d="M30.30022,5.36586A38.252,38.252,0,0,0,18.53041,2.944a.78407.78407,0,0,1-.37515.41583V3.439A36.86754,36.86754,0,0,1,30.68265,6.02362V5.82048a.564.564,0,0,0-.38243-.45462" fill="#fff"/><path d="M17.83271,2.32442c-.371-.04482-.43237.48293-.4419.66127h-.11858c.00222-.50357.24193-.70545.24193-1.04275a1.10835,1.10835,0,0,0-.30933-.65141,1.1091,1.1091,0,0,0-.3087.65141c0,.3373.23971.53918.241,1.04275h-.11795c-.00954-.17834-.07121-.70609-.4419-.66127a.32619.32619,0,0,0,0,.647s-.06772-.2467.13066-.2467c.14339,0,.18312.16912.19361.261H16.727v.193h.38531a.37827.37827,0,0,1-.17739.24195.23516.23516,0,0,0,.16849.12017.357.357,0,0,0,.10141.23176.357.357,0,0,0,.10141-.23176.23534.23534,0,0,0,.16912-.12017.37679.37679,0,0,1-.178-.24195H17.683v-.193h-.17422c.01017-.09188.04928-.261.19361-.261.19743,0,.13035.2467.13035.2467a.32621.32621,0,0,0,0-.647" fill="#cf0a2c"/><path d="M16.00092,6.17769v-1.237a1.00437,1.00437,0,0,0-.09411-.44889.82464.82464,0,0,0-.25846-.30838,1.02589,1.02589,0,0,0-.3869-.16817,1.69757,1.69757,0,0,0-.48131-.03242,1.787,1.787,0,0,0-.48069.096,1.243,1.243,0,0,0-.38976.22.98654.98654,0,0,0-.261.343,1.08444,1.08444,0,0,0-.0941.46066V6.34078a.30478.30478,0,0,0-.23144.2858.23591.23591,0,0,0,.23144.2378V8.25144a.95757.95757,0,0,0,.0941.44159.79054.79054,0,0,0,.261.29852,1.03443,1.03443,0,0,0,.38976.15674,1.87891,1.87891,0,0,0,.48069.02639,1.97254,1.97254,0,0,0,.48131-.09,1.15793,1.15793,0,0,0,.3869-.20855.96424.96424,0,0,0,.25846-.33253,1.0392,1.0392,0,0,0,.09411-.45429V6.70352a.27769.27769,0,0,0,.24384-.27023.25735.25735,0,0,0-.24384-.2556m-.68351,1.9132a.50079.50079,0,0,1-.04865.23018.51332.51332,0,0,1-.12557.15641.568.568,0,0,1-.17136.09442.71459.71459,0,0,1-.38658.02544.46685.46685,0,0,1-.17422-.07185.38933.38933,0,0,1-.12526-.13956.45142.45142,0,0,1-.049-.22317V5.06785a.501.501,0,0,1,.049-.23145.49342.49342,0,0,1,.12526-.159.56388.56388,0,0,1,.17422-.09759.74253.74253,0,0,1,.19488-.0407.64452.64452,0,0,1,.1917.01494.49054.49054,0,0,1,.17136.07471.42237.42237,0,0,1,.12557.14275.46815.46815,0,0,1,.04865.22445Z" fill="#fff"/><path d="M2.8928,9.51121c0,.013-.00318.01685-.01018.0105a.08205.08205,0,0,1-.01589-.02035C2.848,9.447,2.0341,6.74409,1.99182,6.622A2.08061,2.08061,0,0,1,1.927,6.4214a.1202.1202,0,0,0-.05817-.07821.13945.13945,0,0,0-.117.0159q-.36576.17024-.729.34875v.22445a.34987.34987,0,0,0,.03179.17073.16387.16387,0,0,0,.07726.07407.18733.18733,0,0,0,.10936.021V9.262a.47766.47766,0,0,0-.20569.36148.15056.15056,0,0,0,.20569.16054v2.90987q.28374-.13686.56938-.26928v-3.65c0-.027.00191-.03974.006-.0372A.04054.04054,0,0,1,1.83,8.752c0,.00412.021.06835.06454.19043.04228.11953.838,2.77633.84787,2.79764a.75757.75757,0,0,0,.06835.16055c.02417.03942.06422.047.12113.02321.12716-.05341.2537-.1065.38118-.159a.22832.22832,0,0,0,.11858-.10269.27393.27393,0,0,0,.03974-.138v-2.735a.43235.43235,0,0,0,.18694-.329.16285.16285,0,0,0-.18694-.1793V6.258a.29691.29691,0,0,1,.0229-.09728.56057.56057,0,0,1,.04291-.07185.96892.96892,0,0,0,.10555-.15737.429.429,0,0,0,.05278-.2111V5.52361Q3.293,5.68576,2.8928,5.859Z" fill="#fff"/><path d="M29.89293,9.55975c0,.014-.00351.01431-.0105.00318a.265.265,0,0,1-.01622-.03337l-.10649-.392q-.07966-.29423-.18344-.68034-.10347-.38722-.22-.81132-.11683-.42394-.21682-.78144-.10108-.35669-.16784-.5964c-.04451-.15992-.06741-.24448-.06741-.25338a.33.33,0,0,0-.06007-.12558.24744.24744,0,0,0-.1205-.07725q-.3791-.12542-.76013-.24257v.22445a.49434.49434,0,0,0,.11444.33381.51817.51817,0,0,0,.11477.11V7.84333a.18316.18316,0,0,0-.21554.19393.39261.39261,0,0,0,.21554.32808v2.35606c.19742.06231.39485.12589.59067.19138V7.6777c0-.027.00287-.03783.00732-.03179a.12357.12357,0,0,1,.01335.0248c0,.00508.02226.0852.06708.24321.0442.157.10047.35415.16786.5894.06644.23526.13862.4915.21713.76681.07758.27563.15133.53632.22.78016q.10347.36623.17677.626c.049.17422.07756.274.08677.30011a1.65914,1.65914,0,0,0,.06964.21523.20624.20624,0,0,0,.123.11985c.12876.04769.25687.09633.385.14466.05278.02067.09347.01811.11922-.00827a.14056.14056,0,0,0,.03974-.10651V9.1595a.165.165,0,0,0,.18758-.18089.42637.42637,0,0,0-.18758-.32777V7.08606a.15694.15694,0,0,1,.02354-.07917.17423.17423,0,0,1,.0429-.03783.302.302,0,0,0,.10556-.07343.2338.2338,0,0,0,.05309-.16945V6.52971q-.40294-.15642-.80845-.303Z" fill="#fff"/><path d="M33.26576,10.07166a3.20783,3.20783,0,0,0-.303-.52583,5.11778,5.11778,0,0,0-.32905-.41424.22481.22481,0,0,0,.00955-.06264.46281.46281,0,0,0-.25466-.38276.20143.20143,0,0,0-.16086-.01082l-.06328-.07089a4.52914,4.52914,0,0,1-.30614-.38308.55948.55948,0,0,1-.12494-.31188V6.83213a.13837.13837,0,0,1,.04608-.11254.22871.22871,0,0,1,.118-.04705.49927.49927,0,0,1,.15005.00445.65006.65006,0,0,1,.1491.04673,1.07,1.07,0,0,1,.1472.083,1.043,1.043,0,0,1,.14941.12208.70438.70438,0,0,1,.11318.151.33393.33393,0,0,1,.04546.16341v.25147a.565.565,0,0,0,.11031.32269.68609.68609,0,0,0,.2715.23716c.09665.04641.193.09315.28993.14051V7.69208a1.436,1.436,0,0,0-.08392-.49149,1.57469,1.57469,0,0,0-.23494-.432,2.02817,2.02817,0,0,0-.35573-.35829,2.223,2.223,0,0,0-.4454-.26736,1.73538,1.73538,0,0,0-.44383-.138.671.671,0,0,0-.35383.03306.46574.46574,0,0,0-.2362.22063.90389.90389,0,0,0-.08615.42982v.88666a1.20791,1.20791,0,0,0,.1224.536,2.46027,2.46027,0,0,0,.30551.47687c.11922.14815.248.29281.38594.43554a.20248.20248,0,0,0-.02257.09855.45588.45588,0,0,0,.25559.379.184.184,0,0,0,.19425-.00891,2.533,2.533,0,0,1,.27881.398.89448.89448,0,0,1,.11984.439v1.27261a.18589.18589,0,0,1-.04863.13638.2374.2374,0,0,1-.12653.06422.55127.55127,0,0,1-.16912.00413.58941.58941,0,0,1-.17549-.049,1.00515,1.00515,0,0,1-.17582-.10523,1.19947,1.19947,0,0,1-.16627-.14783.83391.83391,0,0,1-.12461-.16977.36147.36147,0,0,1-.04929-.17708v-.29184a.46165.46165,0,0,0-.08806-.27817.604.604,0,0,0-.26547-.19678c-.10554-.04356-.21077-.08774-.31568-.13035v.509a1.279,1.279,0,0,0,.09537.49023,1.62973,1.62973,0,0,0,.25656.42536,1.9888,1.9888,0,0,0,.37673.34685,2.61354,2.61354,0,0,0,.45654.26164,1.9628,1.9628,0,0,0,.45461.14688.812.812,0,0,0,.37545-.00986.464.464,0,0,0,.25815-.19456.73056.73056,0,0,0,.09632-.40375V10.61339a1.30344,1.30344,0,0,0-.12238-.54173" fill="#fff"/><path d="M10.35551,7.13995q-.041.36052-.08266.70768-.04149.34812-.07567.619-.03433.27182-.055.43809a.86971.86971,0,0,1-.028.16849c-.05437-.31919-.10428-.60595-.14752-.85964q-.06533-.38055-.144-.84947-.07963-.46877-.16213-.92354c-.05468-.303-.10619-.58337-.15387-.84311-.04833-.25783-.09029-.46288-.12748-.61325-.00891-.04737-.05119-.0798-.12653-.09411a.54324.54324,0,0,0-.22953.00413.81587.81587,0,0,0-.21555.08711.24765.24765,0,0,0-.13321.15737q-.05484.237-.12684.65839-.07106.42109-.15355.91305-.08107.49214-.15991,1.00016c-.05278.33922-.09983.64664-.14307.92195-.04292.27563-.09251.58846-.14656.9369a.69053.69053,0,0,1-.03084-.15419C7.898,9.31,7.88022,9.173,7.85924,9.00134,7.83889,8.83062,7.815,8.6351,7.788,8.41606c-.02734-.219-.05436-.4419-.0817-.67016-.06391-.53536-.2839-2.46224-.2839-2.4616q-.4144.11492-.82721.24V5.7281a.28328.28328,0,0,0,.047.17581.21446.21446,0,0,0,.10141.07789.27542.27542,0,0,1,.06072.04291.16509.16509,0,0,1,.04069.07694c.06518.54586.12526,1.0488.18089,1.51359a.37677.37677,0,0,0-.164.29344.18783.18783,0,0,0,.22349.19678l.00318.02861q.04768.38769.09187.75441c.02893.24575.056.46479.08107.65936q.0372.29184.06072.47465.02432.1836.02416.19711a.16337.16337,0,0,0,.04387.09283.09707.09707,0,0,0,.10524.02226q.38388-.10539.76935-.20219a.207.207,0,0,0,.1154-.06994A.52137.52137,0,0,0,8.456,9.915q.28994-1.72388.58083-3.443Q9.321,8.06,9.60586,9.65211a.28076.28076,0,0,0,.07566.11349.14069.14069,0,0,0,.11668.01622q.38484-.07965.77095-.15006a.15661.15661,0,0,0,.1065-.07057.273.273,0,0,0,.04514-.11318c0-.00954.00795-.07884.02448-.20855.01526-.12939.03625-.29693.062-.50294q.0372-.30854.08266-.69686.04434-.38674.09315-.7967l.00349-.02988a.33127.33127,0,0,0,.22668-.30043.21555.21555,0,0,0-.16659-.21681Q11.132,5.961,11.232,5.09768a.26006.26006,0,0,1,.041-.09506.55215.55215,0,0,1,.06263-.07121.43945.43945,0,0,0,.10365-.12494.39023.39023,0,0,0,.04832-.19774V4.40463q-.422.06723-.84183.14464s-.226,2.02638-.29025,2.59068" fill="#fff"/><path d="M27.35066,7.85129a.37864.37864,0,0,0-.22254-.32491c-.03178-.18789-.06359-.37609-.09475-.55921q-.06435-.38484-.11508-.69369-.052-.30854-.08487-.50865c-.0229-.13289-.03466-.20823-.03466-.226a.45921.45921,0,0,0-.10841-.24289.46851.46851,0,0,0-.25147-.15864Q25.983,5.019,25.52425,4.9128v.15578a.436.436,0,0,0,.171.39961.07289.07289,0,0,1,.03434.06581.644.644,0,0,1-.00765.09728c0,.00445-.00984.05818-.0305.16214-.02.10332-.048.23939-.082.40788q-.05105.25226-.11254.57415c-.02.10364-.041.20855-.06137.31442a.2064.2064,0,0,0-.26418.20569.35084.35084,0,0,0,.1666.28294c-.13036.659-.44159,2.269-.44159,2.26927q.32715.06962.653.14624s.18915-1.1.19361-1.121c.00922-.0887.04991-.12366.123-.10618.25974.06358.51884.12907.77668.19838A.22941.22941,0,0,1,26.745,9.019a.20935.20935,0,0,1,.05373.12335c0,.02226.15259,1.20839.15259,1.20839q.34194.09681.68288.20061c.00033,0-.28008-1.67731-.41965-2.50835a.18692.18692,0,0,0,.13608-.1917m-.68733.52137a.0731.0731,0,0,1-.07472.014q-.32-.08487-.64058-.1634a.11241.11241,0,0,1-.068-.04705.10891.10891,0,0,1-.021-.083q0-.00667.01717-.11063c.01081-.06962.02575-.159.04418-.268l.06169-.36846c.02321-.13671.04768-.27627.075-.4187q.10158-.56557.20442-1.13018l.014.00381q.102.61659.20411,1.23415.041.23414.075.45716c.02321.14815.04261.28136.06136.3993.01748.11826.034.21491.04738.29152.01366.07567.02034.11572.02034.12017a.07286.07286,0,0,1-.02034.0693" fill="#fff"/><path d="M19.05086,8.55721c-.02226-.01494-.0426-.028-.05913-.04069-.01621-.01145-.02417-.04038-.02417-.08584V7.27062a1.30964,1.30964,0,0,0-.07662-.45843.71456.71456,0,0,0-.23716-.32936c-.05087-.05151-.056-.097-.014-.13607a.81707.81707,0,0,0,.23747-.28549.84184.84184,0,0,0,.09029-.3923V5.13232a1.61285,1.61285,0,0,0-.06263-.461A.93663.93663,0,0,0,18.36034,4.06a1.33973,1.33973,0,0,0-.50929-.09791q-.71912-.01193-1.43793.00318v.19742a.36845.36845,0,0,0,.05214.21556.35739.35739,0,0,0,.1081.10617.12921.12921,0,0,1,.049.04355.14689.14689,0,0,1,.021.08488V6.16523a.27359.27359,0,0,0-.2165.26386.26155.26155,0,0,0,.2165.25561V9.03695c.22826-.00254.45589-.00254.68414-.00064V6.80074c0-.06327.0302-.09506.09093-.09506.144.00127.28834.00286.43268.00572a.389.389,0,0,1,.32459.13924.6102.6102,0,0,1,.1011.3726V8.71649a.34193.34193,0,0,0,.08773.24352.36971.36971,0,0,0,.268.10109c.19329.00764.38626.01621.57924.027V8.82331a.24581.24581,0,0,0-.05214-.17549.64206.64206,0,0,0-.10872-.09061m-.77412-2.91528a.63152.63152,0,0,1-.1011.37737.36467.36467,0,0,1-.32459.13543c-.14688-.00254-.29312-.00413-.44-.00476a.097.097,0,0,1-.056-.02131.06216.06216,0,0,1-.02766-.05372V4.62208c0-.06359.0372-.09474.11159-.09442.13765.001.274.00317.412.00508a.38.38,0,0,1,.32459.14592.64153.64153,0,0,1,.1011.37959Z" fill="#fff"/><path d="M21.23045,7.26415c-.06931.02417-.10428.08806-.10428.192,0,.02734.00635,1.176-.00986,1.19885a.0734.0734,0,0,1-.07312.02989c-.20378-.02163-.4082-.04133-.612-.05945a.07964.07964,0,0,1-.06962-.04641.22064.22064,0,0,1-.021-.097q-.00335-1.86647-.00667-3.73327a.20025.20025,0,0,1,.01716-.10046.13335.13335,0,0,1,.05246-.04291.50427.50427,0,0,0,.111-.10524.28678.28678,0,0,0,.05563-.18534V4.1114q-.58082-.05434-1.16325-.08837v.20345a.32207.32207,0,0,0,.056.19361.59.59,0,0,0,.11159.12208.20662.20662,0,0,1,.05532.0515.181.181,0,0,1,.021.10333V6.24206a.24581.24581,0,0,0-.21967.24607.29.29,0,0,0,.21967.27467V9.11474q.92037.06057,1.83754.16913c.0461.0054.09252.01081.13925.01653a.15415.15415,0,0,0,.11063-.03338.14371.14371,0,0,0,.056-.1224V7.28292c-.0976-.0124-.19519-.02385-.29216-.03561a.65489.65489,0,0,0-.27149.01684" fill="#fff"/><path d="M6.10884,5.68a.16043.16043,0,0,0-.03338.00572l-.01272.00382q-1.06676.34-2.116.74678v.19711a.40053.40053,0,0,0,.03625.19646.13737.13737,0,0,0,.103.069.1259.1259,0,0,1,.05944.03147.10935.10935,0,0,1,.02671.08488V8.5533a.42388.42388,0,0,0-.20918.3408.16815.16815,0,0,0,.20918.18025v2.3513c.05722-.02163.11508-.04356.17231-.06423q.454-.17024.91146-.32776c.13-.04514.26005-.08871.39008-.13194q.14736-.04912.29535-.097c.04037-.01272.08107-.02607.12144-.03847l.01272-.00413a.19217.19217,0,0,0,.04864-.02512.26952.26952,0,0,0,.06295-.05754.21984.21984,0,0,0,.05087-.13893V9.84212l-.00031.00032q-.00048-.36911-.00032-.73788c-.09442.02957-.18884.05945-.28263.08934a.86712.86712,0,0,0-.26259.13353.28622.28622,0,0,0-.10046.23716c0,.02734.00572.74138-.00954.77126a.11928.11928,0,0,1-.07058.061c-.08519.02925-.1704.05786-.2556.08711q-.17644.061-.35225.12335c-.05341.01907-.08012-.00286-.08012-.06677V8.95991a.1309.1309,0,0,1,.10014-.13067c.26642-.09569.53473-.18725.80274-.27563a.12756.12756,0,0,0,.10077-.12779V8.04623c0-.03657-.01272-.0585-.0372-.06613a.11407.11407,0,0,0-.07057-.00064q-.39866.1321-.79575.27246c-.06676.02352-.10014.00444-.10014-.05913V6.77457a.14163.14163,0,0,1,.0302-.08234A.13939.13939,0,0,1,4.917,6.63914c.21237-.07535.42632-.14942.64-.221a.04944.04944,0,0,1,.02512.01589c.01526.01907.00954.73756.00954.7649q0,.15593.10046.17009a.64155.64155,0,0,0,.26259-.03879c.09379-.02988.18821-.05976.28263-.08934V6.50307h.00063V5.78363a.10217.10217,0,0,0-.04769-.08711A.11313.11313,0,0,0,6.10884,5.68" fill="#fff"/><path d="M24.31841,4.65812a.13621.13621,0,0,0-.034-.01208L24.272,4.6435h-.001q-1.09013-.21412-2.19011-.36179v.19775a.49936.49936,0,0,0,.03815.21523.29048.29048,0,0,0,.10746.123.29475.29475,0,0,1,.06232.06327.1646.1646,0,0,1,.028.09855V6.51792a.22509.22509,0,0,0-.219.23049.3185.3185,0,0,0,.219.29057V9.39c.05977.00923.11986.0178.17994.02639q.47306.06868.94548.15069c.13416.02258.268.04705.40185.07121.10141.01907.20156.03815.303.05722l.124.02449.01335.00254a.13521.13521,0,0,0,.04928-.00032.13314.13314,0,0,0,.06486-.0248.13006.13006,0,0,0,.0515-.1119V8.14882c-.09664-.0197-.193-.03815-.289-.05659a.6277.6277,0,0,0-.26927-.00381c-.06962.01907-.10365.08044-.10365.1844,0,.02734.006.74455-.00985.76712a.06686.06686,0,0,1-.07248.02384c-.08774-.01589-.17518-.03115-.26355-.04641-.12113-.021-.24289-.041-.36465-.061a.0952.0952,0,0,1-.083-.10841V7.26629c0-.06295.035-.08965.104-.07789q.4144.06723.82848.14434c.06867.01271.10269-.01177.10269-.07567V6.87748a.10407.10407,0,0,0-.03783-.08552.16442.16442,0,0,0-.07217-.03688c-.2734-.0515-.54712-.09855-.82116-.14338a.10641.10641,0,0,1-.104-.1119V5.08158a.08109.08109,0,0,1,.03178-.06644.07763.07763,0,0,1,.06486-.02q.33095.05436.66158.11381a.11477.11477,0,0,1,.02544.02829c.01589.028.00985.74328.00985.76967a.244.244,0,0,0,.10365.22286.79478.79478,0,0,0,.26927.09886c.096.01876.19234.03689.289.05723V4.82852a.17455.17455,0,0,0-.048-.11158.2141.2141,0,0,0-.0836-.05882" fill="#fff"/><path d="M11.644,20.11956l.48355.46574a.39409.39409,0,0,1,.164.336.37485.37485,0,0,1-.10523.19519.33541.33541,0,0,1-.20823.11.42489.42489,0,0,1-.33858-.16817l-.27372-.26387-.28453.29535-.19266-.186Zm-.14592.53759.24193.23272c.06327.061.15069.14338.25115.0391a.15731.15731,0,0,0,.05023-.11858c-.00445-.049-.03338-.07694-.1154-.15578l-.22063-.21268Z" fill="#fff"/><polygon points="12.931 21.25 13.799 21.77 13.699 21.938 13.064 21.558 12.938 21.767 13.552 22.135 13.453 22.3 12.839 21.933 12.705 22.155 13.367 22.552 13.267 22.718 12.372 22.181 12.931 21.25" fill="#fff"/><polygon points="14.446 22.053 14.704 22.14 14.423 22.979 14.995 23.171 14.932 23.361 14.102 23.083 14.446 22.053" fill="#fff"/><rect x="15.44753" y="22.87957" width="1.0867" height="0.27271" transform="translate(-9.1686 35.36265) rotate(-81.34837)" fill="#fff"/><path d="M18.23789,23.24588a.46194.46194,0,0,1-.13162.2413.70376.70376,0,0,1-.50167.192.57358.57358,0,0,1-.67843-.55349c-.01717-.40915.302-.58909.64472-.60371a.6673.6673,0,0,1,.63742.31219l-.29693.0496a.35669.35669,0,0,0-.3319-.16182.364.364,0,0,0-.37005.39453.375.375,0,0,0,.40788.36211.34636.34636,0,0,0,.33477-.219Z" fill="#fff"/><path d="M19.204,22.29714l.282-.08329.811.89334-.29216.08647-.14624-.17009-.53441.15769-.03084.22253-.28453.08425Zm.26006.27181a.284.284,0,0,1-.02989-.03656.16043.16043,0,0,1-.021-.03847c-.00064.01463,0,.02734.00031.04006l-.00444.04451-.055.39357.3656-.10809Z" fill="#fff"/><path d="M20.53841,21.81419l.23239-.13892.76776.24575c.0941.03147.11285.03846.21427.07662-.06071-.08393-.07535-.10778-.12462-.18726l-.28517-.4775.22349-.13321.55762.93276-.23112.13829-.777-.24924c-.083-.028-.11668-.03942-.20791-.07535.04928.06772.05913.08393.10269.15419l.30711.51407-.2219.13257Z" fill="#fff"/><path d="M22.77437,21.15815a.37784.37784,0,0,0,.38117-.131c.04737-.04641.18948-.1987.09728-.29376-.05468-.05626-.12176-.01716-.17167.0159-.03816.02448-.22222.15545-.26482.18408-.08488.05626-.29948.19742-.47084.021a.30035.30035,0,0,1-.07662-.14051.53173.53173,0,0,1,.20474-.45558.77662.77662,0,0,1,.3408-.212.453.453,0,0,1,.25147.00063l-.14052.22636a.20137.20137,0,0,0-.131.00223.52935.52935,0,0,0-.186.12239c-.08616.08361-.15865.18567-.08647.25974.049.05118.10714.02035.17866-.02321.03847-.02448.22349-.15228.26737-.17962.10714-.07153.29281-.18726.45875-.01558.24353.25083-.04672.549-.145.64441a.6121.6121,0,0,1-.64028.19361Z" fill="#fff"/><path d="M15.95117,15.949a3.84863,3.84863,0,0,1-2.20219-5.45A32.45854,32.45854,0,0,0,3.99,12.94659s-.3958.16468-.62692.247a1.30744,1.30744,0,0,1-1.13431-.0248A35.38966,35.38966,0,0,1,14.02079,9.8447c.87458-.08234.99.0496.75918.37959-.18948.27023-2.55761,3.2831,1.1712,5.72467" fill="#fff"/><path d="M12.49214,11.67356A36.6613,36.6613,0,0,0,5.89287,13.2695c.5554.9884,2.06231.5732,2.06231.5732,2.82689-.79988,4.08806-1.07138,4.49276-1.1499a5.74532,5.74532,0,0,1,.04419-1.01924" fill="#8d734a"/><path d="M12.51653,13.29782a35.26774,35.26774,0,0,0-5.24876,1.46972,2.14466,2.14466,0,0,0,2.21586.42823c1.23986-.35129,2.82911-.85868,3.30312-1.011a3.94408,3.94408,0,0,1-.27022-.887" fill="#8d734a"/><path d="M13.03444,14.65264c-.50326.16246-3.02082.97791-4.08329,1.38611,0,0,.60976.81767,2.36941.12494,1.22651-.48292,1.90176-.76458,2.19933-.89175a3.82986,3.82986,0,0,1-.48545-.61931" fill="#8d734a"/><path d="M13.90858,15.6273c-.43968.19107-2.07312.90511-3.01828,1.36a2.891,2.891,0,0,0,2.68479-.33985l.93021-.61008a4.87581,4.87581,0,0,1-.59672-.41011" fill="#8d734a"/><path d="M14.95763,16.27489c-.29884.18694-1.53839.96583-2.14338,1.41281a2.01689,2.01689,0,0,0,2.08106-.56716c.34239-.32236.52933-.50548.63234-.61039-.18121-.06518-.37355-.14275-.57-.23526" fill="#8d734a"/><path d="M18.45885,15.949a3.84838,3.84838,0,0,0,2.20187-5.45A32.45917,32.45917,0,0,1,30.42,12.94659s.3958.16468.62692.247a1.30736,1.30736,0,0,0,1.13431-.0248A35.3929,35.3929,0,0,0,20.38922,9.8447c-.87458-.08234-.99.0496-.75886.37959.18916.27023,2.55729,3.2831-1.17151,5.72467" fill="#fff"/><path d="M21.91775,11.67356A36.66137,36.66137,0,0,1,28.517,13.2695c-.5554.9884-2.06231.5732-2.06231.5732-2.82657-.79988-4.088-1.07138-4.49276-1.1499a5.74619,5.74619,0,0,0-.04418-1.01924" fill="#8d734a"/><path d="M21.89352,13.29782a35.27817,35.27817,0,0,1,5.24874,1.46972,2.14541,2.14541,0,0,1-2.21618.42823c-1.23921-.35129-2.82878-.85868-3.30279-1.011a3.97726,3.97726,0,0,0,.27023-.887" fill="#8d734a"/><path d="M21.37538,14.65264c.50325.16246,3.02081.97791,4.083,1.38611,0,0-.60913.81767-2.36908.12494-1.22619-.48292-1.90145-.76458-2.19933-.89175a3.81277,3.81277,0,0,0,.48546-.61931" fill="#8d734a"/><path d="M20.50128,15.6273c.43967.19107,2.07343.90511,3.018,1.36a2.89035,2.89035,0,0,1-2.68446-.33985l-.93021-.61008a4.85223,4.85223,0,0,0,.59673-.41011" fill="#8d734a"/><path d="M19.45216,16.27489c.29915.18694,1.5387.96583,2.14337,1.41281a2.01634,2.01634,0,0,1-2.08074-.56716c-.34271-.32236-.52933-.50548-.63266-.61039.18121-.06518.37355-.14275.57-.23526" fill="#8d734a"/><path d="M20.39345,18.21264A3.18852,3.18852,0,1,1,17.20476,15.024a3.18858,3.18858,0,0,1,3.18869,3.18868" fill="#fff"/><path d="M19.73384,18.87254a2.52869,2.52869,0,1,1-2.52869-2.529,2.52884,2.52884,0,0,1,2.52869,2.529" fill="#8d734a"/><path d="M17.2047,14.77607a3.437,3.437,0,1,0,3.43665,3.43665,3.44006,3.44006,0,0,0-3.43665-3.43665m2.88761,2.88252a2.98668,2.98668,0,0,1-1.54951,1.92974,5.03559,5.03559,0,0,1,.43363-1.26752,3.52857,3.52857,0,0,0,.4454-2.03688,2.93127,2.93127,0,0,1,.67048,1.37466m-4.39579-1.96884a2.91877,2.91877,0,0,1,1.29581-.40916v4.62374a2.97393,2.97393,0,0,1-.68033-.12843,4.595,4.595,0,0,0-.48959-1.62645c-.38118-.86473-.7099-1.61691-.12589-2.4597m.58972,4.523a3.40891,3.40891,0,0,0,.70609.11668v.81608a2.91094,2.91094,0,0,1-1.08026-.29184,1.19288,1.19288,0,0,0,.37418-.64091m1.13146.11668a3.40821,3.40821,0,0,0,.7064-.11668,1.19289,1.19289,0,0,0,.37419.64091,2.91251,2.91251,0,0,1-1.08059.29184Zm.68129-.55826a2.95867,2.95867,0,0,1-.68129.13289V15.28059a2.92,2.92,0,0,1,1.29581.40916c.58369.84279.255,1.59465-.12589,2.45938a4.60124,4.60124,0,0,0-.48863,1.622m-3.11079-3.4872a3.52746,3.52746,0,0,0,.4454,2.03688,4.982,4.982,0,0,1,.43459,1.27769A2.9518,2.9518,0,0,1,14.318,17.656a2.93087,2.93087,0,0,1,.67016-1.37212m-.6778,2.44285a3.36972,3.36972,0,0,0,1.56668,1.34351c-.00254.01939-.00413.0391-.007.05849a.85677.85677,0,0,1-.34271.49754,2.94533,2.94533,0,0,1-1.217-1.89954M18.883,20.626a.857.857,0,0,1-.3424-.49753c-.00317-.01939-.00508-.03879-.007-.05818a3.37106,3.37106,0,0,0,1.56541-1.341A2.94512,2.94512,0,0,1,18.883,20.626" fill="#00103e"/><path d="M18.22626,10.314s-.02607.1081-.0922.1081a4.10533,4.10533,0,0,1-.67589-.3052c-.08488-.04577-.20378-.11476-.24511-.13861,0,0-.17644.09284-.261.13861a4.10611,4.10611,0,0,1-.67652.3052c-.06581,0-.09156-.1081-.09156-.1081a2.81015,2.81015,0,0,0-1.08282,2.45971,2.63406,2.63406,0,0,0,.7,1.9539l.09506.3799h2.61739l.09537-.3799a2.63462,2.63462,0,0,0,.69973-1.9539,2.81038,2.81038,0,0,0-1.0825-2.45971" fill="#00103e"/><path d="M18.74185,12.31724a1.93918,1.93918,0,0,0-.47179-1.28342s-.00827.159-.27468-.01907a1.37906,1.37906,0,0,0-1.58607.00127c-.25688.17517-.2696.0178-.2696.0178a1.94072,1.94072,0,0,0-.47147,1.28342,1.48913,1.48913,0,0,0,.15292.757,1.45216,1.45216,0,0,0,2.75631.01875,1.38711,1.38711,0,0,0,.16437-.77571" fill="#fff"/><path d="M17.78328,13.57774l-.00572-.00985a.38879.38879,0,0,1,.09823-.48324s.56716.11891.5802-.633a.44445.44445,0,0,1,.06549-.23748s-.14466-.13194-.461.10586c-.31664.23684-.48768.90956-.65936.75123-.16944-.15642-.10745-1.03258-.19519-1.06564h-.00318c-.08774.03337-.02575.90923-.19488,1.06564-.17136.15833-.34334-.51439-.65967-.75123-.31632-.2378-.4613-.10586-.4613-.10586a.43663.43663,0,0,1,.0655.23748c.01367.75187.58019.633.58019.633a.39167.39167,0,0,1,.09951.48483l-.00509.0089c-.67684-.72675-1.06978-.6282-.87585.186.19043.79892.92291,4.2324,1.03926,5.02845A3.38134,3.38134,0,0,1,16.66962,19.82l-.07407.1472.082.1634a2.58119,2.58119,0,0,1,.24956.47687l.27914.70863.27626-.70672a2.62958,2.62958,0,0,1,.25083-.47878l.08488-.15513L17.741,19.8203a3.23518,3.23518,0,0,1-.12049-.9903c.09633-.71436.8447-4.25274,1.03831-5.06565.19392-.81354-.199-.91273-.87553-.18662" fill="#00103e"/><path d="M16.74633,17.15659c-.24321-1.27737-.43428-2.22254-.5891-2.908-.11795-.52361.19647-.3141.36624.01335Z" fill="#cf0a2c"/><path d="M17.664,17.15659c.2432-1.27737.43458-2.22254.58909-2.908.11763-.52361-.19679-.3141-.36656.01335Z" fill="#cf0a2c"/><path d="M16.36226,12.82988a.08937.08937,0,0,1-.06232-.11063.08769.08769,0,0,1,.03083-.04514.681.681,0,0,0-.11349-.104s-.07948.36941.25051.33a.65132.65132,0,0,0-.03624-.0798.09007.09007,0,0,1-.0693.00954" fill="#cf0a2c"/><path d="M18.19288,12.57a.65818.65818,0,0,0-.11381.104.08931.08931,0,0,1-.10078.14687.64633.64633,0,0,0-.03593.07917c.33.03942.25052-.33.25052-.33" fill="#cf0a2c"/><path d="M17.35962,17.63057c.10491-1.9736.26227-3.37115.26227-3.54569a.82116.82116,0,0,0-.03306-.23017l-.11508.37546-.035-.66317a1.14552,1.14552,0,0,0-.23557-.22063h-.006a1.0839,1.0839,0,0,0-.226.22031l-.03466.66349-.11508-.37578a.82492.82492,0,0,0-.03337.23049c0,.17454.157,1.57209.26164,3.54569.10491,1.97329-.13988,2.33985-.13988,2.33985a3.99549,3.99549,0,0,1,.295.57034,4.01069,4.01069,0,0,1,.29535-.57034s-.24448-.36656-.14051-2.33985" fill="#cf0a2c"/></svg>