<?xml version="1.0" encoding="utf-8"?>
<!-- Designed by Vexels.com - 2016 All Rights Reserved - https://vexels.com/terms-and-conditions/  -->

<svg version="1.1" id="Layer_1" xmlns="http://www.w3.org/2000/svg" xmlns:xlink="http://www.w3.org/1999/xlink" x="0px" y="0px"
	 width="1200px" height="1200px" viewBox="0 0 1200 1200" enable-background="new 0 0 1200 1200" xml:space="preserve">
<g>
	<g>
		<path fill="#410200" d="M675.849,597.502c0.904-30.936,0-53.675,0-53.675s2.72-31.825-46.397-30.921
			c45.478-16.364,60.033-44.559,60.033-73.671c0-29.098-34.553-52.741-132.786-48.19c-1.823-21.835-10.02-69.135-15.475-79.141
			c0,0-16.358,63.68-18.181,86.419c-42.75,5.455-81.862,16.364-81.862,16.364l79.126-2.728V664.8c0,0-56.372-7.293-75.479-15.461
			c-19.107-8.182-73.671-34.568,62.761-49.109c-70.951,0.904-139.16,10.91-138.256,38.199
			c0.912,27.289,152.797,42.735,152.797,42.735v108.239l6.359-71.848c0,0,5.47-17.284,6.374,4.535
			c0.904,21.835,7.278,109.158,7.278,109.158l1.823-90.954c0,0,4.551-16.38,7.278,3.632c2.734,20.011,6.359,100.96,6.359,100.96
			l4.551-158.267l70.032-1.809l1.824,168.258l6.359-88.228c0,0,3.638-21.82,6.366,3.647s4.551,123.685,4.551,120.957
			s5.455-110.047,5.455-110.047s6.374-17.283,7.278,5.455c0.904,22.739,6.359,108.224,6.359,108.224l5.47-210.089
			c0,0,44.558,0.904,94.579-13.638c50.021-14.557,57.299-23.643,58.203-35.472C829.55,622.064,778.618,595.679,675.849,597.502z
			 M564.883,416.497c93.674,3.661,82.758,57.307,63.658,78.237c-19.1,20.901-63.658,20.901-63.658,20.901V416.497z M563.971,667.542
			l0.912-140.079c72.752-2.728,64.57,38.199,64.57,38.199l0.919,100.946L563.971,667.542z M746.778,652.986
			c-38.199,8.182-71.848,9.086-71.848,9.086v-57.291c0,0,50.94-1.823,82.772,9.087C789.528,624.792,784.977,644.788,746.778,652.986
			z"/>
		<g>
			<g>
				<path fill="#410200" d="M50,474.441v88.895h8.761v-38.214h27.867v38.762h11.147c0,0,1.586-76.977-8.494-92.63
					c0.267,14.853-1.067,46.441-1.067,46.441H58.761v-43.535L50,474.441z"/>
				<path fill="#410200" d="M163.071,495.4c0,0-1.319-15.653-23.347-15.92c0,0-20.7-1.067-20.7,19.641c0,20.693,0,50.414,0,50.414
					s-0.541,16.454,20.967,15.134c21.493-1.333,22.56-11.132,23.08-20.174C163.604,535.468,163.071,495.4,163.071,495.4z
					 M153.525,542.375c0,9.294-2.653,16.188-13.801,16.188c-11.147,0-10.88-14.586-10.88-14.586v-50.177
					c0,0,0.793-9.012,11.673-9.012c13.267,0,13.008,14.334,13.008,14.334S153.525,533.081,153.525,542.375z"/>
				<path fill="#410200" d="M418.889,495.4c0,0-1.319-15.653-23.354-15.92c0,0-20.701-1.067-20.701,19.641
					c0,20.693,0,50.414,0,50.414s-0.534,16.454,20.961,15.134c21.508-1.333,22.56-11.132,23.094-20.174
					C419.422,535.468,418.889,495.4,418.889,495.4z M409.335,542.375c0,9.294-2.66,16.188-13.8,16.188s-10.88-14.586-10.88-14.586
					v-50.177c0,0,0.793-9.012,11.673-9.012c13.266,0,13.007,14.334,13.007,14.334S409.335,533.081,409.335,542.375z"/>
				<path fill="#410200" d="M823.784,495.4c0,0-1.319-15.653-23.354-15.92c0,0-20.7-1.067-20.7,19.641c0,20.693,0,50.414,0,50.414
					s-0.534,16.454,20.96,15.134c21.509-1.333,22.568-11.132,23.094-20.174C824.318,535.468,823.784,495.4,823.784,495.4z
					 M814.231,542.375c0,9.294-2.654,16.188-13.801,16.188c-11.14,0-10.88-14.586-10.88-14.586v-50.177
					c0,0,0.793-9.012,11.673-9.012c13.266,0,13.008,14.334,13.008,14.334S814.231,533.081,814.231,542.375z"/>
				<path fill="#410200" d="M182.193,479.48c0,0,2.113,47.493,1.853,56.788c-0.267,9.294-1.06,27.067,21.501,26.548
					c22.554-0.534,23.88-12.748,23.621-19.374c-0.267-6.641,1.053-62.895,1.053-62.895s-10.614,0.252-11.414,20.96
					c-0.786,20.693-0.519,51.229-0.519,51.229s-2.92,6.626-12.214,5.826c-9.294-0.786-13-3.188-12.733-11.933
					c0.26-8.761,0.526-48.308,0.526-48.308S194.393,485.054,182.193,479.48z"/>
				<path fill="#410200" d="M289.423,498.854c0,0-5.581-15.387-17.521-15.135c-11.947,0.267-14.067,5.589-14.067,18.055
					c0,12.466,6.122,12.2,11.962,11.933c5.84-0.252,25.214,0.267,26.786,15.134c1.46,13.741,0,34.494-17.254,34.494
					c-17.255,0-16.188,0.282-16.188,0.282s-14.333,2.372-14.067-23.362h9.821c0,0-3.18,18.841,12.207,18.841h8.493
					c0,0,4.773,0.534,4.773-6.908c0-7.412,0-22.012,0-22.012s0.815-9.828-13.518-9.828c-11.414,0-22.569,1.067-23.895-14.334
					c-1.333-15.386,2.394-27.067,23.621-27.067c21.235,0,24.681,8.494,24.681,8.494L289.423,498.854z"/>
				<path fill="#410200" d="M1142.408,498.854c0,0-5.574-15.387-17.514-15.135c-11.947,0.267-14.06,5.589-14.06,18.055
					c0,12.466,6.107,12.2,11.947,11.933c5.841-0.252,25.214,0.267,26.786,15.134c1.468,13.741,0,34.494-17.246,34.494
					c-17.255,0-16.187,0.282-16.187,0.282s-14.342,2.372-14.075-23.362h9.828c0,0-3.18,18.841,12.214,18.841h8.493
					c0,0,4.765,0.534,4.765-6.908c0-7.412,0-22.012,0-22.012s0.823-9.828-13.511-9.828c-11.429,0-22.576,1.067-23.903-14.334
					c-1.327-15.386,2.395-27.067,23.621-27.067c21.227,0,24.681,8.494,24.681,8.494L1142.408,498.854z"/>
				<path fill="#410200" d="M304.84,484.253h58.122c0,0-9.821,8.761-23.888,10.347c0,14.067,0,69.283,0,69.283h-8.753
					c0,0-5.848,2.653-5.848-22.027c0-24.695,0-47.509,0-47.509H303.78L304.84,484.253z"/>
				<path fill="#410200" d="M1034.584,484.253h58.122c0,0-9.812,8.761-23.88,10.347c0,14.067,0,69.283,0,69.283h-8.76
					c0,0-5.841,2.653-5.841-22.027c0-24.695,0-47.509,0-47.509h-20.7L1034.584,484.253z"/>
				<path fill="#410200" d="M440.057,565.973v-83.469l36.961,43.195l3.313-53.986c0,0,7.486,9.961,7.071,34.879
					s-0.415,58.982-0.415,58.982l-36.132-47.345l-2.498,27.823C448.357,546.051,447.113,561.823,440.057,565.973z"/>
				<path fill="#410200" d="M701.686,485.009c2.49,0.401,10.376,0,10.376,0v80.964c0,0,10.791-2.49,10.791-10.376
					c0-14.957,0-69.357,0-69.357s20.775-2.076,23.673,12.881c0.83,7.901-4.558,18.277-13.282,19.938
					c8.308,3.32,12.866,1.245,12.866,13.697c0,12.466-1.653,32.803,10.806,33.218c-0.83-11.621,0-22.442,0-40.274
					c0,0,1.238-7.886-7.893-9.561c7.893-4.566,13.288-12.866,9.968-24.488c-3.958-13.859-37.784-12.881-37.784-12.881v-14.126
					c0,0-8.723,7.47-9.146,13.711C708.327,479.599,701.686,485.009,701.686,485.009z"/>
				<path fill="#410200" d="M882.536,501.508c0,0,0-13.712-12.148-13.712s-13.704,10.91-13.704,16.513s0,39.874,0,39.874
					s-0.319,14.319,13.081,14.319c13.386,0,12.14-14.645,12.14-14.645h13.401c0,0-3.128,19.314-26.482,19.314
					c-23.354,0-23.354-17.432-23.354-31.766c0-14.319,0-33.633,0-33.633s-1.245-17.759,23.983-17.759
					c25.222,0,26.785,15.58,26.785,15.58S886.575,497.772,882.536,501.508z"/>
				<path fill="#410200" d="M912.123,471.609c-0.911-0.356,1.238,92.808,1.238,92.808s11.221-3.736,10.287-36.124
					c15.261,18.677,28.965,34.879,28.965,34.879h11.828l-29.587-41.105c0,0-0.311-5.93,6.544-15.58
					c5.863-8.257,19.308-26.162,19.308-26.162h-7.782l-30.217,35.501l-0.304-25.214
					C922.403,490.612,919.283,474.411,912.123,471.609z"/>
				<path fill="#410200" d="M1023.623,487.189c0,0-3.113-6.863-13.704-6.863c-10.584,0-14.327-0.312-14.327-0.312
					s-16.194,0.312-16.194,22.116c0,21.805,0,47.345,0,47.345s-0.63,15.565,15.883,14.334h18.062c0,0,7.167-1.572,12.459-8.731
					c-4.054,0.311-24.918,0-27.415,0c-2.482,0-8.405-3.113-8.405-9.665c0-6.537,0-23.035,0-23.035h29.913
					c0,0-6.863-7.486-14.957-7.486c-8.101,0-15.728,0.786-14.957,0c0.785-0.77,0.933-26.459,0.933-26.459L1023.623,487.189z"/>
			</g>
		</g>
	</g>
	<g>
		<path fill="#E5123F" d="M675.849,592.522c0.904-30.936,0-53.675,0-53.675s2.72-31.826-46.397-30.921
			c45.478-16.365,60.033-44.574,60.033-73.672c0-29.097-34.553-52.741-132.786-48.19c-1.823-21.834-10.02-69.135-15.475-79.141
			c0,0-16.358,63.68-18.181,86.405c-42.75,5.455-81.862,16.38-81.862,16.38l79.126-2.728v252.838c0,0-56.372-7.293-75.479-15.461
			c-19.107-8.182-73.671-34.567,62.761-49.109c-70.951,0.905-139.16,10.91-138.256,38.185c0.912,27.289,152.797,42.75,152.797,42.75
			v108.239l6.359-71.848c0,0,5.47-17.284,6.374,4.536c0.904,21.834,7.278,109.143,7.278,109.143l1.823-90.954
			c0,0,4.551-16.38,7.278,3.646c2.734,20.011,6.359,100.946,6.359,100.946l4.551-158.252l70.032-1.808l1.824,168.258l6.359-88.228
			c0,0,3.638-21.82,6.366,3.647c2.728,25.466,4.551,123.684,4.551,120.957c0-2.728,5.455-110.047,5.455-110.047
			s6.374-17.284,7.278,5.455c0.904,22.739,6.359,108.239,6.359,108.239l5.47-210.104c0,0,44.558,0.905,94.579-13.652
			c50.021-14.541,57.299-23.628,58.203-35.457C829.55,617.069,778.618,590.698,675.849,592.522z M564.883,411.516
			c93.674,3.646,82.758,57.306,63.658,78.222c-19.1,20.93-63.658,20.93-63.658,20.93V411.516z M563.971,662.546l0.912-140.064
			c72.752-2.727,64.57,38.199,64.57,38.199l0.919,100.961L563.971,662.546z M746.778,648.005
			c-38.199,8.182-71.848,9.087-71.848,9.087v-57.307c0,0,50.94-1.823,82.772,9.101C789.528,619.796,784.977,639.807,746.778,648.005
			z"/>
		<g>
			<g>
				<path fill="#E5123F" d="M50,469.46v88.895h8.761v-38.214h27.867v38.747h11.147c0,0,1.586-76.962-8.494-92.63
					c0.267,14.868-1.067,46.456-1.067,46.456H58.761v-43.535L50,469.46z"/>
				<path fill="#E5123F" d="M163.071,490.42c0,0-1.319-15.668-23.347-15.92c0,0-20.7-1.082-20.7,19.626s0,50.443,0,50.443
					s-0.541,16.454,20.967,15.12c21.493-1.334,22.56-11.147,23.08-20.174C163.604,530.502,163.071,490.42,163.071,490.42z
					 M153.525,537.395c0,9.294-2.653,16.187-13.801,16.187c-11.147,0-10.88-14.586-10.88-14.586v-50.176
					c0,0,0.793-9.012,11.673-9.012c13.267,0,13.008,14.319,13.008,14.319S153.525,528.115,153.525,537.395z"/>
				<path fill="#E5123F" d="M418.889,490.42c0,0-1.319-15.668-23.354-15.92c0,0-20.701-1.082-20.701,19.626s0,50.443,0,50.443
					s-0.534,16.454,20.961,15.12c21.508-1.334,22.56-11.147,23.094-20.174C419.422,530.502,418.889,490.42,418.889,490.42z
					 M409.335,537.395c0,9.294-2.66,16.187-13.8,16.187s-10.88-14.586-10.88-14.586v-50.176c0,0,0.793-9.012,11.673-9.012
					c13.266,0,13.007,14.319,13.007,14.319S409.335,528.115,409.335,537.395z"/>
				<path fill="#E5123F" d="M823.784,490.42c0,0-1.319-15.668-23.354-15.92c0,0-20.7-1.082-20.7,19.626s0,50.443,0,50.443
					s-0.534,16.454,20.96,15.12c21.509-1.334,22.568-11.147,23.094-20.174C824.318,530.502,823.784,490.42,823.784,490.42z
					 M814.231,537.395c0,9.294-2.654,16.187-13.801,16.187c-11.14,0-10.88-14.586-10.88-14.586v-50.176
					c0,0,0.793-9.012,11.673-9.012c13.266,0,13.008,14.319,13.008,14.319S814.231,528.115,814.231,537.395z"/>
				<path fill="#E5123F" d="M182.193,474.5c0,0,2.113,47.493,1.853,56.787c-0.267,9.28-1.06,27.067,21.501,26.548
					c22.554-0.534,23.88-12.747,23.621-19.388c-0.267-6.626,1.053-62.895,1.053-62.895s-10.614,0.266-11.414,20.974
					c-0.786,20.693-0.519,51.214-0.519,51.214s-2.92,6.641-12.214,5.84c-9.294-0.785-13-3.187-12.733-11.947
					c0.26-8.746,0.526-48.294,0.526-48.294S194.393,480.074,182.193,474.5z"/>
				<path fill="#E5123F" d="M289.423,493.859c0,0-5.581-15.387-17.521-15.12c-11.947,0.266-14.067,5.573-14.067,18.055
					c0,12.466,6.122,12.199,11.962,11.932c5.84-0.252,25.214,0.267,26.786,15.135c1.46,13.741,0,34.493-17.254,34.493
					c-17.255,0-16.188,0.282-16.188,0.282s-14.333,2.387-14.067-23.361h9.821c0,0-3.18,18.84,12.207,18.84h8.493
					c0,0,4.773,0.534,4.773-6.907c0-7.412,0-22.028,0-22.028s0.815-9.813-13.518-9.813c-11.414,0-22.569,1.068-23.895-14.349
					c-1.333-15.386,2.394-27.052,23.621-27.052c21.235,0,24.681,8.493,24.681,8.493L289.423,493.859z"/>
				<path fill="#E5123F" d="M1142.408,493.859c0,0-5.574-15.387-17.514-15.12c-11.947,0.266-14.06,5.573-14.06,18.055
					c0,12.466,6.107,12.199,11.947,11.932c5.841-0.252,25.214,0.267,26.786,15.135c1.468,13.741,0,34.493-17.246,34.493
					c-17.255,0-16.187,0.282-16.187,0.282s-14.342,2.387-14.075-23.361h9.828c0,0-3.18,18.84,12.214,18.84h8.493
					c0,0,4.765,0.534,4.765-6.907c0-7.412,0-22.028,0-22.028s0.823-9.813-13.511-9.813c-11.429,0-22.576,1.068-23.903-14.349
					c-1.327-15.386,2.395-27.052,23.621-27.052c21.227,0,24.681,8.493,24.681,8.493L1142.408,493.859z"/>
				<path fill="#E5123F" d="M304.84,479.273h58.122c0,0-9.821,8.745-23.888,10.347c0,14.067,0,69.268,0,69.268h-8.753
					c0,0-5.848,2.668-5.848-22.027c0-24.681,0-47.493,0-47.493H303.78L304.84,479.273z"/>
				<path fill="#E5123F" d="M1034.584,479.273h58.122c0,0-9.812,8.745-23.88,10.347c0,14.067,0,69.268,0,69.268h-8.76
					c0,0-5.841,2.668-5.841-22.027c0-24.681,0-47.493,0-47.493h-20.7L1034.584,479.273z"/>
				<path fill="#E5123F" d="M440.057,560.993v-83.47l36.961,43.195l3.313-53.986c0,0,7.486,9.961,7.071,34.879
					c-0.415,24.918-0.415,58.982-0.415,58.982l-36.132-47.345l-2.498,27.824C448.357,541.071,447.113,556.843,440.057,560.993z"/>
				<path fill="#E5123F" d="M701.686,480.014c2.49,0.415,10.376,0,10.376,0v80.98c0,0,10.791-2.491,10.791-10.391
					c0-14.941,0-69.343,0-69.343s20.775-2.075,23.673,12.882c0.83,7.885-4.558,18.262-13.282,19.937
					c8.308,3.32,12.866,1.245,12.866,13.697c0,12.466-1.653,32.804,10.806,33.219c-0.83-11.622,0-22.457,0-40.275
					c0,0,1.238-7.901-7.893-9.56c7.893-4.566,13.288-12.867,9.968-24.488c-3.958-13.874-37.784-12.882-37.784-12.882v-14.126
					c0,0-8.723,7.485-9.146,13.697C708.327,474.604,701.686,480.014,701.686,480.014z"/>
				<path fill="#E5123F" d="M882.536,496.527c0,0,0-13.711-12.148-13.711s-13.704,10.91-13.704,16.513c0,5.603,0,39.859,0,39.859
					s-0.319,14.334,13.081,14.334c13.386,0,12.14-14.645,12.14-14.645h13.401c0,0-3.128,19.314-26.482,19.314
					c-23.354,0-23.354-17.447-23.354-31.766c0-14.334,0-33.634,0-33.634s-1.245-17.758,23.983-17.758
					c25.222,0,26.785,15.579,26.785,15.579S886.575,492.791,882.536,496.527z"/>
				<path fill="#E5123F" d="M912.123,466.629c-0.911-0.371,1.238,92.808,1.238,92.808s11.221-3.736,10.287-36.124
					c15.261,18.678,28.965,34.879,28.965,34.879h11.828l-29.587-41.105c0,0-0.311-5.929,6.544-15.579
					c5.863-8.272,19.308-26.163,19.308-26.163h-7.782l-30.217,35.501l-0.304-25.229C922.403,485.617,919.283,469.43,912.123,466.629
					z"/>
				<path fill="#E5123F" d="M1023.623,482.193c0,0-3.113-6.849-13.704-6.849c-10.584,0-14.327-0.311-14.327-0.311
					s-16.194,0.311-16.194,22.116c0,21.805,0,47.345,0,47.345s-0.63,15.564,15.883,14.32h18.062c0,0,7.167-1.557,12.459-8.716
					c-4.054,0.311-24.918,0-27.415,0c-2.482,0-8.405-3.128-8.405-9.664s0-23.036,0-23.036h29.913c0,0-6.863-7.485-14.957-7.485
					c-8.101,0-15.728,0.786-14.957,0c0.785-0.771,0.933-26.474,0.933-26.474L1023.623,482.193z"/>
			</g>
		</g>
	</g>
</g>
</svg>
