<?xml version="1.0" encoding="utf-8"?>
<!-- Designed by Vexels.com - 2016 All Rights Reserved - https://vexels.com/terms-and-conditions/  -->

<svg version="1.1" id="Layer_1" xmlns="http://www.w3.org/2000/svg" xmlns:xlink="http://www.w3.org/1999/xlink" x="0px" y="0px"
	 width="1200px" height="1200px" viewBox="0 0 1200 1200" enable-background="new 0 0 1200 1200" xml:space="preserve">
<g>
	<path fill="#BCC5C7" d="M1143.462,505.406l-23.437-10.142l4.41-24.555c0.93-5.158-1.983-10.244-6.909-12.075l-36.499-13.513
		l2.601-9.982c1.424-5.492-1.613-11.159-6.988-12.99l-25.848-8.834l4.228-22.957c0.916-4.984-1.729-9.924-6.371-11.929
		c-1.794-0.77-181.942-77.066-441.842-77.88l-4.141-0.014c-257.714,0-450.044,77.051-451.961,77.836
		c-5.188,2.107-7.912,7.816-6.285,13.178l5.529,18.235l-28.609,10.81c-5.448,2.049-8.29,8.05-6.451,13.571l3.509,10.519
		l-36.092,14.036c-5.034,1.948-7.868,7.338-6.618,12.598l5.485,23.146l-24.446,10.026c-5.268,2.165-7.963,8.035-6.175,13.44
		l87.207,263.235c0.93,2.819,2.979,5.129,5.674,6.393c2.689,1.264,5.783,1.366,8.558,0.29l24.73-9.662l8.675,21.403
		c1.097,2.702,3.225,4.838,5.906,5.957c2.703,1.105,5.718,1.09,8.391-0.043l42.071-17.944c0.872,1.86,1.904,4.039,3.11,6.625
		c2.514,5.39,8.906,7.759,14.341,5.26c34.574-15.837,70.571-28.74,94.77-36.818l-24.541,37.065
		c-2.52,3.807-2.383,8.791,0.335,12.438c2.709,3.676,7.446,5.245,11.812,3.938l121.2-36.208l50.302,113.168
		c1.743,3.923,5.637,6.436,9.902,6.436c0.211,0,0.429,0,0.646-0.014c4.504-0.262,8.384-3.313,9.721-7.613l36.724-118.792
		l134.726,34.668c4.192,1.09,8.587-0.421,11.239-3.821c2.659-3.4,3.044-8.05,0.995-11.842c-0.422-0.77-9.604-17.392-47.411-61.025
		c143.357,7.976,271.372,68.551,272.723,69.19c5.172,2.485,11.377,0.509,14.159-4.504l3.829-6.887l41.91,16.767
		c5.515,2.209,11.762-0.436,14.036-5.899l8.79-21.097l25.1,8.558c2.747,0.944,5.747,0.741,8.34-0.552
		c2.594-1.294,4.563-3.575,5.463-6.335l85.478-261.549C1151.199,513.397,1148.605,507.629,1143.462,505.406z"/>
	<path fill="#FFFFFF" d="M60.845,514.516l33.012-13.542l-7.621-32.154l45.71-17.77l-6.771-20.313l38.083-14.399l-8.464-27.926
		c0,0,191.291-77.851,451.976-77.022c260.685,0.828,437.584,77.007,437.584,77.007l-5.921,32.169l34.705,11.842l-5.085,19.47
		l45.71,16.927l-5.928,33.012l31.327,13.542l-85.479,261.535l-34.704-11.842l-12.692,30.469l-50.788-20.313l-8.464,15.227
		c0,0-144.723-69.394-302.16-71.094c51.639,57.567,62.637,77.88,62.637,77.88l-144.731-37.254l-39.782,128.657l-54.167-121.886
		l-130.346,38.94l41.468-62.637c0,0-64.323,18.627-125.261,46.553c-5.928-12.685-7.621-16.07-7.621-16.07l-51.632,21.998
		l-12.699-31.312l-34.697,13.542L60.845,514.516z"/>
	<path fill="#1A1413" d="M85.364,527.215c0.043,2.673,34.704-13.527,34.704-13.527l-9.306-33.026c0,0,41.468-16.085,44.01-17.77
		c2.543-1.686-5.927-19.47-5.927-19.47l38.939-15.227l-11.013-28.783c0,0,170.128-68.552,421.507-69.409
		c251.379-0.843,424.886,71.109,424.886,71.109l-7.621,29.626l37.239,12.685l-7.613,22.013l46.553,17.77l-7.613,30.483
		l33.004,10.999l-76.172,228.524l-33.012-11.857l-11.006,31.327c0,0-45.703-20.328-51.631-20.328
		c-5.921,13.556-5.921,13.556-5.921,13.556s-136.267-67.709-330.094-63.48c23.698,27.083,60.095,70.252,60.095,70.252
		l-120.19-33.854l-30.469,106.648l-41.475-99.877l-104.105,34.697l42.318-62.623c0,0-77.858,16.084-152.345,48.239
		c-5.921-13.542-5.921-13.542-5.921-13.542s-31.318,10.999-49.088,18.627c-11.006-27.926-11.006-27.926-11.006-27.926
		s-27.091,7.613-37.247,12.685C153.08,730.37,85.349,526.373,85.364,527.215z"/>
	<path fill="#FFFFFF" d="M115.004,540.771l59.238,185.356l34.711-13.542l10.157,29.627c0,0,132.031-57.553,231.066-69.409
		c14.384,11.856,14.384,11.856,14.384,11.856s-23.705,29.612-36.397,55.852c22.013-8.456,60.945-21.998,60.945-21.998l24.548,60.095
		l21.998-64.323l70.251,18.612l-41.468-53.324l17.77-18.612c0,0,198.905-15.241,400.344,77.865
		c7.621-22.013,11.006-28.784,11.006-28.784l32.154,11.857l60.944-181.97l-33.004-11.014l9.314-33.854
		c0,0-217.518-92.263-482.445-86.336c-264.92,5.928-440.12,87.179-440.12,87.179l8.456,34.697L115.004,540.771z"/>
	<path fill="#BCC5C7" d="M133.661,551.756l50.781,148.116l30.476-11.857l12.692,30.469c0,0,127.803-49.081,201.44-58.395
		c-13.542-14.384-13.542-14.384-13.542-14.384l60.095-2.543l0.843-53.324l12.699-28.783l-70.251,16.084l8.47,52.481l-58.402,13.542
		l-4.235-11.856c0,0-7.621,16.084-22.855,19.469c-15.227,3.386-90.564,29.627-90.564,29.627s-28.776,10.999-38.932-16.084
		c-10.149-27.084-34.697-105.791-34.697-105.791s-11.006-27.098,21.156-38.94c32.161-11.857,91.414-29.626,91.414-29.626
		s30.469-11.842,39.782,18.627c9.299,30.469,27.926,86.335,27.926,86.335l-22.005-117.662l137.967-28.769
		c0,0,24.541-6.77,30.469,30.469C512,515.345,512,522.973,512,522.973l14.385-43.168l19.47-32.154h55.017l-0.85,69.394
		l-20.313,35.554h6.771l26.24-38.94v-27.083l26.241-39.783h49.088l4.236,33.854l5.078-33.854l136.267,19.47
		c0,0,31.311,5.085,23.698,40.625c-7.621,35.554-19.47,101.577-19.47,101.577l31.319-99.035c0,0,4.235-30.469,45.703-19.469
		c41.475,11.013,94.792,29.626,94.792,29.626s22.013,7.613,11.014,45.71c-11.014,38.083-28.784,96.492-28.784,96.492
		s-5.071,32.154-56.709,15.227c-51.624-16.927-142.195-42.311-142.195-42.311s-24.548-3.386-18.62-33.854
		c5.085-22.013,4.235-27.098,4.235-27.098l-35.547-5.928l-10.156,55.866l-59.253-10.156l7.621-70.251l-46.561,82.107l-53.309,2.529
		l-5.085,7.628l33.012,0.843l-11.006,9.313c0,0,107.498-5.928,248.843,31.312c82.093,21.155,127.804,42.325,127.804,42.325
		l10.156-27.083l31.312,11.842l49.939-154.887l-29.619-10.156l9.314-33.012c0,0-187.892-82.95-442.656-83.793
		c-254.771-0.843-445.205,82.95-445.205,82.95l9.306,32.155L133.661,551.756z"/>
	<path fill="#1A1413" d="M541.931,678.02l27.839-24.541h-28.929l34.421-41.759h49.808l51.668-91.188v-62.26c0,0-31.13,0-30.033,0
		s-17.218,32.227-17.218,32.227v26.008l-32.59,53.469h-45.05l34.065-50.912v-61.156H555.88l-17.581,29.292v27.112l-48.711,77.647
		l10.25,16.099h25.638l-9.902,38.097l-23.436-24.904v35.888h-37.356l28.202,23.073l-18.685,32.59l31.864-12.089l18.315,35.903
		l11.718-38.46l38.09,11.362L541.931,678.02z"/>
	<path fill="#1A1413" d="M216.669,632.962l30.759-12.452c0,0,0,16.854,19.782,10.984c19.775-5.855,39.92-13.919,39.92-13.919
		s8.427-2.195,4.395-12.815c-4.032-10.621-4.032-10.621-4.032-10.621s-1.467-7.686-14.646-2.558
		c-13.186,5.114-64.09,21.606-64.09,21.606s-15.387,5.129-20.146-6.596c-4.758-11.711-19.041-55.3-19.041-55.3
		s-3.299-13.179,14.283-19.412s88.624-29.67,88.624-29.67s14.653-8.049,20.508,5.492c5.863,13.556,9.532,30.774,9.532,30.774
		l-30.04,9.881l-4.395-8.413c0,0-1.831-6.596-10.985-2.935s-45.042,16.854-45.042,16.854s-5.87,2.558-3.298,9.88
		c2.557,7.323,4.388,14.646,4.388,14.646s0.741,3.662,8.427,1.104c7.686-2.557,69.583-23.073,69.583-23.073
		s13.92-7.687,20.153,10.621c6.219,18.307,18.308,51.639,18.308,51.639s6.596,12.089-12.816,18.685
		c-19.412,6.582-88.632,29.655-88.632,29.655s-14.653,6.233-20.516-6.959C222.728,648.989,216.669,632.962,216.669,632.962z"/>
	<path fill="#1A1413" d="M859.479,592.163l32.19,8.064c0,0-9.924,13.615,9.503,20.531c19.433,6.916,40.457,12.278,40.457,12.278
		s8.101,3.197,11.101-7.759c3.008-10.955,3.008-10.955,3.008-10.955s3.342-7.076-10.331-10.709
		c-13.672-3.618-64.511-20.313-64.511-20.313s-15.445-4.911-12.394-17.188c3.066-12.278,17.203-55.91,17.203-55.91
		s5.107-12.583,22.986-7.265c17.871,5.332,89.082,28.26,89.082,28.26s16.578,2.122,13.331,16.535
		c-3.247,14.384-10.432,30.454-10.432,30.454l-30.092-9.706l1.417-9.4c0,0,2.397-6.393-7.157-8.834
		c-9.553-2.442-46.32-12.932-46.32-12.932s-6.255-1.381-8.493,6.044c-2.238,7.424-5.078,14.428-5.078,14.428
		s-1.57,3.386,6.153,5.841c7.73,2.47,69.823,22.376,69.823,22.376s15.772,1.991,10.018,20.444
		c-5.761,18.467-15.633,52.525-15.633,52.525s-1.802,13.643-21.374,7.526c-19.557-6.102-89.081-28.26-89.081-28.26
		s-15.51-3.589-12.467-17.712C854.931,608.683,859.479,592.163,859.479,592.163z"/>
	<path fill="#1A1413" d="M499.069,530.426c0,0-7.331-40.654-9.161-55.314c-1.83-14.646-20.145-9.517-20.145-9.517l-114.261,21.606
		l24.17,136.608l31.13-5.855l-9.524-55.3c0,0,65.929-10.984,83.873-14.66C503.093,544.332,499.069,530.426,499.069,530.426z
		 M456.555,526.809c-10.985,2.572-60.037,10.941-60.037,10.941l-5.492-29.67l55.663-10.985c0,0,12.089-3.298,13.92,5.856
		c1.831,9.153,2.564,14.283,2.564,14.283S467.547,524.237,456.555,526.809z"/>
	<path fill="#1A1413" d="M826.358,480.139l-115.046-16.956l-21.846,137.001l31.341,4.649l9.089-55.373
		c45.434,8.282,44.687,7.773,56.281,10.026c11.813,2.296,11.901,12.045,7.338,30.483c-3.778,15.256-2.325,26.459-2.325,26.459
		s15.459,2.005,31.806,5.071c-1.446-7.236,4.337-34.697,5.782-45.536c1.439-10.839,2.165-15.183-2.892-20.967
		c8.667-0.726,9.393-14.457,9.393-14.457s3.931-30.367,6.997-44.81C845.334,481.286,826.358,480.139,826.358,480.139z
		 M805.486,512.438c-1.264,9.256-2.252,14.355-2.252,14.355s1.838,8.05-9.386,6.873c-11.224-1.163-60.313-9.299-60.313-9.299
		l4.519-29.83l56.194,7.817C794.247,502.355,806.743,503.198,805.486,512.438z"/>
	<polygon fill="#BCC5C7" points="558.786,467.789 548.528,485.733 565.383,485.733 575.263,467.062 	"/>
	<rect x="547.802" y="493.797" fill="#BCC5C7" width="13.92" height="16.476"/>
	<polygon fill="#BCC5C7" points="650.722,467.789 640.472,485.733 657.312,485.733 667.207,467.062 	"/>
	<rect x="639.731" y="493.797" fill="#BCC5C7" width="13.92" height="16.476"/>
	<path fill="#BCC5C7" d="M544.14,519.427h15.75l-34.799,56.768h77.647l32.598-56.027h16.847l-39.201,68.842l-45.768,0.363
		l-46.888,73.986h21.613l-14.653,14.66l12.815,13.905h-21.969l-4.765,15.75l-6.219-15.75h-20.145l10.251-13.905l-15.009-11.363
		h20.501l-2.92-20.501l16.106,12.452l30.04-68.857c0,0-44.323,0.363-43.226-0.741C503.849,587.92,544.14,519.427,544.14,519.427z"/>
	<polygon fill="#1A1413" points="509.705,671.422 507.874,674.721 503.108,675.084 507.874,678.02 510.438,683.497 512.269,678.02 
		516.664,675.811 511.906,674.343 	"/>
	<g>
		<g>
			<path fill="#FFFFFF" d="M270.531,405.703l-12.089,3.429c-0.494-1.729-1.271-2.674-2.354-2.862
				c-1.075-0.175-2.747,0.058-5.028,0.697l-1.279,0.378c-0.087,0.058-0.174,0.102-0.269,0.131c-0.094,0.014-0.196,0.043-0.283,0.072
				c-1.569,0.451-2.964,1.018-4.199,1.715c-1.242,0.712-1.649,1.773-1.25,3.197c0.305,1.075,0.806,1.787,1.497,2.151
				c0.697,0.363,1.809,0.363,3.342,0c0.726-0.175,1.467-0.335,2.238-0.524c0.77-0.174,1.54-0.363,2.302-0.537
				c0.094-0.029,0.189-0.058,0.283-0.087c0.094-0.015,0.218-0.059,0.363-0.102c4.824-1.221,9.321-1.933,13.484-2.151
				c4.17-0.218,6.924,2.049,8.268,6.785c0.138,0.48,0.283,0.974,0.421,1.468c0.145,0.494,0.233,1.032,0.291,1.569
				c0.218,1.105,0.24,2.224,0.087,3.4c-0.16,1.162-0.712,2.252-1.657,3.255c-1.249,1.366-2.775,2.484-4.577,3.356
				c-1.802,0.858-3.691,1.613-5.666,2.253c-0.552,0.203-1.105,0.378-1.642,0.523c-0.552,0.16-1.111,0.32-1.678,0.479l-3.131,0.887
				c-6.546,1.86-11.645,2.761-15.299,2.674c-3.661-0.073-6.277-2.863-7.832-8.369l12.067-3.473c0.378,1.307,0.974,2.252,1.809,2.819
				c0.821,0.566,2.23,0.566,4.22,0l5.478-1.555c1.62-0.422,2.942-0.974,3.944-1.671c1.01-0.669,1.294-1.802,0.843-3.371
				c-0.407-1.453-1.177-2.208-2.281-2.223c-1.105-0.029-2.5,0.16-4.185,0.567c-0.087,0.029-0.175,0.058-0.247,0.073
				c-0.073,0.014-0.153,0.043-0.247,0.072c-0.814,0.189-1.599,0.378-2.34,0.552c-0.741,0.175-1.474,0.349-2.194,0.509
				c-5.565,1.366-10.04,1.962-13.44,1.802c-3.4-0.145-5.82-2.776-7.265-7.846c-0.857-3.023-0.61-5.579,0.734-7.686
				c1.352-2.122,4.09-3.894,8.246-5.332c1.352-0.465,2.724-0.916,4.112-1.366c1.38-0.45,2.761-0.872,4.133-1.264
				c5.5-1.555,10.2-2.427,14.094-2.601c3.901-0.16,6.545,2.223,7.947,7.148c0.037,0.102,0.058,0.189,0.08,0.276
				c0.029,0.087,0.051,0.175,0.072,0.247c-0.022,0.116-0.022,0.218,0.015,0.305c0.022,0.073,0.043,0.175,0.072,0.291
				L270.531,405.703z"/>
			<path fill="#FFFFFF" d="M321.639,412.576l-1.032,6.553l-13.447,2.848l7.003-38.213l19.601-4.156l22.136,32.024l-13.157,2.804
				l-3.821-5.521L321.639,412.576z M325.635,388.66l-2.688,16.534l12.008-2.557L325.635,388.66z"/>
			<path fill="#FFFFFF" d="M435.181,399.136l-22.173,3.226l-17.726-25.354l-0.588,0.087l4.555,27.272l-12.801,1.845l-5.158-35.554
				l22.012-3.196l17.683,25.034l0.509-0.073l-4.432-26.952l12.946-1.889L435.181,399.136z"/>
			<path fill="#FFFFFF" d="M509.443,385.986l-1.991,6.32l-13.731,0.828l12.619-36.745l20-1.192l17.116,34.958l-13.426,0.8
				l-2.95-6.015L509.443,385.986z M516.947,362.928l-5.122,15.953l12.264-0.726L516.947,362.928z"/>
			<path fill="#FFFFFF" d="M623.749,389.488l-22.405-0.087l-13.796-27.694h-0.588l0.487,27.636l-12.939-0.044l0.138-35.932
				l22.252,0.087l13.789,27.36h0.523l-0.421-27.316l13.091,0.058L623.749,389.488z"/>
			<path fill="#FFFFFF" d="M681.461,392.409l-13.208-0.843l1.779-27.577l-12.473-0.814l0.537-8.267l38.947,2.514l-0.53,8.281
				l-13.273-0.872L681.461,392.409z"/>
			<path fill="#FFFFFF" d="M727.512,376.28c0.087-0.741,0.196-1.453,0.327-2.165c0.131-0.712,0.291-1.424,0.48-2.136
				c0.174-0.712,0.385-1.424,0.61-2.122c1.41-3.894,4.207-6.189,8.398-6.872c4.214-0.712,8.66-0.814,13.368-0.349
				c0.247,0.029,0.494,0.073,0.741,0.102c0.24,0.029,0.48,0.044,0.727,0.073c8.471,1.002,14.268,2.731,17.399,5.216
				c3.131,2.485,4.323,6.96,3.567,13.411c-0.777,6.596-2.354,11.493-4.737,14.689c-2.383,3.182-9.081,4.141-20.095,2.848
				c-0.784-0.102-1.591-0.204-2.419-0.305c-0.836-0.131-1.657-0.247-2.485-0.378c-3.713-0.552-7.149-1.511-10.309-2.892
				c-3.168-1.38-5.158-3.647-5.971-6.77c-0.356-1.279-0.509-2.543-0.451-3.807c0.044-1.249,0.146-2.499,0.291-3.763l0.312-2.674
				C727.345,377.719,727.425,377.007,727.512,376.28z M740.727,379.811l-0.262,2.136c-0.298,2.529-0.152,4.504,0.429,5.913
				c0.574,1.395,2.899,2.34,6.96,2.819c4.511,0.523,7.417,0.334,8.74-0.582c1.322-0.901,2.165-2.877,2.514-5.913
				c0.058-0.421,0.101-0.857,0.152-1.279c0.051-0.436,0.124-0.872,0.232-1.337c0.051-0.421,0.102-0.857,0.153-1.278
				c0.044-0.436,0.102-0.858,0.146-1.294c0.283-2.383,0.021-4.185-0.77-5.405c-0.8-1.206-2.972-2.02-6.495-2.427
				c-5.085-0.596-8.165-0.465-9.241,0.436c-1.075,0.886-1.918,3.56-2.55,8.035c-0.007,0.043-0.007,0.072-0.007,0.116
				c0,0.029-0.007,0.073-0.015,0.102L740.727,379.811z"/>
			<path fill="#FFFFFF" d="M852.722,414.464l-22.071-3.778l-9.038-29.597l-0.581-0.087l-4.083,27.33l-12.758-2.194l6.073-35.409
				l21.926,3.764l9.089,29.263l0.516,0.087l4.098-27.011l12.903,2.209L852.722,414.464z"/>
			<path fill="#FFFFFF" d="M896.391,423.429l-12.939-2.746l7.425-35.148l12.946,2.732L896.391,423.429z"/>
			<path fill="#FFFFFF" d="M930.202,410.542c0.182-0.712,0.378-1.424,0.603-2.107c0.217-0.683,0.465-1.366,0.741-2.064
				c0.276-0.683,0.574-1.366,0.886-2.02c1.881-3.676,4.955-5.594,9.212-5.753c4.257-0.16,8.689,0.291,13.295,1.366
				c0.232,0.058,0.479,0.116,0.726,0.189c0.233,0.058,0.465,0.116,0.713,0.174c8.267,2.064,13.803,4.533,16.592,7.396
				c2.79,2.862,3.4,7.439,1.831,13.745c-1.613,6.451-3.807,11.101-6.582,13.963c-2.775,2.862-9.531,2.95-20.298,0.261
				c-0.763-0.189-1.547-0.392-2.354-0.61c-0.813-0.232-1.613-0.45-2.426-0.697c-3.604-1.003-6.887-2.398-9.852-4.17
				c-2.956-1.787-4.642-4.272-5.063-7.483c-0.182-1.307-0.167-2.586,0.043-3.821c0.211-1.25,0.465-2.471,0.77-3.691l0.647-2.63
				C929.853,411.937,930.028,411.254,930.202,410.542z M942.85,415.714l-0.523,2.092c-0.611,2.471-0.727,4.446-0.334,5.914
				c0.406,1.467,2.586,2.702,6.553,3.691c4.402,1.104,7.308,1.278,8.739,0.537c1.431-0.726,2.514-2.572,3.262-5.536
				c0.095-0.422,0.203-0.843,0.305-1.25c0.102-0.421,0.233-0.857,0.4-1.293c0.102-0.422,0.204-0.843,0.312-1.264
				c0.102-0.407,0.204-0.829,0.312-1.25c0.574-2.325,0.545-4.156-0.087-5.463c-0.632-1.308-2.681-2.383-6.125-3.24
				c-4.969-1.25-8.042-1.497-9.226-0.756c-1.162,0.741-2.354,3.299-3.545,7.672c-0.015,0.029-0.015,0.058-0.03,0.101
				c-0.007,0.029-0.014,0.073-0.022,0.102L942.85,415.714z"/>
		</g>
	</g>
</g>
</svg>
