<?xml version="1.0" encoding="utf-8"?>
<!-- Designed by Vexels.com - 2016 All Rights Reserved - https://vexels.com/terms-and-conditions/  -->

<svg version="1.1" id="Layer_1" xmlns="http://www.w3.org/2000/svg" xmlns:xlink="http://www.w3.org/1999/xlink" x="0px" y="0px"
	 width="1200px" height="1200px" viewBox="0 0 1200 1200" enable-background="new 0 0 1200 1200" xml:space="preserve">
<g>
	<path fill="#1E1D25" d="M1115.085,69.03L429.56,51.573c0,0-92.053-6.474-121.777,103.146
		c-24.714,91.144-246.554,995.217-246.554,995.217h744.154c0,0,74.422,4.873,93.971-70.285
		C918.895,1004.491,1115.085,69.03,1115.085,69.03z"/>
	<path fill="#596D78" d="M1138.771,50.081H453.247c0,0-99.218-6.018-121.777,85.689c-22.55,91.707-246.545,995.216-246.545,995.216
		h744.153c0,0,57.128,4.492,76.677-70.667C925.287,985.16,1138.771,50.081,1138.771,50.081z"/>
	<path fill="#482A7A" d="M206.21,791.379l634.052-0.8c0,0,80.542,8.693,102.655-74.996
		c22.113-83.706,150.018-636.443,150.018-636.443l-607.992-3.146c0,0-97.909-10.274-123.968,90.017
		C334.489,267.957,206.21,791.379,206.21,791.379z"/>
	<path fill="#1E1D25" d="M608.911,126.532c0,2.364-9.475,30.005-9.475,30.005l6.311,95.544L502.31,234.697l12.638,48.954
		l34.743,49.754c0,0-63.166,0.782-61.584,4.747c1.564,3.946,16.576,29.987,16.576,29.987l28.423,7.91L250.428,594.762l55.273-19.749
		l178.05-120.403v0.4L255.556,652.809l-22.104,26.442L482.57,517.385l0.399,9.874L239.771,751.5l-29.614,35.934l190.289-140.171
		l120.422-55.264L365.703,742.826c0,0-35.133,47.772-33.952,46.972c1.192-0.782,213.203-155.555,213.203-155.555l45.008-9.074
		L455.329,740.843l-38.289,48.954l246.345-168.576l91.999-39.48l37.898,62.775l45.799,26.041l40.271-140.535l16.975-13.438
		l67.512-0.383l27.633-17.366l-39.08-82.124l12.23-30.806l50.536-33.551c0,0,11.448-20.932,12.248-22.113
		c0.782-1.182-75.014-31.588-76.596-31.588s-22.113-49.336-22.113-49.336s12.239-27.642,12.63-29.224
		c0.399-1.582,35.143-56.065,35.143-56.065l-13.421-1.182l-96.727,33.17l-35.133-16.185l-28.433-83.306l-13.429,7.893
		l-41.845,66.321l-28.823,3.946L608.911,126.532z"/>
	<path fill="#1E1D25" d="M339.753,905.545l-12.257,46.208h-95.235l-7.074,25.459h66.94c0,0,29.714-2.364,18.866,40.553
		c-10.847,42.898-14.138,51.391-14.138,51.391s-1.9,19.331-31.597,19.331c-29.705,0-132.96-0.946-132.96-0.946l11.784-46.682h95.718
		l7.546-25.931H180.87c0,0-31.124,4.255-19.34-39.607c11.793-43.844,13.203-47.136,13.203-47.136s0-22.168,29.705-23.113
		C234.143,904.127,339.753,905.545,339.753,905.545z"/>
	<path fill="#FFFFFF" d="M369.458,905.073h56.583l-37.725,134.37h39.135l36.306-133.897h57.056l-48.099,180.106H360.029
		c0,0-39.134,4.255-27.351-47.609C344.772,984.815,369.458,905.073,369.458,905.073z"/>
	<path fill="#FFFFFF" d="M656.738,1085.743h-56.573l37.715-134.388h-39.134l-36.297,133.915h-57.056l48.091-180.106h112.693
		c0,0,39.134-4.237,27.341,47.627C681.424,1006,656.738,1085.743,656.738,1085.743z"/>
	<path fill="#FFFFFF" d="M895.645,905.545l-12.266,46.208h-95.236l-7.074,25.459h66.949c0,0,29.705-2.364,18.858,40.553
		c-10.839,42.898-14.139,51.391-14.139,51.391s-1.891,19.331-31.596,19.331c-29.697,0-132.951-0.946-132.951-0.946l11.784-46.682
		h95.708l7.546-25.931h-66.475c0,0-31.115,4.255-19.331-39.607c11.784-43.844,13.193-47.136,13.193-47.136
		s0.009-22.168,29.705-23.113C790.026,904.127,895.645,905.545,895.645,905.545z"/>
	<path fill="#1E1D25" d="M866.294,958.355H793.69l-3.146,13.003c0,0,65.257,0.218,71.559,1.273L866.294,958.355z"/>
	<path fill="#1E1D25" d="M723.613,923.312c0,0-13.011,2.31-18.675,22.878c-5.665,20.568-13.439,52.045-13.439,52.045
		s-6.083,17.404,1.682,26.841c7.774,9.457,22.04,8.202,22.04,8.202h74.486l3.564-11.966h-58.538c0,0-17.003,0.837-24.341-11.965
		c-6.037-10.53-2.736-27.06,1.264-41.335C715.639,953.755,723.613,923.312,723.613,923.312z"/>
	<path fill="#1E1D25" d="M677.023,1056.773h11.121l-10.274,38.807c0,0,150.027,0,150.654,0c0.628,0-6.083,13.638-22.659,13.638
		c-16.575,0-143.098,0-143.098,0L677.023,1056.773z"/>
	<path fill="#FFFFFF" d="M340.772,905.545l-12.266,46.208h-95.245l-7.065,25.459h66.948c0,0,29.706-2.364,18.867,40.553
		c-10.856,42.898-14.157,51.391-14.157,51.391s-1.873,19.331-31.588,19.331c-29.705,0-132.96-0.946-132.96-0.946l11.784-46.682
		h95.718l7.537-25.931H181.87c0,0-31.115,4.255-19.331-39.607c11.793-43.844,13.203-47.136,13.203-47.136s0-22.168,29.714-23.113
		C235.152,904.127,340.772,905.545,340.772,905.545z"/>
	<path fill="#1E1D25" d="M309.621,958.355h-72.605l-3.146,13.003c0,0,65.258,0.218,71.559,1.273L309.621,958.355z"/>
	<path fill="#1E1D25" d="M166.94,923.312c0,0-13.012,2.31-18.676,22.878c-5.655,20.568-13.43,52.045-13.43,52.045
		s-6.083,17.404,1.673,26.841c7.775,9.457,22.04,8.202,22.04,8.202h74.486l3.564-11.966H178.06c0,0-16.994,0.837-24.341-11.965
		c-6.037-10.53-2.727-27.06,1.264-41.335C158.965,953.755,166.94,923.312,166.94,923.312z"/>
	<path fill="#1E1D25" d="M120.35,1056.773h11.12l-10.274,38.807c0,0,150.028,0,150.654,0c0.628,0-6.083,13.638-22.659,13.638
		c-16.575,0-143.098,0-143.098,0L120.35,1056.773z"/>
	<polygon fill="#1E1D25" points="649.327,1093.271 644.918,1109.438 576.932,1109.438 614.076,974.504 600.646,974.304 
		605.474,957.719 628.332,957.719 591.617,1093.707 	"/>
	<path fill="#1E1D25" d="M554.483,1093.489l-5.037,16.367c0,0-68.404,0-67.767,0c0.618,0,52.028-192.199,52.028-192.199l9.865-0.218
		l-47.626,176.268L554.483,1093.489z"/>
	<path fill="#1E1D25" d="M463.83,1093.071c0,0.636-4.192,16.584-4.192,16.584l-106.183,0.2c0,0-29.378,1.473-38.607-22.877
		c-9.229-24.332-1.046-46.155,6.501-72.795c7.557-26.641,26.86-96.745,26.86-96.745l9.656,0.218l-31.269,117.913
		c0,0-6.72,25.187,1.046,41.135c7.765,15.93,15.112,16.348,35.68,16.567C383.888,1093.489,463.83,1093.071,463.83,1093.071z"/>
	<polygon fill="#1E1D25" points="442.626,917.439 452.91,917.439 421.659,1033.26 411.375,1033.26 	"/>
	<path fill="#FFFFFF" d="M265.631,819.203l-59.611-0.2l-16.985,61.012h21.713l5.138-14.803c0,0,22.504,0,29.405,0
		c6.92,0,17.767-0.8,21.322-4.747c3.556-3.946,8.102-13.421,10.466-27.623C279.451,818.621,265.631,819.203,265.631,819.203z
		 M250.628,852.372l-30.596-0.2l5.728-20.131h30.197L250.628,852.372z"/>
	<path fill="#1E1D25" d="M220.622,871.122c-0.591,0-1.191,5.128-1.191,5.128h20.34c0,0,18.358,0.399,23.095-6.693
		C255.556,872.103,235.416,871.122,220.622,871.122z"/>
	<polygon fill="#1E1D25" points="198.9,821.967 180.752,885.742 208.574,885.742 206.21,891.653 175.814,891.653 195.945,822.167 	
		"/>
	<polygon fill="#1E1D25" points="314.394,821.967 296.227,885.742 324.06,885.742 322.477,891.653 291.289,891.653 311.43,822.167 	
		"/>
	<path fill="#1E1D25" d="M229.506,837.752c0.591,0,19.54,0,19.54,0l-2.373,8.311l-4.737,0.145l0.801-3.11l-14.812,0.2
		L229.506,837.752z"/>
	<polygon fill="#1E1D25" points="358.766,821.748 362.057,821.748 358.002,835.933 354.328,835.933 	"/>
	<polygon fill="#FFFFFF" points="344.963,819.221 338.38,841.88 361.803,841.88 368.895,819.075 391.563,819.075 373.705,880.377 
		351.3,880.377 357.375,857.701 334.325,857.701 327.742,880.486 304.319,880.486 322.295,818.966 	"/>
	<polygon fill="#1E1D25" points="338.507,863.538 350.027,863.538 343.19,886.069 370.795,886.069 369.276,891.762 337.116,891.762 
		344.963,868.594 336.734,868.721 	"/>
	<path fill="#FFFFFF" d="M494.445,818.621c0,0-28.123-0.164-44.072,0c-15.948,0.145-18.503,11.875-18.503,11.875
		s-3.756,13.384-8.875,32.496c-5.11,19.113,10.684,17.604,10.684,17.604s30.533,0,44.671-0.164
		c14.148-0.145,15.639-12.329,15.639-12.329s4.665-15.185,9.03-32.334C507.383,818.621,494.445,818.621,494.445,818.621z
		 M470.686,867.812h-25.578l10.22-36.116h25.277L470.686,867.812z"/>
	<path fill="#1E1D25" d="M426.76,827.186l-10.229,38.353c0,0-1.964,9.183,2.4,15.057c4.365,5.856,11.438,5.546,16.849,5.709
		c5.419,0.146,49.491-0.454,49.491-0.454s-3.465,6.165-15.639,6.165c-12.184,0-46.181,0-46.181,0s-10.23-0.29-12.63-7.819
		c-2.418-7.529,0-13.094,2.255-21.514s7.51-26.914,7.51-26.914S423.15,829.15,426.76,827.186z"/>
	<polygon fill="#1E1D25" points="459.702,837.57 457.893,842.989 467.976,842.989 462.557,861.628 465.867,861.628 472.941,837.57 	
		"/>
	<polygon fill="#1E1D25" points="540.926,821.622 544.844,821.622 526.341,885.997 596.136,885.997 594.326,891.579 
		520.477,891.871 	"/>
	<polygon fill="#FFFFFF" points="551.764,819.075 616.585,819.075 612.53,831.551 571.468,831.551 567.558,845.244 608.165,845.244 
		605.61,854.573 564.849,855.009 561.084,867.503 602.601,867.812 598.691,880.287 534.152,880.742 	"/>
	<polygon fill="#1E1D25" points="576.123,837.715 575.678,839.679 609.52,839.679 609.966,837.57 	"/>
	<polygon fill="#1E1D25" points="569.604,860.737 603.765,860.737 603.21,861.865 569.122,861.937 	"/>
	<path fill="#1E1D25" d="M646.364,821.731c0.445,0,4.591,0,4.591,0l-18.503,64.557l28.123,0.29l-1.036,4.874
		c0,0-33.46,0.309-33.015,0.309C626.969,891.762,646.364,821.731,646.364,821.731z"/>
	<path fill="#FFFFFF" d="M657.174,819.203l-17.166,61.302h23.085l14.512-47.973l19.394-0.145l-14.066,48.263l23.541-0.29
		l13.33-45.609c0,0,5.173-16.42-9.629-16.275C695.372,818.621,657.174,819.203,657.174,819.203z"/>
	<path fill="#1E1D25" d="M681.606,838.006c0,0.455-1.628,5.783-1.628,5.783l3.392,0.146l-13.466,47.827c0,0,31.242,0,31.687,0
		c0.446,0,1.773-5.329,1.773-5.329s-25.313-0.309-25.759-0.309c-0.445,0-2.809,1.345-1.628-2.818
		c1.182-4.128,13.321-45.445,13.321-45.445L681.606,838.006z"/>
	<polygon fill="#FFFFFF" points="772.523,819.058 795.863,819.058 778.278,880.596 754.774,880.596 	"/>
	<polygon fill="#1E1D25" points="765.803,821.603 747.263,886.197 775.078,886.197 773.323,891.47 742.135,891.47 762.293,821.603 	
		"/>
	<polygon fill="#1E1D25" points="825.123,821.603 833.761,821.603 843.681,846.698 806.584,886.524 846.718,886.524 
		842.081,891.798 799.064,891.798 837.28,851.172 	"/>
	<polygon fill="#FFFFFF" points="839.517,819.203 863.185,819.203 871.022,839.988 889.244,819.367 917.548,819.367 
		886.052,850.699 898.364,880.123 874.059,880.123 867.185,858.701 847.354,880.287 820.013,880.287 850.237,848.299 	"/>
	<polygon fill="#1E1D25" points="859.029,877.086 863.666,891.634 897.727,891.634 895.481,886.688 869.576,886.524 864.94,870.376 
			"/>
	<polygon fill="#1E1D25" points="872.614,828.786 879.342,821.931 876.778,821.931 871.977,826.55 	"/>
	<path fill="#F39121" d="M608.111,114.693c1.582,3.146,10.274,129.478,10.274,129.478l-116.076-9.474l59.229,79.76l-73.431,23.695
		l48.945,22.094l-283.46,234.515l307.156-200.564L231.479,680.833l298.472-183.179L206.21,791.379l367.967-232.151
		c0,0-246.372,234.515-243.998,232.933c2.373-1.582,357.692-230.569,357.692-230.569L417.04,789.798l357.692-219.513l68.694,108.184
		c0,0,52.109-162.666,52.9-165.03c0.791-2.383,11.848-13.421,11.848-13.421h86.061l-37.107-84.489l10.266-41.862l67.903-48.936
		l-82.115-30.024l-15.002-33.152l47.372-101.854l-105.81,40.262l-40.271-20.531l-33.16-87.652l-47.372,75.013l-36.325,6.329
		L608.111,114.693z"/>
	<path fill="#E94A27" d="M651.155,251.281c0,0,27.633-9.074,51.318-11.438c23.696-2.383,61.193,0.382,87.252-17.767
		c25.269,16.967,30.788,22.094,30.788,22.094s-124.75,40.662-182.397,134.243c0,0-12.238-37.898-6.31-75.414
		C637.725,265.503,651.155,251.281,651.155,251.281z"/>
	<path fill="#E94A27" d="M739.953,180.741c0,0,30.806,8.893,45.573,15.84c7.155-6.51,7.592-8.238,7.592-8.238
		s-34.507-9.111-49.045-10.202C746.245,179.232,739.953,180.741,739.953,180.741z"/>
	<path fill="#E94A27" d="M756.01,176.413c0.655,0.218,34.061,0,42.745,1.727c3.046-4.127,3.61-7.401,3.61-7.401
		s-16.194-3.019-34.197-2.364C750.155,169.03,756.01,176.413,756.01,176.413z"/>
	<path fill="#E94A27" d="M821.113,174.886l-1.746,6.947c0,0,51.864,16.057,85.934,49.263c8.683,1.728,8.902,0,8.902,0
		s-15.194-22.367-51.001-40.807C845.845,180.741,821.113,174.886,821.113,174.886z"/>
	<path fill="#E94A27" d="M805.483,207.874c0,0,6.947-6.947,8.247-13.02c12.375,5.201,48.827,24.295,61.629,36.242
		c-19.095,3.892-30.815,5.856-30.815,5.856S818.94,216.112,805.483,207.874z"/>
	<path fill="#E94A27" d="M858.211,252.791c0,0,26.25-5.201,33.206-5.419c7.802,8.893,24.732,27.332,36.234,60.32
		c-11.502-2.818-41.017-9.765-41.017-9.765S870.149,265.593,858.211,252.791z"/>
	<path fill="#E94A27" d="M837.798,258.101c0,0-66.04,17.167-114.885,65.74c-48.863,48.554-70.767,101.545-70.767,101.545
		s12.429,31.406,11.238,31.697c-1.173,0.291,47.972,43.827,58.038,45.008c10.074,1.182,21.322-2.673,21.322-2.673
		s50.045-128.805,50.045-129.696c0-0.872,35.234-42.626,35.234-42.626l36.425-24.296l-7.701-23.968l-12.73-16.294L837.798,258.101z"
		/>
	<path fill="#E94A27" d="M870.668,321.458c0,0-28.432,4.747-45.899,28.133c-17.467,23.405-20.431,44.117-28.423,78.178
		c-7.992,34.042-21.031,80.233-23.395,89.416c-2.364,9.183,15.993,14.22,15.993,14.22l68.995-22.513l17.167-53.301l5.328-69.867
		l-3.855-56.866L870.668,321.458z"/>
	<path fill="#E94A27" d="M894.945,319.694c0,0,23.986,2.655,39.971,17.458c3.855,34.952,9.183,85.579-6.22,129.696
		c-21.613,23.386-24.868,21.913-24.868,21.913s7.102-40.862,5.92-71.067C908.565,387.488,902.946,339.516,894.945,319.694z"/>
	<path fill="#E94A27" d="M918.031,246.244c0,0,29.615,35.843,34.652,82.615c8.292,8.893,11.847,8.893,11.847,8.893
		s-10.956-63.957-37.306-92.089C923.659,245.953,918.031,246.244,918.031,246.244z"/>
	<path fill="#E94A27" d="M956.529,356.991l8.592,10.075v7.692l2.274-1.091c0,0-5.529,49.355-19.749,73.632
		c-14.212,15.694-14.212,15.694-14.212,15.694v-4.146C933.434,458.847,957.428,410.892,956.529,356.991z"/>
	<path fill="#D32533" d="M788.943,170.176c0,0-26.859,3.146-46.99,11.438c-10.657-2.364-25.259-4.728-25.259-4.728
		S739.59,164.248,788.943,170.176z"/>
	<path fill="#D32533" d="M688.262,187.724c0,0-27.242,13.821-50.146,33.552c28.823-4.729,52.919-7.893,52.919-7.893
		s15.785-15.002,25.259-19.349C705.638,189.307,688.262,187.724,688.262,187.724z"/>
	<path fill="#D32533" d="M661.421,248.517c0,0-27.241,35.934-28.033,84.489c-1.582,37.898,4.728,45.408,4.728,45.408l-40.262,71.067
		c0,0-23.295-43.026-20.131-97.126c3.146-54.083,19.74-75.414,19.74-75.414S635.752,254.446,661.421,248.517z"/>
	<path fill="#D32533" d="M652.737,423.422c0,0-22.513,52.118-24.877,69.485c13.82,20.131,50.145,41.061,63.175,46.19
		c13.021,5.128,23.677-0.399,23.677-0.399l22.504-38.68C737.216,500.018,686.289,482.251,652.737,423.422z"/>
	<path fill="#D32533" d="M774.723,512.256c1.182,0,43.426,9.475,77.778-2.764c-2.364,14.603-3.555,21.313-3.555,21.313
		l-13.421,14.603c0,0-41.453,16.584-80.141,10.674C765.649,542.661,774.723,512.256,774.723,512.256z"/>
	<path fill="#1E1D25" d="M604.565,261.556c0,0,24.477-32.769,33.551-40.279c24.486-5.128,57.256-9.875,75.014-8.675
		c17.767,1.182,40.671,3.165,55.674-2.764c-21.323-11.856-80.542-22.113-80.542-22.113l16.584-7.51c0,0,43.827,5.528,77.387,19.749
		c13.021-11.856,18.94-23.695,20.132-29.224c11.447,1.582,13.029,2.383,13.029,2.383s-2.774,21.713-18.558,36.316
		c17.767,10.256,39.88,29.205,39.88,29.205s44.217-10.257,76.186-9.074c9.475,11.856,9.475,11.856,9.475,11.856
		s-48.954-1.982-74.223,9.074c14.612,16.585,29.615,41.845,30.405,47.372c16.185-1.582,56.856,3.165,85.67,38.698
		c0.391,21.312,0,22.895,0,22.895s-35.915-48.955-78.169-44.609c11.057,39.08,30.006,124.751-3.955,208.056
		c-15.784,11.057-48.163,23.296-48.163,23.296s36.724-59.229,40.67-135.424s-9.874-95.544-9.874-95.544
		s-47.763,13.038-63.175,61.993c-15.384,48.954-29.997,116.057-33.16,126.732c-3.155,10.656-16.576,43.808-27.633,50.536
		c-22.495-1.982-49.736-15.403-49.736-15.403s35.525-7.111,50.919-51.337c15.403-44.208,36.725-110.929,49.745-134.624
		c13.03-23.677,46.191-47.754,69.886-52.1c0,0-17.376-38.698-30.396-46.191c-32.77,10.657-129.106,42.226-189.907,170.54
		c0,0-19.34,45.809-21.322,58.429c-9.865-9.456-22.104-34.333-22.104-34.333s33.561-83.706,101.464-137.788
		c67.912-54.101,121.195-67.522,121.195-67.522l-34.333-25.659c0,0-15.794,9.475-28.823,10.656
		c-13.029,1.182-59.22,1.182-90.417,9.093C635.752,246.153,606.938,259.174,604.565,261.556z"/>
	<path fill="#D32533" d="M903.828,485.396c0,0-5.519,22.113-7.502,28.042c15.395-12.639,48.164-53.701,54.083-73.832
		C940.935,454.209,912.511,479.869,903.828,485.396z"/>
</g>
</svg>
