<?xml version="1.0" encoding="utf-8"?>
<!-- Designed by Vexels.com - 2016 All Rights Reserved - https://vexels.com/terms-and-conditions/  -->

<svg version="1.1" id="Layer_1" xmlns="http://www.w3.org/2000/svg" xmlns:xlink="http://www.w3.org/1999/xlink" x="0px" y="0px"
	 width="1200px" height="1200px" viewBox="0 0 1200 1200" enable-background="new 0 0 1200 1200" xml:space="preserve">
<g>
	<g>
		<g>
			<polygon fill="#32305C" points="158.019,215.074 143.205,184.721 50,232.024 64.13,261.677 95.894,247.555 227.911,517.946 
				256.863,502.414 126.256,233.442 			"/>
			<polygon fill="#32305C" points="259.683,143.072 306.277,284.265 272.395,296.268 225.092,152.956 193.32,164.951 
				298.512,483.355 328.873,473.478 283.689,329.45 316.87,318.856 365.584,462.176 396.647,450.882 292.865,131.778 			"/>
			<path fill="#32305C" d="M470.783,97.88l-30.362,5.655l44.475,295.814l-35.292,7.758l-47.303-297.224l-32.473,4.237v2.118
				c0,0,40.939,250.63,43.05,271.1c2.126,20.478,14.839,62.842,62.842,52.951c48.013-9.877,40.239-63.536,40.239-63.536
				L470.783,97.88z"/>
			<polygon fill="#32305C" points="621.86,304.743 583.039,94.352 553.379,93.642 544.912,428.293 577.384,427.585 579.504,217.902 
				619.742,428.293 648.694,428.994 655.75,95.769 622.569,95.061 			"/>
			<path fill="#32305C" d="M794.124,109.182c-37.419-6.364-63.536-9.893-63.536-9.893L677.63,429.002l57.896,9.176
				c0,0,40.931,12.003,49.414-37.419c7.82-45.589,40.254-250.63,40.254-250.63S831.543,115.537,794.124,109.182z M750.357,408.517
				l-33.891-7.057l39.53-264.043l36.718,7.064L750.357,408.517z"/>
			<path fill="#32305C" d="M843.538,428.293c1.145-2.274,36.009-108.019,36.009-108.019l47.303,14.823l12.003-30.354l-50.839-16.941
				l38.836-111.555l63.536,21.887l12.011-32.473c0,0-23.305-8.467-64.954-20.478c-41.664-11.995-47.311,26.133-47.311,26.133
				l-75.539,231.562c-20.478,50.832,19.059,62.126,19.059,62.126l64.253,17.65l9.176-31.063
				C907.082,451.59,842.12,431.113,843.538,428.293z"/>
			<path fill="#32305C" d="M1122.404,218.611c-31.764-16.24-57.896-28.944-57.896-28.944L915.548,490.419l29.653,14.823
				l66.363-133.427l9.884,3.529l-36.001,151.077l28.944,14.13l38.828-148.266c0,0,24.006,8.475,35.293-17.65
				c11.301-26.117,52.241-108.012,52.241-108.012S1154.175,234.851,1122.404,218.611z M1058.159,354.866l-31.063-16.225
				l49.421-102.38l33.182,14.122L1058.159,354.866z"/>
		</g>
	</g>
	<g>
		
			<path fill="#E83E36" stroke="#FFFFFF" stroke-width="2.1543" stroke-linecap="round" stroke-linejoin="round" stroke-miterlimit="10" d="
			M56.964,882.196c0,0,105.73-70.756,250.412-131.169c15.103,16.692,3.178,46.898,3.178,46.898l-13.514,3.178
			C297.039,801.103,82.411,867.879,56.964,882.196z"/>
		
			<path fill="#0078B7" stroke="#FFFFFF" stroke-width="2.1543" stroke-linecap="round" stroke-linejoin="round" stroke-miterlimit="10" d="
			M111.02,1106.358c0,0,127.188-104.132,228.938-169.319c90.626-56.439,80.297-39.748,80.297-39.748l20.665,43.721
			C440.92,941.011,164.282,1068.207,111.02,1106.358z"/>
		
			<path fill="#0078B7" stroke="#FFFFFF" stroke-width="2.1543" stroke-linecap="round" stroke-linejoin="round" stroke-miterlimit="10" d="
			M895.616,752.616c0,0,189.984-68.365,252-86.654c-43.72,3.186-192.383,23.858-231.328,39.756
			C898,735.916,895.616,752.616,895.616,752.616z"/>
		
			<path fill="#E83E36" stroke="#FFFFFF" stroke-width="2.1543" stroke-linecap="round" stroke-linejoin="round" stroke-miterlimit="10" d="
			M952.056,606.345c0,0,133.544-6.356,197.944,1.597c-54.056,6.356-209.075,35.768-211.458,35.768
			C936.158,643.709,952.056,606.345,952.056,606.345z"/>
		
			<path fill="#32305C" stroke="#FFFFFF" stroke-width="2.1543" stroke-linecap="round" stroke-linejoin="round" stroke-miterlimit="10" d="
			M239.79,573.755c0,0,168.525-100.962,373.619-97.777c205.095,3.186,352.145,97.777,352.145,97.777s-46.882,313.199-361.679,493.65
			c0,0-120.832-68.358-197.149-157.402c-69.152,31.811-109.702,53.27-109.702,53.27s-38.946,19.878-55.646,7.151
			c-16.684-12.712,1.589-50.076,15.111-80.29c13.515-30.206,56.44-120.031,56.44-120.031S267.605,696.971,239.79,573.755z"/>
		
			<path fill="#FFFFFF" stroke="#FFFFFF" stroke-width="2.1543" stroke-linecap="round" stroke-linejoin="round" stroke-miterlimit="10" d="
			M266.716,584.683c0,0,147.362-86.311,346.304-86.311c186.837-0.008,326.823,86.303,326.823,86.303
			s-44.226,162.636-118.114,260.576c-73.88,97.932-188.146,178.698-216.497,196.737c0,0-161.515-90.213-243.994-233.688
			C311.411,730.129,275.285,633.396,266.716,584.683z"/>
		
			<path fill="#0078B7" stroke="#FFFFFF" stroke-width="2.1543" stroke-linecap="round" stroke-linejoin="round" stroke-miterlimit="10" d="
			M818.356,562.803c0,0,73.506,24.029,94.162,36.998c-22.098,67.749-73.506,196.028-163.352,284.918
			c-55.732,60.054-112.429,104.732-129.237,113.86c-39.397-22.58-68.707-52.841-68.707-52.841s78.794-1.448,147.985-53.34
			c69.183-51.883,126.363-131.643,129.72-224.848C832.291,595.961,818.356,562.803,818.356,562.803z"/>
		
			<path fill="#E83E36" stroke="#FFFFFF" stroke-width="2.1543" stroke-linecap="round" stroke-linejoin="round" stroke-miterlimit="10" d="
			M807.787,559.446c0,0-41.804-16.333-105.223-22.106c-63.419-5.756-143.179-0.475-231.095,20.672
			c-87.923,21.14-127.32,52.849-127.32,52.849s57.171,157.106,78.794,189.29c21.622,32.193,121.073,136.449,121.073,136.449
			s75.025-0.257,153.741-56.689c79.753-57.179,118.192-147.985,121.082-229.661C818.839,650.252,817.881,584.434,807.787,559.446z"
			/>
		<g>
			<defs>
				<path id="SVGID_1_" d="M807.787,559.446c0,0-41.804-16.333-105.223-22.106c-63.419-5.756-143.179-0.475-231.095,20.672
					c-87.923,21.14-127.32,52.849-127.32,52.849s57.171,157.106,78.794,189.29c21.622,32.193,121.073,136.449,121.073,136.449
					s75.025-0.257,153.741-56.689c79.753-57.179,118.192-147.985,121.082-229.661C818.839,650.252,817.881,584.434,807.787,559.446z
					"/>
			</defs>
			<clipPath id="SVGID_2_">
				<use xlink:href="#SVGID_1_"  overflow="visible"/>
			</clipPath>
			<g clip-path="url(#SVGID_2_)">
				
					<path fill="#32305C" stroke="#FFFFFF" stroke-width="2.1543" stroke-linecap="round" stroke-linejoin="round" stroke-miterlimit="10" d="
					M378.74,599.802c0,0,28.344,50.45,36.99,62.46c9.129,12.494,9.129,12.494,9.129,12.494l11.536-12.494
					c0,0-34.117-49.967-42.279-71.59C387.86,593.555,378.74,599.802,378.74,599.802z"/>
				
					<path fill="#32305C" stroke="#FFFFFF" stroke-width="2.1543" stroke-linecap="round" stroke-linejoin="round" stroke-miterlimit="10" d="
					M579.082,628.154c15.859-5.764,15.859-5.764,15.859-5.764s-7.205-66.309-12.976-79.277c-5.764,0.475-18.25,1.916-16.81,2.398
					C565.155,545.511,578.125,601.726,579.082,628.154z"/>
				
					<path fill="#32305C" stroke="#FFFFFF" stroke-width="2.1543" stroke-linecap="round" stroke-linejoin="round" stroke-miterlimit="10" d="
					M777.035,545.029c-9.137,0-16.817,0.966-16.817,0.966s-1.441,32.192-10.57,45.161c21.14-1.924,21.14-1.924,21.14-1.924
					S778.001,558.488,777.035,545.029z"/>
				
					<path fill="#32305C" stroke="#FFFFFF" stroke-width="2.1543" stroke-linecap="round" stroke-linejoin="round" stroke-miterlimit="10" d="
					M738.121,790.066c-13.927,9.191-30.299,17.783-48.838,25.532c3.677-20.648,8.981-39.374,11.357-45.714
					c2.882-7.68-18.733,8.646-18.733,8.646s-6.488,20.719-9.393,43.611c-17.167,6.27-35.939,11.855-56.128,16.575
					c0.203-19.45-0.786-32.317-0.786-32.317l-16.334,8.646c0,0,0.662,12.19,0.873,27.207c-20.618,4.191-42.567,7.509-65.732,9.791
					c0.475-8.163-0.483-10.087-0.483-10.087l-19.216,3.84l-28.352,20.181c0,0,7.695,0,33.15,0.966
					c1.448,18.733-12.969,30.269-12.969,30.269s0,0,9.604,9.611c21.63-5.771,21.156-38.439,21.156-38.439
					c19.481-1.262,39.413-3.154,62.819-7.664c-0.21,11.06-0.849,21.732-2.291,28.796c-4.33,21.148-13.452,40.846-23.063,46.127
					c20.182-3.365,23.063-3.365,23.063-3.365s18.523-14.916,18.336-74.946c7.718-1.784,15.82-3.832,24.419-6.247
					c10.827-3.038,20.984-6.209,30.564-9.511c-0.008,2.406,0.039,4.79,0.195,7.103c1.917,30.268,29.303,37.473,30.269,36.041
					c0.958-1.449,17.774-14.41,16.325-14.41c-1.363,0-30.517,6.909-30.907-34.568c56.393-21.872,90.175-49.195,114.025-82.673
					c12.977-36.998,15.867-46.602,15.867-46.602S783.274,760.272,738.121,790.066z"/>
			</g>
			
				<use xlink:href="#SVGID_1_"  overflow="visible" fill="none" stroke="#FFFFFF" stroke-width="2.1543" stroke-linecap="round" stroke-linejoin="round" stroke-miterlimit="10"/>
		</g>
		
			<path fill="#F9AE26" stroke="#FFFFFF" stroke-width="2.1543" stroke-linecap="round" stroke-linejoin="round" stroke-miterlimit="10" d="
			M317.72,600.768c-0.569-2.664,203.319-105.184,426.694-57.928c-102.239-6.878-255.163,2.57-387.469,68.723
			c14.605,52.413,102.232,277.502,264.611,385.755c-12.891,8.592-12.891,8.592-12.891,8.592S371.846,857.652,317.72,600.768z"/>
		
			<path fill="#32305C" stroke="#FFFFFF" stroke-width="2.1543" stroke-linecap="round" stroke-linejoin="round" stroke-miterlimit="10" d="
			M807.787,576.263c-1.449,0.958-15.376,59.579-15.376,59.579l-21.63,25.946l19.224-7.206l-18.733,75.43l-27.869,27.387
			c0,0-49.009,24.021-69.19,30.744c-8.163,3.848-21.14,1.931-21.14,1.931s0,5.282-9.129,8.639
			c-9.121,3.364-52.849,22.105-52.849,22.105l-12.011-17.783l-4.814,15.376l-30.736,24.504c0,0-55.256,26.904-68.708,32.675
			c-13.452,5.764-50.933,24.497-50.933,24.497l-29.786-34.109l-36.515-6.729L318.67,748.745c0,0,33.158-39.39,60.545-65.343
			c17.775-16.326,42.279-25.937,64.385-32.184c22.098-6.247,71.106-17.292,71.106-17.292s14.41-4.814,32.193,4.315
			c16.326-15.375,19.208-17.292,19.208-17.292l83.608-17.782l-5.771,17.307l20.181-20.672l55.256-10.562l-0.974,11.044
			c0,0,5.772-11.044,31.718-15.851C776.069,579.628,807.787,576.263,807.787,576.263z"/>
		<g>
			
				<path fill="#FFFFFF" stroke="#FFFFFF" stroke-width="2.1543" stroke-linecap="round" stroke-linejoin="round" stroke-miterlimit="10" d="
				M514.223,643.53c0,0-51.416,12.011-86.957,23.546c-35.565,11.529-57.18,34.109-73.997,65.336
				c-16.817,31.226-77.353,166.242-77.353,166.242s-12.494,25.463-3.848,35.55c8.654,10.094,39.406-4.806,39.406-4.806
				s78.786-39.39,112.902-59.579c54.29-36.025,61.503-71.106,61.503-71.106s34.583-76.871,52.366-122.998
				C556.019,629.595,514.223,643.53,514.223,643.53z M411.882,834.752c0,0-44.53,18.445-46.103,19.2
				c-0.008,0-0.016,0.016-0.024,0.016c-0.038,0.015-0.031,0.008,0.024-0.016c1.698-1.082,67.726-150.851,67.726-150.851
				c1.44,0,41.321-12.495,41.321-12.495L411.882,834.752z"/>
			
				<polygon fill="#FFFFFF" stroke="#FFFFFF" stroke-width="2.1543" stroke-linecap="round" stroke-linejoin="round" stroke-miterlimit="10" points="
				570.912,629.112 555.061,668.517 566.589,665.152 499.805,839.075 565.155,806.875 592.535,728.088 620.396,782.378 
				663.641,762.204 637.221,705.025 682.382,634.884 696.799,631.518 707.852,601.25 667.964,607.497 606.952,689.649 
				637.221,614.702 			"/>
			
				<path fill="#FFFFFF" stroke="#FFFFFF" stroke-width="2.1543" stroke-linecap="round" stroke-linejoin="round" stroke-miterlimit="10" d="
				M786.164,628.629l9.604-42.271c0,0-26.903,3.357-46.602,8.171c-19.699,4.798-32.193,10.563-42.279,42.755
				c-10.087,32.192-27.387,85.517-27.387,85.517s-15.376,36.515,22.106,25.945c26.903-10.079,61.494-24.987,61.494-24.987
				l12.969-55.24l-29.786,8.646l-6.247,25.463l-19.698,5.763l24.987-86.482l18.25-3.841l-2.882,14.41L786.164,628.629z"/>
		</g>
	</g>
	<g>
		<path fill="#E83E36" d="M56.964,882.196c0,0,105.73-70.756,250.412-131.169c15.103,16.692,3.178,46.898,3.178,46.898
			l-13.514,3.178C297.039,801.103,82.411,867.879,56.964,882.196z"/>
		<path fill="#0078B7" d="M111.02,1106.358c0,0,127.188-104.132,228.938-169.319c90.626-56.439,80.297-39.748,80.297-39.748
			l20.665,43.721C440.92,941.011,164.282,1068.207,111.02,1106.358z"/>
		<path fill="#0078B7" d="M895.616,752.616c0,0,189.984-68.365,252-86.654c-43.72,3.186-192.383,23.858-231.328,39.756
			C898,735.916,895.616,752.616,895.616,752.616z"/>
		<path fill="#E83E36" d="M952.056,606.345c0,0,133.544-6.356,197.944,1.597c-54.056,6.356-209.075,35.768-211.458,35.768
			C936.158,643.709,952.056,606.345,952.056,606.345z"/>
		<path fill="#32305C" d="M239.79,573.755c0,0,168.525-100.962,373.619-97.777c205.095,3.186,352.145,97.777,352.145,97.777
			s-46.882,313.199-361.679,493.65c0,0-120.832-68.358-197.149-157.402c-69.152,31.811-109.702,53.27-109.702,53.27
			s-38.946,19.878-55.646,7.151c-16.684-12.712,1.589-50.076,15.111-80.29c13.515-30.206,56.44-120.031,56.44-120.031
			S267.605,696.971,239.79,573.755z"/>
		<path fill="#FFFFFF" d="M266.716,584.683c0,0,147.362-86.311,346.304-86.311c186.837-0.008,326.823,86.303,326.823,86.303
			s-44.226,162.636-118.114,260.576c-73.88,97.932-188.146,178.698-216.497,196.737c0,0-161.515-90.213-243.994-233.688
			C311.411,730.129,275.285,633.396,266.716,584.683z"/>
		<path fill="#0078B7" d="M818.356,562.803c0,0,73.506,24.029,94.162,36.998c-22.098,67.749-73.506,196.028-163.352,284.918
			c-55.732,60.054-112.429,104.732-129.237,113.86c-39.397-22.58-68.707-52.841-68.707-52.841s78.794-1.448,147.985-53.34
			c69.183-51.883,126.363-131.643,129.72-224.848C832.291,595.961,818.356,562.803,818.356,562.803z"/>
		<path fill="#E83E36" d="M807.787,559.446c0,0-41.804-16.333-105.223-22.106c-63.419-5.756-143.179-0.475-231.095,20.672
			c-87.923,21.14-127.32,52.849-127.32,52.849s57.171,157.106,78.794,189.29c21.622,32.193,121.073,136.449,121.073,136.449
			s75.025-0.257,153.741-56.689c79.753-57.179,118.192-147.985,121.082-229.661C818.839,650.252,817.881,584.434,807.787,559.446z"
			/>
		<g>
			<defs>
				<path id="SVGID_3_" d="M807.787,559.446c0,0-41.804-16.333-105.223-22.106c-63.419-5.756-143.179-0.475-231.095,20.672
					c-87.923,21.14-127.32,52.849-127.32,52.849s57.171,157.106,78.794,189.29c21.622,32.193,121.073,136.449,121.073,136.449
					s75.025-0.257,153.741-56.689c79.753-57.179,118.192-147.985,121.082-229.661C818.839,650.252,817.881,584.434,807.787,559.446z
					"/>
			</defs>
			<clipPath id="SVGID_4_">
				<use xlink:href="#SVGID_3_"  overflow="visible"/>
			</clipPath>
			<g clip-path="url(#SVGID_4_)">
				<path fill="#32305C" d="M378.74,599.802c0,0,28.344,50.45,36.99,62.46c9.129,12.494,9.129,12.494,9.129,12.494l11.536-12.494
					c0,0-34.117-49.967-42.279-71.59C387.86,593.555,378.74,599.802,378.74,599.802z"/>
				<path fill="#32305C" d="M579.082,628.154c15.859-5.764,15.859-5.764,15.859-5.764s-7.205-66.309-12.976-79.277
					c-5.764,0.475-18.25,1.916-16.81,2.398C565.155,545.511,578.125,601.726,579.082,628.154z"/>
				<path fill="#32305C" d="M777.035,545.029c-9.137,0-16.817,0.966-16.817,0.966s-1.441,32.192-10.57,45.161
					c21.14-1.924,21.14-1.924,21.14-1.924S778.001,558.488,777.035,545.029z"/>
				<path fill="#32305C" d="M738.121,790.066c-13.927,9.191-30.299,17.783-48.838,25.532c3.677-20.648,8.981-39.374,11.357-45.714
					c2.882-7.68-18.733,8.646-18.733,8.646s-6.488,20.719-9.393,43.611c-17.167,6.27-35.939,11.855-56.128,16.575
					c0.203-19.45-0.786-32.317-0.786-32.317l-16.334,8.646c0,0,0.662,12.19,0.873,27.207c-20.618,4.191-42.567,7.509-65.732,9.791
					c0.475-8.163-0.483-10.087-0.483-10.087l-19.216,3.84l-28.352,20.181c0,0,7.695,0,33.15,0.966
					c1.448,18.733-12.969,30.269-12.969,30.269s0,0,9.604,9.611c21.63-5.771,21.156-38.439,21.156-38.439
					c19.481-1.262,39.413-3.154,62.819-7.664c-0.21,11.06-0.849,21.732-2.291,28.796c-4.33,21.148-13.452,40.846-23.063,46.127
					c20.182-3.365,23.063-3.365,23.063-3.365s18.523-14.916,18.336-74.946c7.718-1.784,15.82-3.832,24.419-6.247
					c10.827-3.038,20.984-6.209,30.564-9.511c-0.008,2.406,0.039,4.79,0.195,7.103c1.917,30.268,29.303,37.473,30.269,36.041
					c0.958-1.449,17.774-14.41,16.325-14.41c-1.363,0-30.517,6.909-30.907-34.568c56.393-21.872,90.175-49.195,114.025-82.673
					c12.977-36.998,15.867-46.602,15.867-46.602S783.274,760.272,738.121,790.066z"/>
			</g>
		</g>
		<path fill="#F9AE26" d="M317.72,600.768c-0.569-2.664,203.319-105.184,426.694-57.928c-102.239-6.878-255.163,2.57-387.469,68.723
			c14.605,52.413,102.232,277.502,264.611,385.755c-12.891,8.592-12.891,8.592-12.891,8.592S371.846,857.652,317.72,600.768z"/>
		<path fill="#32305C" d="M807.787,576.263c-1.449,0.958-15.376,59.579-15.376,59.579l-21.63,25.946l19.224-7.206l-18.733,75.43
			l-27.869,27.387c0,0-49.009,24.021-69.19,30.744c-8.163,3.848-21.14,1.931-21.14,1.931s0,5.282-9.129,8.639
			c-9.121,3.364-52.849,22.105-52.849,22.105l-12.011-17.783l-4.814,15.376l-30.736,24.504c0,0-55.256,26.904-68.708,32.675
			c-13.452,5.764-50.933,24.497-50.933,24.497l-29.786-34.109l-36.515-6.729L318.67,748.745c0,0,33.158-39.39,60.545-65.343
			c17.775-16.326,42.279-25.937,64.385-32.184c22.098-6.247,71.106-17.292,71.106-17.292s14.41-4.814,32.193,4.315
			c16.326-15.375,19.208-17.292,19.208-17.292l83.608-17.782l-5.771,17.307l20.181-20.672l55.256-10.562l-0.974,11.044
			c0,0,5.772-11.044,31.718-15.851C776.069,579.628,807.787,576.263,807.787,576.263z"/>
		<g>
			<path fill="#FFFFFF" d="M514.223,643.53c0,0-51.416,12.011-86.957,23.546c-35.565,11.529-57.18,34.109-73.997,65.336
				c-16.817,31.226-77.353,166.242-77.353,166.242s-12.494,25.463-3.848,35.55c8.654,10.094,39.406-4.806,39.406-4.806
				s78.786-39.39,112.902-59.579c54.29-36.025,61.503-71.106,61.503-71.106s34.583-76.871,52.366-122.998
				C556.019,629.595,514.223,643.53,514.223,643.53z M411.882,834.752c0,0-44.53,18.445-46.103,19.2
				c-0.008,0-0.016,0.016-0.024,0.016c-0.038,0.015-0.031,0.008,0.024-0.016c1.698-1.082,67.726-150.851,67.726-150.851
				c1.44,0,41.321-12.495,41.321-12.495L411.882,834.752z"/>
			<polygon fill="#FFFFFF" points="570.912,629.112 555.061,668.517 566.589,665.152 499.805,839.075 565.155,806.875 
				592.535,728.088 620.396,782.378 663.641,762.204 637.221,705.025 682.382,634.884 696.799,631.518 707.852,601.25 
				667.964,607.497 606.952,689.649 637.221,614.702 			"/>
			<path fill="#FFFFFF" d="M786.164,628.629l9.604-42.271c0,0-26.903,3.357-46.602,8.171c-19.699,4.798-32.193,10.563-42.279,42.755
				c-10.087,32.192-27.387,85.517-27.387,85.517s-15.376,36.515,22.106,25.945c26.903-10.079,61.494-24.987,61.494-24.987
				l12.969-55.24l-29.786,8.646l-6.247,25.463l-19.698,5.763l24.987-86.482l18.25-3.841l-2.882,14.41L786.164,628.629z"/>
		</g>
	</g>
</g>
</svg>
