<?xml version="1.0" encoding="utf-8"?>
<!-- Designed by Vexels.com - 2016 All Rights Reserved - https://vexels.com/terms-and-conditions/  -->

<svg version="1.1" id="Layer_1" xmlns="http://www.w3.org/2000/svg" xmlns:xlink="http://www.w3.org/1999/xlink" x="0px" y="0px"
	 width="1200px" height="1200px" viewBox="0 0 1200 1200" enable-background="new 0 0 1200 1200" xml:space="preserve">
<g>
	<g>
		<path fill="#2B2C59" d="M373.338,1011.558h-33.074c0,0-3.307,0.829-5.521,6.615c-2.205,5.794-32.245,63.678-32.245,63.678
			l-5.513-62.293c0,0,0.547-7.445,6.342-8.546h-26.186c0,0-4.965-1.103-11.307,9.922c-6.341,11.025-33.912,61.747-33.912,61.747
			l-1.094-61.473c0,0,0-7.991,7.162-10.478h-28.946c0,0-9.366,0.556-7.982,11.307c1.367,10.751,7.162,85.445,7.162,85.445h35.278
			l31.981-56.226l3.025,55.952h38.322l46.038-84.616C362.869,1022.592,367.27,1013.216,373.338,1011.558z"/>
		<path fill="#2B2C59" d="M384.919,1095.363c1.922-7.999,15.434-73.045,15.434-73.045s2.196-9.102,6.888-11.589l-25.63-0.546
			c0,0-6.615,3.854-8.273,12.409c-1.649,8.537-17.084,84.343-17.084,84.343h29.211
			C385.465,1106.935,382.987,1103.354,384.919,1095.363z"/>
		<path fill="#2B2C59" d="M477.534,1084.886c0,0-38.039,0-38.859,0c-0.829,0,63.669-55.123,63.669-55.123l4.684-19.034
			c0,0-74.694-0.546-83.523-0.82c-8.82-0.274-11.854,8.264-12.683,10.751c-0.82,2.487-4.401,17.155-3.854,16.546
			c4.683-5.248,15.716-4.145,15.716-4.145l40.517,0.829l-68.087,59.268l-3.581,14.049c0,0,79.112,0,86,0s9.366-5.786,9.366-5.786
			l4.41-22.331C486.354,1086.817,477.534,1084.886,477.534,1084.886z"/>
		<path fill="#2B2C59" d="M547.545,1011.012c-3.581,0.274-7.435,6.068-7.435,6.068s-32.253,66.977-37.766,76.898
			c-5.512,9.922-12.127,13.503-12.127,13.503c-0.555,0,26.742,0.555,30.869,0.555c4.136,0,11.025-17.365,11.025-17.365h38.322
			c0,0,1.375,5.794,2.478,10.204s-5.794,6.606-5.794,6.606h38.039l-23.152-96.752
			C582.003,1010.729,551.126,1010.729,547.545,1011.012z M543.54,1067.872l15.426-30.869l6.289,30.869H543.54z"/>
		<path fill="#2B2C59" d="M609.574,1107.764v-0.035C609.547,1107.746,609.53,1107.755,609.574,1107.764z"/>
		<path fill="#2B2C59" d="M714.307,1062.28c0,0,4.974-18.742,7.991-35.552c3.034-16.819-13.229-15.716-13.229-15.716h-86.821
			c7.717,1.931,4.683,12.956,4.683,12.956l-17.356,83.761c0.705-0.238,16.466-0.247,20.937-0.247c4.692,0,6.906-5.221,6.906-5.221
			l5.776-25.921l25.365-0.274l10.186,30.869h34.459c-4.136-0.556-4.41-3.581-6.342-6.888c-1.923-3.307-9.64-25.639-9.64-25.639
			C709.906,1074.972,714.307,1062.28,714.307,1062.28z M693.907,1042.163c-2.469,10.196-6.324,10.469-10.468,10.469
			c-4.136,0-27.553,0-27.553,0l-9.111,6.615l5.512-25.63h36.39C688.677,1033.616,696.386,1031.958,693.907,1042.163z"/>
		<path fill="#2B2C59" d="M820.999,1010.729h-83.796c6.888,2.214,4.401,12.683,4.401,12.683s-11.854,57.893-14.615,69.191
			c-2.752,11.297-8.546,15.434-9.648,15.434c1.031,0,66.721,0,84.077,0c17.648,0,22.887-17.365,22.887-18.195
			c0-0.82,7.708-32.518,11.854-57.884C840.287,1006.602,820.999,1010.729,820.999,1010.729z M807.496,1042.709
			c-1.384,10.196-8.008,37.484-8.008,37.484s-2.487,4.693-6.068,4.693s-38.586,0-38.586,0l11.854-50.996h34.732
			C801.419,1033.89,808.863,1032.514,807.496,1042.709z"/>
		<path fill="#2B2C59" d="M942.278,1009.909c-11.025-0.274-70.019,0.274-70.019,0.274s-20.938,0.546-25.904,19.297
			c-4.966,18.742-4.41,21.503-4.41,21.503s-1.658,19.571,22.332,19.844c23.972,0.283,45.475,0,45.475,0s8.273,0,6.888,7.171
			c-1.376,7.161-12.118,7.161-14.333,6.888c-2.205-0.274-55.952,0-55.952,0s-11.58-2.214-10.742-10.196l-4.145,25.356
			c0,0-1.649,7.999,11.58,8.273c13.23,0.274,65.875,0,65.875,0s26.741-0.283,30.322-15.99c3.589-15.716,5.239-25.084,5.239-25.084
			s3.034-20.126-21.776-19.853c-24.809,0.282-42.722,0.555-42.722,0.555s-11.854,0.274-10.487-7.444
			c1.385-7.717,11.589-6.888,14.888-6.888c3.315,0,50.448,0,50.448,0s10.195-0.829,14.05,8.264l4.145-24.254
			C953.029,1017.626,953.303,1010.183,942.278,1009.909z"/>
	</g>
	<path fill="#2B2C59" d="M454.383,211.631c0,0-141.318,78.689-173.202,238.581c-30.868,35.922-60.547,46.991-60.547,46.991
		s15.011-123.396,83.788-208.391C344.119,251.328,438.948,211.631,454.383,211.631z"/>
	<path fill="#2B2C59" d="M262.457,331.305c0,0-49.082,83.99-55.652,173.052c-14.685,12.135-31.883-0.503-32.888-8.097
		C175.927,469.95,216.409,375.836,262.457,331.305z"/>
	<path fill="#2B2C59" d="M218.429,514.472c0.115-1.508,39.477-13.159,58.192-39.468c-17.199,46.047,9.111,149.776,9.111,149.776
		L235.645,660.2C235.645,660.2,211.347,609.098,218.429,514.472z"/>
	<path fill="#2B2C59" d="M201.733,522.066c0,0-2.531,103.72,22.27,145.719c-36.434,31.892-36.434,31.892-36.434,31.892
		s-36.928-69.331-17.701-185.707C174.922,526.617,195.163,522.577,201.733,522.066z"/>
	<path fill="#E51E39" d="M397.045,280.203c0,0-82.976,84.996-101.197,191.264c-13.15,72.86,4.56,112.327,4.56,112.327
		s102.715-66.289,174.56-86.018c-12.639-41.488-24.281-69.826-24.281-69.826l-65.275,29.855c0,0,24.793-62.241,47.071-82.482
		C417.295,329.788,397.045,280.203,397.045,280.203z"/>
	<path fill="#2B2C59" d="M424.378,297.402l-11.642-33.4c0,0,41.497-41.488,75.4-50.59c-2.029,11.13-6.589,13.151-6.589,13.151
		s-16.175,14.173-17.198,17.71c-1.006,3.546,4.56,33.903,4.56,33.903l-39.98,12.648L424.378,297.402z"/>
	<path fill="#E51E39" d="M452.715,164.331l50.087,27.826l-20.154,23.054l-0.441,11.043l27.941-6.72l-0.873,54.144l28.805-56.305
		l34.441,37.678l-19.068-51.534L636.818,155l-76.653,20.144l25.992-48.94c0,0-48.508,37.025-47.424,36.813
		c1.076-0.22,12.771-71.457,12.771-71.457l-27.279,60.415l-24.695-36.381l13,56.516L452.715,164.331z"/>
	<path fill="#2B2C59" d="M468.026,422.774c1.658-0.415,86.001-38.446,140.586-54.171c-20.682,36.39-64.922,136.864-52.512,215.844
		c12.815-50.448,52.512-126.941,63.669-141c-18.195,54.991,0,123.635,2.072,131.898c6.615-60.37,39.266-171.181,78.134-233.616
		c23.161-5.371,74.015-18.186,74.015-18.186S656.574,514.569,628.457,632.4c-20.268,2.902-28.117,4.136-28.117,4.136
		s-10.76-39.688-8.687-62.011c-16.537,22.323-19.845,70.698-19.845,70.698l-22.323,5.786L468.026,422.774z"/>
	<g>
		<path fill="#2B2C59" d="M698.749,309.22l-66.007,17.375l-1.623,11.121c0,0-4.163,0.459-3.934-7.417c-2.328,0.468-4.638,0-4.638,0
			s-1.852,14.13,4.868,19.915c0.459,6.959,0.459,10.892,0.459,10.892s18.063-5.565,24.325-12.506
			c12.506-0.927,25.471-3.705,27.79-4.172c2.311-0.468,3.007-6.483,5.098-7.18c2.081-0.696,14.817-3.942,14.817-3.942
			L698.749,309.22z M677.441,329.374c-1.852,0.687-21.758-1.852-21.538-1.852c1.623,0,23.849-6.483,23.849-6.483
			S679.293,328.677,677.441,329.374z"/>
		<path fill="#2B2C59" d="M648.724,358.099c0,0-1.614,3.237,0.697,8.106c6.015-7.179,25.938-14.835,24.783-15.064
			C673.049,350.911,648.724,358.099,648.724,358.099z"/>
	</g>
	<path fill="#E51E39" d="M623.023,316.867c0,0,49.117-80.153,149.388-126.465l29.281,56.507c0,0-28.937-21.502-36.936-24.254
		c-20.955,20.946-53.474,58.439-61.474,78.83C674.354,307.007,623.023,316.867,623.023,316.867z"/>
	<path fill="#2B2C59" d="M669.935,275.573c1.367,0.283,11.289,6.351,11.289,6.351l-2.478,12.4l11.581-7.999l11.854,5.795
		l-4.957-12.401l8.811-8.828l-14.332,1.103c0,0-5.513-12.401-5.513-11.572c0,0.82-3.58,12.947-3.58,12.947L669.935,275.573z"/>
	<path fill="#E51E39" d="M728.912,443.165c-2.275,0.511,52.935-104.743,70.576-125.143c20.408-5.503,189.649-40.235,203.435-40.235
		L902.025,411.75C902.025,411.75,771.917,433.799,728.912,443.165z"/>
	<path fill="#E51E39" d="M696.95,503.818l157.669-33.083l-239.26,313.699C615.359,784.434,614.257,665.35,696.95,503.818z"/>
	<path fill="#E51E39" d="M491.857,544.063l39.15,111.357c0,0-185.787,53.483-265.173,106.401C186.449,814.747,50,930.514,50,930.514
		s55.405-135.611,178.616-238.987C351.836,588.161,491.857,544.063,491.857,544.063z"/>
	<path fill="#2B2C59" d="M284.85,774.22l60.37-30.596c0,0,32.246,36.39,58.722,42.176c-57.064-2.479-98.41,17.365-98.41,17.365
		L284.85,774.22z"/>
	<path fill="#2B2C59" d="M270.995,783.852l-29.952,20.629l40.597,39.274c0,0-2.337-27.287,10.31-33.62
		C279.973,795.168,270.995,783.852,270.995,783.852z"/>
	<path fill="#2B2C59" d="M301.607,821.45c0,0-12.312,15.311-2.672,34.273c21.636,17.64,82.518,42.256,105.139,46.912
		C369.81,884.334,327.546,853.069,301.607,821.45z"/>
	<path fill="#2B2C59" d="M315.234,813.468c0,0,52.909-26.617,145.41,0c52.239,17.296,78.513,28.611,162.026,28.611
		c0,0,89.838-1.323,144.414-30.278c-22.641,23.963-74.209,59.894-156.391,86.177c-82.182,26.282-126.104,17.63-172.345,2.663
		C392.106,885.667,336.533,839.751,315.234,813.468z"/>
	<path fill="#2B2C59" d="M988.088,325.73l33.638-42.37c0,0,8.722,2.911,9.56-4.568c0.829-7.479,18.68-24.925,18.68-24.925
		s19.528,11.633,28.674,3.325c9.128-8.308,28.664-26.583,28.664-26.583s-5.398,41.955-31.575,59.392
		C1049.561,307.456,996.801,324.073,988.088,325.73z"/>
	<path fill="#E51E39" d="M1090.979,120.444l3.015,28.267c0,0-28.09,0.881-30.763-11.563
		C1064.131,133.947,1077.819,121.864,1090.979,120.444z"/>
	<path fill="#E51E39" d="M1095.247,118.662c-0.564,0.026,3.899,29.872,4.621,29.687c0.706-0.176,9.588-0.537,17.94-6.755
		c8.369-6.227,13.873-10.31,13.873-10.31S1118.522,117.596,1095.247,118.662z"/>
	<path fill="#E51E39" d="M1059.334,141.064c0,0-9.605,10.477-8.714,29.687c0.176,2.839,3.722,4.612,11.201,3.378
		c7.462-1.244,34.839-4.797,34.839-4.797l-1.058-15.823c0,0-33.251,0.89-35.738-12.797"/>
	<path fill="#E51E39" d="M1101.289,152.794c0.891-0.176,15.998,1.068,32.165-18.309c10.495,9.419,14.411,19.024,15.47,28.443
		c-3.916-1.253-5.328-1.253-9.42-0.714c-4.092,0.538-36.443,6.226-36.443,6.226L1101.289,152.794z"/>
	<path fill="#E51E39" d="M1098.616,187.985c0,0-16.008-0.353-30.049,16.008c-4.621,1.244-7.294-0.891-10.486-6.58
		c-3.202-5.688-7.991-14.578-7.991-19.2c2.831,2.495,7.286,1.958,11.016,0.714c3.731-1.244,35.914-4.622,35.914-4.622
		L1098.616,187.985z"/>
	<path fill="#E51E39" d="M1104.304,173.063l1.421,13.864c0,0,29.334,1.42,34.308,12.797c7.647-7.462,9.772-24.704,9.957-27.2
		c0.185-2.487-2.31-6.218-7.294-5.328C1137.722,168.079,1104.304,173.063,1104.304,173.063z"/>
	<path fill="#E51E39" d="M1068.223,208.438c-0.502-0.502,4.084-0.185,6.756-2.672c2.663-2.478,15.099-14.578,26.829-13.688
		c2.31,18.133,3.563,28.091,3.563,28.091S1082.617,222.832,1068.223,208.438z"/>
	<path fill="#E51E39" d="M1107.145,191.196c0,0,3.74,27.905,3.74,28.443c0,0.529,14.217-3.74,19.377-8.537
		c5.151-4.798,7.999-10.487,2.31-13.865S1114.438,190.657,1107.145,191.196z"/>
</g>
</svg>
