<?xml version="1.0" encoding="utf-8"?>
<!-- Designed by Vexels.com - 2016 All Rights Reserved - https://vexels.com/terms-and-conditions/  -->

<svg version="1.1" id="Layer_1" xmlns="http://www.w3.org/2000/svg" xmlns:xlink="http://www.w3.org/1999/xlink" x="0px" y="0px"
	 width="1200px" height="1200px" viewBox="0 0 1200 1200" enable-background="new 0 0 1200 1200" xml:space="preserve">
<g>
	<path fill="#E61D48" d="M71.389,435.538l132.819-0.899l35.655-90.916h93.596l1.781,12.468h28.529l105.182-96.26l-16.046,96.26
		h139.952v6.257c0,0,19.616-5.359,50.817-5.359c31.194,0,255.828,0,255.828,0s25.85,0.883,40.115,17.827
		c16.038-11.585,59.723-34.756,102.509-9.804c9.805-5.344,9.805-5.344,9.805-5.344h63.293l-33.881,150.639
		c0,0,42.794,68.644,4.461,115c24.069,15.148,65.082,67.731,64.183,134.594c-0.898,66.848-57.942,151.537-157.779,148.858
		c0,0-71.308,7.14-127.469-64.169c-33.873-14.264-178.285-57.942-288.818-16.061c-111.423,39.232-192.542,24.084-204.128,12.484
		c-0.89,9.819-0.89,9.819-0.89,9.819l-225.525,89.136c0,0-16.937-110.54,62.395-235.329c-7.125-15.164-8.023-46.357-8.023-46.357
		L50,709.185l107.86-135.492l17.819-50.802L71.389,435.538z"/>
	<path fill="#1A1514" d="M93.562,443.042h116.584l37.451-95.209h79.148v14.98h39.582l91.974-84.507l-14.973,86.638h121.942
		l-10.702,17.111c0,0,25.667-19.242,116.591-19.242c90.924,0,221.414,0,221.414,0s24.602-3.228,47.064,20.324
		c0,0,56.693-41.713,102.684-8.556c9.629-6.424,9.629-6.424,9.629-6.424h50.269l-31.018,142.267c0,0,46.007,70.592-1.066,117.664
		c55.62,38.501,90.917,108.028,59.905,180.751c-31.026,72.74-149.755,151.903-257.784,27.814
		c-80.23-29.945-197.886-53.466-290.942-19.243c-93.063,34.224-183.987,28.88-218.218,9.622
		c-1.058,16.046-1.058,16.046-1.058,16.046s-208.589,87.705-208.589,84.492c0-3.197-4.278-122.993,65.249-222.48
		c-11.767-19.243-8.555-62.037-8.555-62.037l-128.618,43.25l87.97-110.646l18.185-54.546L93.562,443.042z"/>
	<g>
		<g>
			<g>
				<path fill="#B98D3D" d="M1069.422,806.282c0,0,14.637,31.224-21.702,54.242c-26.626,17.645-87.247,13.245-110.928-6.333
					C960.678,859.261,1032.595,856.201,1069.422,806.282z"/>
			</g>
			<g>
				<path fill="#B98D3D" d="M1074.476,799.522l13.839-19.395c0,0,10.17,19.091,9.606,30.478
					c-7.924,15.604-24.434,33.066-24.434,33.066S1084.219,820.866,1074.476,799.522z"/>
			</g>
			<g>
				<path fill="#B98D3D" d="M1070.19,793.768c0,0-10.603-16.822-54.28-14.203c-43.678,2.618-111.301-1.949-135.202-20.4
					c-4.141-22.379,9.149-60.88,23.992-74.688c30.219-0.99,130.3,10.55,180.098,90.748
					C1078.936,784.893,1070.19,793.768,1070.19,793.768z"/>
			</g>
			<g>
				<path fill="#B98D3D" d="M1088.71,768.237l7.536-20.841c0,0-7.97-7.383-16.008-26.535c-8.046-19.151-30.889-66.254-65.728-77.885
					c-34.832-11.631-84.089,5.405-105.881,34.528c21.221-0.609,89.333,7.566,130.232,38.897
					C1063.111,734.228,1088.71,768.237,1088.71,768.237z"/>
			</g>
			<g>
				<path fill="#B98D3D" d="M1065.631,800.39c0,0-15.132-17.69-55.278-13.93c-40.13,3.776-99.99,0.244-128.352-16.959
					c1.507,12.97,8.723,55.886,43.509,75.007C959.171,850.065,1022.996,852.486,1065.631,800.39z"/>
			</g>
			<g>
				<path fill="#B98D3D" d="M1103.432,797.818c0,0,8.389-21.618,7.809-33.234c-7.962-7.384-11.341-11.799-11.341-11.799
					l-6.836,23.323C1093.064,776.108,1100.159,788.044,1103.432,797.818z"/>
			</g>
			<g>
				<path fill="#B98D3D" d="M1113.822,754.764c0,0-8.046-2.009-11.776-9.53c2.916-16.335,4.667-25.378,4.667-25.378
					S1114.271,739.13,1113.822,754.764z"/>
			</g>
			<g>
				<path fill="#B98D3D" d="M1096.718,737.638c0,0,4.049-19.868,4.156-25.241c0.099-5.389-11.038-45.063-65.128-66.269
					c16.632,9.759,30.341,30.006,38.401,45.397C1082.331,707.145,1089.67,731.579,1096.718,737.638z"/>
			</g>
		</g>
	</g>
	<path fill="#E61D48" d="M152.524,635.136c2.527-0.837,157.551-69.086,157.551-69.086l47.17,40.449l56.458-146.589h-24.434
		l25.272-110.373L309.223,460.733H162.633l84.248,68.248L152.524,635.136z"/>
	<polygon fill="#D2C4D4" points="215.718,587.12 266.261,528.143 207.284,477.585 317.656,475.91 385.052,401.771 369.889,475.91 
		395.161,475.91 338.711,567.741 315.129,545.833 	"/>
	<path fill="#1A1514" d="M246.882,528.981l19.38-0.837c0,0,26.093-56.602,60.225-83.137c-14.325-1.69-46.736-1.112-46.736-1.112
		l-48.877,57.287L246.882,528.981z"/>
	<path fill="#FFFFFF" d="M518.168,390.81l4.218,8.434c0,0-91.83,100.248-169.335,326.885c-28.651-1.705-26.961-10.124-26.961-10.124
		s7.581-42.961,7.581-45.489c0-2.527,144.078-266.218,144.078-266.218L518.168,390.81z"/>
	<path fill="#FFFFFF" d="M291.548,378.174c0.099,0.015,14.607,0.015,14.607,0.015l3.281,12.316l-13.138,4.659L291.548,378.174z"/>
	<polygon fill="#E61D48" points="396.303,643.677 409.228,611.585 427.496,669.527 	"/>
	<path fill="#FFFFFF" d="M547.406,513.498c0,0-28.4,33.203-41.249,100.721c-9.652,49.279,0,71.795,0,71.795l-24.114-5.891
		c0,0-12.324-59.48-11.791-64.838c0.532-5.359,38.585-82.513,39.65-84.111c1.066-1.613,16.076-19.288,16.076-19.288l20.887-4.826
		L547.406,513.498z"/>
	<path fill="#FFFFFF" d="M628.519,391.86c1.408-0.532,15.337,0,15.337,0l-5.359,20.37c0,0-64.83,6.957-95.909,85.192
		c26.794-7.505,55.719-6.44,66.444,38.029c10.718,44.484-4.285,116.797-69.108,153.227c-26.261,13.412-58.398,14.478-64.298,9.652
		c39.65-13.397,48.754-17.142,48.754-17.142s50.361-91.617,50.361-94.296c0-2.679-4.826-79.834-6.425-80.914
		c-1.606-1.066-47.681,5.359-47.681,5.359s4.278-28.393,4.278-31.072c0-2.679,34.832-55.186,36.43-55.186
		c1.613,0,49.294-25.714,49.294-25.714L628.519,391.86z"/>
	<polygon fill="#FFFFFF" points="777.802,391.86 789.593,391.876 778.884,454.004 747.804,451.34 757.989,397.752 	"/>
	<polygon fill="#FFFFFF" points="705.482,406.323 690.479,490.45 731.195,457.764 739.233,457.764 725.836,531.706 716.184,531.706 
		697.977,497.422 666.905,486.704 687.799,402.045 	"/>
	<polygon fill="#FFFFFF" points="687.267,501.167 671.731,605.1 651.369,609.926 673.33,501.167 682.982,495.808 	"/>
	<path fill="#FFFFFF" d="M753.163,537.597c1.073,0.016,9.644,5.892,9.644,5.892l-9.104,54.105l-16.084,0.548L753.163,537.597z"/>
	<path fill="#FFFFFF" d="M849.073,405.257c0,3.745-11.784,77.687-11.784,77.687l-20.369,1.613l17.15-78.768L849.073,405.257z"/>
	<path fill="#FFFFFF" d="M832.464,501.7l-9.652,60.545l-1.065,14.463l-15.003-0.533c0,0-2.147-13.396-2.679-18.223
		c-0.533-4.826,14.47-56.252,14.47-57.865C818.534,498.487,832.464,501.7,832.464,501.7z"/>
	<polygon fill="#FFFFFF" points="829.784,576.707 838.888,577.789 838.888,598.143 829.251,597.077 	"/>
	<path fill="#FFFFFF" d="M891.943,392.408c1.598,0,54.12-0.532,48.213,48.747c-3.212,29.473-25.721,50.375-59.464,53.572
		c19.288,7.505,22.494,21.435,21.96,33.766c-0.525,12.316-7.498,55.186,21.975,61.611c1.599,12.332,0,20.355,0,20.355l-15.018-1.066
		l-39.102-64.29l-8.571-50.376l16.609-14.447l38.577-66.452L891.943,392.408z"/>
	<polygon fill="#FFFFFF" points="936.944,616.365 949.808,614.751 952.487,595.463 942.836,594.93 	"/>
	<path fill="#FFFFFF" d="M950.342,544.555c1.613,0.015,11.791,3.227,11.791,3.227s12.856,55.186,38.569,57.318
		c25.713,2.146,10.184,9.651,6.972,9.651c-3.22,0-41.264-14.462-41.264-14.462l-23.574-42.338L950.342,544.555z"/>
	<path fill="#FFFFFF" d="M1006.608,408.484c0,0-23.049,15.528-7.505,35.35c15.536,19.822,56.785,68.051,65.364,87.871
		c8.578,19.822,16.068,65.889-10.177,86.258c-14.463,10.185-34.299,10.718-36.438,8.039c-2.139-2.68,24.639-40.176,24.639-40.176
		s-20.354-78.768-26.778-81.447c-6.432-2.68-42.87-73.409-42.87-73.409l14.478-26.778l11.783-4.826L1006.608,408.484z"/>
	<path fill="#FFFFFF" d="M1008.207,387.582c0,0,26.261,2.68,45.549,12.316c-2.679,11.799-7.505,12.864-7.505,12.864l-32.145-18.223
		L1008.207,387.582z"/>
	<polygon fill="#FFFFFF" points="1074.765,396.001 1084.158,398.148 1068.828,456.074 1059.762,454.689 1067.077,412.047 	"/>
	<polygon fill="#FFFFFF" points="193.804,876.083 208.517,881.472 347.221,828.128 337.874,823.013 	"/>
	<path fill="#BF9341" d="M238.455,734.548c0,0-43.806,61.504-44.651,141.535c39.597-14.311,144.07-53.07,144.07-53.07
		S257.827,782.578,238.455,734.548z"/>
	<path fill="#FFFFFF" d="M220.788,512.981l5.876,8.419h32.86c0,0,21.062-68.233,64.869-76.667
		c5.899-5.054,10.124-10.108,10.124-10.108l-5.915-8.419l-72.45,38.744L220.788,512.981z"/>
	<g>
		<path fill="#BF9341" d="M250.268,512.981c0,0,13.481-62.341,84.248-78.357c21.907-21.055,42.124-44.652,42.124-44.652h-69.086
			c0,0-15.155,0.838-16.008-11.798c-22.744,0-22.744,0-22.744,0l-48.016,134.806H250.268z"/>
		<path fill="#BF9341" d="M405.567,390.84l-7.59,30.341l32.579,0.807c0,0-117.954,172.714-155.016,235.892
			c30.326,39.597,69.931,57.303,69.931,57.303s76.667-220.745,172.698-324.373C498.804,392.5,405.567,390.84,405.567,390.84z"/>
		<path fill="#BF9341" d="M625.847,407.906c0,0,2.672-13.382,2.672-16.046c0,0-24.96-8.921-78.441,16.046
			c-67.754,38.318-108.759,133.71-113.219,162.225c-4.461,28.53-14.249,129.265,49.927,129.265
			c64.184,0,108.751-61.519,114.095-123.023c7.132-91.815-49.021-78.448-74.871-69.527
			C550.969,425.718,625.847,407.906,625.847,407.906z M556.518,539.211c-2.68,36.431-13.397,101.786-33.759,129.661
			c-20.362,27.859-31.079,9.636-32.678-12.864c1.599-87.339,35.898-130.727,35.898-130.727
			C541.507,501.7,557.583,518.857,556.518,539.211z"/>
		<path fill="#BF9341" d="M641.717,391.86l-3.22,18.756c0,0,13.938-9.652,9.652,11.783c-4.293,21.435-32.685,186.978-32.685,188.592
			c0,1.613-6.432,14.995-18.756,20.354c-0.532,15.011,0,23.582,0,23.582s82.513-41.256,140.911-56.784
			c11.784-46.615,15.544-60.545,15.544-60.545l-17.691,2.147c0,0-18.747,47.681-73.394,64.823
			c6.425-43.936,14.996-103.933,14.996-103.933s28.392-2.679,24.114,31.071c14.995,0,14.995,0,14.995,0l15.011-73.942h-15.543
			c0,0-5.359,30.539-35.358,28.94c5.892-45.017,12.857-77.702,12.857-77.702s46.082-10.718,50.9,19.836
			c3.212,20.354,3.753,22.501,3.753,22.501l18.748-1.613l11.25-57.866H641.717z"/>
		<path fill="#BF9341" d="M929.972,436.862c0-34.817-12.332-46.6-70.189-45.534c-57.858,1.08-72.861,0-72.861,0l-2.679,19.288
			c0,0,16.609-13.93,12.323,13.93c-4.293,27.859-24.647,143.591-24.647,143.591s-1.073,7.505-6.424,8.038
			c-5.367,0.533-11.791,0.533-11.791,0.533l-2.672,19.288l78.22,1.081l0.533-20.37c0,0-18.74,4.826-16.076-12.849
			c2.679-17.69,9.644-61.625,9.644-61.625s24.647,2.679,25.721,22.501c1.065,19.822-6.44,78.768,60.537,84.659
			c1.073-17.142,3.22-22.501,1.606-21.435c-1.606,1.066-19.289-1.598-18.207-26.794c1.073-25.18,1.599-58.398-23.049-66.969
			C895.681,489.384,929.972,471.694,929.972,436.862z M876.932,448.112c-7.505,39.658-50.893,33.234-50.893,33.234l11.783-70.197
			C854.432,405.79,884.438,408.484,876.932,448.112z"/>
		<path fill="#BF9341" d="M924.628,610.459c1.599,0,7.491-64.823,7.491-64.823l18.223-1.081c0,0,8.571,65.371,43.936,60.545
			c35.365-4.826,22.493-46.615,2.679-69.649c-19.821-23.034-60.545-61.611-55.719-99.654c4.826-38.045,58.924-70.182,104.473-30.007
			c4.286-0.532,10.184-8.038,9.644-9.103c-0.532-1.081,19.288-0.533,19.288-0.533l-13.93,58.932l-22.501-1.081
			c0,0-2.147-47.681-26.254-45.534c-24.106,2.147-33.758,24.647-18.747,41.789c14.995,17.142,62.676,77.687,68.035,101.269
			c5.359,23.582-6.957,76.088-43.395,74.475c-36.438-1.599-53.047-3.745-68.576-24.647c-7.505,5.359-12.331,15.011-12.331,15.011
			L924.628,610.459z"/>
	</g>
	<path fill="#E61D48" d="M489.898,462.27h61.063l-82.46,32.975C468.501,495.245,477.863,478.316,489.898,462.27z"/>
	<g>
		<path fill="#0062A9" d="M334.349,510.408c0,0-73.538,52.142-64.176,117.665c10.025,57.501,70.197,92.926,122.338,98.954
			c44.796,5.344,98.468-3.653,139.062-24.738c51.479-26.748,164.47-96.275,274.773-91.601
			c101.619,6.698,129.029,20.734,129.029,20.734s-45.458,28.742-59.494,66.848c-14.043,38.105-17.385,76.225,0.663,116.325
			c-45.466-14.691-172.485-59.494-306.858-9.347c-105.638,36.096-172.493,30.082-233.334-6.699
			c-60.834-36.765-111.644-87.567-106.963-156.439c4.864-71.521,86.836-126.86,96.937-132.371
			C333.687,505.734,334.349,510.408,334.349,510.408z"/>
		<path fill="#BFCDD2" d="M263.627,582.081c0,0-26.87,33.919-19.532,86.775c6.684,48.138,79.438,144.276,206.724,143.195
			c0,0,45.664-1.355,105.242-26.002c59.57-24.632,175.134-35.821,249.487-20.156c0,0,42.992,8.51,60.453,15.224l-2.238-21.055
			c0,0-132.294-39.719-275.367,3.06c0.669-3.334-4.004-4.689,18.726-14.036c22.729-9.363,132.371-44.134,258.058-13.382
			c2.009-11.357,2.009-17.37,2.009-17.37s-126.358-41.455-259.398,16.701c-46.806,22.729-108.309,44.803-120.344,46.813
			c-12.034,2.01-14.036-2.009-0.67-9.362c13.374-7.353,108.972-52.142,144.412-67.533c35.426-15.376,151.096-36.096,244.692-6.683
			c5.344-11.357,8.023-16.715,8.023-16.715s-101.619-36.765-212.6-4.004c-52.157,15.376-86.242,40.115-100.956,46.798
			c-14.714,6.683-29.42,12.027-29.42,12.027s-14.707,2.009,2.01-8.023c16.715-10.018,95.605-59.495,154.438-74.201
			c58.832-14.706,145.075-6.683,200.565,10.687c9.355-11.357,12.697-16.046,12.697-16.046s-110.311-38.105-220.615-2.664
			c-61.512,22.059-123.016,63.514-171.153,78.89c-48.138,15.376-129.029,40.115-201.898-8.693
			C286.882,696.26,239.414,664.838,263.627,582.081z"/>
	</g>
</g>
</svg>
