<?xml version="1.0" encoding="utf-8"?>
<!-- Designed by Vexels.com - 2016 All Rights Reserved - https://vexels.com/terms-and-conditions/  -->

<svg version="1.1" id="Layer_1" xmlns="http://www.w3.org/2000/svg" xmlns:xlink="http://www.w3.org/1999/xlink" x="0px" y="0px"
	 width="1200px" height="1200px" viewBox="0 0 1200 1200" enable-background="new 0 0 1200 1200" xml:space="preserve">
<g>
	<path fill="#262527" d="M181.585,302.618c0,0-8.818,94.349,6.279,133.361c15.098,38.99,45.292,85.531,139.641,79.251
		c94.359-6.301,343.456-18.882,505.742-7.57c83.026,3.785,167.32,0,186.181-71.681c10.065-37.765,16.345-118.263,6.29-145.942
		c30.195,51.573,70.456,118.263,62.917,210.096c-7.56,91.832-114.479,140.909-194.999,147.189
		c70.434,10.065,142.147,38.99,142.147,38.99s-47.808,91.832-172.352,39.012c-27.668,71.703-108.188,227.709-115.736,240.27
		c-7.549,12.581-3.785,26.41,5.032,36.496c8.807,10.065,10.065,18.861,6.302,27.678c-3.786,8.796-16.367,62.885-32.722,83.015
		c0,0-12.423,41.614-115.778,36.834c-84.273,0-116.869-19.073-127.208-37.362c-10.329-18.291-25.438-58.825-28.609-89.041
		c0-15.901,12.708-30.216,19.072-33.388c-0.792-11.926-16.683-36.56-19.876-42.925c-3.172-6.365-85.848-157.423-99.37-217.052
		c-28.62,11.143-139.916,34.191-177.289-30.195c1.596-8.753,1.596-8.753,1.596-8.753s90.627-34.171,149.463-41.339
		c-49.288-4.779-221.81-10.34-202.737-192.376C135.119,377.682,177.155,310.23,181.585,302.618z"/>
	<path fill="#E51A38" d="M171.688,330.783c0,0-34.191,77.898-37.363,107.31c10.34-12.729,23.048-23.851,23.048-23.851l19.083,19.072
		C176.456,433.315,167.713,375.293,171.688,330.783z"/>
	<path fill="#FFFFFF" d="M134.325,448.433c0,0-14.314,70.75,16.694,116.064c31.009,45.313,103.346,81.894,214.653,76.312
		c1.586-24.634,19.876-109.699,26.23-120.822c-35.766,3.172-92.223,13.512-143.098-6.364c-44.53-17.488-65.189-68.384-65.189-68.384
		l-26.242-17.486L134.325,448.433z"/>
	<path fill="#E51A38" d="M404.62,519.987c0,0-26.23,81.873-27.827,130.38c-38.156,2.389-134.354,19.877-189.204,46.899
		c11.122,18.291,62.007,58.825,170.924,25.438c11.926,36.581,22.255,79.504,53.265,83.48c18.279,1.586,32.594-15.119,32.594-15.119
		s-63.604-2.368-66.776-65.168c-9.536-9.537-19.876-11.926-19.876-11.926s-9.537-26.24,22.265-32.605
		c31.792-6.365,59.619,23.851,70.751,39.753c11.122,15.9,39.753,48.506,79.504,46.899c39.742-1.586,73.923-38.167,70.751-64.387
		c-19.876,0-97.795-4.779-114.478-11.143c0.782-6.343,0.782-6.343,0.782-6.343s73.944,11.926,112.893,7.147
		c-0.783-11.926-1.586-26.242-1.586-26.242s-78.701-1.586-110.503-9.536c-0.804-6.365-0.804-6.365-0.804-6.365
		s94.613,8.754,111.307,7.168c0.803-20.68-1.586-31.802-1.586-31.802s-83.48-1.586-108.917-8.754
		c-0.804-7.951-0.804-7.951-0.804-7.951s98.589,9.557,109.721,7.168c0.794-11.122,0-27.044,0-27.044l11.926-0.803l2.379,27.044
		c0,0,67.579-0.783,112.892-12.729c-2.379,9.557-2.379,9.557-2.379,9.557s-73.944,10.34-107.332,14.295
		c-0.792,17.486,0,31.019,0,31.019s67.579,0.783,109.71-11.143c-1.596,10.34-1.596,10.34-1.596,10.34s-73.933,12.729-108.115,11.925
		c0,11.926,0,23.852,0,23.852s69.959-0.804,114.479-10.34c-0.804,8.754-0.804,8.754-0.804,8.754s-82.676,11.925-112.089,12.708
		c2.389,21.483,11.926,58.846,57.239,59.628c45.314,0.803,76.333-37.363,89.845-50.874c13.511-13.512,46.096-36.56,69.164-34.974
		c23.048,1.586,31.792,34.191,6.365,42.121c-3.193,19.876-18.29,72.357-70.761,71.553c-3.182,3.975,60.422,35.777,91.419-71.553
		c6.365-0.783,18.291,3.974,23.059,4.779c4.768,0.803,102.553,18.29,136.734-32.606c-29.413-15.097-114.478-45.313-186.022-40.534
		c-4.768-34.974-18.28-123.232-29.423-135.158C777.489,514.405,501.612,502.5,404.62,519.987z"/>
	<path fill="#FFFFFF" d="M815.635,515.208c3.193,1.586,26.24,96.992,27.827,124.818c52.481-1.585,139.926-18.29,174.91-46.116
		c34.974-27.827,77.116-79.505,57.239-151.841c-9.547-9.537-21.462-16.705-21.462-16.705l-23.851,15.119
		c0,0-22.265,74.725-109.721,76.311C866.52,517.598,815.635,515.208,815.635,515.208z"/>
	<path fill="#E51A38" d="M1032.686,426.167c0,0,23.831-18.269,22.245-15.9c-1.586,2.389,19.876,19.072,19.876,19.072
		s-19.073-78.701-33.388-97.774C1042.212,362.564,1039.029,413.46,1032.686,426.167z"/>
	<path fill="#FFFFFF" d="M813.255,724.289c0,2.389,1.597,44.531-42.131,49.289c-6.364,4.779-3.182,6.365,3.172,6.365
		c6.365,0,52.471-5.561,48.496-56.436C821.206,721.118,813.255,724.289,813.255,724.289z"/>
	<path fill="#FFFFFF" d="M396.67,724.289c0,2.389-0.794,40.556,42.934,45.335c6.354,4.758,2.379,10.32-3.975,10.32
		s-52.471-5.561-48.496-56.436C388.72,721.118,396.67,724.289,396.67,724.289z"/>
	<path fill="#E51A38" d="M392.695,810.159c0,0,36.581,11.925,59.628-8.734C454.713,813.351,425.3,868.201,392.695,810.159z"/>
	<path fill="#E51A38" d="M408.595,842.742c0,0,43.728,14.315,51.679-26.219c18.29,27.023,34.191,115.261,19.876,157.402
		C462.663,941.32,408.595,842.742,408.595,842.742z"/>
	<g>
		<path fill="#E51A38" d="M818.436,810.032c0,0-36.274,11.904-59.841-8.585C756.503,813.287,787.279,867.736,818.436,810.032z"/>
		<path fill="#E51A38" d="M803.349,842.425c0,0-43.378,14.295-52.334-25.966c-17.613,26.875-31.336,114.563-15.985,156.409
			C751.714,940.453,803.349,842.425,803.349,842.425z"/>
	</g>
	<path fill="#E51A38" d="M478.564,797.429c0,0,37.363,121.646,6.354,186.033c32.595-19.072,150.266-49.288,243.261,6.365
		c-6.343-18.291-15.89-127.99,2.4-193.983c-25.448,14.315-94.612,23.851-120.049-20.679c-7.951,0.803-7.951,0.803-7.951,0.803
		S566.802,827.645,478.564,797.429z"/>
	<path fill="#E51A38" d="M476.967,999.362c0,0,56.447-33.387,128.001-32.584c71.544,0.782,129.575,37.362,139.915,44.51
		c10.34,7.168,3.975,24.654,0.794,34.995c-3.183,10.319-27.034,81.873-61.214,88.238c-34.181,6.365-128.783,13.512-173.314-7.951
		c-20.658-13.533-34.974-41.338-39.742-60.41C466.638,1047.066,456.299,1012.874,476.967,999.362z"/>
	<path fill="#262527" d="M574.752,1066.16c0,0,16.704-62.822-46.107-56.457c-33.399,3.172-32.595,38.949-16.694,49.289
		c15.9,10.339,34.18,7.168,42.142-0.804C562.043,1050.238,573.166,1051.041,574.752,1066.16z"/>
	<path fill="#262527" d="M634.507,1066.16c0,0-16.705-62.822,46.107-56.457c33.388,3.172,32.594,38.949,16.694,49.289
		c-15.901,10.339-34.18,7.168-42.142-0.804C647.215,1050.238,636.093,1051.041,634.507,1066.16z"/>
	<path fill="#262527" d="M507.173,1113.037c0,0,28.63-18.269,97.795-19.854c69.165-1.586,101.76,22.265,101.76,22.265
		s-3.975,1.586-10.329,0c-6.365-1.586-34.191-15.119-93.027-15.119c-54.945,0-83.469,16.705-83.469,16.705
		S505.587,1117.034,507.173,1113.037z"/>
	<path fill="#262527" d="M510.366,819.694c0.783,2.389,11.915,102.553,93.799,101.77c81.893-0.803,104.16-100.184,104.16-100.184
		l7.146-0.782c0,0-16.705,110.503-111.306,108.917c-94.602-1.607-102.553-108.917-102.553-108.917L510.366,819.694z"/>
	<g>
		<g>
			<path fill="#262527" d="M207.528,157.713c-0.084,0.296-8.606,28.481-25.754,28.481c-13.85,0-20.51-12.581-21.567-40.809
				c-0.994-25.776,1.987-56.732,21.715-57.725l1.1-0.043c20.584,0,28.873,30.576,28.969,30.894l0.549,2.135h21.738V51.164h-21.219
				l-0.666,1.944c-2.961,8.649-6.936,8.649-8.247,8.649c-2.643,0-6.068-1.523-9.875-4.377c-9.705-7.274-25.373-7.38-26.072-7.38l0,0
				h-0.888c-31.21,0-53.39,30.238-56.499,77.031c-1.269,19.03-0.339,54.364,20.182,77.052c10.9,12.052,25.659,18.459,43.865,19.072
				c0.708,0.021,1.416,0.021,2.093,0.021c51.235,0,59.238-63.773,59.311-64.428l0.37-3.214l-28.492,0.105L207.528,157.713z"/>
			<path fill="#262527" d="M632.953,158.749l0.37-3.214l-28.503,0.105l-0.613,2.073c-0.084,0.296-8.596,28.481-25.754,28.481
				c-13.85,0-20.5-12.581-21.568-40.809c-0.973-25.776,2.008-56.732,21.715-57.725l1.111-0.043
				c20.584,0,28.873,30.576,28.958,30.894l0.55,2.135h21.737V51.164h-21.219l-0.666,1.944c-2.96,8.649-6.935,8.649-8.246,8.649
				c-2.686,0-6.005-1.48-9.875-4.377c-9.695-7.274-25.374-7.38-26.072-7.38l0,0h-0.889c-31.21,0-53.39,30.238-56.499,77.031
				c-1.269,19.03-0.339,54.364,20.193,77.052c10.89,12.052,25.649,18.459,43.866,19.072c0.708,0.021,1.406,0.021,2.093,0.021
				C624.886,223.177,632.879,159.404,632.953,158.749z"/>
			<path fill="#262527" d="M859.954,223.156c64.535,0,63.943-63.688,63.943-64.069c1.216-10.995-0.022-20.701-0.064-21.102
				l-0.328-2.516l-54.564-0.359v26.283h19.284c-0.116,4.377-1.078,13.194-6.491,19.03c-3.552,3.827-8.584,5.773-14.97,5.773
				c-13.85,0-20.49-12.581-21.557-40.809c-0.972-25.776,2.527-56.732,22.234-57.725l1.111-0.043
				c20.574,0,28.863,30.576,28.958,30.894l0.55,2.135h21.737V51.164h-21.23l-0.655,1.944c-2.961,8.649-6.946,8.649-8.257,8.649
				c-2.633,0-6.058-1.523-9.864-4.377c-9.706-7.274-25.903-7.38-26.579-7.38h-0.011h-0.878c-31.23,0-53.412,30.238-56.52,77.031
				c-2.219,33.366,5.393,62.018,20.891,78.574C827.581,217.257,842.15,223.156,859.954,223.156z"/>
			<polygon fill="#262527" points="495.163,190.72 484.949,190.72 484.949,83.008 495.163,83.008 495.163,51.142 425.279,51.142 
				425.279,83.008 436.062,83.008 436.062,190.72 425.279,190.72 425.279,222.584 495.163,222.584 			"/>
			<polygon fill="#262527" points="315.199,190.72 304.996,190.72 304.996,148.81 344.062,148.81 344.062,190.72 333.278,190.72 
				333.278,222.584 403.151,222.584 403.151,190.72 392.948,190.72 392.948,83.008 403.151,83.008 403.151,51.142 333.278,51.142 
				333.278,83.008 344.062,83.008 344.062,122.633 304.996,122.633 304.996,83.008 315.199,83.008 315.199,51.142 245.326,51.142 
				245.326,83.008 256.11,83.008 256.11,190.72 245.326,190.72 245.326,222.584 315.199,222.584 			"/>
			<path fill="#262527" d="M684.092,222.014l-1.058-26.833l-2.685-0.084c-7.76-0.254-9.431-2.327-9.77-2.939
				c-0.655-1.311,0.317-3.341,0.709-3.911l7.221-17.805h48.76c0.613,3.447,1.966,10.107,4.377,17.72
				c0.591,1.902,0.507,3.404-0.275,4.566c-1.703,2.559-6.365,3.468-8.015,3.616l-2.727,0.233l0.803,25.268h76.164l-0.804-24.381
				h-2.791c-9.843,0-15.394-10.001-15.436-10.001c-0.349-0.93-25.056-71.111-32.33-92.382c-1.861-5.435-2.125-9.515-0.719-11.461
				c0.803-1.142,2.358-1.713,4.599-1.713c1.85,0,3.394,0.423,3.394,0.423l3.658,0.994v-29.92l-91.483,0.233l-0.317,2.516
				c-0.074,0.634-1.924,15.563-0.75,24.359l0.338,2.495h2.516c5.561,0,9.388,1.247,11.048,3.637
				c2.062,2.939,0.581,7.126,0.519,7.274c-0.254,0.739-25.142,75.888-32.902,91.409c-5.54,11.101-9.631,11.673-10.424,11.715
				l-4.26-1.945l1.152,26.917H684.092z M719.879,145.321h-33.842c4.482-10.467,12.686-29.688,16.958-40.027L719.879,145.321z"/>
			<path fill="#262527" d="M1053.303,75.226c-13.522-13.322-28.683-20.088-45.06-20.088c-23.26,0-40.345,13.66-41.233,14.4
				c-47.047,44.742-31.061,106.253-4.588,135.75c12.242,12.222,28.397,18.966,45.482,18.966c0.022,0,0.022,0,0.022,0
				c18.724,0,36.412-8.014,47.301-21.482C1081.277,169.786,1087.969,111.658,1053.303,75.226z M1021.374,183.234
				c-2.875,6.787-8.141,10.7-14.422,10.7c-7.136,0-13.533-5.033-15.922-12.561c-14.314-45.144-1.818-81.556-1.627-82.084
				c0.147-0.572,4.102-13.745,15.625-13.745c11.799,0,18.544,15.626,18.586,15.733
				C1023.763,101.594,1036.894,135.553,1021.374,183.234z"/>
		</g>
		<g>
			<polygon fill="#262527" points="662.82,382.82 631.674,382.82 631.674,274.538 641.939,274.538 641.939,242.546 571.749,242.546 
				571.749,274.538 582.586,274.538 582.586,382.82 571.749,382.82 571.749,414.813 687.358,414.813 687.358,352.541 
				662.82,352.541 			"/>
			<polygon fill="#262527" points="794.553,382.82 763.407,382.82 763.407,274.538 773.661,274.538 773.661,242.546 703.46,242.546 
				703.46,274.538 714.308,274.538 714.308,382.82 703.46,382.82 703.46,414.813 819.081,414.813 819.081,352.541 794.553,352.541 
							"/>
			<path fill="#262527" d="M383.708,321.056c6.702-4.863,17.655-16.069,17.655-37.109c0-31.167-34.445-39.414-52.672-39.414h-76.755
				v33.388h12.655V382.44h-14.769v28.291h87.391h0.064c0.444-0.042,43.241-2.938,47.047-41.295
				C407.401,338.437,392.25,325.73,383.708,321.056z M330.148,340.002c24.751,0.317,34.91,5.73,34.91,18.418
				c0,17.974-14.241,19.263-14.653,19.305h-19.94C330.085,362.246,329.873,345.818,330.148,340.002z M356.315,301.879
				c-4.049,5.285-12.38,5.349-12.867,5.349l-13.194,0.359v-30.914c11.323,0.212,24.993,1.883,27.383,10.89
				C359.285,293.779,358.842,298.622,356.315,301.879z"/>
			<path fill="#262527" d="M497.827,274.411h14.59v81.512c0,4.631-1.058,27.806-21.674,27.806c-23.006,0-24.687-25.353-24.74-26.283
				v-84.559h13.808v-28.566h-73.182l-0.106,29.327h16.895v75.361c0,11.248,2.98,67.325,61.954,67.325
				c15.774,0,28.461-4.673,37.659-13.913c15.161-15.203,15.859-38.124,15.848-42.67v-85.341h17.646v-30.089h-58.698V274.411z"/>
			<path fill="#262527" d="M929.542,330.424c-6.322-5.286-24.37-17.825-39.33-26.24c-8.711-4.885-15.139-15.838-13.5-22.943
				c1.004-4.377,4.958-6.787,11.787-7.21c21.568-1.227,30.153,23.281,30.227,23.513l0.667,1.945h18.396v-59.544H917.13v2.875
				c0,3.785-0.328,6.47-0.973,7.951c-0.444,1.014-0.888,0.951-1.227,1.014c-2.875,0-9.578-4.25-14.019-7.062
				c-20.679-13.131-64.957-3.341-70.201,37.109c-4.06,31.463,20.966,50.155,43.21,62.905c14.96,8.585,23.534,18.861,22.953,27.51
				c-0.306,4.461-3.214,8.056-8.194,10.064c-2.104,0.847-4.249,1.29-6.354,1.29c-17.191,0-30.174-27.869-30.289-28.144l-0.772-1.692
				h-19.136v59.079h16.705l0.105-2.792c0.17-4.926,2.072-6.914,6.555-6.914c3.68,0,8.712,1.374,15.362,4.186
				c5.782,2.453,13.839,3.849,22.106,3.849c7.697,0,22.118-1.227,32.458-9.748c12.37-12.37,18.311-25.839,17.677-40.048
				C942.387,345.944,933.665,333.849,929.542,330.424z"/>
		</g>
	</g>
</g>
</svg>
