<?xml version="1.0" encoding="utf-8"?>
<!-- Designed by Vexels.com - 2016 All Rights Reserved - https://vexels.com/terms-and-conditions/  -->

<svg version="1.1" id="Layer_1" xmlns="http://www.w3.org/2000/svg" xmlns:xlink="http://www.w3.org/1999/xlink" x="0px" y="0px"
	 width="1200px" height="1200px" viewBox="0 0 1200 1200" enable-background="new 0 0 1200 1200" xml:space="preserve">
<g>
	<path fill="#323358" d="M457.744,93.638c0,0-59.831-82.242-136.107-20.919c-76.276,61.305-22.43,127.121-22.43,127.121
		s-100.216,110.675-40.385,251.258c10.479-11.952,13.462-10.46,20.939,4.493c7.477,14.972,64.306,122.664,128.631,148.077
		c-2.983-16.444,4.484-19.446,17.946-7.477c13.452,11.952,65.807,44.859,98.715,62.815c32.909,17.955,74.785,59.832,77.768,67.308
		c11.97-22.43,29.925-32.909,58.331-49.353c28.414-16.464,112.176-56.83,134.606-94.231c3.002,19.447,3.002,19.447,3.002,19.447
		s107.683-37.402,121.144-161.539c0-11.952,13.453-1.492,13.453,10.46c28.424-41.876,43.386-176.473-26.914-252.75
		c13.461-23.921,37.392-89.738-17.946-127.139c-55.338-37.383-119.654-22.43-136.107,22.43c-31.408-7.477-103.2-5.966-151.06,16.463
		C553.467,86.162,490.652,89.163,457.744,93.638z"/>
	<path fill="#3881B2" d="M650.719,336.543c4.4-2.946,51.422-44.077,80.807-52.895c13.238,22.038-2.927,47.023-38.203,54.368
		c17.638,41.131,33.803,164.578-22.038,236.585c23.511-52.914,41.139-155.778,4.4-235.131
		C669.811,338.016,650.719,336.543,650.719,336.543z"/>
	<path fill="#B1CCDE" d="M603.332,549.785c0,0-9.331-21.031-17.125-35.034c-7.793-14.002-13.239-14.786-19.466-9.341
		c-6.227,5.462-15.569,21.012-18.682,5.462c-3.114-15.568-11.672-45.157,51.376-48.271c1.52,0.205,2.918,0.372,4.241,0.522V346.835
		c0,0-39.666-4.419-55.832-19.11c-16.174-14.693-57.305-45.55-76.416-48.495c0,0,5.874,58.787,58.779,52.895
		c-23.511,45.568-30.858,183.689,5.882,243.93c38.203-10.273,67.587-5.873,67.587-5.873v-20.379L603.332,549.785z"/>
	<path fill="#3881B2" d="M444.981,124.943c0-4.419-66.123-58.787-102.872-35.276c-36.731,23.511-10.274,108.737-10.274,108.737
		s-83.762,116.101-55.841,207.201c11.755-16.146,14.692-22.038,14.692-22.038s44.086,141.067,101.391,167.524
		c0-23.511,1.473-32.33,1.473-32.33s42.623,66.115,89.636,88.153c47.022,22.056,98.454,48.495,121.965,72.006
		c0-39.658-2.946-55.822-2.946-55.822s-27.911,2.927-42.603-2.946c-14.693-5.873-35.267-13.238-48.495-51.422
		c-13.22-38.222-47.023-124.902-26.457-232.185c-17.629-2.946-36.731-20.565-36.731-41.149c0-20.565-8.819-30.858-49.959-27.912
		c26.448-8.819,91.109-13.238,136.658,29.385c26.457,24.983,57.314,22.056,57.314,22.056l10.272-136.667l10.293,139.594
		c0,0,20.565,11.747,48.495-16.165c27.911-27.911,79.352-61.715,148.431-41.15c-20.584-14.692-85.244-27.911-123.448-11.765
		c4.41-45.55,29.385-63.169,51.423-73.461c22.047-10.292,33.803-19.092,42.622-42.622c8.819-23.511,48.495-45.55,77.88-39.677
		c-26.457-14.693-79.333,4.419-94.045,33.803c-23.51-14.692-145.485,1.473-157.232,11.747
		C578.702,119.07,444.981,124.943,444.981,124.943z"/>
	<path fill="#323358" d="M348,185.184c-0.578,4.606,45.55-42.604,74.943-52.895c-32.34-26.438-52.905-26.457-67.596-16.165
		c23.511-2.946,32.32,16.165,32.32,16.165S348,123.47,342.109,148.454c8.828-10.292,26.466-1.473,26.466-1.473
		S349.455,173.439,348,185.184z"/>
	<path fill="#F6A12C" d="M486.122,289.521c0,0,10.301,49.949,48.495,29.403C522.861,304.213,486.122,289.521,486.122,289.521z"/>
	<path fill="#F6A12C" d="M677.157,314.505l39.677-24.984C716.833,289.521,719.76,342.416,677.157,314.505z"/>
	<path fill="#B1CCDE" d="M542.624,598.038c0,0,3.104-10.907,13.229-11.672c10.124-0.783,89.523-1.547,92.627-1.547
		c3.114,0,11.681,4.661,14.012,14.767c-7.001,1.567-14.795,6.227-60.726,7.794C562.864,608.703,542.624,598.038,542.624,598.038z"/>
	<path fill="#3881B2" d="M615.005,461.818c0,0,33.476,2.331,45.148,10.125c11.69,7.774,10.114,25.673,7.784,30.354
		c-2.33,4.68-14.795,10.124-10.898,3.114c3.887-7.011,0.783-17.899-2.331-23.344c-3.113-5.462-34.25-12.454-36.59-13.238
		C615.778,468.046,615.005,461.818,615.005,461.818z"/>
	<g>
		<g>
			<path fill="#323358" d="M282.753,714.344c-47.862,0-126.627,0-126.627,0s16.948,18.962,16.948,36.898
				c0,17.955,0,182.477,0,182.477h34.904V754.225h22.915v180.483h37.895V756.221c0,0,23.93-6.974,23.93,13.965
				c0,20.938,0,164.522,0,164.522h38.893V755.233C331.611,755.233,330.623,714.344,282.753,714.344z"/>
			<path fill="#323358" d="M359.523,800.092c0,21.945,0,135.604,0,135.604h88.749v-39.882h-56.839v-25.916h33.906v-39.881h-30.913
				v-24.929h54.835l0.503-42.379l-105.194,0.503C344.57,763.212,359.523,778.165,359.523,800.092z"/>
			<path fill="#323358" d="M559.946,759.222h-100.71c12.827,4.065,13.22,24.873,13.22,24.873v154.249h34.549
				c0,0,0-124.417,0-127.941c0-3.543-0.401-11.784,8.241-11.784c8.633,0,9.024,9.807,9.024,9.807V939.91h39.639V811.95
				c0,0,0-11.373,7.859-11.373c7.849,0,8.12,15.475,8.12,15.475v122.645h37.886c0,0,0-84.759,0-132.621
				C617.773,758.216,559.946,759.222,559.946,759.222z"/>
			<path fill="#323358" d="M694.925,761.516h-71.922c15.838,5.556,15.409,29.104,15.409,29.104v149.401h35.966v-73.629
				c45.382,0,62.498-13.704,62.926-58.228C737.734,763.66,694.925,761.516,694.925,761.516z M672.235,835.145V798.32
				c5.556,0,31.677-2.554,31.677,17.545C703.912,838.985,672.235,835.145,672.235,835.145z"/>
			<path fill="#323358" d="M811.791,834.286h-25.254v-72.361h-50.071c9.845,4.289,9.407,24.854,9.407,24.854v152.813h41.53v-70.198
				h24.816v70.198h38.959V761.925h-39.388V834.286z"/>
			<path fill="#323358" d="M874.718,803.895v134.411h42.38V761.925h-55.636C877.291,771.77,874.718,803.895,874.718,803.895z"/>
			<path fill="#323358" d="M997.606,783.759h45.791c0,0,1.073-24.612,0-25.693c-1.072-1.044,2.145-46.221-60.362-46.221
				c-62.506,0-52.662,59.924-52.662,75.773c0,15.848,7.719,46.239,38.967,51.366c11.989,2.573,32.535,7.271,32.535,21.833
				c0,14.562,0,26.532,0,26.532s-0.429,11.579-9.854,11.579c-7.262,0-14.981-0.429-14.981-35.108H934.67v29.533
				c0,0-4.279,46.24,53.081,46.24c57.361,0,55.217-48.812,55.217-56.512c0-7.701,0-38.521,0-38.521s-0.429-31.268-29.533-36.395
				c-20.127-2.573-25.264-4.288-25.264-4.288s-12.408,0-12.408-16.258c0-12.418,0-23.978,0-23.978s-0.429-10.273,11.121-10.273
				c11.569,0,10.721,11.131,10.721,11.131V783.759z"/>
		</g>
	</g>
	<g>
		<rect x="886.501" y="763.212" fill="#3881B2" width="12.231" height="175.97"/>
		<polygon fill="#3881B2" points="824.19,843.982 774.828,843.982 774.828,762.709 762.121,762.709 762.121,938.194 
			774.828,938.194 774.828,851.943 824.19,851.943 824.19,938.194 836.887,938.194 836.887,762.709 824.19,762.709 		"/>
		<path fill="#3881B2" d="M683.086,775.182l-33.896-0.503v164.503h12.455v-80.751h17.955c0,0,46.37,0.988,46.37-44.374
			C725.969,773.672,683.086,775.182,683.086,775.182z M675.609,845.977h-14.953v-60.335c8.968,0,54.331-0.988,54.331,29.422
			C714.987,845.454,675.609,845.977,675.609,845.977z"/>
		<path fill="#3881B2" d="M573.901,774.679h-93.728v163.515h14.963v-151.06h41.373v152.552h14.953V786.63
			c38.893-0.988,38.893,24.929,38.893,24.929v127.624h15.457c0,0,0-93.206,0-128.109
			C605.812,774.679,573.901,774.679,573.901,774.679z"/>
		<polygon fill="#3881B2" points="369.004,775.667 368.473,775.667 368.473,922.738 380.965,922.738 380.965,922.738 
			448.272,922.738 448.272,907.784 380.965,907.784 380.965,858.431 425.339,858.431 425.339,843.478 380.965,843.478 
			380.965,790.135 448.272,790.135 448.272,775.182 369.004,775.182 		"/>
		<path fill="#3881B2" d="M271.034,725.401h-88.162c0,0,0,206.771,0,208.039l13.322,0.635V737.146h45.978v197.562h17.451V737.781
			c48.122-3.505,44.701,32.982,44.701,32.982v164.262h15.858c0,0,0-134.15,0-173.137
			C320.182,722.883,271.034,725.401,271.034,725.401z"/>
		<path fill="#3881B2" d="M1025.219,855.169c0,0,0.504-24.909-24.173-32.386c-24.685-7.477-40.393-11.578-40.393-29.16
			s0-27.67,0-27.67s1.127-26.55,26.55-26.55c25.432,0,27.306,17.954,27.306,26.177c0,8.222,0,18.309,0,18.309l12.334-0.746
			l-0.15-23.194c0,0-2.964-30.745-41.149-30.745c-38.194,0-36.199,37.197-36.199,48.122c0,10.889,0,23.288,0,23.288
			s2.965,21.33,28.76,26.774c18.347,2.983,36.768,12.399,36.768,33.729c0,21.329,0,25.282,0,25.282s1.1,27.781-23.884,27.781
			c-21.814,0-30.745-11.896-30.745-49.092h-9.416c0,0-7.943,58.023,39.173,58.023c36.712,0,35.22-37.7,35.22-37.7V855.169z"/>
	</g>
	<g>
		<g>
			<path fill="#3881B2" d="M305.435,1022.414c6.078,3.225,8.194,9.9,5.043,15.848l-7.15,13.425
				c-10.33,19.502-23.605,15.307-35.5,8.968c-11.979-6.358-22.784-15.288-12.343-34.922l21.572-40.646
				c7.989-15.065,23.996-15.345,35.5-9.229c11.839,6.265,19.316,21.218,10.748,37.662l-1.79,3.449l-15.969-8.483l1.799-3.412
				c3.346-6.284,0.801-11.262-3.198-13.388c-2.815-1.491-8.819-3.04-11.373,1.753l-21.553,40.646
				c-2.461,4.624,1.659,8.95,5.024,10.739c3.859,2.032,9.053,2.424,11.281-1.604l4.195-7.905l8.437-15.867L305.435,1022.414z"/>
			<path fill="#3881B2" d="M363.074,1018.312l-29.505,76.686l16.52,6.339l11.69-30.372l8.13,3.114
				c3.672,1.417,7.234,6.227,6.022,9.415l-9.313,24.201l16.622,6.395l9.313-24.201c1.762-4.605,1.613-11.821-1.677-17.545
				c5.882-2.125,10.785-7.197,12.529-11.708l4.605-11.97c4.95-12.884-1.035-26.346-13.9-31.268l-15.671-6.041l-11.121-4.27
				L363.074,1018.312z M389.961,1041.431l-4.028,10.498c-1.082,2.796-5.855,3.971-8.773,2.833l-6.805-2.592l8.073-21.049l8.54,3.281
				C389.756,1035.483,391.071,1038.56,389.961,1041.431z"/>
			<polygon fill="#3881B2" points="422.767,1123.785 440.153,1128.148 462.918,1036.882 445.513,1032.537 			"/>
			<polygon fill="#3881B2" points="487.958,1121.53 522.591,1064.55 494.586,1062.146 496.134,1044.265 534.999,1047.621 
				551.136,1049.318 543.678,1063.936 508.551,1121.716 537.945,1124.251 536.416,1142.15 496.562,1138.701 478.496,1137.135 			"/>
			<polygon fill="#3881B2" points="580.073,1133.611 609.569,1073.817 581.472,1073.873 581.434,1055.937 620.439,1055.862 
				636.66,1056.142 630.508,1071.375 600.592,1132.007 630.097,1131.952 630.134,1149.906 590.141,1149.963 572,1150 			"/>
			<polygon fill="#3881B2" points="678.499,1135.289 673.931,1053.122 691.951,1052.115 696.305,1128.111 726.1,1126.452 
				727.088,1144.351 691.476,1146.346 679.245,1147.017 			"/>
			<path fill="#3881B2" d="M784.383,1140.566"/>
			<polygon fill="#3881B2" points="764.918,1136.147 782.556,1132.828 765.114,1040.405 747.485,1043.743 			"/>
			<polygon fill="#3881B2" points="849.091,1097.347 871.091,1092.275 875.128,1109.764 853.099,1114.836 829.616,1120.205 
				823.911,1096.434 811.026,1040.163 808.361,1028.584 820.173,1025.881 854.097,1018.106 858.086,1035.558 829.895,1042.289 
				834.119,1060.635 861.144,1054.445 865.153,1071.934 838.118,1078.142 841.399,1092.424 842.835,1098.67 			"/>
			<path fill="#3881B2" d="M934.782,1008.989l-1.566-3.505c-7.468-16.818-23.577-20.192-35.649-14.841
				c-12.036,5.332-20.835,18.478-14.273,33.206l2.908,6.582c8.008,17.657,22.748,14.3,32.611,12.044
				c7.794-2.013,10.59-1.659,12.025,1.567l3.599,8.129c1.976,4.438-2.144,8.186-5.407,9.64c-3.673,1.641-9.043,1.119-12.054-5.668
				l-1.557-3.524l-16.146,7.16l1.51,3.505c3.337,7.682,8.67,13.108,15.401,15.736c6.395,2.499,13.564,2.257,20.192-0.689
				c12.11-5.389,20.929-18.589,14.356-33.412l-3.598-8.11c-7.654-17.191-23.679-13.779-32.312-11.933
				c-9.565,2.125-11.69,0.074-12.473-1.641l-2.909-6.545c-1.958-4.455,2.162-8.203,5.425-9.658
				c3.822-1.696,9.248-0.652,12.064,5.669l1.567,3.543L934.782,1008.989z"/>
		</g>
	</g>
</g>
</svg>
