<?xml version="1.0" encoding="utf-8"?>
<!-- Designed by Vexels.com - 2016 All Rights Reserved - https://vexels.com/terms-and-conditions/  -->

<svg version="1.1" id="Layer_1" xmlns="http://www.w3.org/2000/svg" xmlns:xlink="http://www.w3.org/1999/xlink" x="0px" y="0px"
	 width="1200px" height="1200px" viewBox="0 0 1200 1200" enable-background="new 0 0 1200 1200" xml:space="preserve">
<g>
	<path fill="#FFFFFF" d="M1144.481,534.975c-8.868-10.642-25.886-11.345-47.438-12.249c-1.238-0.05-2.577-0.117-3.966-0.167
		c15.01-21.418,36.729-52.676,41.381-60.792c5.371-9.404,16.566-28.982-6.677-44.46c-0.804-0.535-1.657-1.003-2.56-1.389
		c-18.674-7.999-52.408-12.047-100.266-12.047c-4.769,0-9.27,0.033-13.353,0.1C939.785,273.017,803.644,192.08,653.899,192.08
		c-224.927,0-407.921,182.994-407.921,407.921c0,29.651,3.246,59.235,9.672,88.234c-2.978-0.736-5.02-1.339-6.041-1.757
		c-3.798-1.506-8.701-2.158-16.415-2.158c-21.067,0-61.561,5.07-90.242,13.269c-34.203,9.772-80.386,21.334-80.855,21.452
		c-5.973,1.489-10.558,6.292-11.78,12.332c-1.222,6.041,1.138,12.232,6.074,15.93c0.302,0.235,30.119,23.477,21.134,48.191
		c-5.606,15.462-22.707,62.482-0.518,104.381c15.578,29.401,46.97,50.384,93.371,62.398c5.221,2.175,21.167,7.814,46.283,7.814
		c30.019,0,62.064-7.881,95.245-23.46c38.755-18.206,63.686-28.731,79.148-34.771c73.525,62.029,166.478,96.064,262.844,96.064
		c204.813,0,376.663-150.698,404.106-352.265c7.664-2.176,16.984-4.769,25.267-7.045c21.083-5.739,28.831-19.879,35.072-31.241
		c1.306-2.376,2.628-4.819,4.167-7.263l3.229-5.053C1144.13,576.456,1158.236,551.457,1144.481,534.975z"/>
	<path fill="#2C2B5B" d="M1132.216,545.199c-8.3-9.973-59.787-3.33-66.431-11.629c0,0,48.158-68.105,54.801-79.717
		c6.642-11.63,8.299-16.616-1.657-23.26c-27.008-11.579-89.79-11.194-116.797-10.441
		C936.94,294.185,805.519,208.043,653.899,208.043c-216.477,0-391.957,175.48-391.957,391.957c0,37.883,5.488,74.462,15.511,109.117
		c-7.312-1.339-27.057-5.121-33.767-7.814c-8.299-3.313-61.46,1.673-96.332,11.629c-34.889,9.973-81.39,21.603-81.39,21.603
		s39.858,29.886,26.573,66.413c-13.27,36.546-34.873,116.263,83.046,146.164c0,0,48.158,23.259,129.532-14.943
		c47.839-22.455,74.897-33.382,89.187-38.62c69.141,61.193,160.002,98.408,259.598,98.408c201.885,0,368.046-152.64,389.547-348.802
		c8.066-2.293,23.025-6.51,35.625-9.94c18.256-4.986,21.586-18.273,29.886-31.559
		C1117.273,588.37,1140.515,555.155,1132.216,545.199z"/>
	<path fill="#F8A800" d="M418.028,437.22c0,0,78.713-126.603,258.511-117.015C856.32,329.793,904.21,464.88,904.21,464.88
		l-63.853-23.393l-226.567,7.43C613.79,448.917,486.116,422.328,418.028,437.22z"/>
	<path fill="#FEFAFC" d="M939.551,643.389c0,3.999-31.943,174.677-177.656,235.569c-95.296,39.791-239.552,22.941-318.399-75.868
		l43.908-42.92L939.551,643.389z"/>
	<g>
		<path fill="#024D2C" d="M460.464,810.084c0,0,63.87,53.898,133.731,26.941c69.878-26.941,129.749-87.833,193.636-86.829
			c1.991-34.939-6.977-60.892-6.977-60.892l-64.875,23.962l-74.864,31.943l-36.93-7.998l-14.977-19.963l-60.875,12.985
			L460.464,810.084z"/>
		<path fill="#024D2C" d="M555.274,862.978c-3.581,0.1,101.82,30.939,158.697,8.985c30.939-20.95,66.883-71.869,65.879-103.795
			c-13.972,1.991-62.883,11.964-96.818,39.925C649.096,836.037,591.2,861.991,555.274,862.978z"/>
		<path fill="#024D2C" d="M801.804,769.155c0,0,32.948,6.978,42.92,24.949c-10.977,17.972-55.888,53.897-89.823,64.875
			C775.851,844.003,800.816,786.123,801.804,769.155z"/>
		<path fill="#024D2C" d="M800.816,680.32c0,0,8.986,48.91,2.995,65.878c25.953,3.999,54.885,32.931,54.885,32.931
			s48.911-59.871,57.896-120.763L800.816,680.32z"/>
	</g>
	<path fill="#024D2C" d="M440.368,437.22l52.124,4.267l26.605,4.25c0,0,28.714,6.392,31.91,10.642
		c3.197,4.25-8.501,43.623-8.501,43.623l187.228-23.427l76.604-9.571l62.749-18.088l-19.126-52.107h-10.642l-13.855,13.821
		l-27.643-36.177l-23.392,19.143l-44.694-69.141l-43.607,37.247l-40.444-93.639l-91.48,110.656l-19.16-36.177l-53.178,63.82
		l-9.588-5.304C472.278,401.06,446.76,425.541,440.368,437.22z"/>
	<path fill="#FEFAFC" d="M844.623,386.167l-17.017,18.088l-25.518-36.177l-21.302,19.143l-52.123-71.283l-26.59,30.873
		l-58.515-88.318l-84.034,107.443l-23.41-38.285c0,0-49.998,68.087-53.194,69.158c-3.196,1.054-10.642-8.518-10.642-8.518
		s-41.482,46.803-43.607,49.982l11.697-1.054l31.91-36.16l-2.126,37.214l38.302,5.338c0,0-19.159-30.856-22.339-28.714
		c-3.196,2.125,47.874-64.908,47.874-64.908l1.054,35.107l11.713,7.446l-27.66,53.195l31.91,10.642l-45.748,47.874l37.247-4.25
		l51.053-54.266l11.697,15.964l30.872-18.088l18.072-46.803l54.249,80.837l21.285-1.071l-35.107-48.927l6.392-67.017l26.589-28.731
		l-1.071,39.356l19.159,28.732l-25.551,30.855c0,0,9.589,21.285,9.589,24.464c0,3.196,22.339-22.356,22.339-22.356l40.427,34.052
		l84.034-4.233l27.677,2.108L844.623,386.167z M640.362,386.167l-40.411,36.16l-38.302-41.481l78.713-98.943l-11.696,102.138
		L640.362,386.167z M780.786,435.095l15.981-51.053l14.876,74.462L780.786,435.095z M830.802,417.023l12.751-13.838
		c0,0,9.589,34.036,9.589,37.231C853.141,443.613,833.998,420.202,830.802,417.023z"/>
	<g>
		<path fill="#B0CDDA" d="M454.306,291.826l-17.788,13.436l20.382,27.761c0,0,5.204,7.797-0.87,12.583
			c-6.057,4.769-14.742,9.956-14.742,9.956s-5.639,3.464-11.713-2.158c-6.074-5.639-20.816-24.28-20.816-24.28l-17.335,17.77
			l30.588,28.229c0,0,10.759,8.45,23.074-1.54c12.299-10.006,34.604-27.709,34.604-27.709s8.869-10.258,0.184-20.214
			C471.207,315.671,454.306,291.826,454.306,291.826z"/>
		<path fill="#B0CDDA" d="M527.146,251.482c0,0,2.192,6.944,4.786,13.436c8.668-3.464,30.789-7.797,30.789-7.797l10.409,41.632
			l18.64-3.899c0,0-4.751-24.297-8.667-41.197c6.091-2.594,27.777-6.074,27.777-6.074s0.418-0.87-2.175-13.871
			C581.378,235.017,528.903,251.482,527.146,251.482z"/>
		<path fill="#B0CDDA" d="M759.201,247.148c-3.046-0.87-20.832-7.814-39.038-10.408c-18.223-2.594-22.122,13.018-22.122,13.018
			l-9.972,39.457l19.51,4.351l6.091-14.324l24.279,7.814l-4.786,13.437l19.528,7.363c0,0,9.103-19.947,13.889-35.558
			C771.349,256.686,762.229,248.019,759.201,247.148z M746.618,267.094c-0.435,1.306-4.334,8.685-4.334,8.685l-26.455-7.797
			c0,0,2.593-7.815,4.334-13.035c1.74-5.188,8.684-1.724,8.684-1.724s10.409,2.159,15.177,4.334
			C748.776,259.732,747.052,265.805,746.618,267.094z"/>
		<polygon fill="#B0CDDA" points="896.68,322.615 877.169,339.516 855.919,320.439 868.937,302.217 848.974,287.057 
			811.241,334.328 830.317,349.07 846.363,328.237 871.53,348.199 855.483,368.598 871.53,382.888 912.727,338.227 		"/>
	</g>
	<g>
		<g>
			<path fill="#2C2B5B" d="M441.388,680.905c9.253-5.254,14.424-15.729,12.784-26.471c-1.171-7.664,0.251-28.296,7.112-50.183
				c1.64-5.288,3.397-11.529,5.404-18.674c8.183-29.199,21.887-78.094,43.791-93.739c9.219-6.593,13.085-18.256,9.621-29.032
				c-3.447-10.793-13.386-18.021-24.715-18.021c-25.233,0-82.093,1.372-105.368,1.974l-1.121,0.017
				c-12.885,0.351-23.477,9.772-25.184,22.389c-1.456,10.676,3.681,20.799,12.6,25.936c0.017,2.426-0.518,7.447-3.915,16.097
				c-5.02,12.868-11.128,29.183-17.503,46.234c-10.157,27.158-27.158,72.589-31.308,79.348
				c-5.823,9.471-10.977,16.014-12.801,18.072c-9.722,7.48-15.194,21.987-5.221,37.867c-5.338,16.784-36.863,110.857-50.451,151.318
				l-0.602,1.791c-0.904,1.958-4.568,8.283-14.073,10.442c0.251-4.685,1.422-12.617,4.736-26.104l1.004-4.166
				c3.28-13.955,20.113-50.501,33.834-67.452c7.681-9.487,7.664-23.259-0.067-32.746c-7.58-9.287-21.502-12.132-32.027-6.643
				c-19.98,10.341-70.096,19.51-96.551,23.309c-10.692,1.54-19.41,9.655-21.686,20.197c-1.54,7.095,0.033,14.44,4.05,20.263
				c-0.168,4.417-1.439,15.863-8.635,40.979c-3.229,11.278-12.114,50.551,8.802,82.445c13.253,20.213,34.671,32.428,63.653,36.243
				c12.098,1.606,23.778,2.41,34.721,2.41c50.852,0,78.228-17.335,92.953-26.656l2.259-1.423
				c9.303-5.822,29.534-11.495,38.871-13.671c7.095-1.589,13.236-6.124,16.817-12.432c3.615-6.275,4.401-13.855,2.242-20.649
				c-0.067-0.201-6.141-21.418,3.213-51.002C423.735,707.962,437.858,685.272,441.388,680.905z"/>
			<path fill="#2C2B5B" d="M1113.491,560.108c-7.881-8.701-21.736-10.927-31.843-5.271c-7.597,4.217-16.582,7.446-25.568,9.906
				c7.095-3.564,12.181-10.19,13.738-18.222c1.02-5.221,0.401-10.475-1.624-15.177c3.899-9.538,17.687-32.73,39.39-58.985
				c6.877-8.316,7.881-20.18,2.493-29.533c-5.372-9.271-16.532-14.408-26.79-12.6L941.776,454.02
				c-6.778,1.121-12.935,4.986-16.884,10.558l-23.46,33.014c-7.647,10.743-6.025,25.502,3.782,34.353
				c9.337,8.383,24.514,8.618,34.035,0.586c3.112-1.64,12.232-3.196,17.67-4.05c-3.396,2.979-7.295,5.505-10.927,6.945
				c-7.279,2.861-12.817,8.784-15.193,16.231c-1.975,6.157-1.573,12.734,1.037,18.506l-31.575,49.999
				c-1.155-1.724-2.426-3.381-4.016-4.819c-8.534-7.881-22.154-8.986-31.81-2.628c-8.952,5.874-20.079,9.906-30.555,12.701
				c1.155-4.033,2.142-7.396,2.761-9.488c0.987-3.262,5.421-9.052,7.73-10.608c9.12-2.812,16.081-10.576,17.854-19.929
				c0.904-4.685,0.469-9.487-1.138-13.872c2.544-10.307,14.507-39.289,31.392-70.446c4.718-8.668,4.149-19.092-1.49-27.175
				c-4.835-6.994-12.834-11.144-21.385-11.144c-1.121,0-2.242,0.067-3.531,0.235L731.29,481.964
				c-7.865,1.104-14.691,5.672-18.708,12.517l-22.556,38.252c0.368-1.289,0.736-2.477,1.122-3.464
				c3.782-9.438,1.689-20.297-5.372-27.61c-6.91-7.212-18.021-9.805-27.392-6.475c-21.77,7.714-83.548,17.904-116.764,22.723
				c-10.525,1.506-19.21,9.488-21.586,19.762c-0.619,2.56-6.325,25.752-18.574,54.684c-8.299,19.528-18.573,25-19.979,25.669
				c-6.509,2.393-11.831,7.312-14.708,13.638c-2.862,6.325-3.079,13.604-0.586,20.079c0.586,5.472-5.02,22.289-7.747,30.472
				l-0.636,1.891c-3.715,11.144-35.19,74.01-56.34,115.091c-4.954,9.621-3.381,21.435,3.898,29.383
				c4.903,5.372,11.88,8.451,19.16,8.451c3.38,0,6.677-0.653,9.805-1.924l80.837-32.931c5.991-2.443,10.827-6.994,13.604-12.818
				l18.156-37.867l21.15-6.827l0.184,8.166c0.218,8.35,4.451,16.131,11.312,20.799c6.877,4.702,15.913,5.773,23.611,2.911
				l56.875-20.95c10.04-3.698,16.7-12.985,16.985-23.727l0.05-1.757c0.051-2.527,0.135-5.271,0.184-8.099
				c1.021,3.246,2.628,6.308,4.903,9.019c4.953,5.84,12.165,9.203,19.828,9.203c2.561,0,5.121-0.401,7.681-1.187l157.743-48.911
				c4.652-1.456,8.802-4.183,11.948-7.848c1.154-1.339,4.467-5.505,10.19-14.759c0.067,0.117,0.134,0.235,0.201,0.335
				c4.87,6.559,12.668,10.474,20.833,10.474c2.393,0,4.752-0.334,6.961-0.954l160.002-44.527c4.417-1.205,8.433-3.597,11.747-6.977
				c1.773-1.841,11.378-12.131,26.237-33.516C1122.494,582.38,1121.641,569.127,1113.491,560.108z M678.848,702.558
				c-0.469,0.903-0.82,1.857-1.155,2.794c0.653-27.96,1.339-60.072,1.339-69.944c0-1.606,0.351-2.544,0.552-2.945
				c5.707-4.719,9.171-11.796,9.371-19.277c0.201-6.626-2.192-13.069-6.543-17.988c0.1-1.322,0.218-2.795,0.335-4.384
				c0.535-7.53,1.773-24.564,3.765-39.357c1.155,6.007,4.418,11.646,9.571,15.646c10.023,7.765,25.484,6.627,34.036-1.991
				c2.376-1.74,11.261-3.012,15.093-3.564c2.242-0.302,4.301-0.636,6.157-0.954c-0.501,1.003-0.936,1.84-1.288,2.509
				c-4.385,8.065-7.53,10.492-12.148,12.433c-6.743,2.795-12.031,8.434-14.475,15.444c-2.125,6.058-1.891,12.7,0.569,18.625
				c0.033,0.92,0,2.292-0.15,3.849L678.848,702.558z"/>
		</g>
		<g>
			<path fill="#F8A800" d="M432.403,667.569c4.217-1.774,6.677-6.192,5.99-10.726c-1.69-10.96,0.402-34.185,7.647-57.377
				c1.623-5.205,3.363-11.379,5.271-18.189c9.32-33.248,23.427-83.515,49.882-102.424c3.531-2.527,5.037-7.044,3.715-11.178
				c-1.339-4.116-5.188-6.927-9.522-6.927c-29.718,0-105.302,1.991-106.055,1.991c-4.886,0.134-9.136,3.731-9.788,8.584
				c-0.67,4.853,2.125,9.421,6.793,10.844c4.686,1.84,10.14,11.278,0.954,34.838c-5.037,12.901-11.162,29.266-17.436,46.032
				c-12.349,32.998-27.71,74.044-32.663,82.11c-7.647,12.416-14.44,20.615-16.013,21.887c-2.159,1.438-8.702,6.977-1.908,17.486
				c1.941,2.995,3.782,5.823,1.908,11.796c-4.887,15.679-51.355,154.112-51.723,155.2c-0.083,0.218-7.948,20.665-34.587,21.452
				c-5.421,0-6.944-1.924-7.513-2.661c-6.476-8.249-0.318-33.248,2.293-43.941l0.987-4.016c3.681-15.646,21.218-54.399,36.964-73.86
				c2.978-3.664,2.978-8.919-0.017-12.584c-2.995-3.664-8.132-4.751-12.316-2.56c-27.041,13.973-94.074,23.862-101.637,24.933
				c-4.133,0.602-7.446,3.698-8.333,7.781c-0.82,3.765,0.619,7.647,3.614,9.972c1.104,2.544,2.795,12.918-8.45,52.258
				c-2.761,9.638-10.391,43.088,6.794,69.292c10.592,16.165,28.229,25.987,52.391,29.183c11.395,1.506,22.372,2.276,32.63,2.276
				c46.234,0,70.129-15.127,84.402-24.18l2.359-1.489c14.323-8.952,43.539-15.629,43.807-15.695
				c2.745-0.619,5.087-2.343,6.476-4.786c1.389-2.41,1.69-5.338,0.837-7.999c-0.084-0.251-7.882-25.317,3.229-60.54
				C411.235,694.542,426.713,670.915,432.403,667.569z"/>
			<path fill="#F8A800" d="M663.722,510.226c-29.635,10.526-118.939,23.343-119.843,23.477c-4.066,0.585-7.379,3.631-8.3,7.63
				c-0.067,0.251-6.006,25.585-19.427,57.244c-11.797,27.794-28.346,34.153-28.899,34.353c-2.644,0.87-4.786,2.811-5.94,5.338
				c-1.138,2.526-1.188,5.404-0.117,7.964c3.38,8.116-2.728,26.372-7.614,41.047l-0.636,1.857
				c-4.702,14.139-42.954,89.522-57.294,117.366c-1.908,3.715-1.305,8.232,1.522,11.311c1.924,2.108,4.619,3.246,7.347,3.246
				c1.271,0,2.56-0.251,3.782-0.736l80.837-32.948c2.293-0.937,4.166-2.694,5.221-4.92l21.117-44.041l48.058-15.528l0.686,29.534
				c0.083,3.229,1.707,6.208,4.367,8.015c2.661,1.824,6.058,2.242,9.069,1.121l56.893-20.967c3.831-1.405,6.408-5.02,6.526-9.119
				c0.084-3.263,1.991-80.152,1.991-96.065c0-10.207,5.672-14.726,5.723-14.775c2.593-1.808,4.116-4.786,4.2-7.932
				c0.1-3.146-1.355-6.208-3.832-8.166c-1.405-1.104-3.329-3.531-3.162-4.803c0.201-1.707,0.469-5.288,0.82-10.074
				c1.121-15.511,3.732-51.856,9.505-66.313c1.473-3.648,0.653-7.798-2.059-10.625C671.536,509.875,667.403,508.922,663.722,510.226
				z M586.967,618.574l-1.556,57.562l-31.643,10.876L586.967,618.574z"/>
			<path fill="#F8A800" d="M873.187,626.07c-19.21,12.6-45.748,17.854-61.796,19.963c3.448-12.148,8.166-28.697,9.956-34.705
				c2.343-7.814,11.295-19.343,18.021-21.184c3.681-1.004,6.459-4.016,7.179-7.765c0.535-2.844-0.184-5.739-1.907-7.965
				c-0.486-10.241,16.733-49.447,33.801-80.971c1.807-3.314,1.589-7.347-0.569-10.442c-2.142-3.079-5.857-4.685-9.571-4.2
				l-134.752,18.959c-3.012,0.434-5.672,2.209-7.212,4.819l-22.958,38.938c-2.544,4.333-1.473,9.872,2.493,12.951
				c3.966,3.062,9.605,2.728,13.169-0.836c5.237-5.221,16.014-6.761,23.895-7.882c3.313-0.485,6.224-0.92,8.383-1.456
				c3.597-0.904,15.026-2.677,26.606-4.368c-4.92,11.697-10.81,25.301-13.822,30.823c-5.69,10.408-11.295,15.88-20.03,19.51
				c-2.628,1.104-4.601,3.314-5.539,5.991c-0.937,2.677-0.669,5.689,0.703,8.182c1.004,1.808,1.021,8.25,0.117,13.788
				l-46.267,91.547c-1.807,3.564-1.289,7.881,1.272,10.927c1.958,2.292,4.752,3.547,7.646,3.547c0.988,0,1.975-0.151,2.945-0.451
				l157.693-48.895c1.808-0.569,3.414-1.623,4.635-3.045c0.686-0.804,7.045-8.484,20.147-32.68
				c2.192-4.033,1.355-9.019-2.008-12.098C882.039,623.962,877.002,623.561,873.187,626.07z"/>
			<path fill="#F8A800" d="M1101.661,570.835c-3.13-3.448-8.183-4.317-12.249-2.042c-21.067,11.696-49.915,16.499-67.535,18.457
				c2.928-7.112,6.141-14.926,7.764-18.976c2.694-6.677,9.705-14.942,17.37-17.068c3.647-1.003,6.408-3.998,7.128-7.713
				c0.653-3.347-0.451-6.76-2.878-9.103c-1.004-8.953,19.193-42.168,44.024-72.22c2.661-3.213,3.046-7.747,0.954-11.345
				c-2.075-3.615-6.158-5.572-10.291-4.853l-141.546,23.795c-2.627,0.435-4.953,1.907-6.492,4.066l-23.476,33.031
				c-2.928,4.133-2.293,9.805,1.456,13.202c3.782,3.397,9.487,3.43,13.286,0.067c4.986-4.384,19.528-6.576,28.229-7.881
				c4.501-0.67,8.048-1.205,10.759-1.975c3.046-0.837,12.148-2.142,21.771-3.346c-4.987,9.22-10.475,19.092-13.37,23.359
				c-5.69,8.451-15.378,16.299-24.715,19.98c-2.778,1.104-4.92,3.397-5.84,6.241c-0.904,2.862-0.502,5.974,1.138,8.483
				c0.971,1.506,1.724,4.703,2.092,7.496l-47.071,74.563c-2.209,3.481-2.042,7.965,0.418,11.279
				c1.924,2.576,4.903,4.033,8.016,4.033c0.887,0,1.791-0.117,2.677-0.368l160.036-44.561c1.707-0.451,3.246-1.372,4.468-2.627
				c0.385-0.402,9.588-9.889,24.665-31.592C1105.092,579.402,1104.757,574.265,1101.661,570.835z"/>
		</g>
		<g>
			<path fill="#FEFAFC" d="M389.599,472.728c0,0,22.958,6.977,6.977,47.907c-15.963,40.913-42.904,116.764-50.902,129.749
				c-7.981,12.985-15.963,22.958-18.959,24.949c-2.995,1.992,8.986,7.982,3.999,23.962c-4.986,15.964-51.906,155.702-51.906,155.702
				s-9.972,26.941-42.92,27.945c-32.931,0.987-18.959-45.916-14.977-62.884c3.999-16.968,21.971-56.892,38.939-77.842
				c-28.949,14.959-97.822,24.949-104.8,25.953c10.977,6.977-1.004,48.894-5.003,62.867c-3.982,13.972-16.967,76.855,50.903,85.841
				c67.886,8.985,96.817-11.981,112.798-21.954c15.964-9.99,46.903-16.984,46.903-16.984s-8.985-27.945,2.995-65.862
				c11.981-37.917,45.916-145.729,64.875-153.711c-1.992-12.968,0.452-37.784,7.981-61.88
				c9.99-31.943,23.962-100.817,58.884-125.749C465.45,470.737,389.599,472.728,389.599,472.728z"/>
			<path fill="#FEFAFC" d="M656.092,598.477c1.003-7.981,2.995-58.884,10.977-78.846c-30.939,10.977-121.767,23.962-121.767,23.962
				s-5.99,25.936-19.963,58.883c-13.972,32.931-34.939,39.926-34.939,39.926c4.986,11.981-1.991,31.926-7.981,49.898
				c-5.99,17.972-57.897,118.772-57.897,118.772l80.855-32.931l22.957-47.907l64.875-20.966l0.987,42.92l56.893-20.95
				c0,0,2.007-79.85,2.007-95.83c0-15.964,9.973-22.942,9.973-22.942S655.087,606.459,656.092,598.477z M595.199,683.315
				l-60.875,20.966l63.87-131.757L595.199,683.315z"/>
			<path fill="#FEFAFC" d="M711.98,546.571l22.958-38.921l134.735-18.959c0,0-44.911,82.846-32.93,91.815
				c-10.977,3.011-21.954,17.971-24.949,27.96c-2.995,9.973-13.972,48.895-13.972,48.895s48.911-1.991,80.838-22.942
				c-12.968,23.946-18.959,30.923-18.959,30.923l-157.694,48.911l46.903-92.819c0,0,2.995-14.976-1.003-21.954
				c11.981-4.986,18.975-12.968,24.949-23.945c5.99-10.994,20.966-47.924,20.966-47.924s-36.93,4.987-44.912,6.994
				C740.928,536.598,721.953,536.598,711.98,546.571z"/>
			<path fill="#FEFAFC" d="M922.583,512.636l23.477-33.031l141.545-23.794c0,0-60.223,72.806-43.255,85.774
				c-11.496,3.196-20.498,14.407-23.962,22.958c-3.431,8.567-13.972,33.935-13.972,33.935s52.977-1.623,87.832-20.95
				c-14.775,21.268-23.61,30.304-23.61,30.304l-160.036,44.543l48.878-77.407c0,0-0.368-9.873-3.966-15.411
				c11.914-4.703,23.008-14.29,29.333-23.695c6.392-9.437,22.807-41.046,22.807-41.046s-34.303,3.681-42.168,5.857
				C957.672,502.847,932.472,503.935,922.583,512.636z"/>
		</g>
	</g>
</g>
</svg>
