<?xml version="1.0" encoding="utf-8"?>
<!-- Designed by Vexels.com - 2016 All Rights Reserved - https://vexels.com/terms-and-conditions/  -->

<svg version="1.1" id="Layer_1" xmlns="http://www.w3.org/2000/svg" xmlns:xlink="http://www.w3.org/1999/xlink" x="0px" y="0px"
	 width="1200px" height="1200px" viewBox="0 0 1200 1200" enable-background="new 0 0 1200 1200" xml:space="preserve">
<g>
	<path fill="#211F2C" d="M254.047,440.79h-95.399c0,0-8.262,170.623,6.418,306.391c14.68,135.768,62.388,215.584,86.233,246.768
		c15.601-22.019,88.068-94.477,88.068-94.477l35.777,32.107l-151.361,164.205c0,0-18.349,25.67,1.826,44.02
		c20.194,18.35,36.699,0,48.622-10.088c11.923-10.087,141.273-158.71,141.273-158.71l78.894,69.729c0,0-5.505-55.952,5.495-76.146
		c20.194,28.437,56.883,52.3,99.992,52.3c43.117,0,88.078-32.107,102.757-59.641c3.661,16.524,9.166,66.962,1.825,79.816
		l78.894-66.058l153.195,173.389c0,0,20.185,13.758,41.282-1.844c21.098-15.583,0.913-42.194,0.913-42.194L828.305,933.405
		l34.863-33.951c0,0,69.719,68.806,88.069,98.166c31.185-44.039,82.555-145.856,90.817-315.575
		c8.253-169.7-0.913-240.333-0.913-240.333H948.49c0,0,4.574-10.088,11-16.524c6.427-6.418,27.525-27.515-9.175-60.525
		c32.107-45.865,92.651-134.865,94.487-138.535c1.835-3.661,8.262-30.263-16.506-11.01
		C1003.529,234.39,901.703,330.71,901.703,330.71s-34.864-11.01-64.214-0.922c18.35-40.369,43.117-102.739,43.117-102.739
		l-108.253,54.127L786.11,87.612L658.603,248.147L601.729,50L543.01,244.477L417.348,90.36l13.749,191.738l-105.496-56.883
		l41.292,100.904c0,0-35.787-6.418-62.388,5.514c-33.933-27.533-134.847-123.845-134.847-123.845s-24.767-11.923-13.757,12.844
		c11.01,24.768,98.147,144.935,98.147,144.935s-29.341,38.543-16.505,51.379C250.377,429.779,257.726,437.12,254.047,440.79z"/>
	<path fill="#41368C" d="M182.346,461.997c1.567,0.516,108.197,0,108.197,0l114.874-28.547l213.74-43.117l280.702,70.632h124.768
		c0,0-0.009,187.147-6.427,257.779c-6.418,70.631-31.185,175.215-67.885,241.254c-33.942-39.428-74.301-78.875-74.301-78.875
		l22.019-12.854c0,0-22.942,2.767-47.708-11.01c-24.768-13.758-142.176-77.972-248.594-78.894
		c-106.41-0.904-144.021,33.951-173.38,44.961c-29.35,11.01-78.894,35.777-117.429,41.273c16.524,18.35,16.524,18.35,16.524,18.35
		s-57.797,44.942-78.893,77.049c-22.02-33.011-66.971-134.828-69.719-295.363C176.075,504.082,182.346,461.997,182.346,461.997z"/>
	<polygon fill="#211F2C" points="290.543,461.997 331.115,499.508 398.077,499.508 398.077,470.148 310.009,457.295 	"/>
	<path fill="#211F2C" d="M799.867,481.158l1.845,17.427l78.893-3.669l36.69-35.777l-1.836-7.339l-77.068-11.932
		C838.392,439.867,800.789,467.401,799.867,481.158z"/>
	<polygon fill="#1D1E22" points="425.592,469.227 425.592,501.334 776.023,501.334 776.023,471.071 775.1,450.877 607.225,416.022 
		447.611,448.129 	"/>
	<polygon fill="#B6A9AA" points="310.47,405.934 200.391,262.827 321.479,372.905 311.843,381.167 322.853,403.168 	"/>
	<path fill="#41368C" d="M265.352,373.238c0,0-30.992,25.21-9.461,36.237c26.796-2.618,33.62-2.618,33.62-2.618L265.352,373.238z"/>
	<path fill="#41368C" d="M314.194,344.873c0,0,16.81,22.057,18.377,22.591c1.586,0.516,26.796-12.614,20.489-24.159
		C346.754,331.743,321.543,342.255,314.194,344.873z"/>
	<path fill="#41368C" d="M364.089,342.255c0.516,1.567,1.051,26.777-33.084,45.698c4.721,9.978,4.721,9.978,4.721,9.978
		s39.392-7.358,53.573-16.819C375.117,356.953,364.089,342.255,364.089,342.255z"/>
	<path fill="#B6A9AA" d="M410.313,370.618l-36.763-90.346l82.987,41.494l-8.428-154.413l106.105,126.067l49.378-156.533
		l45.164,158.101l105.58-127.635l-10.512,155.999l86.657-43.062l-38.866,91.379c0,0-77.722-36.238-191.176-35.722
		C486.984,336.483,410.313,370.618,410.313,370.618z"/>
	<path fill="#B6A9AA" d="M883.002,375.34l118.7-110.3L895.608,405.289l-15.759-2.637l14.182-21.005
		C894.031,381.647,886.673,379.544,883.002,375.34z"/>
	<path fill="#41368C" d="M871.975,370.618l22.582-25.745c0,0-31.508-13.13-47.793-3.669
		C848.867,351.716,852.537,367.981,871.975,370.618z"/>
	<path fill="#41368C" d="M837.304,348.563c0,0,6.307,26.261,34.135,37.806c3.154,3.688-1.567,14.698-6.288,14.181
		c-4.739-0.517-46.75-15.232-52.532-19.953C821.03,365.363,837.304,348.563,837.304,348.563z"/>
	<path fill="#41368C" d="M913.994,406.322l25.21-30.983c0,0,19.963,16.819,16.81,24.693
		C952.86,407.908,931.855,410.527,913.994,406.322z"/>
	<path fill="#41368C" d="M944.985,420.503c-1.567,0-58.294,6.307-111.352-17.335c-53.039-23.642-139.715-64.067-254.736-57.779
		c-115.03,6.307-156.515,31.517-190.651,46.234c-34.154,14.699-87.193,33.084-125.016,28.88
		c32.051,29.95,70.908,67.755,70.908,67.755s34.145,3.154,87.719-20.489c53.573-23.624,100.83-39.908,178.581-39.908
		c77.732,0,141.798,24.141,176.469,39.908c34.671,15.749,69.857,23.107,94.542,23.623
		C897.194,466.184,944.985,420.503,944.985,420.503z"/>
	<path fill="#A5ADB2" d="M449.446,471.975c0,0,61.467-34.855,145.866-34.855c84.389,0,157.769,31.185,157.769,31.185v17.446
		l-303.635-0.922V471.975z"/>
	<path fill="#1D1E22" d="M483.389,471.975c0,0,11.01-10.088,15.601-11.01c4.574-0.904,205.478,0,205.478,0s12.855,4.592,14.68,11.01
		H483.389z"/>
	<g>
		<g>
			<path fill="#211F2C" d="M366.836,649.66l34.911-24.232V485.751h-77.059v111l-33.943,25.598V485.751h-76.902l-2.407,7.709
				c-2.471,7.912-4.619,50.567-3.255,146.557c1.844,128.557,39.28,249.406,40.867,254.477l5.441,17.354l12.854-12.854
				c0.221-0.221,22.646-22.572,49.184-42.029l6.085-4.462l-1.973-7.304c-14.135-52.042-19.133-116.441-20.82-148.604l33.878,20.544
				c2.249,18.221,9.681,78.728,11.194,102.315l1.356,20.913l16.459-12.983c16.109-12.724,52.282-28.677,52.642-28.843l7.515-3.301
				l-15.491-123.873L366.836,649.66z"/>
			<path fill="#211F2C" d="M485.214,527.668l-0.258-10.733h-59.29l-0.94,9.977c-7.358,78.267,12.937,241.348,13.794,248.245
				l1.586,12.521l12.18-3.245c0,0,13.767-3.688,37.631-10.106l9.737-2.619l-1.752-9.922
				C489.88,716.346,485.27,529.549,485.214,527.668z"/>
			<path fill="#211F2C" d="M640.899,521.196l-9.129-0.572c-4.555-0.295-9.783-0.424-15.537-0.424c-9.691,0-17.51,0.406-17.842,0.424
				l-9.821,0.516l-2.222,37.068l-24.629-15.583l-2.277-23.863h-54.035v11.01c0,7.118,0.101,174.938,9.332,229.341l1.687,10.014
				l10.115-0.886c19.999-1.734,26.537-1.788,26.566-1.788h11.074l-0.867-146.778l25.44,17.612l-2.868,128.244h50.107l0.571-10.419
				c0.424-7.598,10.106-186.704,5.441-224.842L640.899,521.196z"/>
			<path fill="#211F2C" d="M782.642,633.432h-61.208l-1.844,44.039h7.137c-1.107,12.097-3.339,29.451-5.053,41.936
				c-3.301-0.499-7.616-1.217-13.204-2.232c4.629-40.443,7.552-118.119,8.501-146.372l17.769-0.406v19.954l44.951,25.173v-96.763
				H664.671l-0.553,10.437c-0.176,3.486-0.654,13.333-1.328,27.128c-2.711,56.413-8.391,173.795-10.568,200.037l-0.83,9.904
				l9.775,1.825c3.495,0.664,8.742,1.567,15.141,2.693c20.839,3.614,52.338,9.092,75.095,14.624l11.093,2.693l2.296-11.195
				c7.358-35.925,16.303-127.525,16.681-131.397L782.642,633.432z"/>
			<path fill="#211F2C" d="M994.207,641.675l1.143-157.88l-195.547,2.047L799,495.875c-6.805,84.501,11.868,113.362,21.91,128.853
				c5.513,8.539,18.561,22.094,33.675,37.769c14.845,15.417,31.682,32.918,43.024,47.433c11.969,15.325,5.238,42.453-1.531,59.567
				l-31.48-20.6l2.711-32.531l-73.305-55.289l-1.439,20.194c-0.056,0.756-5.532,76.847-10.872,107.11l-1.484,8.372l7.745,3.559
				c63.883,29.286,145.266,97.705,146.086,98.387l9.285,7.857l6.898-10.032c1.161-1.697,11.553-17.76,19.068-61.393
				c30.153-93.758,13.869-133.094-3.707-156.866c-9.922-13.425-35.223-42.877-55.574-66.537
				c-12.116-14.108-22.582-26.279-26.262-30.964c-3.605-4.574-4.232-18.147-3.393-29.894h33.269v34.153L994.207,641.675z"/>
		</g>
	</g>
	<g>
		<path fill="#FFFFFF" d="M221.94,496.741h57.797v147.7l55.952-42.194V496.741h55.049v122.933l-44.952,31.185l51.37,27.533
			l13.757,110.079c0,0-37.602,16.506-55.03,30.263c-1.845-28.437-11.932-108.235-11.932-108.235l-55.952-33.951
			c0,0,1.835,97.243,22.019,171.545c-27.524,20.175-50.456,43.117-50.456,43.117s-38.543-122.914-40.369-251.361
			C217.357,511.421,221.94,496.741,221.94,496.741z"/>
		<path fill="#FFFFFF" d="M435.689,527.927h38.534c0,0,4.573,188.991,12.835,235.778c-23.845,6.418-37.612,10.087-37.612,10.087
			S428.349,605.917,435.689,527.927z"/>
		<path fill="#FFFFFF" d="M516.408,529.771c0,0,0,173.389,9.175,227.497c21.098-1.825,27.525-1.825,27.525-1.825l-0.923-156.866
			l47.7,33.029l-2.749,122.914h28.438c0,0,10.096-185.303,5.513-222.905c-14.679-0.923-32.116,0-32.116,0l-2.757,45.864
			l-44.943-28.437l-1.844-19.271H516.408z"/>
		<path fill="#FFFFFF" d="M675.109,529.771h93.573v66.962l-22.932-12.836v-24.767l-39.447,0.922c0,0-3.661,123.836-10.088,166.031
			c28.437,5.514,34.855,5.514,34.855,5.514s7.349-50.457,7.349-65.137c-7.349,0-7.349,0-7.349,0l0.923-22.019h38.524
			c0,0-9.174,94.495-16.514,130.273c-30.272-7.34-76.137-14.68-90.807-17.446C665.944,724.257,674.206,547.198,675.109,529.771z"/>
		<path fill="#FFFFFF" d="M809.964,496.741l174.293-1.825l-0.913,125.68l-58.719-41.291v-39.448h-54.117
			c0,0-5.505,34.874,4.582,47.709c10.088,12.835,66.04,76.128,81.642,97.243c15.602,21.098,31.203,56.874,1.844,147.681
			c-7.339,43.117-17.427,57.796-17.427,57.796s-82.563-69.71-148.622-99.991c5.514-31.186,11.01-108.254,11.01-108.254
			l52.301,39.448l-2.757,33.029l47.699,31.204c0,0,28.438-53.205,5.506-82.563c-22.933-29.359-66.05-68.806-76.137-84.408
			C820.061,603.169,803.537,576.558,809.964,496.741z"/>
	</g>
	<path fill="#A9ABAF" d="M342.116,873.783c0,0,47.699-3.67,83.476-28.437c35.776-24.768,88.068-48.631,113.748-49.535
		c-2.748,6.417-2.748,6.417-2.748,6.417s-64.213,38.525-54.126,99.992c4.592,34.855-0.904,50.456-2.748,61.467
		c-1.835,11.01-0.922,33.932-0.922,33.932L342.116,873.783z"/>
	<path fill="#A9ABAF" d="M860.412,873.783c0,0-47.7-3.67-83.477-28.437c-35.776-24.768-88.068-48.631-113.758-49.535
		c2.757,6.417,2.757,6.417,2.757,6.417s64.214,38.525,54.117,99.992c-4.574,34.855,0.922,50.456,2.757,61.467
		c1.835,11.01,0.913,33.932,0.913,33.932L860.412,873.783z"/>
	<g>
		<defs>
			<path id="SVGID_1_" d="M238.454,1103.106c0,0,131.186-144.934,132.099-147.681c0.913-2.749,12.844-10.088,23.854,0.922
				c11.011,11.01-8.252,31.185-8.252,31.185L257.717,1130.64c0,0-12.836,13.757-23.845,1.826
				C222.862,1120.552,238.454,1103.106,238.454,1103.106z"/>
		</defs>
		<use xlink:href="#SVGID_1_"  overflow="visible" fill="#41368C"/>
		<clipPath id="SVGID_2_">
			<use xlink:href="#SVGID_1_"  overflow="visible"/>
		</clipPath>
		<g clip-path="url(#SVGID_2_)">
			<g>
				<rect x="264.143" y="1032.474" fill="#A9ABAF" width="11.923" height="111.923"/>
				<rect x="309.086" y="996.698" fill="#A9ABAF" width="11.923" height="111.923"/>
				<rect x="354.96" y="937.075" fill="#A9ABAF" width="11.923" height="111.923"/>
			</g>
		</g>
	</g>
	<g>
		<defs>
			<path id="SVGID_3_" d="M963.537,1103.106c0,0-131.175-144.934-132.098-147.681c-0.913-2.749-12.836-10.088-23.845,0.922
				s8.244,31.185,8.244,31.185l128.437,143.108c0,0,12.844,13.757,23.855,1.826C979.14,1120.552,963.537,1103.106,963.537,1103.106z
				"/>
		</defs>
		<use xlink:href="#SVGID_3_"  overflow="visible" fill="#41368C"/>
		<clipPath id="SVGID_4_">
			<use xlink:href="#SVGID_3_"  overflow="visible"/>
		</clipPath>
		<g clip-path="url(#SVGID_4_)">
			<g>
				<g>
					<rect x="925.926" y="1032.474" fill="#A9ABAF" width="11.923" height="111.923"/>
				</g>
				<g>
					<rect x="880.984" y="996.698" fill="#A9ABAF" width="11.923" height="111.923"/>
				</g>
				<g>
					<rect x="835.11" y="937.075" fill="#A9ABAF" width="11.931" height="111.923"/>
				</g>
			</g>
		</g>
	</g>
	<g>
		<g>
			<path fill="#F8FCFB" d="M371.558,420.449c0,0-2.222,5.956-15.62,5.219c-13.388-0.756-27.533,8.907-26.04,20.083
				c1.494,11.158,11.905,9.664,31.25,3.707c7.441-2.231,12.641,0.756,3.716,4.481c-8.926,3.707-23.061,6.694-28.271,4.463
				c1.484,4.462,1.484,7.432,1.484,7.432s27.525,1.494,36.459-7.432c8.935-8.945,8.18-19.345,0-20.101
				c0,0-10.723-0.609-21.373,3.651c-10.651,4.26-8.908-3.67-4.454-5.238c4.454-1.549,15.307-1.937,18.405-3.098
				C370.203,432.453,372.535,422.384,371.558,420.449z"/>
			<path fill="#F8FCFB" d="M412.296,416.945c0,0-7.192-4.943-3.061-9.074l-23.874,8.022l-0.581,7.93c0,0,7.561-4.131,7.561,0
				c0,4.112-2.748,28.197-5.495,30.945l13.065-5.495l0.692-11.692l13.26-4.758l11.932,7.653l11.581-4.444L412.296,416.945z
				 M400.677,431.033c0,0,0.71-6.933,1.07-9.626l7.662,6.234L400.677,431.033z"/>
			<path fill="#F8FCFB" d="M574.951,377.847c0,0-5.643-6.639-0.571-9.534l-25.145,1.475l-2.637,7.488c0,0,8.382-1.991,7.294,1.991
				c-1.07,3.984-10.051,26.501-13.426,28.437l14.061-1.899l3.735-11.102l14.034-1.107l9.516,10.512l12.337-1.254L574.951,377.847z
				 M560.051,388.415c0,0,2.508-6.51,3.56-8.999l5.753,8.022L560.051,388.415z"/>
			<path fill="#F8FCFB" d="M473.522,400.421l-7.56-9.627c0,0-22.02-2.748-30.273,8.945c-8.252,11.692-6.879,28.197,12.383,32.328
				c10.318,1.383,28.899-3.43,29.58-19.253c-6.186,2.748-10.309,3.429-10.309,3.429s-1.862,4.5-9.607,6.197
				c-4.758,1.033-15.362,1.033-15.556-8.575C441.894,399.461,460.457,395.607,473.522,400.421z"/>
			<path fill="#F8FCFB" d="M524.099,394.574c0,0,5.846-2.415,3.089-11.01c-2.748-8.594-11.341-8.262-23.734-5.846
				c-12.375,2.415-25.801,9.294-25.801,9.294s5.847,1.716,7.23,9.277c1.374,7.579,8.944,18.921,1.715,23.402
				c16.514-3.449,21.678-5.164,21.678-5.164s-3.79-0.683-6.888-12.043c9.645-2.415,12.393-2.748,12.393-2.748l5.164,13.407
				L539.23,408C539.23,408,526.856,403.168,524.099,394.574z M510.332,393.191l-11.342,3.8l-3.448-9.978
				c13.757-3.448,16.855-3.098,17.888,0C514.463,390.112,510.332,393.191,510.332,393.191z"/>
			<path fill="#F8FCFB" d="M595.652,369.457h22.361l7.229,17.206l9.968-16.173l24.426-0.331c0,0-6.197,4.462-6.197,8.593
				s0,20.637,0,20.637s0,2.767,3.099,4.131c3.098,1.383,1.715,4.814,1.715,4.814l-26.482-1.716v-3.448c0,0,5.164,0.701,5.505-4.463
				c0.342-5.164,0.692-9.626,0.692-9.626l-14.108,14.09l-12.043-17.188l-1.032,10.659c0,0-1.033,0.682,1.032,2.065
				c2.066,1.365,3.099,3.449,3.099,3.449v2.397l-20.766-1.697l0.47-7.248c0,0,1.725,1.715,2.757-4.463
				C598.4,384.948,598.742,372.555,595.652,369.457z"/>
			<path fill="#F8FCFB" d="M669.955,372.223l45.062,9.627l-3.43,10.309l-4.481,0.701c0,0,0-6.547-9.285-7.58
				c-9.285-1.032-14.098-1.032-14.098-1.032l-0.692,6.546c0,0,6.879,3.099,9.285,2.066c2.407-1.033,4.814-1.716,4.814-1.716
				c1.724,1.716-0.683,7.912-0.683,7.912l-14.449-2.415l-1.374,8.593c0,0,17.889,6.197,23.735,2.066
				c4.814,1.033,4.814,1.033,4.814,1.033l-3.098,10.659l-41.273-9.627l0.682-5.163c0,0,4.473-1.716,5.505-6.88
				c1.033-5.163,2.066-15.122,2.066-15.122s-2.407-5.514-3.79-6.197C667.898,375.303,669.955,372.223,669.955,372.223z"/>
			<path fill="#F8FCFB" d="M723.961,384.598l22.019,7.912l7.571,22.369l7.57-17.557l12.375,4.833l-1.365,2.748
				c0,0-1.382-1.033-4.481,3.43c-3.098,4.481-9.977,24.434-9.977,24.434l-2.066,1.716l-8.593-4.481l-12.725-28.899l-5.163,14.108
				c0,0,1.374,2.065,3.098,4.481c1.715,2.397-1.724,6.528-1.724,6.528l-20.295-6.197c0,0-0.785-3.854,1.715-6.528
				c1.512-1.604,6.325-1.07,7.229-3.781c2.407-7.229,6.538-15.822,6.538-15.822S726.377,386.312,723.961,384.598z"/>
			<path fill="#F8FCFB" d="M773.846,414.879l6.538-11.01l38.866,15.823l-6.188,10.659l-3.79-1.033c0,0-0.682-7.229-5.495-9.295
				l-9.636,19.954c0,0,1.374,2.066,2.757,4.131c1.364,2.066-3.79,6.197-2.757,5.514c1.033-0.701-22.011-10.328-22.011-10.328
				l3.43-3.78c0,0,5.514,0,6.879-2.066c1.383-2.065,8.944-18.571,8.944-18.571s-5.495-3.799-10.659-0.701
				c-5.164,3.098-2.407,1.383-2.407,1.383L773.846,414.879z"/>
			<path fill="#F8FCFB" d="M845.824,426.866c-14.126,0-25.579,8.76-25.579,19.567c0,10.807,11.452,19.567,25.579,19.567
				c14.145,0,25.598-8.76,25.598-19.567C871.422,435.626,859.969,426.866,845.824,426.866z M846.331,457.479
				c-4.988,0-9.027-5.053-9.027-11.286c0-6.233,4.038-11.286,9.027-11.286c4.989,0,9.028,5.053,9.028,11.286
				C855.359,452.426,851.32,457.479,846.331,457.479z"/>
		</g>
	</g>
	<g>
		<path fill="#41368C" d="M700.337,902.608c0-56.173-45.542-101.724-101.724-101.724c-56.192,0-101.724,45.551-101.724,101.724
			c0,56.192,45.532,101.724,101.724,101.724C654.795,1004.332,700.337,958.8,700.337,902.608z"/>
		<path fill="#A9ABAF" d="M705.114,901.76c0-56.709-45.431-102.923-101.799-104.399v-0.166h-5.513v0.166
			c-56.368,1.476-101.799,47.691-101.799,104.399c0,57.667,46.897,104.565,104.555,104.565c47.783,0,88.087-32.254,100.518-76.11
			h0.331c0-0.221,0.027-0.627,0.056-1.217c0.008-0.11,0.008-0.24,0.018-0.35C703.767,920.054,705.114,911.072,705.114,901.76z
			 M679.498,961.437c-0.756-11.95-4.038-36.81-17.805-62.757c-2.96-5.588-6.04-10.843-9.018-15.916
			c-11.13-18.976-20.369-34.873-14.855-54.31c8.097,3.338,17.188,8.078,26.953,14.974c29.396,20.728,32.356,61.097,31.36,84.113
			C692.776,939.989,687.077,951.442,679.498,961.437z M699.212,892.871c-3.688-19.677-12.347-40.443-31.341-53.851
			c-10.264-7.229-19.797-12.208-28.262-15.694c1.31-3.245,3.052-6.602,5.256-10.069C674.777,828.287,696.078,857.96,699.212,892.871
			z M639.996,810.897c-2.25,3.614-4.048,7.101-5.422,10.456c-16.266-5.846-27.718-5.975-31.259-5.827v-12.725
			C616.307,803.17,628.691,805.973,639.996,810.897z M597.802,815.267c-5.68-0.203-16.829,0.11-30.023,4.168
			c-1.365-2.969-3.099-6.031-5.154-9.183c10.88-4.537,22.757-7.101,35.178-7.451V815.267z M557.58,812.612
			c1.973,2.951,3.642,5.827,4.942,8.612c-9.571,3.559-19.898,9.166-29.838,17.944c-21.697,19.142-28.843,44.499-31.176,63.623
			c0-0.35-0.046-0.682-0.046-1.032C501.461,862.534,524.44,828.656,557.58,812.612z M549.225,882.193
			c-3.236,5.238-6.583,10.641-9.792,16.394c-14.117,25.432-17.52,49.867-18.331,62.149c-8.483-11.398-14.661-24.602-17.621-39.005
			c0.885-18.478,6.178-54.919,32.854-78.451c9.35-8.243,19.161-13.517,28.253-16.856
			C571.273,846.471,561.287,862.699,549.225,882.193z M526.357,967.228c0.48-11.416,3.19-39.484,17.899-65.948
			c3.135-5.661,6.445-11.01,9.644-16.192c12.476-20.138,23.523-38.1,15.962-60.434c12.42-3.725,22.859-4.002,27.939-3.854v179.937
			C569.382,999.943,543.96,987.163,526.357,967.228z M603.315,1000.736V820.929c2.6-0.129,13.592-0.11,29.433,5.57
			c-6.463,21.742,3.753,39.317,15.289,58.977c2.951,5.035,5.993,10.216,8.907,15.712c14.348,27.073,16.764,55.86,17.133,66.796
			C656.502,987.477,631.374,999.962,603.315,1000.736z"/>
	</g>
</g>
</svg>
