<?xml version="1.0" encoding="utf-8"?>
<!-- Designed by Vexels.com - 2016 All Rights Reserved - https://vexels.com/terms-and-conditions/  -->

<svg version="1.1" id="Layer_1" xmlns="http://www.w3.org/2000/svg" xmlns:xlink="http://www.w3.org/1999/xlink" x="0px" y="0px"
	 width="1200px" height="1200px" viewBox="0 0 1200 1200" enable-background="new 0 0 1200 1200" xml:space="preserve">
<g>
	<path fill="#005B9F" d="M50,341.797l137.038,1.244l35.802-80.248l91.356-35.802l6.179-12.359l64.205,25.93l-1.244,19.751
		c0,0,143.209-29.622,204.942-30.866c0,27.158,0,27.158,0,27.158l32.102-25.922c0,0,146.91,17.279,190.119,28.395
		c-1.236-11.116-3.707-14.816-3.707-14.816l40.746-27.159l125.922,44.446l30.866,83.964L1150,341.797l-87.648,120.994
		l54.333,132.094L996.919,719.58c0,0-90.112-46.918-99.999-51.846l-56.789,74.06c0,0-8.667,191.355-181.506,232.101
		c-45.675,64.205-64.205,82.72-64.205,82.72l-61.726-83.948c0,0-160.488-44.446-174.068-229.629
		c-37.038-44.446-58.025-76.547-58.025-76.547s-72.848,35.802-98.764,53.089C182.079,701.064,73.428,592.413,73.428,592.413
		l61.718-137.038L50,341.797z"/>
	<g>
		<path fill="#EE702B" d="M237.655,270.193L94.446,587.47l23.459,23.475l40.738-25.931l43.21-108.65l44.438-38.259l7.408,11.1
			l-38.267,111.122l64.197-23.459l28.387-91.363l-22.215-45.674l53.089-51.861l25.93-98.772c0,0-40.746-14.807-37.038-14.807
			c3.7,0-30.867,92.592-30.867,92.592l-53.089,39.502l44.446-113.579L237.655,270.193z"/>
		<path fill="#EE702B" d="M382.093,272.665c-1.229,4.929-66.661,250.616-66.661,250.616l56.789-19.759l39.51-158.009l18.523,76.533
			l-13.587,74.076l51.854-8.643l30.866-235.8l-40.746,8.636l-14.815,70.369l-17.272-65.426L382.093,272.665z"/>
		<polygon fill="#EE702B" points="525.318,247.962 570.991,244.262 563.576,478.835 510.502,483.778 		"/>
		<path fill="#EE702B" d="M680.87,252.906l-54.333-6.164l-30.859,24.688l1.244,179.019l25.923,32.087c0,0,71.605,4.944,80.248,2.472
			l-1.236-43.202l-50.618-6.172l-6.179-145.681h38.282L680.87,252.906z"/>
		<path fill="#EE702B" d="M696.921,254.149l40.738,3.7l19.759,106.179l29.63-37.045c0,0-17.287-66.669-16.058-62.961
			c1.244,3.692,43.209,8.643,43.209,8.643l14.823,65.433l-20.987,29.631l38.274,32.102l37.03,127.15l-56.789-19.759l-19.758-80.233
			l-20.988-19.759l-17.279,14.816l11.108,76.548l-53.081-12.343C726.552,486.251,700.629,251.678,696.921,254.149z"/>
		<path fill="#EE702B" d="M832.723,252.906l20.987-17.287l101.235,37.046l29.631,71.605l-46.902-13.587l-14.831-38.275l-37.03-11.1
			l14.808,60.489l122.23,77.777l75.305,167.896l-22.216,23.475c0,0-114.822-59.277-153.097-71.62
			c-13.571-39.502-32.087-98.763-32.087-98.763l54.318,16.058c0,0,9.871,43.202,13.579,44.446
			c3.7,1.229,48.146,16.044,48.146,16.044l-28.395-66.661l-114.815-82.72L832.723,252.906z"/>
	</g>
	<path fill="#C0C4C6" d="M1005.563,385c4.936-4.928,16.043-20.972,16.043-20.972l85.192-1.244l-53.089,72.848l-11.1-29.63
		L1005.563,385z"/>
	<polygon fill="#C0C4C6" points="94.446,361.556 178.386,362.784 146.292,430.689 	"/>
	<polygon fill="#C0C4C6" points="128.544,620.616 162.366,601.211 229.995,678.864 200.563,698.27 	"/>
	<polygon fill="#C0C4C6" points="220.598,574.912 282.04,550.793 329.418,635.37 279.476,657.57 	"/>
	<polygon fill="#C0C4C6" points="319.945,539.14 375.921,519.167 407.225,603.713 358.373,623.749 	"/>
	<path fill="#C0C4C6" d="M417.88,509.771l18.783,60.121c0,0,23.167-24.426,40.708-31.933c-3.132-20.68-6.264-38.827-6.264-38.827
		L417.88,509.771z"/>
	<path fill="#C0C4C6" d="M508.69,495.999l53.857-3.761l-0.63,18.162c0,0-36.324,4.391-51.976,13.158
		C508.69,503.507,508.69,495.999,508.69,495.999z"/>
	<path fill="#C0C4C6" d="M593.851,469.7c1.674,8.199,0.638,36.938,0.638,36.938l21.294,2.518l-2.034-15.951
		C613.749,493.205,593.229,466.569,593.851,469.7z"/>
	<path fill="#C0C4C6" d="M625.8,494.741l1.873,16.289c0,0,47.592,8.137,74.529,18.776c2.51-22.538,1.213-27.85,1.213-27.85
		S650.195,496.122,625.8,494.741z"/>
	<path fill="#C0C4C6" d="M726.006,504.765l53.965,11.76l-15.767,55.254c0,0-21.916-28.801-41.959-31.933
		C723.497,521.055,726.006,504.765,726.006,504.765z"/>
	<polygon fill="#C0C4C6" points="792.376,598.693 822.981,525.998 880.577,544.237 838.71,622.489 800.513,615.611 	"/>
	<path fill="#C0C4C6" d="M815.543,642.54c-4.183-0.414,18.163,43.217,18.792,70.146c20.665-24.426,41.329-53.872,41.329-53.872
		S821.807,643.154,815.543,642.54z"/>
	<path fill="#C0C4C6" d="M868.77,634.403l47.532-79.234c0,0,109.034,45.397,147.247,68.58
		c-26.943,29.431-70.146,74.521-70.146,74.521S903.905,654.315,868.77,634.403z"/>
	<path fill="#C0C4C6" d="M386.929,633.052c0,0-19.482,56.467-24.35,80.816c-22.384-26.283-40.891-54.517-40.891-54.517
		L386.929,633.052z"/>
	<path fill="#C0C4C6" d="M569.011,983.583l27.251,36.985l27.266-36.017C623.528,984.551,567.061,983.583,569.011,983.583z"/>
	<g>
		<path fill="#EE7429" d="M467.745,636.952c0,0-64.266-10.716-87.633,67.182c-18.5,57.45,20.442,165.517,68.158,198.617
			C426.853,861.867,395.695,729.436,467.745,636.952z"/>
		<path fill="#EE7429" d="M477.478,624.286l28.249-35.05c0,0-39.932-8.766-60.382-1.949c-24.334,22.399-47.7,61.349-47.7,61.349
			S433.662,617.469,477.478,624.286z"/>
		<path fill="#EE7429" d="M490.129,629.153c0,0,36.033,10.715,53.566,91.532c17.517,80.801,60.351,201.549,106.124,235.632
			c42.842-3.9,106.133-47.717,123.658-81.799c-13.633-55.499-85.683-231.733-257.049-281.398
			C501.828,608.719,490.129,629.153,490.129,629.153z"/>
		<path fill="#EE7429" d="M527.144,582.419l34.068-24.35c0,0,17.532,10.716,56.474,15.583
			c38.95,4.867,136.309,22.399,175.258,79.849c38.95,57.435,33.101,155.783-8.758,210.316
			c-9.734-38.95-59.392-158.715-137.284-217.132C602.111,611.635,527.144,582.419,527.144,582.419z"/>
		<path fill="#EE7429" d="M480.395,640.836c0,0,39.924,18.516,53.566,93.482c13.618,74.967,50.625,182.067,96.384,224.916
			c-24.35,3.899-106.133,12.65-158.715-40.9C444.378,859.918,407.379,745.019,480.395,640.836z"/>
		<path fill="#EE7429" d="M465.795,570.736c0,0,35.05-26.283,56.467-31.151c17.533,10.701,27.266,14.601,27.266,14.601
			l-38.949,24.334C510.579,578.52,485.262,571.718,465.795,570.736z"/>
		<path fill="#EE7429" d="M538.819,529.836c0,0,7.792,13.633,23.359,16.565c28.249-13.648,43.816-21.432,43.816-21.432
			S567.046,521.07,538.819,529.836z"/>
		<path fill="#EE7429" d="M578.744,552.236c0,0,34.083-17.533,43.817-20.45c9.733-2.916,87.632-2.916,153.833,84.716
			c-26.292-25.316-70.1-39.932-102.233-46.733C641.552,562.844,593.352,561.97,578.744,552.236z"/>
	</g>
	<g>
		<g>
			<path fill="#005B9F" d="M444.854,163.983c-2.917,0.737,0,0-7.307,16.067c-2.181-8.037-16.796-13.871-16.796-13.871
				l-23.873,77.224c2.103-0.675,12.881-3.431,12.881-3.431s10.271-26.338,14.647-40.93c6.579,1.451,0.875,37.253,0.875,37.253
				l15.199-2.21l16.796-71.558C457.274,162.525,447.771,163.255,444.854,163.983z"/>
			<path fill="#005B9F" d="M396.662,245.045l0.015-0.053C396.217,245.137,396.133,245.176,396.662,245.045z"/>
			<polygon fill="#005B9F" points="455.977,231.35 488.317,224.918 490.114,214.616 471.874,218.017 478.384,196.593 
				492.846,194.106 494.766,183.451 480.303,186.276 484.817,165.618 497.959,163.431 499.417,155.401 471.138,160.33 			"/>
			<path fill="#005B9F" d="M558.303,146.113l-3.677,48.637c0,0,0.791,12.098-8.221,13.149c-5.811,0.684-2.956-21.271-2.956-21.271
				l3.562-39.733l-12.619,1.85l-4.099,42.987c0,0-0.96,17.248-9.595,18.554c-4.422,0.66-1.029-20.266-1.029-20.266l3.669-39.44
				l-10.578,1.642c-0.983,1.451-7.292,55.576-7.292,55.576s-2.917,15.337,8.03,15.337c10.962,0,21.939-8.935,21.939-8.935
				s4.36,9.296,15.26,5.266c12.082-4.467,20.296-2.595,19.705-75.458C564.881,144.8,558.303,146.113,558.303,146.113z"/>
			<path fill="#005B9F" d="M619.759,143.534c1.09,0,0.591,39.909,0.591,39.909s-0.261,5.527-5.343,5.734
				c-3.646,0.153-6.202-3.286-6.202-7.3c0-4.014,0.353-38.343,0.353-38.343H598.58c0,0-0.837,17.034-0.837,33.599
				c0,13.379,3.025,22.844,13.242,23.359c0.369,18.622,0.369,21.554,0.369,21.554l11.1-0.483l-0.783-21.286
				c0,0,11.668-2.963,11.299-18.669c-0.369-15.705-1.904-37.706-1.904-37.706S618.654,143.534,619.759,143.534z"/>
			<path fill="#005B9F" d="M679.143,161.896c0,0-2.188-16.243-20.319-18.361c-14.185-1.659-14.239,10.954-14.239,15.337
				c0,0,1.082,35.05,2.556,45.644c1.459,10.586,6.571,19.713,19.345,19.352c12.78-0.361,16.435-9.496,15.705-27.389
				C681.461,178.591,679.143,161.896,679.143,161.896z M665.717,210.302c-4.682-0.814-6.172-7.615-6.172-7.615l-2.533-38.705
				c-0.353-4.022,0.598-7.861,4.606-7.684c6.448,0.284,6.663,8.444,6.663,8.444s2.702,28.195,2.702,34.037
				C670.983,204.622,671.612,211.323,665.717,210.302z"/>
			<path fill="#005B9F" d="M729.661,196.477c10.209-6.21,11.822-44.3-34.912-43.571c-1.505,0.024,6.448,59.162,7.6,73.9
				c10.224,0.737,12.773,1.167,12.773,1.167l-2.564-22.799c0,0,6.171-5.136,13.479,5.097c6.648,9.319,5.803,19.805,5.803,19.805
				l13.725,2.748C745.566,232.824,744.698,205.006,729.661,196.477z M710.769,191.872c0,0-2.817-24.756-2.817-25.854
				c0,0,15.315,0.883,16.381,14.846C725.146,191.526,710.769,191.872,710.769,191.872z"/>
			<path fill="#005B9F" d="M779.94,209.473c10.947-10.946,8.859-31.61,4.484-37.46l-14.601-2.18c0,0,11.684,30.444-3.301,30.444
				c-3.654-19.721-6.924-33.377-6.924-33.377l-12.42-2.917c0,0,11.253,59.169,11.983,72.311c12.412,1.467,14.308,2.173,14.308,2.173
				l-2.925-18.983c0,0,16.075,2.917,18.992,21.908c10.224,1.458,10.224,1.458,10.224,1.458S802.278,219.468,779.94,209.473z"/>
		</g>
	</g>
</g>
</svg>
