<?xml version="1.0" encoding="utf-8"?>
<!-- Designed by Vexels.com - 2016 All Rights Reserved - https://vexels.com/terms-and-conditions/  -->

<svg version="1.1" id="Layer_1" xmlns="http://www.w3.org/2000/svg" xmlns:xlink="http://www.w3.org/1999/xlink" x="0px" y="0px"
	 width="1200px" height="1200px" viewBox="0 0 1200 1200" enable-background="new 0 0 1200 1200" xml:space="preserve">
<g>
	<path fill="#1D1717" d="M324.881,191.208c0,0-142.365-37.474-186.104-55.31c1.61,82.629,71.269,434.144,144.185,544.304
		c-58.318-24.292-166.848-71.268-186.294-90.714c4.866,8.103,17.817,50.233,17.817,50.233l170.086,426.041
		c0,0,102.056-64.793,176.577-66.422c0,0,108.551,132.824,137.69,150.66c40.5-17.836,118.263-127.976,132.844-157.154
		c29.158,4.866,152.269,45.367,171.715,68.05c19.427-38.872,196.008-464.933,196.008-464.933s-110.159,59.947-160.374,77.764
		c16.189-46.976,124.739-362.877,131.215-541.067c-48.605,16.207-184.303,57.36-184.303,57.36S783.506,46.965,598.839,50.049
		C420.533,53.019,324.881,191.208,324.881,191.208z"/>
	<path fill="#FFFFFF" d="M881.212,205.385l174.416-56.556c0,0-32.396,293.217-147.423,554.018
		c37.263-11.341,186.295-68.03,186.295-68.03l-163.612,396.882c0,0-108.531-34.025-200.874-50.213
		c-29.158,38.872-90.79,127.785-128.494,153.246c-33.622-26.496-119.24-128.398-131.483-152.864
		c-20.365,2.031-166.097,27.511-221.138,51.977C237.692,999.186,86.86,623.13,86.86,623.13s146.752,63.184,208.92,72.36
		c-7.146-28.527-18.335-47.896-28.527-72.36c-10.211-24.466-102.938-302.682-110.084-465.757c0,0,138.61,39.754,165.106,45.865
		c-21.553,10.269-18.45,43.011-24.561,62.379c-6.131,19.369-34.542,52.781-34.542,52.781s-34.945,97.687,14.272,174.282
		c2.798,4.368,23.431,108.034,24.466,111.079c1.015,3.065,34.638,66.25,34.638,66.25l64.214,52.991l39.734,23.449l144.721,31.592
		L734,761.74c0,0,67.284-35.672,69.314-38.738s40.768-21.399,67.246-65.214c26.515-43.815,65.233-169.167,70.33-211.987
		C945.986,403.002,947.5,258.453,881.212,205.385z"/>
	<path fill="#BBC8CD" d="M309.516,223.087c0,0-41.727,68.241-36.611,163.017c5.096,94.776,34.983,212.657,128.738,309.482
		c36.688,29.542,52.723,33.948,94.507,54.332c41.784,20.385,99.259,33.221,99.259,33.221l146.426-41.497
		c0,0,133.839-44.122,177.654-213.289c43.815-169.186,4.215-266.356-18.2-304.06c40.768-17.338,120.332-39.83,120.332-39.83
		c-24.312,294.844-155.526,545.933-155.526,545.933s-111.77,157.136-149.032,221.929
		c-37.263,64.793-118.245,145.794-118.245,145.794s0,0-9.732-8.104c-48.585-48.585-259.167-359.619-259.167-359.619
		s3.333,18.814,1.724-0.632c-1.628-19.446-97.745-170.681-152.384-543.673c24.292,11.341,124.739,34.025,124.739,34.025"/>
	<path fill="#005EA7" d="M85.843,640.449c4.062,0,475.925,251.739,1028.314,5.096l-158.993,370.961
		c0,0-379.123-128.399-727.664,4.099C184.7,896.269,85.843,640.449,85.843,640.449z"/>
	<path fill="#1D1717" d="M326.049,191.226c0,0-73.242,80.311-51.976,253.943c23.584,192.54,126.324,320,324.842,323.64
		c159.511,2.951,214.84-49.811,263.56-118.034c0,0,69.296-88.894,81.346-225.684c11.706-132.747-35.423-197.253-51.803-222.81
		C883.186,200.193,326.049,191.226,326.049,191.226z"/>
	<path fill="#FDFDFE" d="M292.657,435.59c0,0-38.872-204.112,134.448-311.034c142.556-87.476,330.479-51.842,421.193,55.081
		c79.373,90.714,81.001,228.404,74.526,244.612c-11.342-66.422-105.294-293.217-349.906-260.821
		c3.238-11.323,6.476-17.817,6.476-17.817s-64.813-12.951-106.922,43.738c-21.055,17.817-45.367,30.788-56.689,27.55
		c-19.441,21.055-29.154,27.53-29.154,27.53s-4.866,17.817-16.207,27.55c-11.342,9.714-45.348,40.5-51.842,71.269
		C312.102,374.034,292.676,409.668,292.657,435.59z"/>
	<path fill="#005BA7" d="M602.096,181.303c-2.758,0.038,31.305,21.745,42.608,35.654c16.533-9.561,59.142-12.185,78.28,6.091
		c-32.185,31.305-43.489,43.489-43.489,43.489s70.445,49.563,153.937,22.607C777.777,228.259,719.498,179.56,602.096,181.303z"/>
	<path fill="#005BA7" d="M676.027,306.54c0,0,102.612,26.093,166.984-3.467c34.772,40.864,87.84,180.01,36.515,265.246
		C872.572,508.315,841.267,380.472,676.027,306.54z"/>
	<path fill="#005BA7" d="M709.938,374.379c0,0,162.633,81.748,143.514,222.637c-21.745,50.444-90.446,69.583-92.189,70.445
		c-1.744,0.862,40.883-162.634-61.747-260.035c26.955,13.909,20.001,0.862,17.395-7.835
		C714.286,390.894,709.938,374.379,709.938,374.379z"/>
	<path fill="#005BA7" d="M695.167,444.824c0,0,68.702,80.886,44.352,224.381c-22.607,12.185-111.328,10.422-108.723,7.836
		c2.625-2.625,43.508-41.746,43.508-41.746l-25.231-93.071l13.047-52.187l14.79,48.719
		C676.909,538.757,702.121,490.038,695.167,444.824z"/>
	<path fill="#005BA7" d="M740.399,674.417c1.724,3.486-0.881,38.278,7.817,20.001c8.698-18.258,9.56-24.35,9.56-24.35
		L740.399,674.417z"/>
	<path fill="#FDFDFE" d="M709.938,707.464c0,0-126.982,26.956-203.519-69.564c54.792,5.212,60.885-7.835,70.444-13.047
		c9.561-5.23,13.929-39.14,14.791-54.792c0.862-15.652,0-37.397,0-37.397l-13.929,15.652c0,0-29.56-133.073-38.259-166.102
		c27.837,31.305,46.976,25.212,46.976,25.212s-63.49-46.975-60.004-122.631c35.654,39.14,34.792,42.607,35.654,39.14
		c0.862-3.487-22.626-54.792-25.232-73.051c-2.605-18.258-4.348-74.794,21.745-96.538c-23.488,0.862-76.537,24.351-76.537,76.538
		c-40.864,36.515-72.188,99.144-69.564,153.055c2.587,53.93,39.14,67.839,38.259,70.444c-0.862,2.606-24.35,12.185-50.444-17.377
		c-5.207,16.514,21.745,59.123,21.745,59.123s-21.745-9.56-27.832-20.002c-6.073-10.441-6.092,9.579-2.605,13.909
		c3.486,4.349,47.833,77.419,74.789,96.557c-21.726-1.762-71.303-15.652-77.375-20.882c10.422,29.581,70.441,126.1,205.237,150.45
		C643.842,723.116,697.753,711.814,709.938,707.464z"/>
	<path fill="#BBC8CD" d="M789.08,698.785c0,0-132.191,68.683-233.941,34.773c-101.749-33.911-182.63-92.17-205.237-232.198
		c22.607,33.048,56.512,48.7,56.512,48.7s-91.303-93.932-33.044-202.637c-5.211,47.819,10.442,92.19,10.442,92.19
		s-10.442-131.33,68.716-207.005c-20.882,15.652-46.114,41.745-46.114,41.745l2.605-26.093c0,0-17.372,26.093-20.858,47.838
		c-12.166,14.79-42.608,61.766-46.096,78.281c1.744-23.488-4.33-25.212,10.442-49.582c-18.258,12.185-47.839,89.584-14.79,210.472
		c-9.56-16.514-25.212-42.607-26.956-57.397c0.862,38.259,28.699,146.981,120.884,216.545
		C523.854,764,676.889,774.441,789.08,698.785z"/>
	<path fill="#1D1717" d="M514.275,587.457c0,0-42.608-101.749-45.232-102.611c-2.606-0.881-27.818-1.763-27.818-1.763
		S482.088,563.107,514.275,587.457z"/>
	<path fill="#1D1717" d="M550.79,600.504c-3.467-1.743-24.35-14.79-9.56-27.837c14.79-13.047,24.351-7.835,25.232,1.744
		c0.862,9.56-0.881,26.955-0.881,26.955s-3.487-16.533-9.561-15.652C549.928,586.595,550.79,600.504,550.79,600.504z"/>
	<path fill="#BBC8CD" d="M529.927,437.007c0,5.212,6.092,94.795,6.092,94.795l19.139,1.724L529.927,437.007z"/>
	<path fill="#1D1717" d="M525.578,416.125l-9.56-35.653c0,0-58.279-22.607-43.489-81.748
		C456.014,342.193,474.272,391.775,525.578,416.125z"/>
	<path fill="#1D1717" d="M523.854,355.24c0,0-54.812-4.33-23.489-73.051C503.833,319.586,513.412,341.331,523.854,355.24z"/>
	<path fill="#1D1717" d="M500.365,218.7c-2.625,0.824,9.56-41.727,38.259-53.03C536.019,184.79,516.88,213.488,500.365,218.7z"/>
	<path fill="#BBC8CD" d="M556.02,228.279c0,0,45.214,106.098,48.701,159.147c12.165-27.837-5.212-110.448-5.212-110.448
		l24.351,53.049l15.652-34.792c0,0,3.486,67.839-6.955,94.795c24.35-40.864,21.725-109.585,15.652-137.403
		c-20.864,45.213-27.837,46.095-27.837,46.095S596.023,244.792,556.02,228.279z"/>
	<path fill="#BBC8CD" d="M665.605,336.983c0,5.211-12.185,56.536-21.745,73.05c16.514-0.861,30.442-26.074,21.745-67.839"/>
	<path fill="#BBC8CD" d="M656.027,239.582c0,0,27.837-20.002,46.095-19.139c-16.514-5.211-50.444,6.092-50.444,6.092
		L656.027,239.582z"/>
	<path fill="#FDFDFE" d="M642.998,443.962c-0.497-4.33-12.185,80.005-18.276,90.446c2.624,14.771,20.001,92.19,20.001,92.19
		l-28.699,36.515l42.627-38.259l-22.606-87.84C636.045,537.014,646.467,474.385,642.998,443.962z"/>
	<path fill="#FFFFFF" d="M1042.792,714.342c-1.379-2.088-4.674-5.594-11.13-5.594c-3.487,0-7.395,0.996-12.319,3.18
		c-3.142,1.361-7.204,2.854-11.936,4.597c-20.806,7.626-52.283,19.159-63.452,44.141c-3.123,6.955-7.204,16.227-11.533,26.074
		c4.579-13.066,8.123-24.867,9.943-32.895c0.69-3.027-0.211-6.188-2.357-8.41c-2.145-2.223-5.287-3.2-8.334-2.625
		c-11.226,2.184-18.718,3.678-23.411,4.655c-7.165,1.514-14.56,3.065-13.755,11.477c0.057,0.497,0.153,0.996,0.287,1.456
		c-1.668,13.142-11.668,45.214-21.764,64.889c7.415-25.48,17.837-56.823,17.99-57.264c0.997-2.988,0.402-6.284-1.61-8.716
		c-1.973-2.434-5.096-3.717-8.199-3.296l-28.718,3.507c-3.678,0.44-6.725,3.084-7.721,6.666l-0.287,1.035
		c-0.192-0.326-0.365-0.651-0.613-0.939c-1.878-2.28-4.809-3.525-7.74-3.315c-1.188,0.096-29.504,2.185-42.608,5.096
		c-1.705,0.384-3.62,0.652-5.671,0.94c-11.437,1.667-31.592,4.655-40.558,28.622l1.897-9.751c0.555-2.798-0.249-5.671-2.107-7.817
		c-1.897-2.127-4.579-3.314-7.491-3.084c-12.012,0.785-31.803,2.049-33.7,2.087c-4.789,0-8.755,3.678-9.138,8.43l-1.207,14.848
		c-4.388-10.556-14.522-19.963-37.762-20.48c-31.956-0.709-44.504,2.05-45.711,2.337c-3.2,0.766-5.614,3.142-6.591,6.149
		c-1.456-2.835-4.31-4.828-7.682-4.981l-44.102-2.107c-0.575-0.02-1.13,0-1.686,0.095c-7.759,1.073-21.534,7.415-27.549,23.642
		c-0.307-10.575-0.518-17.99-0.556-19.043c-0.134-4.808-3.966-8.698-8.774-8.89l-32.895-1.398c-2.74-0.192-5.403,0.996-7.223,3.046
		c-0.593,0.671-1.092,1.399-1.475,2.203c-0.038-0.555-0.038-0.862-0.038-0.862c-0.306-4.694-4.099-8.41-8.793-8.602l-35.003-1.399
		c-2.51-0.02-4.924,0.824-6.725,2.567c-1.8,1.724-2.816,4.1-2.816,6.609c0,0.441,0,1.111,2.07,13.334
		c-8.909-15.825-30.917-40.079-82.184-40.079c-1.571,0-3.161,0.019-4.79,0.057c-2.759,0.096-5.345,1.418-7.012,3.622
		c-1.685,2.203-2.28,5.039-1.628,7.721l12.989,53.681c-4.732-15.498-8.774-27.76-11.112-32.99
		c-9.1-20.269-41.822-50.904-70.426-50.904c-5.154,0-9.981,0.92-14.464,2.797c-0.708-0.48-1.437-0.939-2.183-1.437
		c-22.665-14.599-57.666-37.053-85.35-34.235c-2.759,0.286-5.25,1.8-6.763,4.119c-1.494,2.318-1.877,5.211-1.034,7.835
		c16.686,51.459,94.201,251.05,97.477,259.517c1.417,3.602,4.866,5.843,8.563,5.843c0.844,0,1.706-0.115,2.548-0.344l26.611-7.721
		c2.394-0.69,4.406-2.338,5.574-4.541c0.326-0.633,0.575-1.322,0.747-1.992c2.337,2.337,5.863,3.333,9.272,2.28l24.504-7.702
		c1.916-0.593,3.486-1.763,4.598-3.257c1.992,2.663,5.326,4.138,8.794,3.564l30.806-4.886c2.567-0.421,4.848-1.916,6.265-4.099
		c0.134-0.192,0.211-0.441,0.326-0.652c1.379,0.805,2.912,1.361,4.579,1.361c0.593,0,1.226-0.077,1.859-0.211l20.283-4.195
		c4.886-0.997,8.066-5.709,7.184-10.613l-10.092-55.77l1.016-0.077l14.229,57.59c1.093,4.368,5.154,7.338,9.714,6.935l16.093-1.398
		c2.548-0.231,4.866-1.475,6.437-3.487c1.571-2.012,2.223-4.56,1.839-7.069l-1.839-11.725c4.273,8.64,14.024,19.349,31.362,19.349
		c2.472,0,5.077-0.211,7.721-0.651c15.576-2.605,30.271-7.108,37.435-19.733c0.115,3.813,0.192,6.265,0.211,6.782
		c0.076,2.452,1.13,4.752,2.912,6.399c1.686,1.59,3.927,2.471,6.245,2.471c0.115,0,0.23,0,0.345,0l38.833-1.399
		c0.192,0.02,0.46,0.02,0.767,0.02c3.448,0,15.48-0.766,24.925-10.537c3.027-3.123,5.441-6.82,7.28-11.055l-0.096,10.193
		c-0.038,2.452,0.92,4.808,2.643,6.551c1.724,1.744,4.062,2.721,6.514,2.721h23.813c5.059,0,9.177-4.1,9.177-9.177v-41.496
		c0.479,1.015,0.536,2.011,0.555,2.701c0.671,15.556,0,37.607,0,37.818c-0.077,2.529,0.882,4.981,2.683,6.763
		c1.781,1.801,4.157,2.758,6.762,2.701l22.416-0.709c3.104-0.096,5.805-1.743,7.395-4.195c0.019,2.337,0.881,4.579,2.49,6.284
		c1.743,1.801,4.138,2.816,6.629,2.816c0.115,0,0.229,0,0.344,0l18.201-0.709c4.272-0.172,7.855-3.237,8.659-7.414l0.479-2.51
		c0.307,2.184,0.92,4.311,2.088,6.245c2.548,4.311,6.974,6.84,12.396,7.166c12.05,0.709,38.623,0.728,39.753,0.728
		c0.518,0,1.035-0.057,1.552-0.133c2.95-0.518,14.139-3.756,24.964-22.894l-5.25,19.1c-0.766,2.778-0.191,5.728,1.532,8.008
		c1.744,2.281,4.445,3.602,7.3,3.602h21.706c4.253,0,7.95-2.911,8.927-7.05c3.717-15.672,7.817-32.32,11.189-45.405
		c-4.771,19.809-10.538,46.113-10.864,47.627c-0.555,2.434-0.076,4.982,1.322,7.051c1.361,2.069,3.525,3.487,5.958,3.928
		l26.611,4.904c0.556,0.096,1.111,0.153,1.667,0.153c2.184,0,4.235-0.843,5.863-2.223c0.115,0.134,0.173,0.249,0.268,0.403
		c4.388,5.402,11.686,8.141,21.726,8.141l1.801-0.019c23.66-0.709,44.083-1.303,58.471-32.645
		c11.897-25.903,27.588-67.457,28.105-68.817c0.441-1.034,4.12-10.192-1.149-18.468c-3.871-6.111-10.92-9.387-20.96-9.713
		c-5.556-0.191-9.234-0.249-13.104-0.077c0.613-2.07,1.59-4.904,2.989-8.085c0.173-0.383,0.326-0.786,0.498-1.169
		c0.287,0.728,0.651,1.418,1.092,2.07c1.763,2.49,4.655,3.946,7.721,3.888l28.699-0.69c3.64-0.095,6.878-2.318,8.257-5.689
		l39.887-96.538C1044.249,727.428,1046.739,720.3,1042.792,714.342z M604.395,850.059l-0.02,1.59
		c-0.249-0.23-0.479-0.497-0.746-0.708C603.897,850.672,604.146,850.366,604.395,850.059z M815.978,868.604
		c-1.763-2.183-4.388-3.448-7.165-3.448H784.31c-4.33,0-8.066,3.027-8.966,7.261c-2.567,11.936-6.744,30.271-8.027,33.7
		c-0.844,2.241-2.932,4.253-4.445,4.981c0.134-2.414,0.671-6.782,2.376-14.484c2.912-13.085,7.913-35.405,12.012-53.815
		c0.134,1.705,0.729,3.391,1.782,4.79c1.724,2.337,4.464,3.717,7.357,3.717c2.183,0,23.699-1.495,32.856-2.127
		c0.977-0.077,1.935-0.307,2.816-0.651l-5.709,20.69C816.228,869.007,816.131,868.796,815.978,868.604z"/>
	<g>
		<g>
			<g>
				<path fill="#1D1717" d="M243.113,749.018c-20.997-13.295-58.796-39.906-86.097-37.109
					c16.782,51.804,97.304,259.039,97.304,259.039l26.611-7.701l-65.809-195.318c0,0,0.69-23.814,9.79-6.303
					c9.1,17.511,71.403,197.406,71.403,197.406l24.503-7.682c0,0-52.493-168.018-51.803-170.126c0.69-2.087-2.798-20.997,9.809-8.41
					c12.606,12.607,56.708,178.536,56.708,178.536l30.788-4.904c0,0-37.091-135.813-46.191-156.12S269.705,732.217,243.113,749.018z
					"/>
			</g>
			<g>
				<g>
					<path fill="#1D1717" d="M335.533,763.713l43.413,179.225l20.289-4.215l-11.879-65.789l18.885-1.399l16.093,65.1l16.112-1.399
						l-19.618-125.314C418.828,809.922,407.64,761.625,335.533,763.713z M383.141,860.328l-16.093-76.307
						c0,0,19.599,5.594,25.193,23.795s11.203,51.114,11.203,51.114L383.141,860.328z"/>
				</g>
			</g>
			<g>
				<path fill="#1D1717" d="M481.839,786.818c0,0,16.802,109.22,15.404,119.011c-1.399,9.809-7.702,10.499-13.296,9.809
					c-5.594-0.709-11.917-10.499-13.296-32.205c-1.399-21.706-6.303-100.811-6.303-100.811l-35.001-1.399
					c0,2.108,23.086,133.016,23.086,133.016s5.614,21.687,30.826,17.491c25.193-4.195,34.293-11.897,34.293-30.098
					c0-18.2-2.798-113.397-2.798-113.397L481.839,786.818z"/>
			</g>
			<g>
				<path fill="#1D1717" d="M551.863,915.638c0-35.712,0.709-46.191,0.709-46.191h45.501V858.24h-46.9v-30.806
					c0,0-2.107-21.017,23.795-20.308l0.709,37.109h21.687v-49.716l-44.102-2.088c0,0-20.289,2.798-22.396,27.99
					c-2.107,25.213,0.69,107.114,0.69,107.114l39.217-1.399c0,0,29.407,2.107,28.009-38.508c-19.618,0-22.415-0.69-22.415-0.69
					S586.176,916.346,551.863,915.638z"/>
			</g>
			<g>
				<g>
					<path fill="#1D1717" d="M657.578,791.032c-31.515-0.708-43.413,2.088-43.413,2.088l-1.399,130.908h23.813v-53.892
						c0,0,18.201-1.399,18.89,14.694c0.709,16.112,0,38.508,0,38.508l22.416-0.708l0.69-35.003c0,0,2.797-22.396-6.993-29.389
						c16.093-4.905,18.201-17.51,18.201-32.914C689.783,809.922,689.074,791.723,657.578,791.032z M656.18,841.438
						c-1.399,15.403-16.802,10.499-16.802,10.499l1.399-45.52c17.491-0.69,16.093,11.208,16.093,11.208
						S657.578,826.035,656.18,841.438z"/>
				</g>
			</g>
			<g>
				<path fill="#1D1717" d="M705.895,788.236l-11.207,139.3l18.2-0.709l27.3-140.699
					C740.188,786.128,707.983,788.236,705.895,788.236z"/>
			</g>
			<g>
				<path fill="#1D1717" d="M784.31,874.332c0,0-6.303,29.389-8.392,35.003c-2.107,5.594-8.41,11.897-14.714,11.208
					c-6.303-0.709-10.499-0.709-4.905-25.921c5.594-25.193,18.91-84.699,18.91-84.699s4.214-16.112,14.694-16.802
					c10.499-0.708,7.011,6.303,6.303,12.607c-0.69,6.303-9.809,36.4-9.809,36.4c2.107,0,32.205-2.107,32.205-2.107l18.2-67.897
					c0,0-28.698,2.088-41.285,4.905c-12.607,2.797-35.712,0.69-42.014,32.205c-6.303,31.497-18.89,100.811-18.89,100.811
					s-9.119,19.58,2.797,20.288c11.897,0.709,39.198,0.709,39.198,0.709s20.308-3.506,32.205-56.709
					C787.107,874.332,784.31,874.332,784.31,874.332z"/>
			</g>
			<g>
				<path fill="#1D1717" d="M883.722,861.727c15.383-9.79,42.704-79.105,49.696-109.911c-25.193,4.905-31.497,6.303-29.408,6.303
					c2.108,0-20.997,98.014-46.899,92.42c3.506-20.309,25.212-85.427,25.212-85.427l-28.719,3.506l-46.899,170.106h21.706
					c0,0,16.802-70.694,18.909-71.403c2.088-0.69,18.909-1.399,14.695,12.606c-4.196,14.005-15.404,65.1-15.404,65.1l26.611,4.904
					c0,0-5.594-6.285,0.691-22.396C880.216,911.423,890.714,879.237,883.722,861.727z"/>
			</g>
			<g>
				<path fill="#1D1717" d="M1023.041,720.32c-17.511,7.701-58.816,17.491-70.713,44.102
					c-11.917,26.591-37.799,86.116-37.799,86.116s-8.41,18.181,4.195,17.491c12.587-0.709,23.105,0,23.105,0s7.701,0,3.486,13.295
					c-4.195,13.296-17.492,49.716-17.492,49.716s-8.391,11.188-15.403,9.789c-7.012-1.398,11.897-57.397,11.897-57.397h-24.503
					c0,0-12.587,42.704-13.986,50.405c-1.417,7.702-7.011,23.105,16.782,22.396c23.814-0.708,38.508-1.398,50.406-27.3
					c11.916-25.902,28.01-68.605,28.01-68.605s6.303-14.694-14.005-15.403c-20.308-0.709-18.2,1.399-18.2,1.399s-9.79,0,0-22.396
					c9.809-22.416,21.706-49.007,21.706-49.007s1.514-5.326,4.905-8.411c6.131-5.536,15.192-8.563,9.789,6.303
					c-8.257,22.741-18.89,50.406-18.89,50.406l28.699-0.69l39.907-96.615C1034.938,725.914,1040.532,712.618,1023.041,720.32z"/>
			</g>
		</g>
	</g>
	<polygon fill="#FFFFFF" points="777.739,840.576 784.98,845.749 823.757,844.177 817.55,875.214 805.671,867.972 777.221,871.593 
		766.378,911.385 761.205,910.37 	"/>
	<path fill="#FFFFFF" d="M401.087,947.709c2.472-1.092,22.052-1.935,22.052-1.935s-4.79-8.506-8.679-21.725
		c-3.889-13.22-13.219-47.475-13.219-47.475l-7.008,2.337l10.877,59.141L401.087,947.709z"/>
	<polygon fill="#FFFFFF" points="641.677,876.574 651.792,885.138 653.344,933.379 636.58,933.206 	"/>
	<g>
		<path fill="#1D1717" d="M598.456,929.892c-1.015,3.065-12.223,42.8-12.223,42.8l-62.169,8.161l45.865,26.496l-13.257,42.8
			l42.818-26.496l41.785,26.496l-12.243-44.831c0,0,36.688-19.369,45.865-22.434c-15.288-6.111-61.153-7.126-61.153-7.126
			L598.456,929.892z"/>
		<polygon fill="#FFFFFF" points="598.456,959.453 592.345,981.868 555.656,986.964 581.137,1002.252 574.01,1029.783 
			598.456,1013.459 623.936,1029.783 615.774,1001.236 647.386,987.98 605.601,981.868 		"/>
	</g>
</g>
</svg>
