<?xml version="1.0" encoding="utf-8"?>
<!-- Designed by Vexels.com - 2016 All Rights Reserved - https://vexels.com/terms-and-conditions/  -->

<svg version="1.1" id="Layer_1" xmlns="http://www.w3.org/2000/svg" xmlns:xlink="http://www.w3.org/1999/xlink" x="0px" y="0px"
	 width="1200px" height="1200px" viewBox="0 0 1200 1200" enable-background="new 0 0 1200 1200" xml:space="preserve">
<g>
	<path fill="#00628B" d="M219.301,550.953c-5.063,0-166.965,0-166.965,0v94.873c0,0,15.802-12.657,15.802,15.803
		c0,28.459,0,216.932,0,216.932S65.99,898.512,50,898.512v82.367h189.462v-33.417c0,0,16.963,34.885,64.931,34.885
		s80.449-38.764,80.449-38.764s20.34,36.817,70.264,36.817c49.916,0,79.468-39.738,79.468-39.738s15.51,39.259,72.698,39.259
		c57.173,0,64.932-25.688,64.932-25.688v23.741h163.295v-31.98l19.876,31.021h103.201h6.786v-27.141l25.702,19.861h17.922
		c0,0-3.871-12.117,10.178-4.358s19.367,15.503,60.079,13.091c0,0,29.567-2.906,50.402-29.073
		c20.835-26.167,19.382-35.858,19.382-67.837s0-77.529,0-77.529s0.479-24.235-20.356-39.723
		c-20.835-15.517-39.259-31.993-39.259-31.993h60.094L1150,562.726c0,0-22.288,8.733-32.967-0.959
		c-10.664-9.691-47.481-15.503-84.299-10.664c-3.879-10.65-26.062-42.209-26.062-42.209l41.744-0.944
		c0,0-106.242-134.716-253.292-146.1c-81.58-75.896-166.006-144.197-166.006-144.197L456.454,360.907
		c0,0-127.122,13.27-256.138,147.043c16.124,2.846,33.2,2.846,33.2,2.846l-23.711,21.824L219.301,550.953z"/>
	<g>
		<path fill="#F6A000" stroke="#FFFFFF" stroke-width="0.4473" stroke-miterlimit="10" d="M71.801,568.463h60.909l43.797,224.482
			V652.642c0,0,1.37-20.521-10.949-25.314v-59.539h65.021v60.902c0,0-13.017,2.052-13.017,21.225c0,19.158,0,316.869,0,316.869
			h-54.057l-39.693-211.481v125.923c0,0-0.696,19.846,15.727,25.314v60.918H72.482v-62.954c0,0,15.743,1.363,15.743-27.38
			c0-28.744,0-223.104,0-223.104s-1.364-21.225-17.121-23.277L71.801,568.463z"/>
		<path fill="#F6A000" stroke="#FFFFFF" stroke-width="0.4473" stroke-miterlimit="10" d="M229.202,665.643l76.652-43.108
			l-0.682,65.695c0,0-9.586,2.067-9.586,26.692c0,24.64,0,160.838,0,160.838s1.386,11.624,13.017,11.624
			c11.623,0,12.987-8.208,12.987-17.794c0-9.572,0-162.875,0-162.875s0-19.846-8.209-21.21v-65.71l72.548-31.485l-1.37,78.696
			c0,0-9.572-3.4-9.572,11.654c0,15.053,0,222.414,0,225.155c0,2.726-4.808,62.97-69.133,63.644
			c-64.325,0.689-61.584-80.749-61.584-80.749V726.545h-13.69L229.202,665.643z"/>
		<path fill="#F6A000" stroke="#FFFFFF" stroke-width="0.4473" stroke-miterlimit="10" d="M525.52,597.895
			c0,0-14.365,1.378-21.21-8.897c-6.845-10.26-20.535-21.21-49.279-17.794c-28.743,3.43-64.332,17.794-64.332,84.868
			s0,239.52,0,239.52s-0.674,72.541,62.969,72.541s72.541-45.85,72.541-45.85V749.822l-68.436-1.364v48.59
			c0,0,13.001-6.157,13.001,13.001c0,19.172,0,59.539,0,59.539s0.681,17.794-12.32,18.468
			c-12.993,0.689-10.267-23.261-10.267-23.261V664.954c0,0-0.674-14.365,9.586-14.365c10.267,0,10.949,9.586,10.949,15.727
			c0,6.171,0,56.813,0,56.813h56.124L525.52,597.895z"/>
		<path fill="#F6A000" stroke="#FFFFFF" stroke-width="0.4473" stroke-miterlimit="10" d="M678.128,582.153
			c0,0-13.001,4.119-19.854-6.156c-6.838-10.26-23.202-25.419-52.005-22.588c-41.744,4.119-67.058,35.589-67.058,102.663
			s0,239.52,0,239.52s-0.674,72.541,62.969,72.541c63.644,0,72.541-45.85,72.541-45.85V749.822l-68.436-1.364v48.59
			c0,0,13.001-6.157,13.001,13.001c0,19.172,0,59.539,0,59.539s0.689,17.794-12.313,18.468
			c-13.008,0.689-10.275-23.261-10.275-23.261V650.589c0,0-0.674-14.364,9.586-14.364c10.275,0,10.949,9.586,10.949,15.727
			c0,6.171,0,71.178,0,71.178h60.214L678.128,582.153z"/>
		<path fill="#F6A000" stroke="#FFFFFF" stroke-width="0.4473" stroke-miterlimit="10" d="M687.002,558.202
			c0,0,87.609,8.223,126.627,26.692c2.037,75.971,0,135.51,0,135.51h-44.486v-64.332c0,0-8.912-6.157-14.394-5.482v99.921h36.967
			v52.02h-37.633v90.335c0,0,14.372-6.156,15.06-8.897c0.682-2.742,0-58.177,0-58.177h49.953v137.562H687.691v-55.435
			c0,0,15.743,2.741,15.743-22.587c0-25.314,0-239.535,0-239.535s0-13.001-14.365-17.106L687.002,558.202z"/>
		<path fill="#F6A000" stroke="#FFFFFF" stroke-width="0.4473" stroke-miterlimit="10" d="M830.031,590.361
			c0,0,104.714,32.174,151.933,65.711c2.741,41.056,0,64.332,0,64.332h-34.218c0,0,2.037-32.174-10.949-35.589V872.33
			c0,0-0.689,27.38,14.372,33.536v59.539h-86.224v-57.487c0,0,13.675-3.43,13.675-32.848c0-29.433,0-198.464,0-198.464
			s-10.267,2.037-10.267,17.78c0,15.742,0,24.639,0,24.639H830.72L830.031,590.361z"/>
		<path fill="#F6A000" stroke="#FFFFFF" stroke-width="0.4473" stroke-miterlimit="10" d="M1132.88,583.86
			c0,0-16.371-1.198-31.155-7.863c-21.209-9.586-102.647-15.069-103.336,41.744c-0.689,56.799-1.37,108.129-1.37,108.129
			s-0.674,26.692,25.321,45.175c26.002,18.468,49.278,35.589,49.278,35.589s11.624,11.623,11.624,31.484c0,19.846,0,39.004,0,39.004
			s0,17.794-15.053,17.794c0,0-13.001,0-13.001-15.069c0-15.053,0-43.797,0-43.797h-58.169v119.079h7.526
			c0,0,2.726-17.795,19.158-4.09c16.432,13.676,54.072,28.055,85.556,1.364c31.485-26.692,26.003-49.279,26.003-62.97
			c0-13.675,0-86.919,0-86.919s2.052-15.727-11.638-25.314c-13.691-9.586-62.939-48.591-62.939-48.591s-7.549-7.534-7.549-30.121
			c0-22.573,0-49.953,0-49.953s-0.689-16.416,11.638-16.416c12.327,0,15.053,14.365,15.053,17.794c0,3.415,0,70.488,0,70.488h56.125
			L1132.88,583.86z"/>
	</g>
	<path fill="#F7A623" d="M222.132,500.356l36.997,1.902c0,0-28.459,19.922-33.2,25.614c7.587,14.229,56.926,94.858,56.926,94.858
		s126.387-86.53,355.745-75.88c224.834,10.424,325.384,84.433,325.384,84.433l53.114-85.391c0,0-27.493-40.787-37.941-46.478
		c27.515-1.902,44.59,0,44.59,0s-99.599-99.607-215.344-120.486c44.59,31.305,135.659,91.069,180.25,150.848
		c-58.813-30.361-186.886-86.336-356.689-90.125c-169.817-3.79-365.241,72.09-365.241,72.09S400.48,406.441,453.608,380.828
		C412.822,380.828,354.002,396.001,222.132,500.356z"/>
	<path fill="#008DBC" d="M392.893,402.651c0,0-71.155,32.249-138.505,86.321c20.872,1.902,15.181,0.959,15.181,0.959
		L392.893,402.651z"/>
	<path fill="#008DBC" d="M856.468,402.651c0,0,71.148,32.249,138.506,86.321c-20.88,1.902-15.188,0.959-15.188,0.959
		L856.468,402.651z"/>
	<path fill="#008DBC" d="M244.9,531.661l44.59,74.952c0,0,123.332-72.106,315.91-72.106c193.521,0,290.281,50.282,351.94,79.685
		c15.181-22.767,42.696-68.301,42.696-68.301s-182.145-95.817-372.821-95.817C426.093,450.073,244.9,531.661,244.9,531.661z"/>
	<path fill="#00628B" d="M630.07,240.435c0,0-183.096,156.524-212.514,179.292c-29.403,22.767-99.607,73.993-96.761,73.05
		c2.846-0.959,189.732-59.764,311.169-53.128c121.423,6.635,317.79,72.09,317.79,72.09S751.499,344.775,719.236,319.162
		C686.98,293.549,630.07,240.435,630.07,240.435z"/>
	<polygon fill="#FFFFFF" points="630.07,255.608 466.894,391.268 557.012,353.312 569.347,387.464 601.596,359.004 633.859,420.67 
		659.472,357.117 691.736,399.805 697.412,356.158 793.23,396.001 	"/>
	<path fill="#FFFFFF" d="M335.489,509.628c-20.311,5.916-38.412,14.454-38.412,14.454L318.9,581c0,0,37.947-5.692,55.023-22.768
		C390.998,541.157,387.659,498.244,335.489,509.628z M332.508,561.528l-12.432-32.248c0,0,34.001-15.518,42.539,0.854
		C367.797,540.094,365.37,551.342,332.508,561.528z"/>
	<path fill="#FFFFFF" d="M429.283,544.707c0,0-11.938-53.818-10.979-56.664l65.995-12.387l1.992,10.47l-47.406,8.733l2.216,11.458
		l29.351-5.706l1.295,9.017c-1.468,0-28.429,5.542-28.429,5.542l2.217,12.552l42.943-9.091l2.846,12.792L429.283,544.707z"/>
	<polygon fill="#FFFFFF" points="534.522,525.879 557.042,524.411 557.409,490.8 597.671,522.554 619.824,521.46 617.248,461.622 
		593.881,463.464 595.454,492.657 558.517,463.479 532.163,465.92 	"/>
	<polygon fill="#FFFFFF" points="653.78,462.37 689.234,526.987 706.954,527.721 744.565,471.657 719.146,467.538 698.102,501.51 
		675.948,463.104 	"/>
	<g>
		<g>
			<path fill="#FFFFFF" d="M773.405,539.165l62.033,14.035l3.048-12.732l-42.846-10.08l2.607-12.492c0,0,26.586,5.961,27.949,6.5
				l2.194-8.507l-28.93-7.04l1.887-9.886l46.269,9.931l2.591-12.178l-64.556-14.11C783.695,484.898,773.405,539.165,773.405,539.165
				z"/>
			<path fill="#FFFFFF" d="M947.859,534.507c-14.229-7.115-49.331-20.805-49.331-20.805l-25.134,54.012l19.951,8.792l9.931-20.176
				l16.012,7.07l3.43,25.658l18.034,7.594l-1.903-29.882c0,0,12.927,3.73,18.971-6.635
				C961.661,553.514,962.088,541.621,947.859,534.507z M939.216,552.48c-0.996,2.577-4.636,3.55-9.856,1.483
				c-2.823-1.124-22.774-10.44-22.774-10.44l5.227-9.482l25.134,10.904C936.947,544.947,941.134,547.568,939.216,552.48z"/>
		</g>
	</g>
</g>
</svg>
