<?xml version="1.0" encoding="utf-8"?>
<!-- Designed by Vexels.com - 2016 All Rights Reserved - https://vexels.com/terms-and-conditions/  -->

<svg version="1.1" id="Layer_1" xmlns="http://www.w3.org/2000/svg" xmlns:xlink="http://www.w3.org/1999/xlink" x="0px" y="0px"
	 width="1200px" height="1200px" viewBox="0 0 1200 1200" enable-background="new 0 0 1200 1200" xml:space="preserve">
<g>
	<g>
		<path fill="#E6214B" d="M283.651,345.383c0,0-132.783,164.265-73.923,335.384c26.022,35.587,101.301,138.262,358.656,164.264
			c0-41.065-42.441-125.947-88.968-169.744C432.853,631.491,293.236,453.519,283.651,345.383z"/>
		<path fill="#E6214B" d="M302.819,319.381c0,0,27.378,149.201,101.301,213.54c73.923,64.339,183.433,223.143,180.702,310.755
			c52.007-2.75,87.593,1.355,87.593,1.355s19.168-153.305-1.356-357.281c-20.543-203.957-80.777-292.943-80.777-292.943
			S409.6,198.912,302.819,319.381z"/>
		<path fill="#E6214B" d="M617.66,197.537c0,0,65.714,113.634,78.027,334.028c13.689,161.515,5.498,275.149,0,308.006
			c35.606,0,80.777-10.959,80.777-10.959s27.378-94.466,56.11-167.015c28.753-72.549,127.304-153.306,60.235-332.634
			C853.118,285.149,753.193,201.642,617.66,197.537z"/>
		<path fill="#E6214B" d="M925.685,370.031c0,0,28.714,78.027-6.873,180.684c-50.631,109.51-69.799,146.49-69.799,146.49
			s-41.066,91.716-46.545,124.573c43.796-9.583,120.468-39.711,146.471-78.046c26.023-38.318,42.441-214.916,42.441-214.916
			S969.482,412.472,925.685,370.031z"/>
		<path fill="#E6214B" d="M969.482,753.315c0,0-68.463,72.549-171.119,95.822c-6.853,36.961-2.749,82.132,46.546,65.713
			C884.6,880.619,935.251,840.927,969.482,753.315z"/>
		<path fill="#E6214B" d="M817.531,939.479c0,0-91.716,53.399-156.056,58.878c17.794-30.126,31.482-139.637,31.482-139.637
			l79.403-6.835C772.36,851.885,762.776,933.999,817.531,939.479z"/>
		<path fill="#E6214B" d="M671.06,861.45c0,0-1.374,106.78-42.441,139.637c-54.754,1.374-149.22-5.48-187.557-28.752
			c65.733,2.749,139.637-35.587,147.866-109.51C625.889,862.826,671.06,861.45,671.06,861.45z"/>
		<path fill="#E6214B" d="M561.55,861.45c0,0-23.292,124.574-161.554,88.987c-67.069-43.797-143.722-104.031-187.518-232.709
			C256.274,788.903,369.889,843.657,561.55,861.45z"/>
		<path fill="#323065" d="M595.762,129.094c-258.444,0-467.956,210.829-467.956,470.914c0,260.067,209.512,470.897,467.956,470.897
			c258.444,0,467.956-210.83,467.956-470.897C1063.718,339.923,854.206,129.094,595.762,129.094z M595.762,1036.674
			c-239.658,0-433.935-195.499-433.935-436.665c0-241.185,194.277-436.684,433.935-436.684s433.954,195.499,433.954,436.684
			C1029.716,841.175,835.42,1036.674,595.762,1036.674z"/>
	</g>
	<path fill="#323065" d="M1127.447,615.855c13.86-1.146,23.1-21.955,22.528-36.388c-0.592-14.452-5.785-12.715-5.785-12.715
		l-103.993-35.244c0,0-32.341-4.62-42.154,19.073c-6.95,30.623-10.997,69.322-5.212,76.825c5.785,7.522,35.243,32.36,46.221,37.553
		c10.977,5.212,7.503,33.506,7.503,33.506v17.927l-21.383-4.048l-30.604,1.146l-49.676-203.345l-36.962-1.738l1.718,20.811
		l-65.274-34.098l-24.838,2.901l-0.592,24.247l-114.378-29.459l-10.977-2.883c0,0-13.861-5.192-38.699,23.121
		c-16.189-13.88-132.305-30.624-132.305-30.624l-28.886,4.621l-109.185,8.095c0,0-15.598,7.503-34.079,32.341
		c-14.452-15.598-68.749-16.762-68.749-16.762s-21.383,6.358-26.575,8.667c-5.193,2.31-5.785,14.452-5.785,16.171
		c0,1.737-180.264,25.43-180.264,25.43l-18.5,14.433c0,0-7.503,42.174,32.36,45.075c-0.573,49.104,3.456,177.343,3.456,177.343
		s82.629-21.956,86.657-24.265c4.048-2.291,3.475-13.288,2.329-18.48c-1.165-5.193,3.455-68.176,3.455-68.176
		s53.151,0.019,80.892-39.272c0,33.506,0,107.448,0,107.448l86.065-10.405l1.146-20.79l3.474-12.124l4.639,32.341
		c0,0,58.898-5.765,78.544-9.24c19.646-3.475,52.006-10.977,56.626-47.958c4.62-36.962-23.693-118.999-26.576-120.736
		s-26.575-12.715-26.575-12.715s42.746,4.066,54.888-12.123c0,11.55,0,11.55,0,11.55h35.243l3.456,176.789l92.442,0.573V706.56
		l-1.146-158.288c0,0,11.551-0.573,21.364-8.667c-2.884,39.29,0,145,0,145s-1.146,49.104,69.34,52.007
		c70.468,2.883,90.113-4.048,105.711-22.528c0,16.171,0,23.1,0,23.1s60.673,6.93,83.774,11.551
		c23.12,4.62,75.698,16.171,98.799,20.217c23.101,4.048,62.964,13.288,70.468,15.026c7.522,1.737,59.509,12.123,63.556-26.003
		c4.048-38.126-5.785-108.021-5.785-108.021l-38.698-38.718C1090.466,611.235,1113.586,617.02,1127.447,615.855z M399.538,674.791
		l-23.693,2.884l-29.458,5.212l1.717-87.231c0,2.291,13.88,31.196,52.007,31.769C400.684,649.362,399.538,674.791,399.538,674.791z"
		/>
	<g>
		<path fill="#009ED4" d="M263.262,561.081c0-0.267-0.02-0.553-0.038-0.802c-1.852-25.927-21.174-40.608-48.455-36.217
			C193.5,527.48,81.585,555.621,76.831,556.805c-4.621,1.165-8.018,5.06-8.553,9.794c-1.164,10.5,0.707,18.747,5.556,24.552
			c5.097,6.09,11.359,6.949,13.269,7.063l12.982,0.745v167.587c0,3.55,1.661,6.891,4.467,9.049c2.024,1.546,4.449,2.349,6.93,2.349
			c0.993,0,1.985-0.115,2.96-0.382l52.884-14.242c4.907-1.318,8.343-5.709,8.439-10.787c0.019-0.592,1.088-53.267,3.15-78.696
			c42.421-8.248,69.302-21.593,79.975-39.749c5.727-9.756,5.192-18.061,4.372-22.166V561.081z M186.818,581.853v34.384
			c0,2.005-0.038,3.283-0.076,4.105c-0.553,0.554-1.164,1.184-1.851,1.967c-1.432,0.821-4.677,1.891-8.649,2.921v-41.181
			c3.341-1.146,7.045-2.195,9.641-2.424h0.115C186.227,581.624,186.513,581.7,186.818,581.853z"/>
		<path fill="#009ED4" d="M337.719,499.759l-51.89,9.641c-5.384,0.993-9.279,5.689-9.298,11.149l-0.763,208.348
			c0,3.36,1.469,6.548,4.028,8.744c2.081,1.757,4.696,2.692,7.369,2.692c0.63,0,1.279-0.057,1.909-0.153l52.636-8.897
			c5.498-0.935,9.507-5.669,9.507-11.245V510.966c0-3.399-1.508-6.606-4.124-8.763C344.497,500.045,341.06,499.148,337.719,499.759z
			"/>
		<path fill="#009ED4" d="M493.602,485.478c-2.462,0.096-60.616,2.273-87.993,4.487c-26.729,2.177-40.856,17.126-40.856,43.243
			v34.842c0,1.528,0.553,35.282,47.653,45.267c0.248,18.156,0.038,45.151-0.096,59.585l-31.635,3.952
			c-5.728,0.706-10.005,5.555-10.005,11.302v27.435c0,3.303,1.452,6.452,3.952,8.629c2.081,1.795,4.735,2.768,7.446,2.768
			c0.553,0,1.107-0.038,1.661-0.114l65.56-9.584c15.178-1.184,43.453-11.684,44.999-43.396c1.432-29.458,0.153-74.304,0.02-79.135
			c0.191-8.972-5.002-25.621-25.851-33.639c-12.219-4.696-23.749-8.782-30.737-11.187c-0.286-2.806-0.515-5.957-0.515-8.573
			c0-0.63,0.019-1.24,0.038-1.813c30.681-1.871,33.181-2.444,34.04-2.634c1.165-0.268,2.348-0.497,3.494-0.726
			c12.162-2.444,32.533-6.548,30.623-39.958C505.058,490.041,500.036,485.249,493.602,485.478z"/>
		<path fill="#009ED4" d="M661.513,485.974c-2.176-2.654-5.403-4.2-8.839-4.2H526.631c-3.073,0-6.014,1.241-8.152,3.417
			c-2.138,2.196-3.303,5.174-3.245,8.229l0.745,31.902c0.133,6.186,5.212,11.111,11.398,11.111h21.955V702.99
			c0,6.09,4.792,11.093,10.863,11.379l55.252,2.596c0.171,0.019,0.343,0.019,0.534,0.019c2.922,0,5.747-1.126,7.866-3.149
			c2.253-2.157,3.533-5.136,3.533-8.248V536.912c22.91-5.823,33.772-28.581,36.464-41.411
			C664.53,492.141,663.672,488.628,661.513,485.974z"/>
		<path fill="#009ED4" d="M771.215,485.574c-0.477-0.076-0.935-0.096-1.412-0.096h-58.573c-34.976,0-48.398,35.187-50.593,53.801
			c-0.038,0.247-0.058,0.496-0.076,0.744c-0.153,2.826-3.608,69.952-2.234,114.378c1.413,45.572,37.019,60.578,55.652,62.163
			c0.23,0.019,0.44,0.038,0.649,0.038c0.286,0,27.97,0.744,60.368,0.744c33.468,0,46.717-27.11,49.066-41.448
			c0.095-0.591,0.133-1.202,0.133-1.833c0-1.031,0-104.317-0.725-138.147C822.705,501.153,788.951,487.789,771.215,485.574z
			 M747.293,547.297v105.481c-5.441-2.253-7.636-5.422-8.381-6.835c-0.802-41.334-1.24-86.562-0.878-106.704
			c6.586,1.738,9.202,4.773,9.279,7.217C747.216,547.068,747.293,546.667,747.293,547.297z"/>
		<path fill="#009ED4" d="M992.468,523.013l-48.207-14.09c-3.322-0.993-6.93-0.382-9.775,1.623
			c-2.845,2.005-4.601,5.212-4.792,8.687l-1.833,33.143c-14.567-28.447-39.386-56.435-80.719-57.256
			c-3.017-0.096-6.015,1.107-8.21,3.245c-2.196,2.157-3.417,5.078-3.417,8.152v209.073c0,5.555,3.99,10.29,9.47,11.245l51.891,8.878
			c3.265,0.572,6.586-0.306,9.126-2.387c2.577-2.081,4.085-5.154,4.2-8.457l1.202-36.141l18.386,44.56
			c1.393,3.361,4.315,5.861,7.865,6.72l45.954,11.131c0.897,0.21,1.795,0.325,2.692,0.325c2.501,0,4.964-0.841,6.988-2.406
			c2.73-2.119,4.353-5.365,4.409-8.839l2.96-206.113C1000.735,528.988,997.375,524.445,992.468,523.013z"/>
		<path fill="#009ED4" d="M1108.698,600.849c1.26,0.172,2.616,0.401,4.01,0.649c3.455,0.591,7.388,1.279,11.474,1.279
			c7.656,0,13.745-2.462,18.176-7.331c5.669-6.242,7.808-15.789,6.529-29.229c-0.439-4.735-3.799-8.687-8.381-9.927l-91.488-24.533
			c-0.725-0.172-3.36-0.725-6.911-0.725c-12.047,0-25.697,6.854-27.836,26.118c-2.272,20.409-2.31,41.887-2.31,42.784
			c0,2.253,0.382,22.3,13.46,32.093c6.873,5.155,26.365,19.131,35.491,25.659v57.409l-27.931-5.498
			c-3.379-0.669-6.911,0.248-9.565,2.482c-2.634,2.234-4.104,5.555-4.028,9.011l0.744,26.709c0.134,4.811,3.284,9.012,7.847,10.5
			c1.795,0.591,44.178,14.434,61.322,16.782c4.639,0.63,10.099,1.28,15.541,1.28c11.55,0,20.045-2.96,25.946-9.05
			c5.479-5.651,8.075-13.46,7.77-23.159c-0.725-22.547-0.725-87.23-0.725-87.879c0-1.909-0.496-3.799-1.413-5.498
			c-0.973-1.757-9.793-17.393-21.306-25.373c-6.472-4.487-22.719-18.118-31.729-25.793l-0.44-7.464l0.172,0.114
			C1091.153,596.63,1095.983,599.265,1108.698,600.849z"/>
	</g>
	<g>
		<path fill="#FFFFFF" d="M251.863,561.081c-1.355-18.977-14.261-29.153-35.281-25.774c-21.02,3.399-136.964,32.552-136.964,32.552
			c-2.043,18.308,8.133,18.977,8.133,18.977l23.731,1.374v178.336l52.884-14.243c0,0,1.355-67.814,4.085-88.146
			c95.612-16.285,83.411-50.86,83.411-50.86V561.081z M198.197,616.237c0,11.131-0.745,8.897-5.192,14.09
			c-4.43,5.193-28.161,8.897-28.161,8.897v-63.022c0,0,11.856-5.193,20.008-5.919c8.152-0.744,13.345,6.664,13.345,6.664
			S198.197,605.126,198.197,616.237z"/>
		<polygon fill="#FFFFFF" points="287.165,728.935 339.8,720.038 339.8,510.966 287.908,520.587 		"/>
		<path fill="#FFFFFF" d="M406.545,501.324c-22.777,1.852-30.394,13.346-30.394,31.884c0,18.537,0,34.842,0,34.842
			s-0.02,29.669,47.443,35.587c0.745,22.987,0,79.327,0,79.327l-41.524,5.192v27.435l65.999-9.642c0,0,33.353-2.214,34.843-32.628
			c1.47-30.375,0-78.581,0-78.581s0.725-15.56-18.538-22.987c-19.283-7.407-37.076-13.345-37.076-13.345s-1.489-9.641-1.489-17.049
			c0-7.407,0.744-12.6,0.744-12.6s39.272-2.31,42.27-2.96c13.345-2.977,26.689-2.977,25.201-28.923
			C494.023,496.876,433.979,499.09,406.545,501.324z"/>
		<path fill="#FFFFFF" d="M527.376,525.056h33.353V702.99l55.251,2.596V526.907c29.649,0,36.695-33.734,36.695-33.734H526.631
			L527.376,525.056z"/>
		<path fill="#FFFFFF" d="M769.802,496.876c0,0-24.457,0-58.573,0c-34.098,0-39.29,43.739-39.29,43.739s-3.609,68.978-2.215,113.442
			c1.47,47.444,45.228,51.147,45.228,51.147s27.416,0.744,60.044,0.744c32.628,0,37.801-31.883,37.801-31.883
			s0-103.782-0.725-137.899C811.326,502.069,769.802,496.876,769.802,496.876z M758.691,547.297v119.361
			c-26.69-1.489-31.139-18.538-31.139-18.538s-2.348-121.633,0-121.594C760.18,527.27,758.691,547.297,758.691,547.297z"/>
		<path fill="#FFFFFF" d="M935.88,614.022c0,0-14.815-106.035-88.968-107.505v209.073l51.891,8.896l2.978-88.967l38.547,93.415
			l45.973,11.131l2.959-206.114l-48.187-14.09L935.88,614.022z"/>
		<path fill="#FFFFFF" d="M1085.655,580.651c9.641,5.192,12.6,7.426,24.456,8.896c11.876,1.49,30.394,8.897,27.435-22.242
			l-91.182-24.456c0,0-18.537-4.449-20.772,15.56c-2.234,20.027-2.234,41.524-2.234,41.524s0,16.305,8.916,22.987
			c8.878,6.663,40.017,28.904,40.017,28.904v77.112l-41.505-8.152l0.745,26.69c0,0,42.994,14.09,59.317,16.304
			c16.305,2.234,37.057,3.723,36.313-19.263c-0.726-22.986-0.726-88.241-0.726-88.241s-8.151-14.834-17.793-21.497
			c-9.641-6.682-36.35-29.649-36.35-29.649l-1.47-24.475C1070.82,580.651,1076.013,575.457,1085.655,580.651z"/>
	</g>
	<g>
		<g>
			<g>
				<path fill="#323065" d="M431.746,366.842c-17.621-0.573-47.959,0.114-63.785,3.551c-4.143,0.917-16.285,9.068-16.285,9.068
					l2.234,8.878l14.071,2.978l-2.96,77.112c0,0,17.049-0.745,34.098-3.704c34.861-6.682,48.913-29.631,48.913-29.631
					S433.979,393.533,431.746,366.842z M393.199,448.402V386.87c10.386-1.49,16.305,3.704,16.305,3.704s0.745,28.179,0.745,44.483
					C410.249,451.381,393.199,448.402,393.199,448.402z"/>
				<polygon fill="#323065" points="447.496,363.616 447.21,456.363 504.122,450.922 521.705,442.961 477.375,436.489 
					477.375,421.215 513.324,403.193 495.455,397.122 478.005,397.122 478.005,378.011 518.346,365.105 502.442,363.501 
					468.822,355.082 				"/>
				<polygon fill="#323065" points="519.243,369.21 537.628,369.21 538.583,447.581 563.65,447.581 580.832,439.868 
					576.671,367.931 534.974,348.133 519.243,357.468 				"/>
				<polygon fill="#323065" points="796.549,375.243 796.549,386.985 815.603,388.263 812.51,460.812 841.51,465.356 
					859.265,458.005 856.039,390.039 873.012,383.738 813.389,366.804 				"/>
				<path fill="#323065" d="M652.503,406.343c8.247-1.603,10.156-17.144,10.156-24.131c0-6.969-23.31-34.938-54.087-34.613
					l-16.686,8.916v91.392h27.931l17.03-7.503c0,0-4.983-35.969-1.164-24.227c3.799,11.742,7.923,31.73,7.923,31.73l20.638,0.629
					c0,0,17.088-4.848,16.877-7.598C680.376,431.411,660.636,412.49,652.503,406.343z M619.818,396.816v-27.3
					c0,0,13.651-0.63,13.651,13.325C633.468,396.816,619.818,396.816,619.818,396.816z"/>
				<path fill="#323065" d="M709.376,354.529c0,0-32.761,5.154-32.761,25.143s0,53.648,0,53.648s-4.124,20.619,34.594,20.619
					c0,0,46.717,0.878,46.717-22.605c0-23.483-15.941-52.922-15.941-52.922S746.511,354.529,709.376,354.529z M716.593,426.962
					c0,5.078-1.585,9.527-7.942,9.527c-6.338,0-8.878-9.202-8.878-9.202v-46.66c0,0,0.974-7.389,9.527-6.988
					c6.664,0.325,7.293,7.637,7.293,7.637S716.593,421.884,716.593,426.962z"/>
				<polygon fill="#323065" points="758.786,456.783 780.99,456.783 797.542,450.732 775.529,359.339 758.786,368.256 				"/>
			</g>
		</g>
		<path fill="#FFFFFF" stroke="#009DC8" stroke-width="0.2915" stroke-miterlimit="10" d="M448.069,358.958
			c-22.26-0.745-80.089,12.6-80.089,12.6l2.234,8.897l14.09,2.978l-2.978,77.112c0,0,17.048-0.745,34.117-3.723
			c34.843-6.663,32.628-28.904,32.628-28.904S450.284,385.648,448.069,358.958z M409.504,440.517v-61.532
			c10.386-1.489,16.305,3.704,16.305,3.704s0.744,28.179,0.744,44.484S409.504,440.517,409.504,440.517z"/>
		<polygon fill="#FFFFFF" stroke="#009DC8" stroke-width="0.2973" stroke-miterlimit="10" points="467.39,356.075 466.874,445.481 
			521.076,442.121 519.987,424.518 494.576,425.97 493.813,402.793 511.93,401.876 511.033,385.438 493.889,386.24 493.106,363.883 
			516.493,362.928 515.94,354.089 470.311,355.827 		"/>
		<polygon fill="#FFFFFF" stroke="#009DC8" stroke-width="0.2915" stroke-miterlimit="10" points="535.547,361.325 553.951,361.325 
			554.906,439.697 579.974,439.697 579.974,360.046 592.974,360.046 592.974,349.584 535.547,349.584 		"/>
		<polygon fill="#FFFFFF" stroke="#009DC8" stroke-width="0.2915" stroke-miterlimit="10" points="814.438,366.385 814.038,378.126 
			835.382,379.443 831.773,455.562 856.249,458.005 858.903,381.467 871.37,382.765 871.714,372.799 		"/>
		<path fill="#FFFFFF" stroke="#009DC8" stroke-width="0.2915" stroke-miterlimit="10" d="M668.826,398.439
			c8.229-1.565,10.138-17.125,10.138-24.112c0-6.988-0.63-27.283-31.424-26.958l-39.348,1.26v91.393h27.95v-39.043
			c0,0,12.048-4.449,15.846,7.293c3.799,11.76,7.942,31.75,7.942,31.75l20.619,0.629
			C680.548,440.651,679.288,406.381,668.826,398.439z M636.141,388.932V361.65c0,0,13.632-0.649,13.632,13.307
			C649.773,388.932,636.141,388.932,636.141,388.932z"/>
		<path fill="#FFFFFF" stroke="#009DC8" stroke-width="0.2915" stroke-miterlimit="10" d="M721.805,351.474
			c0,0-28.866,0.325-28.866,20.313s0,53.628,0,53.628s-4.143,20.638,34.594,20.638c0,0,30.756,2.845,30.756-20.638
			c0-23.482,0-54.888,0-54.888S758.92,351.474,721.805,351.474z M732.916,419.078c0,5.078-1.584,9.507-7.942,9.507
			c-6.338,0-8.878-9.202-8.878-9.202v-46.641c0,0,0.955-7.388,9.527-6.987c6.644,0.325,7.293,7.618,7.293,7.618
			S732.916,413.999,732.916,419.078z"/>
		<polygon fill="#FFFFFF" stroke="#009DC8" stroke-width="0.2915" stroke-miterlimit="10" points="774.135,448.651 796.359,449.128 
			798.268,360.619 776.064,360.142 		"/>
	</g>
</g>
</svg>
