<?xml version="1.0" encoding="utf-8"?>
<!-- Designed by Vexels.com - 2016 All Rights Reserved - https://vexels.com/terms-and-conditions/  -->

<svg version="1.1" id="Layer_1" xmlns="http://www.w3.org/2000/svg" xmlns:xlink="http://www.w3.org/1999/xlink" x="0px" y="0px"
	 width="1200px" height="1200px" viewBox="0 0 1200 1200" enable-background="new 0 0 1200 1200" xml:space="preserve">
<g>
	<path fill="#E51942" d="M925.406,652.459c0-231.339-187.251-418.121-412.849-418.121S101.165,422.627,101.165,653.95
		c0,231.356,185.795,418.134,411.393,418.134S925.406,883.799,925.406,652.459z"/>
	<path fill="#211B17" d="M139.679,695.176l-18.898,9.741c0,0-20.354-2.996-43.602,16.471c-23.267,19.5-11.634,29.979-11.634,29.979
		s-16.721,20.99-7.264,54.701c-8.721,4.503-16.722,71.941,10.177,108.648c26.89,36.724,109.752,63.706,172.262-2.979
		c16.713,25.475,53.052,48.691,53.052,48.691s-64.685,53.211-31.25,112.393c9.457-11.231,14.537-11.231,14.537-11.231
		s28.346,16.487,35.611,34.464c8.001-8.236,13.809-14.981,13.809-14.981s5.088,11.985,27.626,12.738
		c22.53,0.752,54.509-20.99,79.95-23.233c25.443-2.243,63.957,3.749,64.694-29.962c51.603,0.737,149.724-13.487,233.314-72.69
		c2.176,17.994,2.176,17.994,2.176,17.994s16.721-10.495,29.802-11.248c-13.8,11.248-20.345,44.959-15.257,66.681
		c2.176,10.495,20.346,2.259,20.346,2.259s21.081,2.996,23.266,10.479c2.167,7.499,4.36,11.248,4.36,11.248
		s10.897-8.235,23.978-10.495c13.08-2.243,53.068,6.745,75.598-29.974c22.53-36.707,16.713-61.446,23.987-85.415
		c7.264-23.986,30.522-84.678-39.251-94.421c-23.267-5.992-34.882-13.491-34.882-13.491l15.249-34.464
		c0,0,94.495-35.97,157.725-81.682C1082.395,669.701,1138.367,615,1150,566.292c-30.531,26.228-118.473,109.401-258.756,133.37
		c0-29.962,0-75.674,0-75.674s69.045-17.24,80.679-16.487c-2.913-55.455-78.503-434.609-468.086-433.119
		C108.412,175.905,57.544,602.999,57.544,602.999l87.232,23.986C144.777,626.984,136.047,661.449,139.679,695.176z"/>
	<path fill="#E51943" d="M431.871,413.421c0,0-26.162-10.495-63.229,22.479c-37.075,32.975-47.244,93.667-15.985,138.626
		c26.162,33.727,26.162,63.689,28.338,74.184c2.176,10.496,26.162,71.942,58.869,76.427c18.905-14.98,18.178-23.216,18.178-23.216
		s-20.354,1.49-29.075-12.001c18.898-5.992,30.531-23.969,30.531-23.969s-44.339,9.742-55.245-12.001
		c22.538,3.012,46.524-5.24,55.245-14.981c-33.435,2.243-56.693-5.239-63.237-33.727c17.441,14.244,55.236,14.244,55.236,14.244
		s-3.632-20.236-27.618-23.969c-23.986-3.749-65.413-35.234-42.146-76.443c-3.641,14.997,1.439,53.947,26.881,56.207
		c25.442,2.243,50.156,8.235,63.237,25.475c13.089,17.224,56.692,69.682,106.12,26.965c-0.728-5.239,0.728-5.239-9.448-5.992
		c-10.177-0.736-47.964,9.742-61.053-8.988c-13.089-18.731-32.706-44.959-39.988-47.202c-7.256-2.244-34.874-4.503-34.874-4.503
		s2.904-36.724,25.434-60.694c22.53-23.986,36.338-17.223,42.883-14.244c6.544,2.996,31.987,2.996,42.163-1.489
		c10.177-4.503,27.618-1.489,37.058,3.733c9.457,5.255,55.245,6.762,61.061,2.259c0-11.984,0-11.984,0-11.984
		s-15.985-4.503-5.088-15.734c-0.728-14.245,2.176-26.229-23.258-28.489c-25.443-2.243-67.597-15.734-69.054-19.467
		c-1.456-3.766-4.36-24.739-37.795-19.499c12.353,10.495,9.457,22.479,9.457,22.479s-20.37-25.459-51.604-23.216
		C448.601,396.18,434.783,401.436,431.871,413.421z"/>
	<path fill="#211B17" d="M437.688,438.896c0,0,38.532-17.24,26.898-18.73c-11.633-1.507-11.633-5.24-11.633-5.24
		s31.987-4.502,34.163-0.752c2.176,3.732,10.897,25.475,37.075,24.722c2.904,2.26-16.002,10.495-18.905,10.495
		c-2.904,0-40.7-2.996-40.7-2.996L437.688,438.896z"/>
	<path fill="#211B17" d="M412.981,442.646c0,0-30.531,18.731,4.353,25.476c-29.066,4.503-60.325,30.715-57.413,65.949
		C350.464,507.089,357.009,450.144,412.981,442.646z"/>
	<path fill="#211B17" d="M447.864,487.605c0,0-39.971,39.72-39.251,50.215c0.736,10.478,2.176,7.482,2.176,7.482l6.545,1.49
		C417.334,546.792,428.967,503.339,447.864,487.605z"/>
	<path fill="#ABADAF" d="M464.585,446.395c0,0-6.544-10.495,0.728-14.244s7.272-3.749,7.272-3.749s0,13.491,6.536,14.244
		c6.536,0.753,6.536-12.738,6.536-12.738l11.633,2.243l7.993,17.24c0,0-9.449,4.486-18.889,3.749
		C476.938,452.387,464.585,446.395,464.585,446.395z"/>
	<g>
		<g>
			<path fill="#FFFFFF" d="M484.939,493.597l7.993,20.237l8.712-16.488C501.645,497.346,485.659,496.593,484.939,493.597z"/>
			<path fill="#FFFFFF" d="M511.102,501.849c0,0,5.088,19.484,5.816,17.224c0.728-2.243,9.448-17.977,9.448-17.977L511.102,501.849z
				"/>
			<polygon fill="#FFFFFF" points="536.543,498.836 544.536,515.323 550.352,496.593 			"/>
			<path fill="#FFFFFF" d="M560.529,495.103l3.633,17.977l10.177-16.488C574.339,496.593,564.162,493.597,560.529,495.103z"/>
			<polygon fill="#FFFFFF" points="583.787,503.339 584.507,519.073 599.044,504.845 			"/>
			<path fill="#FFFFFF" d="M609.221,510.085l5.088,12.738l13.09-13.491C627.399,509.331,612.133,510.838,609.221,510.085z"/>
		</g>
	</g>
	<polygon fill="#FFFFFF" points="458.041,549.804 471.85,538.556 474.026,550.557 	"/>
	<polygon fill="#FFFFFF" points="482.747,564.032 494.38,555.796 492.204,573.773 	"/>
	<path fill="#FFFFFF" d="M501.645,585.021l10.913-6.745l-0.728,20.236C511.829,598.512,502.381,587.264,501.645,585.021z"/>
	<path fill="#FFFFFF" d="M522.726,607.501l13.817-14.981l1.448,17.224C537.992,609.744,527.822,608.254,522.726,607.501z"/>
	<polygon fill="#FFFFFF" points="548.176,615.736 561.257,602.999 564.882,615.736 	"/>
	<path fill="#ABADAF" d="M450.777,540.062c0,0,10.168-27.735,26.162-18.73c16.722,0,39.98,18.73,50.157,38.196
		c11.624,20.253,31.978,35.234,31.978,35.234l-13.809,7.499l-2.912-17.24l-21.794,7.499l0.72-26.228l-19.634,5.239l-1.448-27.719
		l-18.169,7.482l-5.808-23.233L450.777,540.062z"/>
	<path fill="#E51943" d="M537.263,659.942c-1.264-3.498,36.347-8.235,47.244-22.48c10.905-14.227,4.369-21.726,2.184-23.215
		c-2.184-1.507-1.456-9.742-1.456-9.742s29.811,8.989,45.076,26.965c8.721-5.239-0.736-19.483-0.736-19.483
		s53.789-0.736,67.597,1.507c13.809,2.243,50.156,33.727,52.332,83.172c15.266-1.489,37.067,13.492,43.603,24.723
		c6.545,11.248,21.091,4.503,12.37-14.98c21.074,0.753,22.53,27.735,19.617,38.214c-2.912,10.495-18.161,19.499-42.883,4.502
		c6.545,17.241-2.176,25.476-10.177,27.719c-7.992,2.26-25.433-14.227-25.433-14.227s2.904,20.236-6.536,18.73
		c-9.458-1.507-17.45,6.745-26.899-17.976c-9.457-24.74-8.001-50.215-8.001-50.215s-27.618-11.232-31.97-24.723
		c-10.185,7.482-47.251,2.996-47.251,2.996s-7.265,14.981-26.899,16.487C579.427,709.404,548.896,692.163,537.263,659.942z"/>
	<path fill="#FFFFFF" d="M488.572,641.211c0,0-2.176,70.451,45.787,95.927c47.981,25.476,106.849,25.476,143.924-20.236
		c13.809,10.495,18.889,12.738,14.529,54.701c-25.434,33.711-74.862,59.939-133.739,60.693c20.354-8.235,28.346-18.73,28.346-18.73
		s-59.596,15.734-93.039,5.992c-33.435-9.742-83.591-48.708-100.295-65.932c-16.722-17.24-42.883-56.96-33.444-107.158
		c2.184-2.996,2.184-2.996,2.184-2.996s14.537,91.407,81.406,98.906c28.355-17.24,37.075-68.191,34.163-100.413
		C482.747,641.965,488.572,641.211,488.572,641.211z"/>
	<path fill="#FFFFFF" d="M487.843,831.542c0,0,39.979,17.24,85.039,14.244c45.067-2.996,73.414-10.478,97.4-28.488
		c22.53,25.492,39.251,56.96,39.251,56.96s-37.795,19.483-53.069,20.236c-21.074-9.742-50.14-41.963-111.201-30.731
		c-16.002,3.749-29.075,8.252-29.075,8.252S498.749,841.301,487.843,831.542z"/>
	<path fill="#E51943" d="M507.469,876.501c0,0-50.147-89.165-127.93-96.663c-13.073,17.24-17.442,21.743-17.442,21.743
		s68.326-2.996,119.21,83.173C493.66,884,507.469,876.501,507.469,876.501z"/>
	<path fill="#E51943" d="M461.673,884.753c0,0-29.066-75.69-103.936-71.941c-12.361,23.986-9.449,46.466,2.184,61.446
		c11.625,14.997,23.987,59.939,23.987,59.939s37.067,14.245,65.413,4.503c6.545-20.236,8.001-55.454-18.169-68.191
		C440.6,870.509,456.584,876.501,461.673,884.753z"/>
	<path fill="#E51943" d="M335.935,827.057c0,0,10.897-38.214,23.986-49.462c13.081-11.231,13.081-16.487,6.545-26.228
		c-6.545-9.742-31.987-51.704-26.899-83.173c-15.265,11.248-21.81,50.951-11.633,66.685c10.177,15.734,5.089,23.969,5.089,23.969
		s-12.353-19.467-47.244-23.216c-34.891-3.749-61.053-7.499-77.038-18.73c-16.002-11.232-74.87-19.484-95.224,18.73
		c13.089-2.996,24.714,20.237,24.714,20.237s17.441-26.983,34.891-23.233c17.441,3.749,45.787,32.975,45.787,73.431
		c18.17-2.996,31.979-30.732,27.618-46.448c15.993,5.992,10.905,13.474,10.185,19.483c-0.737,5.992,6.536,23.216,20.345,26.212
		C290.876,808.326,335.935,827.057,335.935,827.057z"/>
	<path fill="#E51943" d="M98.989,752.12c0,0,0-20.237,10.168-33.728c-15.993,5.256-31.25,21.743-31.25,21.743
		S94.62,740.888,98.989,752.12z"/>
	<path fill="#211B17" d="M600.5,791.823c-6.545,1.506-24.706-5.993-29.075-11.985c-4.352-5.992-18.161-12.738-34.163-10.495
		c-3.632-35.2-45.779-26.965-55.236-23.969c-9.441,2.997-19.625,8.252-58.869,11.985c31.979,6.762,69.046,50.215,69.046,50.215
		s21.082-1.507,45.788-1.507c-10.169-3.749-18.889-19.484-15.986-23.216c15.257-6.009,34.882,20.22,32.715,20.973
		C552.529,804.577,607.045,790.333,600.5,791.823z M495.1,777.595l-10.161-12.738c0,0,21.811-6.009,27.618,0
		C518.365,770.85,507.469,776.842,495.1,777.595z"/>
	<path fill="#E51943" d="M680.459,806.82c0,0,43.603,50.214,52.324,68.191c-16.706,11.984-54.5,30.731-69.773,32.975
		c19.625,14.227,23.257,14.227,23.257,14.227s53.06-15.734,87.96-51.704c24.706-26.965,24.706-45.695,24.706-45.695l-19.618-6.745
		c0,0-10.185,26.965-21.081,32.958c-16.722-20.22-50.157-61.447-50.157-61.447L680.459,806.82z"/>
	<path fill="#FFFFFF" d="M735.695,794.835c0,0,20.354,35.971,22.538,36.707c2.167,0.753,9.448-20.972,7.264-29.224
		C749.504,794.082,735.695,794.835,735.695,794.835z"/>
	<path fill="#E51943" d="M780.763,793.329c0,0,67.589-30.714,63.229-72.677c51.604-6.745,170.077-29.225,271.118-110.908
		c-15.994,31.467-114.114,117.653-208.601,155.867C824.375,799.322,785.851,804.577,780.763,793.329z"/>
	<g>
		<g>
			<path fill="#211B17" d="M826.551,779.838c-2.293-0.117,19.634-20.219,24.714-30.715c21.081,16.488,21.081,16.488,21.081,16.488
				S841.096,780.591,826.551,779.838z"/>
			<path fill="#211B17" d="M880.347,762.615l15.249-26.229l17.449,13.491C913.045,749.876,889.788,760.355,880.347,762.615z"/>
			<path fill="#211B17" d="M919.59,745.374l13.809-20.972c0,0,6.536,8.988,15.257,7.482
				C934.127,740.135,919.59,745.374,919.59,745.374z"/>
			<polygon fill="#211B17" points="955.928,725.891 962.465,712.4 978.458,714.642 			"/>
			<polygon fill="#211B17" points="984.275,712.4 990.819,699.662 1000.996,704.164 			"/>
			<polygon fill="#211B17" points="1003.901,701.921 1008.989,691.426 1016.262,691.426 			"/>
		</g>
	</g>
	<path fill="#FFFFFF" d="M814.198,854.022c0,0,31.25,0,29.794,29.978c-1.448,29.979-35.611,62.936-35.611,62.936
		s33.435-5.24,40.7,9.758c-18.898-0.752-69.766,5.24-71.958,23.216c16.722,7.499,19.634,17.24,19.634,17.24
		s7.265-10.495,23.258-10.495s25.433,20.99,25.433,20.99s29.075-6.009,31.979-35.218c2.921-29.225,15.273-74.201,15.993-80.93
		c0.728-6.745,5.816-38.214-31.987-38.967C849.08,844.281,824.375,843.544,814.198,854.022z"/>
	<path fill="#FFFFFF" d="M899.965,865.27c0,0,7.264,50.951,0,64.442c-7.265,13.491-9.457,32.975-11.634,43.452
		c-2.176,10.495-10.904,48.726-48.691,47.219c-14.546,13.491-15.993,17.976-15.993,17.976s38.523,16.484,63.957-25.475
		c15.273-25.476,14.537-53.947,16.722-62.936c2.184-9.004,13.08-44.959,12.353-56.96C915.949,881.004,914.502,865.27,899.965,865.27
		z"/>
	<path fill="#E51943" d="M793.107,862.274c0,0,42.901,1.489,37.076,26.982c-5.808,25.459-33.426,62.183-108.296,36.707
		c2.912-7.499,21.81-12.738,27.618-15.734C755.32,907.233,790.211,887.749,793.107,862.274z"/>
	<path fill="#ABADAF" d="M794.563,946.936c0,0-7.992,10.495-25.433,13.491c-17.433,2.996-23.978,9.742-23.978,9.742
		s-0.736-21.726,15.249-22.479C776.403,946.936,794.563,946.936,794.563,946.936z"/>
	<path fill="#ABADAF" d="M770.578,988.162c-2.276-0.267-19.618,35.971-12.344,43.452c13.08-10.478,24.706-24.722,24.706-29.224
		C782.939,997.904,777.122,988.915,770.578,988.162z"/>
	<path fill="#ABADAF" d="M798.932,1012.885l0.72,33.723c0,0,13.826-18.743,19.634-25.471c5.808-6.745,13.073-19.5,2.896-23.233
		C812.021,994.154,799.652,1000.9,798.932,1012.885z"/>
	<path fill="#FFFFFF" d="M375.187,946.936c0,0-3.641,11.248,4.352,22.479c8.001,11.248,9.457,32.221,9.457,32.221
		s-18.178-38.214-86.495-25.476c4.36,9.759,11.625,30.732,11.625,30.732l18.178-13.492c0,0,18.161,15.751,25.434,44.959
		c7.272,1.502,20.354,6.005,37.803-1.49c17.441-7.499,41.427-8.252,56.692-9.005c15.249-0.736,30.514-0.736,30.514-0.736
		s0.736-22.48-5.809-38.214c-6.544-15.751,0-35.971,0-35.971s-34.163,5.993-56.692,4.486
		C397.716,955.942,375.187,946.936,375.187,946.936z"/>
	<path fill="#FFFFFF" d="M485.659,1036.117c0,0-21.074,8.985-41.427,5.989c-20.354-2.997-44.339,9.741-53.78,11.984
		c-9.457,2.26-36.347,2.26-45.795-1.49c-11.633,11.984-13.809,16.487-13.809,16.487s30.522,14.98,59.604,1.49
		c29.066-13.474,52.324-9.742,64.685-11.231C467.481,1057.839,484.939,1057.839,485.659,1036.117z"/>
	<path fill="#ABADAF" d="M343.928,1040.616c0,0-26.89,17.224-30.531,32.958c-10.168-11.984,4.36-50.947,18.169-62.178
		C343.2,1017.388,343.928,1040.616,343.928,1040.616z"/>
	<path fill="#ABADAF" d="M302.5,1018.124c0,0-27.618,12.738-34.89,32.217c-7.993-17.22,8.001-49.441,14.529-54.696
		C288.683,990.405,298.141,1000.9,302.5,1018.124z"/>
	<path fill="#FFFFFF" d="M295.228,1037.608c0,0-12.353,13.503-10.177,14.24c2.185,0.753,11.633,3.749,11.633,3.749L295.228,1037.608
		z"/>
	<polygon fill="#FFFFFF" points="784.404,1019.63 776.403,1030.861 786.571,1032.368 	"/>
	<path fill="#211B17" d="M409.349,1001.637c0,0,13.073,3.012,14.529-11.985c1.457-14.98-9.44-24.722-9.44-24.722
		s31.969,0,45.059,18.73c0,0,4.368,11.248,4.368,16.488c0,5.239-0.736,15.734,5.08,17.24c-12.361,1.489-15.265,7.482-26.89,5.239
		c-11.633-2.243-21.081-16.487-31.267-17.977"/>
	<path fill="#ABADAF" d="M431.151,973.918c0,0,7.264,18.731,0,28.472c13.08,12.738,21.081,9.005,21.081,0
		C452.233,993.401,439.864,976.914,431.151,973.918z"/>
	<path fill="#AFB1B2" d="M110.613,750.613c0,0-11.624,28.488-3.641,44.222c8.001-14.244,22.538-32.974,22.538-32.974
		S120.062,749.123,110.613,750.613z"/>
	<path fill="#AFB1B2" d="M118.606,801.581c0,0,38.532-69.698,66.87-39.719c-10.897,8.235-17.442,24.722-19.626,34.464
		c-2.184,9.741-26.17,46.465-51.596,52.457C110.613,836.045,115.693,810.57,118.606,801.581z"/>
	<path fill="#AFB1B2" d="M223.27,815.055c0,0,6.545,18.747-6.536,34.48c17.442-8.235,28.347-33.727,28.347-40.473
		C238.536,812.813,223.27,815.055,223.27,815.055z"/>
	<path fill="#AFB1B2" d="M245.081,842.037c0,0-22.53,24.74-47.972,25.476c5.088-14.228,5.808-17.224,5.808-17.224
		s-30.531,35.218-82.854,38.214c2.176,6.745,5.088,11.985,5.088,11.985S197.828,911.736,234.904,884
		C246.528,872.769,247.993,851.026,245.081,842.037z"/>
	<path fill="#AFB1B2" d="M226.903,907.986c0,0-24.706,25.475-44.332,29.961c-19.625,4.503-40.699-8.235-52.332-25.475
		C149.136,916.221,197.828,914.715,226.903,907.986z"/>
	<path fill="#AFB1B2" d="M117.15,915.468c0,0,12.361,20.99,26.17,26.982c-20.345,0-36.347-9.742-36.347-9.742
		S115.693,924.456,117.15,915.468z"/>
	<path fill="#AFB1B2" d="M94.62,923.72c0,0,20.354-14.997,15.993-30.731c-14.537,1.506-30.522,0.752-43.611-5.993
		C70.634,902.73,95.348,924.456,94.62,923.72z"/>
	<path fill="#AFB1B2" d="M60.457,840.548c0,0-0.72,20.973,1.456,27.719c9.448,5.992,30.531,13.491,42.156,11.984
		c-2.177-8.988-4.36-15.734-4.36-15.734S72.09,862.274,60.457,840.548z"/>
	<path fill="#AFB1B2" d="M100.428,851.026c0,0-25.433-5.24-28.338-20.973c-2.912-15.734,18.898-44.223,18.898-44.223
		s2.904,20.99,9.44,24.74C102.621,830.806,100.428,851.026,100.428,851.026z"/>
	<path fill="#AFB1B2" d="M112.789,862.274c2.904,0,42.883-13.492,51.613-39.72c8.721-26.228,27.618-48.708,34.163-49.462
		c7.265,12.001,11.625,50.968,6.536,61.463c-10.177,12.738-52.332,45.695-89.407,41.946
		C113.518,869.773,112.789,862.274,112.789,862.274z"/>
	<path fill="#AFB1B2" d="M69.178,800.075c0,0,12.353-20.237,21.081-27.719c-0.728-14.244-2.184-17.24-2.184-17.24
		s-15.265-1.49-19.617,14.98C65.487,781.328,69.178,800.075,69.178,800.075z"/>
	<path fill="#E51942" d="M147.68,429.155l-20.354-139.38l109.033,14.997l-1.456-110.908l101.751,46.466l34.891-115.41l82.862,80.93
		l59.605-101.903l61.053,97.4l85.767-80.913l33.435,118.389l100.295-46.448l1.457,112.397l114.849-13.491l-26.17,137.873
		c0,0-119.202-217.313-370.685-212.81C262.521,220.848,147.68,429.155,147.68,429.155z"/>
	<g>
		<g>
			<path fill="#ABADAF" d="M218.449,532.63l43.712,19.467c0,0,12.955-32.255,19.425-47.286c-14.026,6.679-42.632-8.335-56.65-14.462
				c-14.027-6.126-23.208,1.105-29.686,8.905c-0.536-7.231-1.607-20.589-4.31-23.367c-2.704-2.778-14.035-8.352-37.771-11.683
				c-23.743-3.33-32.389,10.01-39.393,27.25c-7.014,17.257-22.129,77.348-22.129,77.348c12.412-4.469,22.672-3.9,24.823-3.9
				c2.16,0,72.853,28.355,86.88,32.255c14.026,3.9,32.372,13.357,41.545,26.714c-1.071-20.036,6.477-57.295,6.477-57.295
				s-22.128-8.352-33.46-11.132c-11.331-2.778-12.938-11.7-12.402-17.257C206.047,532.63,218.449,532.63,218.449,532.63z
				 M175.29,539.309l-42.088-12.804l2.694-12.788c0,0,0.544-6.127,12.955-3.9c12.403,2.243,22.12,4.452,25.359,11.683
				C177.45,528.73,175.29,539.309,175.29,539.309z"/>
			<path fill="#ABADAF" d="M341.493,399.126c-4.319-6.679-44.256-50.081-44.256-50.081s-25.894-22.797-55.571,9.474
				c-26.446,30.597-44.8,50.617-46.415,56.726c-0.427,1.623,15.115-6.11,31.3,10.026c16.186,16.136,50.182,52.307,50.182,52.307
				s11.876,12.771,4.854,27.233c12.955-20.571,29.677-40.607,31.301-42.264c1.623-1.674,2.694-6.679,2.694-6.679l-18.889-15.584
				c0,0-1.615-6.679,1.08-9.44c2.712-2.796,5.942-6.696,5.942-6.696s2.695-2.209,7.549,2.778c4.854,5.022,18.345,17.81,18.345,17.81
				s19.433-23.367,35.084-31.15C354.967,413.588,345.803,405.805,341.493,399.126z M275.109,414.141
				c0,0-24.338-20.973-25.894-21.693c-4.854-2.227,4.318-9.457,9.708-12.804c5.406-3.331,8.637,0.569,8.637,0.569l21.04,21.14
				L275.109,414.141z"/>
			<path fill="#ABADAF" d="M451.555,297.876c-7.557-22.797-26.438-48.39-56.65-36.154c-30.23,12.235-70.158,36.154-70.158,36.154
				s16.194,2.227,23.743,20.589c7.557,18.362,23.208,63.421,23.208,63.421s7.54,17.24-5.934,28.924
				c17.801-11.683,50.717-22.262,62.048-25.593c-11.331-4.453-18.345-20.571-19.96-26.145c-1.615-5.558-1.615-5.558-1.615-5.558
				s26.43-6.126,35.067-11.683C449.939,336.258,459.113,320.691,451.555,297.876z M395.976,335.153
				c-1.615-5.005-14.571-38.951-14.571-38.951c22.119-11.131,25.366,0.569,29.141,11.701
				C414.321,319.034,411.625,328.475,395.976,335.153z"/>
			<path fill="#ABADAF" d="M463.967,248.918c-1.942,0.15-1.08,40.054-1.08,40.054s18.889-17.793,32.916-18.345v73.983
				c0,0,0.536,20.036-16.186,23.919l-0.536,3.331h69.062v-5.005c0,0-12.947-2.209-12.947-21.693c0-19.467,0-74.535,0-74.535
				s26.438,3.33,33.987,18.345c0-13.893,0-39.485,0-39.485S538.435,243.36,463.967,248.918z"/>
			<path fill="#ABADAF" d="M688.427,289.524c-14.562-11.114-39.938-22.814-58.818-22.814c-10.788,0-21.576,0.569-24.279,7.248
				l-31.292,70.653c0,0-6.477,17.809,4.854,26.697c11.332,8.905,49.646,28.372,70.686,28.924
				c9.172,1.122,18.336-10.562,21.039-15.014c2.712-4.453,28.606-66.752,28.606-66.752S702.989,300.656,688.427,289.524z
				 M658.75,308.991c0,0-18.345,42.85-22.12,51.186c-3.774,8.352-10.796,12.253-18.889,8.352
				c-8.093-3.883-4.854-12.788-4.854-12.788l23.2-54.533c2.159-3.331,5.942-9.457,14.57-5.557
				C659.285,299.551,658.75,308.991,658.75,308.991z"/>
			<path fill="#ABADAF" d="M817.11,391.694c-16.722-20.99-55.973-60.71-66.869-61.446c0,0,5.079,11.984-10.177,26.212
				c-15.266,14.244-52.341,49.462-52.341,49.462s-7.264,8.252-23.257,6.745c18.898,12.738,37.067,34.48,37.067,34.48l18.178-17.24
				c0,0,15.985-3.749,29.074,8.235c-18.905,15.734-29.074,29.225-29.074,29.225s25.442,23.986,29.794,39.72
				c2.193-11.232,7.273-19.484,15.266-26.229c7.992-6.745,13.089-38.214,13.089-38.214s15.986,5.992,27.618-2.996
				C817.11,430.661,833.815,412.668,817.11,391.694z M780.763,405.169c-6.536,6.745-17.449,12.001-17.449,12.001l-21.802-7.499
				l28.346-26.983C769.858,382.689,787.299,398.44,780.763,405.169z"/>
			<path fill="#ABADAF" d="M753.873,513.081l50.148-23.987c0,0,10.904,29.225,10.904,35.988c0,6.728-20.362,13.474-20.362,13.474
				l5.825,26.229c0,0,15.986-6.745,20.346-8.989c4.36-2.259,10.185-12.738,12.361-32.221c2.176-19.484,3.633-45.712,23.25-52.458
				c19.634-6.745,34.163-11.248,37.075-20.236c9.457-2.98,9.457-2.98,9.457-2.98s33.426,89.165,34.882,107.142
				c-28.346,9.742-55.964,26.228-55.964,26.228s-5.817-23.232-5.817-29.225c0-5.992-1.456-11.984,6.536-14.98
				c7.993-2.996,15.993-6.745,15.993-6.745s-2.912-17.994-5.808-21.727c-2.912-3.749-8.001-3.012-13.089-0.753
				c-5.089,2.244-12.353,9.742-13.09,21.727c-0.72,12.001-9.44,44.959-9.44,48.708s-9.449,10.479-23.267,14.98
				c-13.8,4.503-50.147,15.751-50.147,15.751S770.578,543.058,753.873,513.081z"/>
		</g>
	</g>
	<path fill="#ABADAF" d="M771.591,686.505c1.247,0,7.055-20.973,7.055-20.973s9.951,19.684,8.285,27.384
		C779.474,689.92,771.591,686.505,771.591,686.505z"/>
	<path fill="#ABADAF" d="M807.686,688.631c0,0,2.896-23.5,2.896-27.785c9.122,8.971,11.198,30.363,10.377,35.067
		C814.734,690.773,807.686,688.631,807.686,688.631z"/>
	<g>
		<g>
			<path fill="#AAA9B1" d="M191.426,356.762l-24.354-19.416l-7.792,10.412l-4.971-3.951l20.889-27.919l4.954,3.95l-7.767,10.412
				l24.354,19.416L191.426,356.762z"/>
			<path fill="#AAA9B1" d="M844.803,325.411c2.67-2.761,5.373-4.586,8.11-5.506c2.026-0.67,4.176-0.938,6.445-0.804
				c2.251,0.151,4.352,0.686,6.285,1.624c2.594,1.238,5.13,3.13,7.608,5.69c4.494,4.62,6.896,9.558,7.197,14.797
				c0.302,5.239-1.674,10.077-5.942,14.478c-4.235,4.369-8.872,6.411-13.943,6.127c-5.055-0.285-9.826-2.712-14.311-7.314
				c-4.527-4.671-6.947-9.608-7.248-14.813C838.702,334.483,840.635,329.713,844.803,325.411z M851.323,331.755
				c-2.963,3.063-4.402,6.21-4.336,9.424c0.051,3.214,1.306,6.092,3.767,8.62c2.443,2.528,5.223,3.8,8.319,3.867
				c3.088,0.033,6.159-1.489,9.197-4.636c3.005-3.096,4.469-6.21,4.411-9.306c-0.059-3.113-1.356-5.96-3.884-8.57
				c-2.544-2.611-5.339-3.951-8.377-4C857.382,327.102,854.335,328.625,851.323,331.755z"/>
			<path fill="#AAA9B1" d="M377.831,219.408l-7.666-37.41l17.91-3.9c4.503-0.988,7.842-1.356,10.026-1.122
				c2.176,0.218,4.051,1.071,5.641,2.511c1.573,1.456,2.578,3.281,3.038,5.507c0.578,2.795,0.126,5.306-1.364,7.548
				c-1.489,2.226-4.017,3.984-7.632,5.273c2.042,0.552,3.774,1.272,5.205,2.143c1.423,0.887,3.465,2.561,6.085,5.021l6.645,6.176
				l-10.168,2.209l-7.825-6.779c-2.778-2.444-4.662-3.95-5.616-4.536c-0.954-0.586-1.909-0.92-2.879-1.004
				c-0.955-0.083-2.411,0.084-4.36,0.519l-1.733,0.368l3.214,15.617L377.831,219.408z M381.915,195.974l6.294-1.372
				c4.084-0.904,6.612-1.607,7.549-2.126c0.962-0.536,1.64-1.222,2.076-2.109c0.41-0.87,0.502-1.874,0.276-2.996
				c-0.26-1.256-0.845-2.192-1.758-2.796c-0.92-0.602-2.092-0.87-3.507-0.77c-0.703,0.067-2.778,0.469-6.243,1.222l-6.628,1.439
				L381.915,195.974z"/>
			<path fill="#AAA9B1" d="M254.738,265.555c-1.925-3.348-2.98-6.495-3.18-9.458c-0.109-2.209,0.176-4.402,0.862-6.628
				c0.695-2.226,1.716-4.201,3.088-5.908c1.808-2.31,4.235-4.369,7.249-6.227c5.457-3.365,10.704-4.553,15.716-3.582
				c5.022,0.971,9.072,4.134,12.169,9.474c3.054,5.306,3.816,10.461,2.292,15.449c-1.523,5.005-5.004,9.172-10.444,12.537
				c-5.523,3.381-10.779,4.603-15.751,3.632C261.759,273.857,257.768,270.777,254.738,265.555z M262.329,260.584
				c2.151,3.716,4.746,5.925,7.809,6.645c3.038,0.72,6.043,0.167,9.039-1.674c2.988-1.825,4.887-4.302,5.708-7.382
				c0.82-3.079,0.117-6.528-2.084-10.327c-2.176-3.749-4.728-5.993-7.657-6.696c-2.929-0.703-5.951-0.1-9.039,1.807
				c-3.08,1.891-5.03,4.353-5.842,7.398C259.458,253.386,260.145,256.801,262.329,260.584z"/>
			<path fill="#AAA9B1" d="M618.862,207.256l10.503-36.674l8.126,2.478l9.876,29.626l7.021-24.488l7.741,2.376l-10.495,36.657
				l-8.369-2.544l-9.808-28.973l-6.846,23.902L618.862,207.256z"/>
			<path fill="#AAA9B1" d="M744.081,262.96l16.797-26.63l-10.721-7.181l3.423-5.423l28.697,19.232l-3.414,5.424l-10.704-7.181
				l-16.78,26.647L744.081,262.96z"/>
			<path fill="#AAA9B1" d="M492.773,180.725c0-3.9,0.661-7.164,1.975-9.808c0.979-1.958,2.31-3.699,4-5.256
				c1.699-1.54,3.557-2.678,5.574-3.431c2.686-1.004,5.774-1.523,9.281-1.523c6.344,0,11.424,1.758,15.231,5.256
				c3.808,3.481,5.716,8.335,5.716,14.578c0,6.16-1.891,10.981-5.674,14.479c-3.766,3.481-8.838,5.223-15.157,5.223
				c-6.402,0-11.491-1.724-15.273-5.206C494.664,191.572,492.773,186.802,492.773,180.725z M501.745,180.458
				c0,4.318,1.121,7.615,3.364,9.842c2.26,2.243,5.122,3.347,8.587,3.347s6.31-1.105,8.537-3.33c2.209-2.209,3.331-5.54,3.331-9.976
				c0-4.369-1.088-7.632-3.247-9.792c-2.16-2.159-5.038-3.23-8.621-3.23c-3.59,0-6.478,1.088-8.67,3.263
				C502.832,172.758,501.745,176.056,501.745,180.458z"/>
		</g>
	</g>
	<path fill="#211B17" d="M604.718,474.449c0,0-5.942-19.6-11.884-15.919c-5.942,3.666-2.98,8.57,0.594,11.03
		C596.986,472.005,604.718,474.449,604.718,474.449z"/>
</g>
</svg>
