<?xml version="1.0" encoding="utf-8"?>
<!-- Designed by Vexels.com - 2016 All Rights Reserved - https://vexels.com/terms-and-conditions/  -->

<svg version="1.1" id="Layer_1" xmlns="http://www.w3.org/2000/svg" xmlns:xlink="http://www.w3.org/1999/xlink" x="0px" y="0px"
	 width="1200px" height="1200px" viewBox="0 0 1200 1200" enable-background="new 0 0 1200 1200" xml:space="preserve">
<g>
	<path fill="#1C497B" d="M1150,599.991c0-219.436-246.246-397.309-550.005-397.309C296.242,202.682,50,380.555,50,599.991
		c0,219.437,246.242,397.327,549.995,397.327C903.754,997.318,1150,819.428,1150,599.991z"/>
	<path fill="#A9ABAF" d="M410.811,343.085c1.172-0.909-21.179-56.651-25.615-93.605c-4.423-36.944,15.275-49.75,42.861-29.061
		c23.154,17.237,79.81,47.779,79.81,47.779l-10.843-31.032c0,0,37.452,8.864,55.184,20.198c-2.465-14.776-0.99-20.198-1.966-20.198
		c-0.99,0,35.959,22.168,41.866,27.589c-3.446-18.227-8.864-33.992-8.864-33.992s36.949,27.581,49.268,41.875
		c7.875-20.697,37.926-30.051,37.926-30.051s0.985,32.513,3.451,38.415c11.334-3.941,62.082-33.493,85.727-50.739
		c23.648-17.246,42.86-29.552,53.201-18.726c10.352,10.843,16.742,40.895-18.227,135.98c29.561,12.814,47.296,66.015,47.296,66.015
		l-22.663-8.864c0,0,21.678,35.954,21.179,64.535c-11.326-6.403-26.6-13.796-26.6-13.796s24.633,37.453,24.139,48.279
		c9.359-20.689,9.359-20.689,9.359-20.689l40.894,79.81l53.205-98.037l90.153,165.042l-12.314,8.864l40.4,68.966
		c0,0-9.854,6.902-16.75,7.883c8.377,15.267,8.377,19.707,9.854,18.727c1.467-0.99,43.837,7.384,61.578,42.366
		c-16.756,36.944-24.143,53.708-24.143,53.708s35.472,37.917,20.697,95.068c-14.781,57.151-77.835,60.102-106.906,43.355
		c-21.678-1.48-776.909-1.961-776.909-1.961l3.442,9.844l-136.457-0.99c0,0,18.232-59.603,20.202-60.102
		c1.971-0.49-0.49-60.584-0.49-60.584l-20.692,10.335l-18.227-132.52h63.059l8.859-17.245c0,0-13.296-5.903-16.252-10.336
		c15.271-24.638,40.39-69.956,40.39-69.956l-12.31-5.921l92.611-162.081l51.238,93.604l40.89-75.859l9.359,13.786
		c0,0,6.898-28.571,19.707-44.827c-17.736,2.96-34.487,11.334-34.487,11.334s15.77-40.895,35.477-59.122
		c-18.73,1.48-18.73,1.48-18.73,1.48S371.9,373.617,410.811,343.085z"/>
	<path fill="#1A1413" d="M420.277,347.454c0,0-19.172-50.293-25.352-91.625c-2.764-25.994-0.209-34.108,6.398-37.711
		c6.598-3.621,20.884,5.324,34.938,15.338c14.067,10.014,55.826,36.231,81.82,47.297c1.708-10.656-8.307-32.601-8.307-32.601
		s30.898,7.891,51.141,23.238c-1.708-16.622-2.773-18.547-2.773-18.547s26.854,15.552,40.913,26.635
		c1.708-15.98-2.979-30.684-2.979-30.684s25.142,20.456,35.794,37.078c7.455-9.8,20.889-27.286,29.628-29.409
		c0.205,16.836,6.385,33.244,6.385,33.244s28.976-6.608,71.168-36.222c31.955-21.741,49.433-33.886,55.408-37.292
		c5.961-3.407,11.923-3.834,14.696,0.428c2.778,4.262,12.359,23.648-0.428,65.203c-12.783,41.546-23.225,67.967-23.225,67.967
		s25.143,16.836,39.205,48.59c-8.307-2.559-28.976-6.821-28.976-6.821s32.815,25.77,34.733,63.919
		c-11.084-7.241-35.798-11.717-35.798-11.717s40.707,45.603,37.93,81.611c7.027-12.993,13.853-24.291,13.853-24.291l41.768,76.074
		l53.048-94.39c0,0,76.921,143.818,77.554,144.461c0.646,0.642-7.66,4.048-11.708,5.324c7.878,14.276,42.188,70.107,42.188,70.107
		s-2.769,4.049-17.05,6.394c4.477,13.429,14.067,30.684,14.067,30.684s38.573,2.979,59.242,37.292
		c-15.346,32.816-25.36,55.617-25.36,55.617s33.453,29.82,24.081,78.838c-9.372,49.01-45.817,67.959-100.359,48.582
		c-43.681-0.437-787.552-0.437-787.552-0.437l2.983,8.961l-113.571-1.069l17.893-53.487l-0.638-73.942l-21.308,12.146
		l-17.469-112.09h58.382l16.622-29.605c0,0-11.722-2.979-16.622-7.027c10.446-19.395,41.122-71.597,41.122-71.597
		s-10.433-0.642-12.997-4.904c11.507-22.793,79.274-144.246,79.274-144.246l51.56,94.39l41.122-75.441l14.49,23.444
		c0,0,2.569-52.415,34.31-81.611c-9.801-1.07-35.803,5.119-38.992,7.455c7.027-16.407,26.628-39.628,44.962-54.333
		c-15.984,0-23.239,0.428-26.636,1.276C375.534,387.724,390.453,366.626,420.277,347.454z"/>
	<g>
		<path fill="#1C497B" d="M662.559,313.532c0,0,29.061-7.882,44.332-17.245c15.275-9.363,66.018-42.366,76.367-50.74
			c10.34-8.382,15.766-6.402,11.326,9.354c-4.432,15.757-24.13,79.311-36.459,95.085c0,0,22.173,10.344,33.997,27.091l-33.997,2.462
			c0,0,38.429,31.049,48.278,49.268c0,0-35.464-2.952-49.754-0.99c0,0,67.009,52.719,59.122,114.301
			c0,0-4.927-70.446-83.256-120.704c0,0,30.537-6.893,52.22-4.923c0,0-34.493-35.472-52.22-40.895c0,0,23.649-6.403,40.895-5.903
			c0,0-20.211-15.266-27.603-16.265c0,0,35.472-62.564,39.905-100.498c0,0-42.852,33.012-51.234,45.318l7.396,12.814
			c0,0-32.013,7.393-45.817,7.883l17.237,20.198C713.294,339.143,683.243,320.425,662.559,313.532z"/>
		<path fill="#A9ABAF" d="M577.814,285.443c0,0,21.187,13.804,22.173,23.158c0.99,9.354,0,38.924-2.96,50.748
			c-2.951,11.816-30.541,22.659-41.871,18.717c3.946,8.373,15.77,17.237,21.678,18.236c-12.315,6.403-45.322,1.961-45.322,1.961
			c12.314,13.796,33.008,24.63,41.884,26.6c8.859,1.971,21.669,24.639,4.918,28.081c14.781,12.324,15.276,33.993,15.276,33.993
			s-18.722-18.227-36.958-0.981c34.492,5.902,36.958,28.571,37.444,49.259c-5.418-2.952-22.164-8.364-29.556,3.941
			c-3.942,5.922-9.363-27.091-9.363-27.091s12.809-0.49,20.207,3.942c-6.407-14.785-24.149-25.129-39.419-1.98
			c-15.271,23.158-4.927,42.874,2.465,61.582c7.393,18.727,22.658,43.356,22.168,75.387c0,26.101,4.932,35.955,33.012,37.934
			c21.187-0.499,33.988-12.324,33.988-24.639c0-12.314-0.495-58.132,17.242-78.338c0,0-7.91,8.757-7.628,45.96
			c-0.563,39.165-9.015,71.018-42.83,70.732c-23.399-0.856-37.773-9.577-41.439-44.524c-3.66-34.946-16.897-64.258-24.233-72.435
			c-3.37,9.595,1.98,20.296,5.079,29.035c3.103,8.739,4.788,18.316,4.499,28.179c-6.474-6.76-12.672-7.321-11.548-7.045
			c1.128,0.285,9.301,49.036,15.222,59.745c-19.163,0-49.036,0-49.036,0s-18.887-34.385-18.887-33.537
			c0,0.847,7.326-1.124,11.272-3.942c-5.07-10.157-26.494-46.503-25.357-46.218c1.129,0.277,3.942,0,7.331-1.98
			c-9.029-15.498-49.322-88.486-49.322-88.486s-34.108,61.717-32.967,60.86c1.119-0.838-14.656-25.36-13.822-25.914
			c0.856-0.571,4.231-84.268,58.908-129.639c-9.02-3.379-38.336-3.379-37.484-3.104c0.847,0.286,23.676-30.71,50.445-38.612
			c-14.651-4.512-34.385-2.532-34.385-2.532s10.995-26.77,62.001-34.386c-0.552-2.817-6.759-5.35-8.177-5.635
			c-1.4-0.277-9.577-3.104,0.843-6.189c10.438-3.103,24.527-7.615,29.035-9.309c4.507-1.695,9.011-2.256-0.558-6.483
			c-9.591-4.218-24.518-9.3-27.906-10.138c-3.379-0.847-9.011-1.98-1.69-7.045c7.331-5.065,8.454-5.636,1.119-9.863
			c-7.317-4.227-17.746-11.842-19.725-14.089c-1.966-2.265-5.35-5.922-5.907,5.064c-0.567,10.987,2.537,52.131,3.941,58.623
			c-6.202,1.409-6.202,1.409-6.202,1.409s-22.833-60.317-25.36-96.387c-1.133-7.321,2.818-10.139,7.325-6.197
			c4.508,3.941,69.612,52.701,118.925,62.849c-0.846-18.316-0.846-27.626-0.846-27.626s21.709,8.454,35.522,33.547
			C575.482,298.516,577.814,285.443,577.814,285.443z"/>
		<path fill="#A9ABAF" d="M623.872,439.284c0,0,10.276-36.159,20.099-47.163c2.341,8.043,3.874,10.656,3.874,10.656
			s11.892-10.647,21.428-13.581c-2.902,8.106-3.642,9.425-3.642,9.425s9.738-1.989,14.299,2.274
			C666.657,405.184,633.582,418.525,623.872,439.284z"/>
		<path fill="#FEC902" d="M648.92,447.773l4.508-4.682c0,0,6.754,4.504,11.454,0.741c4.686-3.737,2.813-7.687,2.813-7.687
			s6.006-3.192,6.759-3.755c0.741-0.562,2.247,13.332-6.942,18.958C658.31,456.976,651.368,450.6,648.92,447.773z"/>
		<path fill="#E94953" d="M594.07,623.996c0,0-2.029-20.813-14.687-19.591c-12.654,1.222-6.737,30.212-0.615,38.372
			c6.122,8.159,23.925,15.801,33.052-2.247c8.373-16.533,6.742-37.15-4.075-37.15C596.933,603.38,594.07,623.996,594.07,623.996z"/>
		<g>
			<path fill="#FFFFFF" d="M562.855,573.801c0,0-8.774,14.472,0.606,28.365c0.21-0.606,1.632-2.657,1.436-5.724
				c-0.205-3.05,0.401-13.661,7.958-16.319C573.061,574.006,566.324,572.776,562.855,573.801z"/>
			<path fill="#FFFFFF" d="M574.898,579.713c0,0,0,8.364,2.849,10.826c3.674-3.683,4.9-5.315,4.9-5.315l5.921,6.938l4.477-5.511
				l5.314,5.724l5.515-6.741l4.686,4.69c0,0,3.259-4.493,3.469-7.954c0.201-3.468-5.306-3.887-8.984,0
				c-3.059-2.657-8.766-0.811-9.581,0.411c-2.653-2.854-9.394,0.41-9.394,0.41S580.191,579.107,574.898,579.713z"/>
			<path fill="#FFFFFF" d="M614.486,579.928c0,0,1.423-6.537,6.728-7.563c4.695,1.837,10.817,18.78,1.226,30.204
				c0.406-6.528-0.615-14.901-2.247-17.345C618.561,582.781,614.486,579.928,614.486,579.928z"/>
			<path fill="#FFFFFF" d="M569.387,649.714c0,0,0.606,9.382,4.694,11.414c4.08,2.052,5.092,6.126,3.059,10.005
				c-2.042,3.888-7.147,5.101-9.6-1.632C565.093,662.76,567.345,653.584,569.387,649.714z"/>
			<path fill="#FFFFFF" d="M618.41,649.714c0,0-0.58,9.382-4.463,11.414c-3.892,2.052-4.864,6.126-2.911,10.005
				c1.94,3.888,6.795,5.101,9.122-1.632C622.489,662.76,620.354,653.584,618.41,649.714z"/>
			<path fill="#FFFFFF" d="M580.81,667.254c-0.111-0.722-1.983,16.524,7.143,13.189c0,0,2.826,2.39,5.345-0.187
				c2.087,1.828,5.23,1.765,6.354-0.509c1.958,2.14,5.11,2.015,6.492-1.57c1.386-3.584,0.753-7.419-0.063-10.451
				c-0.566,3.781-3.718,7.49-5.475,8.498c-1.516-2.64-2.956-6.225-2.956-6.225l-4.098,6.661l-2.702-6.171l-3.272,5.484
				C587.579,675.975,582.041,674.843,580.81,667.254z"/>
		</g>
		<g>
			<path fill="#009A47" d="M248.726,522.955l-50.004,93.052l16.091,3.033l-45.656,78.275h14.353l-23.056,43.927h60.013
				l13.907-44.792h53.923l-24.349-76.965c0,0,9.127-1.73,14.352-2.176C271.773,594.695,248.726,522.955,248.726,522.955z"/>
			<path fill="#009A47" d="M309.172,594.695l33.921-61.297l20.867,70.874c0,0-6.96-1.311-10.865,1.739
				c6.955,23.043,20.866,59.559,20.866,59.559h-16.087l6.951,30.444c0,0-15.003,1.516-13.474,0
				c1.52-1.525-35.656-64.357-35.656-64.357s6.528-1.739,10.001-5.217C319.168,610.353,309.172,594.695,309.172,594.695z"/>
			<path fill="#009A47" d="M394.399,593.402l23.042-47.405l18.7,57.401c0,0-10.005,1.739-8.699,1.739
				c1.302,0,17.398,48.261,17.398,48.261l-11.744,0.436l6.96,41.305H421.36c0,0-13.05-20.421-11.311-20.421
				c1.743,0,9.559-0.446,13.915-4.798c-7.829-17.389-30.435-54.359-30.435-54.359s6.522-0.865,7.396-3.032
				C401.792,610.353,394.399,593.402,394.399,593.402z"/>
		</g>
		<g>
			<polygon fill="#009A47" points="770.276,545.257 740.278,602.167 749.101,602.604 721.307,651.569 734.54,652.46 
				711.163,695.691 759.249,695.691 764.537,651.569 776.455,648.484 770.717,601.721 779.54,601.721 			"/>
			<path fill="#009A47" d="M847.918,532.915c0,1.311-38.389,69.689-38.389,69.689l11.04,1.329l-32.646,56.464
				c0,0,7.058,2.212,12.783,3.085c-10.58,22.061-17.647,30.88-15.873,31.326c1.761,0.437,54.698,0,54.698,0l4.414-30.006
				c0,0,7.058,1.774,15.004-1.757c-2.657-25.584-8.828-59.559-8.828-59.559l11.918-2.193L847.918,532.915z"/>
			<path fill="#009A47" d="M941.006,524.97c0,0-50.73,89.11-49.415,89.548c1.324,0.437,15.004,2.648,15.004,2.648l-41.916,77.197
				h72.792l25.142,66.175l20.292-0.883c0,0,10.152-14.562,19.413-18.094c-13.68-30.435-20.733-46.753-20.733-46.753l11.914-3.968
				l-31.318-71.482l11.904-2.631L941.006,524.97z"/>
		</g>
		<path fill="#FFFFFF" d="M489.042,405.559c0,0-24.844,41.492,6.964,64.365c-23.854,11.164-49.696,39.504-38.763,78.767
			c6.211-10.443,20.131-16.649,20.131-16.649s-6.711,28.571,0,45.71c7.7-7.196,8.944-8.445,8.944-8.445s7.459,24.602,13.666,34.037
			c6.211,9.444,12.676,46.477,14.41,59.398c1.739,12.921,4.227,26.832,10.438,33.538c9.688-0.25,17.108-0.678,17.108-0.678
			s-10.402-38.834-14.375-59.21c7.7,3.727,10.183,5.724,10.183,5.724s1.485-12.43-4.467-28.82
			c-5.962-16.408-4.593-27.608-4.593-27.608s19.503,29.837,23.974,73.568c2.974,36.026,21.861,42.25,40.743,43.739
			c7.459-5.466,4.977-13.92-2.973-14.669c-7.946-0.741-29.316,0-29.565-30.801c-0.255-30.818-8.704-54.422-18.896-76.297
			c-5.712-15.4-12.921-31.799-11.419-48.456c1.48-16.64,14.152-30.069,25.334-30.069c11.191,0,17.817,7.224,19.476,13.305
			c2.149-9.31-2.328-26.217-17.487-30.444c2.738-3.727,8.208-8.204,16.889-6.715c-2.475-7.936-7.441-13.42-7.441-13.42l-46.718-30.8
			L489.042,405.559z"/>
		<path fill="#FFFFFF" d="M555.637,510.658c0,0,12.925-0.481,19.636,21.384c-10.183,2.979-19.636,14.901-3.478,33.538
			c1.489,1.989-0.249,2.969-2.238,2.479c-1.984-0.49-22.61-8.695-22.864-38.514C546.946,513.404,552.921,511.318,555.637,510.658z"
			/>
		<g>
			<g>
				<path fill="#A9ABAF" d="M316.359,742.721l-12.676-26.823c0,0-10.242,46.014-10.063,46.575l10.063-0.187l2.801-20.867
					l8.573,20.867l11.169-19.565l3.169,20.126h9.497l-10.433-46.95L316.359,742.721z"/>
				<rect x="377.647" y="715.524" fill="#A9ABAF" width="9.501" height="46.583"/>
				<path fill="#A9ABAF" d="M455.63,740.349c-1.401-1.908-25.638-24.264-25.638-24.264v46.566
					c0.317-0.009,10.064-0.178,10.064-0.178v-24.772l25.521,25.325v-47.681h-9.871C455.705,715.345,455.197,738.441,455.63,740.349z
					"/>
				<path fill="#A9ABAF" d="M429.992,762.651L429.992,762.651L429.992,762.651z"/>
				<path fill="#A9ABAF" d="M533.509,740.349c-1.414-1.908-25.646-24.264-25.646-24.264v46.566
					c0.32-0.009,10.063-0.178,10.063-0.178v-24.772l25.521,25.325v-47.681h-9.88C533.566,715.345,533.062,738.441,533.509,740.349z"
					/>
				<path fill="#A9ABAF" d="M507.862,762.651L507.862,762.651C507.853,762.651,507.853,762.651,507.862,762.651z"/>
				<path fill="#A9ABAF" d="M594.293,743.657c0.41,0,11.557,0,11.557,0v-8.944h-11.178v-8.944h14.531l-2.234-8.935h-20.68
					l-0.178,45.639h21.976l2.604-9.122h-16.399C594.293,753.351,594.854,743.657,594.293,743.657z"/>
				<path fill="#A9ABAF" d="M670.924,735.641c-3.594-1.471-7.473-2.854-7.473-2.854s-4.146-1.757-2.399-5.537
					c1.748-3.79,4.985-2.123,6.095-1.57c1.101,0.562,4.089,2.149,4.089,2.149l5.033-7.268c0,0-6.148-5.599-16.028-4.289
					c0,0-8.414,2.212-9.796,10.612c-1.386,8.4,2.029,12.458,5.818,14.196c3.777,1.757,8.392,3.789,8.392,3.789
					s4.521,2.301,2.572,5.725c-1.926,3.415-5.613,3.13-12.078-1.115c-4.063,5.083-5.543,8.4-5.543,8.4s4.811,5.44,14.121,5.44
					c9.314,0,14.21-7.286,14.397-14.393C678.303,741.821,674.521,737.112,670.924,735.641z"/>
				<path fill="#A9ABAF" d="M738.904,715.283c-11.173,0-20.242,10.834-20.242,24.192s9.069,24.166,20.242,24.166
					c11.187,0,20.242-10.808,20.242-24.166S750.091,715.283,738.904,715.283z M738.904,753.529c-6.496,0-11.775-6.296-11.775-14.054
					c0-7.767,5.279-14.062,11.775-14.062c6.505,0,11.767,6.295,11.767,14.062C750.671,747.233,745.41,753.529,738.904,753.529z"/>
				<path fill="#A9ABAF" d="M795.989,726.251l0.005-0.009C795.98,726.251,795.98,726.251,795.989,726.251z"/>
				<path fill="#A9ABAF" d="M795.993,726.242c0.401-0.089,10.83,0.303,10.83,0.303v36.061h8.698v-36.355h9.266v-9.266h-25.94
					L795.993,726.242z"/>
				<path fill="#A9ABAF" d="M880.092,715.568l-20.527,46.602h9.697l3.986-8.819h14.687l4.272,8.409h9.56L880.092,715.568z
					 M875.535,745.218l4.985-10.548l4.847,10.254L875.535,745.218z"/>
			</g>
		</g>
		<g>
			<path fill="#1C497B" d="M587.36,865.539c0.54-0.499,1.11-1.061,1.712-1.695c5.543-5.743,14.741-18.673,13.943-40.502
				c-0.909-24.95-16.181-38.683-42.977-38.683c-15.618,0-37.555,0.017-37.555,0.017c-1.448,0-2.813,0.499-3.915,1.382
				c-1.177-1.106-2.724-1.739-4.351-1.739H442.94c-2.171,0-4.196,1.123-5.355,2.951c-1.151,1.845-1.293,4.156-0.343,6.108
				l7.531,15.686c0,2.238,0.009,6.947,0.036,13.198c-2.751-17.318-16.096-37.042-45.857-39.28c-0.102,0-0.196-0.009-0.289-0.009
				c-4.672-0.142-9.127-0.196-13.26-0.196c-15.4,0-21.829,0.892-22.092,0.928c-1.944,0.276-3.642,1.435-4.615,3.148
				c-0.962,1.703-1.088,3.754-0.325,5.565l6.652,15.864l2.434,113.232l-0.651-0.803l-17.749-117.369l5.44-10.014
				c1.056-1.971,1.016-4.334-0.125-6.251c-1.146-1.917-3.211-3.095-5.435-3.095h-30.207c-3.059,0-5.685,2.185-6.228,5.199
				l-7.393,40.529l-6.617-40.093c-0.499-3.058-3.148-5.296-6.238-5.296h-31.907c-2.412,0-4.61,1.355-5.671,3.531
				c-1.07,2.149-0.815,4.717,0.638,6.643l7.2,9.408L244.9,920.621l-0.268,0.268l-2.055-4.895l0.331-113.232l4.694-8.793
				c1.044-1.971,0.985-4.334-0.161-6.233c-1.145-1.908-3.201-3.076-5.43-3.076h-34.956c-0.178,0-0.362,0.017-0.54,0.044
				l1.712-12.537c0.249-1.819-0.294-3.638-1.498-5.03c-1.199-1.382-2.942-2.167-4.761-2.167h-83.498
				c-1.814,0-3.549,0.785-4.753,2.158c-1.195,1.365-1.752,3.175-1.525,4.985L116.269,804c0.294,2.318,1.837,4.29,4.031,5.119
				c2.171,0.82,4.637,0.392,6.407-1.141l13.719-11.94l1.276,0.044l0.642,123.139l-7.767,21.687c-0.7,1.944-0.402,4.093,0.78,5.778
				c1.182,1.667,3.121,2.685,5.172,2.685h38.024c0.005,0,0.009,0,0.009,0c3.495,0,6.323-2.836,6.323-6.332
				c0-0.829-0.161-1.65-0.459-2.38l-6.323-19.619l1.275-124.173l14.17,11.566c1.779,1.462,4.196,1.837,6.327,0.999
				c2.127-0.838,3.633-2.765,3.946-5.02l0.736-5.351l2.973,4.895l0.331,109.933l-6.149,19.065c-0.615,1.926-0.28,4.04,0.906,5.671
				c1.194,1.623,3.098,2.595,5.118,2.595h65.511c3.251,0,5.975-2.462,6.291-5.69l4.619-46.334l14.184,55.082
				c0.718,2.773,3.205,4.735,6.072,4.753c0.023,0,0.031,0,0.054,0c2.84,0,5.341-1.899,6.103-4.654l15.949-57.9
				c2.305,21.758,4.419,42.562,4.592,46.592c-0.236,1.89,0.393,3.808,1.704,5.181c0.022,0.026,0.044,0.036,0.053,0.045h0.005v0.008
				c0.018,0.018,0.026,0.036,0.045,0.045c1.186,1.186,2.8,1.873,4.485,1.873l0,0c0.651,0,1.279-0.116,1.873-0.294
				c0.772-0.045,2.452-0.099,6.019-0.099c9.265,0,23.688,0.366,23.835,0.366c0.897,0.036,1.766-0.125,2.555-0.447
				c0.665,0.259,1.382,0.437,2.127,0.447c0.499,0.026,12.146,0.455,19.569,0.455c2.158,0,3.745-0.045,4.841-0.116
				c0.29-0.027,0.66-0.036,1.115-0.045c30.404-0.9,41.796-18.753,45.741-35.642c0.005,4.806,0.026,8.248,0.026,9.657
				c-0.659,2.247-3.326,10.067-5.747,16.925c-0.691,1.953-0.388,4.111,0.816,5.787c1.186,1.667,3.098,2.657,5.149,2.657
				c0.023,0,0.036,0,0.058,0l70.933-0.677c1.792-0.026,3.401-0.784,4.547-1.998c1.182,1.454,2.979,2.328,4.895,2.328h35.295
				c0.013,0,0.017,0,0.017,0c3.495,0,6.323-2.835,6.323-6.331c0-1.498-0.517-2.881-1.391-3.959
				c-1.543-2.212-3.095-4.664-3.893-6.091c0.209-1.855,0.237-4.369,0.272-7.865c0.045-4.236,0.026-10.068-0.045-17.353
				c0-0.411-0.009-0.812-0.018-1.213c3.928,7.695,8.414,16.826,12.605,25.637l-3.206,9.077c-0.682,1.935-0.379,4.094,0.807,5.769
				c1.182,1.668,3.112,2.675,5.164,2.675h34.278c2.171,0,4.187-1.115,5.345-2.951c1.164-1.828,1.298-4.138,0.374-6.091
				C607.7,909.751,592.344,876.953,587.36,865.539z M562.137,842.63l0.843-25.744c2.269,0.365,3.812,1.052,4.829,2.113
				c1.814,1.918,2.617,5.841,2.306,11.325C569.731,837.217,565.869,840.776,562.137,842.63z M403.106,876.534
				c7.781,1.908,11.445,7.419,11.445,16.951c0,6.251-2.144,10.3-6.75,12.725c-1.543,0.812-3.18,1.347-4.695,1.694V876.534z
				 M403.191,841.917c0.076-9.034,0.214-19.359,0.348-25.771c7.285,2.158,7.285,9.747,7.285,12.511
				c0,6.055-1.881,10.095-5.747,12.351C404.461,841.364,403.815,841.667,403.191,841.917z M431.807,859.752
				c6.536-7.214,11.578-17.683,13.032-27.02c0.049,14.312,0.107,32.433,0.152,48.055
				C442.262,870.657,436.408,863.988,431.807,859.752z M522.736,925.472l0.521-24.041c0.054-2.337-1.203-4.53-3.254-5.663
				c-2.047-1.141-4.557-1.061-6.523,0.223l-19.809,12.895h-13.211l-0.241-37.043l13.408,5.146c2.956,1.141,6.3-0.09,7.825-2.88
				l12.212-22.392c1.088-1.989,1.025-4.405-0.161-6.34c-1.185-1.935-3.316-3.104-5.591-3.014l-26.738,0.812v-27.537h16.498
				l8.422,7.027c1.761,1.454,4.165,1.873,6.301,1.052c2.136-0.82,3.664-2.711,4.008-4.985l2.992-19.913l5.149,10.033l1.65,110.227
				L522.736,925.472z"/>
			<path fill="#1C497B" d="M1066.281,860.268c-9.738-11.36-18.624-20.331-25.111-26.885c-4.731-4.779-9.618-9.728-10.536-11.459
				c-1.672-3.192-4.41-13.849-2.1-20.082c0.74-1.997,1.85-3.201,3.598-3.888c1.641-0.651,3.126-0.981,4.419-0.981
				c4.592,0,6.228,4.682,6.228,4.682c0.566,1.971,4.606,15.721,4.771,16.309c0.704,2.363,2.693,4.094,5.132,4.468
				c2.421,0.365,4.847-0.696,6.207-2.747c0.317-0.446,0.816-1.222,15.307-31.621c1.092-2.283,0.704-5.002-0.968-6.92
				c-0.628-0.696-15.636-17.415-37.226-17.415c-4.445,0-8.89,0.731-13.224,2.149c-12.84,4.227-22.81,14.419-27.358,27.903
				c-5.025,14.91-2.715,31.54,6.185,44.489c7.566,10.986,16.175,21.089,23.778,30.016c7.272,8.551,14.147,16.613,15.962,20.955
				c3.571,8.578,5.984,19.645-2.782,23.693c-0.392,0.134-2.679,0.919-5.395,0.919c-2.181,0-4.009-0.473-5.537-1.445
				c-4.682-13.884-6.858-18.566-6.956-18.753c-1.043-2.221-3.259-3.638-5.711-3.647c0,0-0.009,0-0.014,0
				c-2.439,0-4.66,1.417-5.712,3.611l-12.203,25.583l0.379-17.771c0.048-2.337-1.2-4.53-3.246-5.663
				c-2.051-1.141-4.566-1.061-6.532,0.223l-19.806,12.895h-13.224l-0.237-37.043l13.407,5.146c2.96,1.141,6.309-0.09,7.82-2.88
				l12.217-22.392c1.092-1.989,1.03-4.405-0.161-6.34c-1.186-1.935-3.317-3.104-5.582-3.014l-26.743,0.812v-27.537h16.497
				l8.427,7.027c1.757,1.454,4.168,1.873,6.295,1.052c2.14-0.82,3.674-2.711,4.009-4.985l4.075-27.135
				c0.272-1.836-0.263-3.683-1.471-5.082c-1.2-1.383-2.938-2.193-4.785-2.193h-61.899c-0.575-0.161-1.168-0.259-1.779-0.259h-33.079
				c-3.089,0-5.729,2.239-6.233,5.297l-7.437,44.578l-8.129-45.505c-0.535-3.014-3.165-5.199-6.224-5.199h-32.513
				c-2.095,0-4.017,1.016-5.194,2.702c-1.182-1.686-3.107-2.702-5.181-2.702h-36.722c-2.421,0-4.628,1.382-5.684,3.549
				c-1.07,2.184-0.785,4.779,0.704,6.679l7.905,10.05v54.77c-1.774-23.595-7.95-42.045-8.083-42.384
				c-1.235-3.166-12.783-31.104-36.695-31.576l-0.405-0.009c-17.161,0-29.989,22.097-31.407,24.602
				c-0.048,0.099-0.089,0.187-0.133,0.277c-0.798,1.605-1.556,3.237-2.274,4.878l2.318-11.174l6.166-8.15
				c1.457-1.918,1.694-4.513,0.606-6.67c-1.079-2.14-3.26-3.478-5.654-3.478c-0.017,0-0.031,0-0.053,0l-30.649,0.286
				c-3.188,0.017-5.845,2.408-6.233,5.573l-5.854,49.01l-7.718-23.782c-0.852-2.657-3.362-4.405-6.157-4.369
				c-2.796,0.054-5.23,1.953-5.962,4.655l-6.456,23.747l-6.759-49.357c-0.419-3.13-3.068-5.458-6.211-5.475l-31.491-0.286
				c-0.014,0-0.031,0-0.054,0c-2.479,0-4.731,1.445-5.752,3.701c-1.047,2.274-0.651,4.94,1.008,6.813l7.308,8.284l28.067,139.217
				c0.566,2.765,2.898,4.833,5.716,5.048c2.835,0.24,5.44-1.463,6.425-4.111l14.388-39.032l13.901,40.316
				c0.883,2.56,3.295,4.272,5.975,4.272c0.134,0,0.277-0.027,0.419-0.027c2.832-0.178,5.204-2.238,5.783-5.02l16.881-81.486
				c-0.518,26.734,6.219,50.525,13.349,60.753c7.628,10.959,20.104,17.772,32.53,17.772l0,0c7.834,0,19.23-2.64,29.097-15.231
				c0.111-0.133,0.205-0.276,0.294-0.419c8.636-13.037,12.524-28.321,13.768-43.258v33.11l-6.554,16.23
				c-0.781,1.952-0.544,4.173,0.633,5.912c1.163,1.748,3.139,2.791,5.234,2.791h60.83c3.495,0,6.326-2.836,6.326-6.332v-33.359
				c0-2.372-1.315-4.53-3.429-5.609c-2.091-1.088-4.619-0.918-6.554,0.455l-19.368,13.689h-2.88v-105.75l4.801-10.067l7.705,10.78
				l36.142,139.029c0.722,2.773,3.223,4.708,6.1,4.717c0,0,0.013,0,0.026,0c2.849,0,5.364-1.908,6.103-4.663l36.481-134.909
				l0.41,0.856c0.04,12.11,0.303,96.771,0.334,105.438c-0.651,2.247-3.322,10.067-5.747,16.925
				c-0.687,1.953-0.379,4.111,0.821,5.787c1.185,1.667,3.112,2.657,5.145,2.657c0.023,0,0.04,0,0.058,0l70.937-0.677
				c3.424-0.036,6.189-2.773,6.27-6.197l0.017-0.731c3.928,4.004,17.536,16.274,36.552,16.274l0,0
				c6.073,0,12.133-1.275,18.027-3.772c13.371-5.662,22.752-17.424,26.44-33.118
				C1082.019,893.539,1077.511,873.368,1066.281,860.268z M748.469,899.014c-1.743,3.157-3.679,4.966-5.328,4.966
				c-1.846,0-4.757-2.193-6.768-6.357c-3.982-8.276-8.766-40.744-0.023-66.22c1.672-4.263,4.548-8.846,6.157-9.916
				c2.35,0.659,6.1,7.036,7.816,13.438C750.425,835.292,759.361,874.839,748.469,899.014z"/>
		</g>
		<g>
			<polygon fill="#FFFFFF" points="122.546,803.207 138.161,789.626 148.005,789.974 148.678,920.309 140.528,943.039 
				178.551,943.039 171.761,921.994 173.112,789.974 180.924,789.974 197.554,803.546 201.969,771.301 118.471,771.301 			"/>
			<path fill="#FFFFFF" d="M337.386,933.881c0.018,0.017,0.04-0.027,0.049-0.08C337.373,933.818,337.359,933.846,337.386,933.881z"
				/>
			<path fill="#FFFFFF" d="M342.474,802.2l6.46-11.896h-30.207l-13.924,76.368l-12.551-76.02h-31.907l8.824,11.548l-18.32,121.489
				l-8.499,8.15l-6.108-14.588l0.348-116.076l5.421-10.184h-34.956l6.79,11.21l0.335,112.669l-6.448,20.029h65.511l8.141-81.798
				l23.078,89.601l24.781-89.949c0,0,8.583,78.222,8.191,81.049c1.435-0.714,31.857,0.08,31.857,0.08l-8.485-10.523L342.474,802.2z"
				/>
			<path fill="#FFFFFF" d="M422.238,859.894c9.841-6.795,17.647-23.773,16.635-34.278c-1.016-10.522-8.833-33.948-40.395-36.329
				c-24.777-0.668-34.283,0.687-34.283,0.687l7.133,16.97l2.711,126.938c0,0,18.673,0.687,23.76,0.33
				c5.093-0.33,36.65,1.364,42.085-35.973C442.601,873.806,426.648,863.96,422.238,859.894z M397.461,809.316
				c0,0,19.69-2.372,19.69,19.341c0,21.732-20.376,20.715-20.376,20.715S397.123,810.332,397.461,809.316z M396.775,914.869v-45.478
				c0.348,0.347,24.099-1.695,24.099,24.094C420.874,916.233,396.775,914.869,396.775,914.869z"/>
			<path fill="#FFFFFF" d="M474.168,915.217l-0.348-52.621l22.07,8.489l12.221-22.391l-33.266,1.007v-40.386h25.125l10.18,8.48
				l4.066-27.145H442.94l8.141,16.96c0,0,0.343,106.58,0.343,107.605c0,1.008-6.104,18.326-6.104,18.326l70.933-0.678l0.677-31.567
				l-21.384,13.92H474.168z"/>
			<path fill="#FFFFFF" d="M948.323,915.217l-0.343-52.621l22.066,8.489l12.212-22.391L949,849.702v-40.386h25.116l10.183,8.48
				l4.075-27.145h-64.262l-3.901,1.703l-1.404,1.846l6.438,13.411c0,0,0.33,106.58,0.33,107.605c0,1.008-6.104,18.326-6.104,18.326
				l70.942-0.678l0.673-31.567l-21.379,13.92H948.323z"/>
			<path fill="#FFFFFF" d="M579.718,863.274c1.025,0,17.995-11.869,16.97-39.708c-1.016-27.822-21.045-32.575-36.65-32.575
				c-15.618,0-37.546,0.009-37.546,0.009l8.356,16.274l1.698,113.374l-6.791,12.547h35.295c0,0-6.443-9.167-5.43-9.836
				c1.021-0.687,0-50.231,0-50.231c3.058,0,26.14,48.867,26.14,48.867l-4.074,11.548h34.278
				C611.963,933.543,578.706,863.274,579.718,863.274z M576.423,830.672c-1.057,19.03-20.88,20.225-20.88,20.225l1.324-40.583
				C566.908,810.055,577.489,811.625,576.423,830.672z"/>
			<polygon fill="#FFFFFF" points="711.35,790.928 680.711,791.196 671.419,868.821 654.828,817.644 640.208,871.336 
				629.24,791.196 597.753,790.928 606.184,800.488 634.581,941.363 655.117,885.683 674.803,942.762 704.319,800.202 			"/>
			<path fill="#FFFFFF" d="M741.999,790.651c-14.059-0.294-26.146,21.357-26.146,21.357c-20.247,40.494-10.411,91.955,0.557,107.703
				c10.964,15.739,35.148,23.051,51.462,2.247c25.869-39.085,6.06-101.176,5.061-103.753
				C770.963,813.132,760.551,791.018,741.999,790.651z M754.135,901.851c-7.437,13.733-18.463,8.917-23.47-1.498
				c-4.994-10.398-9.484-44.382-0.255-71.134c0,0,5.512-14.294,11.923-14.115c8.463,0.249,13.216,14.865,14.112,18.2
				C756.904,835.015,765.938,876.025,754.135,901.851z"/>
			<polygon fill="#FFFFFF" points="814.827,915.404 814.827,801.878 820.707,789.546 783.986,789.546 793.233,801.317 
				793.233,916.519 786.224,933.899 847.054,933.899 847.054,900.539 826.031,915.404 			"/>
			<path fill="#FFFFFF" d="M924.112,790.651l0.584-0.258h-33.079l-13.451,80.719l-14.571-81.566c0,0-30.836,0-32.513,0l8.405,11.771
				l36.436,140.153l38.117-140.982l4.767-6.287l-1.712-3.549H924.112z"/>
			<path fill="#FFFFFF" d="M1061.479,864.389c-18.499-21.588-33.636-34.198-36.44-39.521c-2.805-5.324-8.69-27.474,4.766-32.789
				c13.452-5.333,18.504,5.876,19.061,7.838c0.563,1.961,4.762,16.256,4.762,16.256c0.562-0.838,14.861-30.818,14.861-30.818
				s-19.061-21.588-43.726-13.456c-24.67,8.124-33.355,40.351-17.942,62.787c15.414,22.418,36.16,42.045,40.365,52.131
				c4.199,10.086,7.562,25.779-6.171,31.95c0,0-10.933,4.476-18.78-2.533c-5.042-15.123-7.285-19.894-7.285-19.894l-14.575,30.56
				c0,0,20.742,23.818,48.492,12.048C1076.611,927.175,1079.973,885.978,1061.479,864.389z"/>
		</g>
		<path fill="#1A1413" d="M488.935,404.293c0,0,17.152,14.9,38.237,25.298c21.09,10.406,37.68,28.402,39.923,36.837
			c-10.683-4.494-11.807-5.903-14.611-6.465c-2.818-0.563-4.788-3.933-13.22,0.562c-8.44,4.504-24.183,0.285-32.334-6.742
			c-8.159-7.036-5.627-26.431-5.627-26.431S489.493,414.975,488.935,404.293z"/>
		<path fill="#FEC902" d="M510.858,431.99c0,0-2.662,13.055,7.192,19.859c7.732,3.995,15.855,0.919,18.392-4.272
			c-2.261-3.058-4.53-4.922-4.53-4.922s-6.528,5.189-10.919,1.194c-4.406-3.995-3.068-7.99-3.068-7.99L510.858,431.99z"/>
	</g>
</g>
</svg>
